<svg width="20" height="20" viewBox="0 0 20 20" fill="none" xmlns="http://www.w3.org/2000/svg">
<mask id="mask0_2802_18351" style="mask-type:alpha" maskUnits="userSpaceOnUse" x="0" y="0" width="20" height="20">
<rect width="20" height="20" fill="#D9D9D9"/>
</mask>
<g mask="url(#mask0_2802_18351)">
<path d="M6.02562 17.0833C5.61132 17.0833 5.25667 16.9358 4.96167 16.6408C4.66667 16.3458 4.51917 15.9911 4.51917 15.5768V6.66658C4.51917 6.25228 4.66667 5.89763 4.96167 5.60263C5.25667 5.30763 5.61132 5.16013 6.02562 5.16013H7.75646V3.58971C7.75646 3.1754 7.90396 2.82075 8.19896 2.52575C8.49396 2.23075 8.84861 2.08325 9.26292 2.08325H10.7371C11.1514 2.08325 11.506 2.23075 11.801 2.52575C12.096 2.82075 12.2435 3.1754 12.2435 3.58971V5.16013H13.9744C14.3887 5.16013 14.7433 5.30763 15.0383 5.60263C15.3333 5.89763 15.4808 6.25228 15.4808 6.66658V15.5768C15.4808 15.9911 15.3333 16.3458 15.0383 16.6408C14.7433 16.9358 14.3887 17.0833 13.9744 17.0833V17.1793C13.9744 17.3835 13.9025 17.5573 13.7587 17.701C13.6151 17.8447 13.4412 17.9166 13.2371 17.9166C13.0331 17.9166 12.8592 17.8447 12.7156 17.701C12.5719 17.5573 12.5 17.3835 12.5 17.1793V17.0833H7.5V17.1793C7.5 17.3835 7.42812 17.5573 7.28437 17.701C7.14076 17.8447 6.96694 17.9166 6.76292 17.9166C6.55875 17.9166 6.38486 17.8447 6.24125 17.701C6.0975 17.5573 6.02562 17.3835 6.02562 17.1793V17.0833ZM7.75646 14.6793H9.00646V7.56409H7.75646V14.6793ZM10.9935 14.6793H12.2435V7.56409H10.9935V14.6793ZM9.00646 5.16013H10.9935V3.58971C10.9935 3.51485 10.9695 3.45339 10.9215 3.40534C10.8734 3.35728 10.8119 3.33325 10.7371 3.33325H9.26292C9.18805 3.33325 9.1266 3.35728 9.07854 3.40534C9.03048 3.45339 9.00646 3.51485 9.00646 3.58971V5.16013Z" fill="#1C1B1F"/>
</g>
</svg>
