<svg width="20" height="20" viewBox="0 0 20 20" fill="none" xmlns="http://www.w3.org/2000/svg">
<mask id="mask0_2802_18348" style="mask-type:alpha" maskUnits="userSpaceOnUse" x="0" y="0" width="20" height="20">
<rect width="20" height="20" fill="#D9D9D9"/>
</mask>
<g mask="url(#mask0_2802_18348)">
<path d="M3.58977 16.25C3.17547 16.25 2.82081 16.1025 2.52581 15.8075C2.23081 15.5125 2.08331 15.1578 2.08331 14.7435V12.46C2.08331 12.3232 2.12262 12.2019 2.20123 12.0962C2.2797 11.9904 2.38463 11.9183 2.51602 11.8798C2.88144 11.7099 3.17845 11.4577 3.40706 11.1231C3.63567 10.7884 3.74998 10.4139 3.74998 9.99958C3.74998 9.58528 3.63567 9.21097 3.40706 8.87667C3.17845 8.54222 2.88144 8.29007 2.51602 8.12021C2.38463 8.08174 2.2797 8.00958 2.20123 7.90375C2.12262 7.79806 2.08331 7.67681 2.08331 7.54V5.25646C2.08331 4.84215 2.23081 4.4875 2.52581 4.1925C2.82081 3.8975 3.17547 3.75 3.58977 3.75H16.4102C16.8245 3.75 17.1791 3.8975 17.4741 4.1925C17.7691 4.4875 17.9166 4.84215 17.9166 5.25646V7.54C17.9166 7.67681 17.8773 7.79806 17.7987 7.90375C17.7203 8.00958 17.6153 8.08174 17.4839 8.12021C17.1185 8.29007 16.8215 8.54229 16.5929 8.87688C16.3643 9.2116 16.25 9.58611 16.25 10.0004C16.25 10.4147 16.3643 10.789 16.5929 11.1233C16.8215 11.4578 17.1185 11.7099 17.4839 11.8798C17.6153 11.9183 17.7203 11.9904 17.7987 12.0962C17.8773 12.2019 17.9166 12.3232 17.9166 12.46V14.7435C17.9166 15.1578 17.7691 15.5125 17.4741 15.8075C17.1791 16.1025 16.8245 16.25 16.4102 16.25H3.58977ZM10.0002 13.8781C10.1774 13.8781 10.3258 13.8182 10.4454 13.6983C10.5651 13.5786 10.625 13.4301 10.625 13.2529C10.625 13.0757 10.565 12.9273 10.4452 12.8077C10.3253 12.688 10.1769 12.6281 9.99977 12.6281C9.82255 12.6281 9.67415 12.6881 9.55456 12.8079C9.43484 12.9278 9.37498 13.0763 9.37498 13.2535C9.37498 13.4306 9.43491 13.579 9.55477 13.6988C9.67463 13.8183 9.82311 13.8781 10.0002 13.8781ZM10.0002 10.625C10.1774 10.625 10.3258 10.5651 10.4454 10.4452C10.5651 10.3253 10.625 10.1769 10.625 9.99979C10.625 9.82257 10.565 9.67417 10.4452 9.55458C10.3253 9.43486 10.1769 9.375 9.99977 9.375C9.82255 9.375 9.67415 9.43493 9.55456 9.55479C9.43484 9.67465 9.37498 9.82313 9.37498 10.0002C9.37498 10.1774 9.43491 10.3258 9.55477 10.4454C9.67463 10.5651 9.82311 10.625 10.0002 10.625ZM10.0002 7.37187C10.1774 7.37187 10.3258 7.31194 10.4454 7.19208C10.5651 7.07222 10.625 6.92368 10.625 6.74646C10.625 6.56938 10.565 6.42097 10.4452 6.30125C10.3253 6.18167 10.1769 6.12187 9.99977 6.12187C9.82255 6.12187 9.67415 6.18181 9.55456 6.30167C9.43484 6.42139 9.37498 6.56986 9.37498 6.74708C9.37498 6.92431 9.43491 7.07271 9.55477 7.19229C9.67463 7.31201 9.82311 7.37187 10.0002 7.37187Z" fill="#333333"/>
</g>
</svg>
