<svg width="20" height="20" viewBox="0 0 20 20" fill="none" xmlns="http://www.w3.org/2000/svg">
<mask id="mask0_2802_18345" style="mask-type:alpha" maskUnits="userSpaceOnUse" x="0" y="0" width="20" height="20">
<rect width="20" height="20" fill="#D9D9D9"/>
</mask>
<g mask="url(#mask0_2802_18345)">
<path d="M10 17.4501C9.83766 17.4501 9.6753 17.4221 9.51294 17.3662C9.35044 17.3101 9.20349 17.2233 9.0721 17.1058C8.32433 16.4166 7.62454 15.7069 6.97273 14.9766C6.32106 14.2464 5.75461 13.5165 5.27336 12.7868C4.79197 12.0571 4.41106 11.3338 4.13065 10.617C3.85023 9.90006 3.71002 9.2077 3.71002 8.53992C3.71002 6.61686 4.33204 5.05999 5.57606 3.86929C6.82023 2.6786 8.29488 2.08325 10 2.08325C11.7052 2.08325 13.1798 2.6786 14.424 3.86929C15.668 5.05999 16.29 6.61686 16.29 8.53992C16.29 9.2077 16.1498 9.89867 15.8694 10.6128C15.589 11.3271 15.2095 12.0505 14.7309 12.7828C14.2521 13.5152 13.6869 14.2451 13.0352 14.9726C12.3836 15.7003 11.6838 16.4086 10.9359 17.0976C10.8064 17.2151 10.6593 17.3033 10.4944 17.362C10.3297 17.4208 10.1649 17.4501 10 17.4501ZM10.0015 9.88763C10.4161 9.88763 10.7705 9.73999 11.0648 9.44471C11.3593 9.14943 11.5065 8.7945 11.5065 8.37992C11.5065 7.96534 11.3588 7.61082 11.0636 7.31638C10.7683 7.02207 10.4133 6.87492 9.99856 6.87492C9.58398 6.87492 9.22954 7.02256 8.93523 7.31784C8.64079 7.61311 8.49356 7.96811 8.49356 8.38284C8.49356 8.79742 8.6412 9.15186 8.93648 9.44617C9.23176 9.74048 9.58676 9.88763 10.0015 9.88763Z" fill="#333333"/>
</g>
</svg>
