<svg width="20" height="20" viewBox="0 0 20 20" fill="none" xmlns="http://www.w3.org/2000/svg">
<mask id="mask0_2802_18342" style="mask-type:alpha" maskUnits="userSpaceOnUse" x="0" y="0" width="20" height="20">
<rect width="20" height="20" fill="#D9D9D9"/>
</mask>
<g mask="url(#mask0_2802_18342)">
<path d="M1.96252 15.5834C1.81016 15.5834 1.68113 15.5315 1.57544 15.4276C1.4696 15.3238 1.41669 15.1952 1.41669 15.0417V4.95841C1.41669 4.80494 1.46821 4.67633 1.57127 4.57258C1.67433 4.46869 1.80196 4.41675 1.95419 4.41675C2.10655 4.41675 2.23558 4.46869 2.34127 4.57258C2.4471 4.67633 2.50002 4.80494 2.50002 4.95841V12.0001H9.20835V6.50008C9.20835 6.20508 9.31516 5.95078 9.52877 5.73716C9.74238 5.52355 9.99669 5.41675 10.2917 5.41675H16C16.7188 5.41675 17.329 5.66765 17.8306 6.16946C18.3325 6.67112 18.5834 7.28133 18.5834 8.00008V15.0417C18.5834 15.1952 18.5318 15.3238 18.4288 15.4276C18.3257 15.5315 18.1981 15.5834 18.0459 15.5834C17.8935 15.5834 17.7645 15.5315 17.6588 15.4276C17.5529 15.3238 17.5 15.1952 17.5 15.0417V13.0834H2.50002V15.0417C2.50002 15.1952 2.44849 15.3238 2.34544 15.4276C2.24238 15.5315 2.11474 15.5834 1.96252 15.5834ZM5.74898 10.6315C5.15676 10.6315 4.65363 10.4242 4.2396 10.0095C3.82558 9.59487 3.61856 9.0914 3.61856 8.49904C3.61856 7.90682 3.82592 7.40369 4.24065 6.98966C4.65523 6.57564 5.1587 6.36862 5.75106 6.36862C6.34328 6.36862 6.84641 6.57598 7.26044 6.99071C7.67446 7.40529 7.88148 7.90876 7.88148 8.50112C7.88148 9.09335 7.67412 9.59647 7.2594 10.0105C6.84481 10.4245 6.34134 10.6315 5.74898 10.6315Z" fill="#333333"/>
</g>
</svg>
