<svg width="40" height="40" viewBox="0 0 40 40" fill="none" xmlns="http://www.w3.org/2000/svg">
<path fill-rule="evenodd" clip-rule="evenodd" d="M20 12.8403C18.8204 11.9028 17.343 11.3042 15.8651 11.1436C14.1026 10.9522 12.2407 11.3786 10.8964 12.7311C9.61944 14.0175 9.0545 15.5607 9.10283 17.1595C9.15045 18.7348 9.789 20.3043 10.8049 21.7121C12.7737 24.4406 15.8418 26.8634 19.4422 29.7063C19.7692 29.9645 20.2307 29.9645 20.5577 29.7063C24.1584 26.8632 27.2248 24.4406 29.1949 21.7124C30.2108 20.3046 30.8495 18.7348 30.8971 17.1595C30.9454 15.5607 30.3809 14.0179 29.104 12.7316C27.7597 11.379 25.8973 10.9522 24.1349 11.1436C22.6569 11.3042 21.1795 11.9028 20 12.8403ZM12.1733 13.9998C11.2439 14.9362 10.8686 16.0009 10.902 17.1051C10.9361 18.2329 11.4008 19.4619 12.2645 20.6589C13.963 23.0127 16.6038 25.1669 20 27.853C23.3957 25.1672 26.0355 23.0129 27.7354 20.6589M12.1733 13.9998C13.0382 13.1299 14.3049 12.7847 15.6707 12.9331C17.04 13.0819 18.4098 13.7216 19.3614 14.6796C19.5304 14.8497 19.7602 14.9454 20 14.9454C20.2397 14.9454 20.4696 14.8497 20.6385 14.6796C21.5901 13.7216 22.9599 13.0819 24.3293 12.9331C25.695 12.7847 26.9616 13.1297 27.8265 13.9996C28.7561 14.9361 29.1313 16.0009 29.0979 17.1051C29.0639 18.2328 28.5991 19.4619 27.7354 20.6589" fill="#D1D4DA"/>
</svg>
