<svg width="40" height="40" viewBox="0 0 40 40" fill="none" xmlns="http://www.w3.org/2000/svg">
<path d="M20 20C21.4587 20 22.8576 19.4205 23.8891 18.3891C24.9205 17.3576 25.5 15.9587 25.5 14.5C25.5 13.0413 24.9205 11.6424 23.8891 10.6109C22.8576 9.57946 21.4587 9 20 9C18.5413 9 17.1424 9.57946 16.1109 10.6109C15.0795 11.6424 14.5 13.0413 14.5 14.5C14.5 15.9587 15.0795 17.3576 16.1109 18.3891C17.1424 19.4205 18.5413 20 20 20ZM23.6667 14.5C23.6667 15.4725 23.2804 16.4051 22.5927 17.0927C21.9051 17.7804 20.9725 18.1667 20 18.1667C19.0275 18.1667 18.0949 17.7804 17.4073 17.0927C16.7196 16.4051 16.3333 15.4725 16.3333 14.5C16.3333 13.5275 16.7196 12.5949 17.4073 11.9073C18.0949 11.2196 19.0275 10.8333 20 10.8333C20.9725 10.8333 21.9051 11.2196 22.5927 11.9073C23.2804 12.5949 23.6667 13.5275 23.6667 14.5ZM31 29.1667C31 31 29.1667 31 29.1667 31H10.8333C10.8333 31 9 31 9 29.1667C9 27.3333 10.8333 21.8333 20 21.8333C29.1667 21.8333 31 27.3333 31 29.1667ZM29.1667 29.1593C29.1648 28.7083 28.8843 27.3517 27.6413 26.1087C26.446 24.9133 24.1965 23.6667 20 23.6667C15.8035 23.6667 13.554 24.9133 12.3587 26.1087C11.1157 27.3517 10.837 28.7083 10.8333 29.1593H29.1667Z" fill="#57B9B1"/>
</svg>
