<svg width="40" height="40" viewBox="0 0 40 40" fill="none" xmlns="http://www.w3.org/2000/svg">
<rect width="40" height="40" rx="20" fill="#57B9B1"/>
<g clip-path="url(#clip0_4040_1722)">
<path d="M21.45 11.5017C21.0442 11.1777 20.5307 11 20 11C19.4693 11 18.9558 11.1777 18.55 11.5017L11.8 16.8971C11.5495 17.0971 11.3481 17.3466 11.2099 17.6281C11.0717 17.9095 11.0001 18.2162 11 18.5266V27.3421C11 28.2572 11.784 29 12.75 29H15.75C16.2141 29 16.6592 28.8253 16.9874 28.5144C17.3156 28.2035 17.5 27.7818 17.5 27.3421V23.5497C17.5 22.9054 18.042 22.3825 18.717 22.3654H21.283C21.6088 22.3736 21.9183 22.5019 22.1456 22.7231C22.373 22.9443 22.5001 23.2409 22.5 23.5497V27.3421C22.5 28.2572 23.284 29 24.25 29H27.25C27.7141 29 28.1592 28.8253 28.4874 28.5144C28.8156 28.2035 29 27.7818 29 27.3421V18.5256C28.9999 18.2152 28.9283 17.9086 28.7901 17.6271C28.6519 17.3456 28.4505 17.0962 28.2 16.8961L21.45 11.5017Z" fill="white"/>
</g>
<defs>
<clipPath id="clip0_4040_1722">
<rect width="24" height="24" fill="white" transform="translate(8 8)"/>
</clipPath>
</defs>
</svg>
