<svg width="40" height="40" viewBox="0 0 40 40" fill="none" xmlns="http://www.w3.org/2000/svg">
<path d="M11.1111 28H28.8889C29.5 28 30 27.4 30 26.6667C30 25.9333 29.5 25.3333 28.8889 25.3333H11.1111C10.5 25.3333 10 25.9333 10 26.6667C10 27.4 10.5 28 11.1111 28ZM11.1111 21.3333H28.8889C29.5 21.3333 30 20.7333 30 20C30 19.2667 29.5 18.6667 28.8889 18.6667H11.1111C10.5 18.6667 10 19.2667 10 20C10 20.7333 10.5 21.3333 11.1111 21.3333ZM10 13.3333C10 14.0667 10.5 14.6667 11.1111 14.6667H28.8889C29.5 14.6667 30 14.0667 30 13.3333C30 12.6 29.5 12 28.8889 12H11.1111C10.5 12 10 12.6 10 13.3333Z" fill="#D1D4DA"/>
</svg>
