<svg width="40" height="40" viewBox="0 0 40 40" fill="none" xmlns="http://www.w3.org/2000/svg">
<path fill-rule="evenodd" clip-rule="evenodd" d="M18.3187 10C17.0005 10.0002 15.7012 10.3136 14.5278 10.9144C13.3544 11.5153 12.3406 12.3863 11.57 13.4558C10.7993 14.5253 10.2937 15.7626 10.0951 17.0658C9.89636 18.369 10.0102 19.7007 10.4271 20.9513C10.8441 22.2019 11.5522 23.3355 12.4932 24.2587C13.4342 25.1819 14.5811 25.8683 15.8394 26.2613C17.0977 26.6543 18.4314 26.7427 19.7305 26.5192C21.0297 26.2957 22.2571 25.7666 23.3117 24.9757C23.3745 25.1596 23.4783 25.3316 23.6255 25.4777L27.78 29.6322C28.0268 29.8714 28.3579 30.0039 28.7016 30.0011C29.0454 29.9982 29.3742 29.8603 29.6171 29.6171C29.86 29.3739 29.9976 29.0449 30 28.7012C30.0024 28.3575 29.8695 28.0266 29.63 27.78L25.4755 23.6255C25.3348 23.4841 25.1634 23.3772 24.9746 23.3128C25.902 22.0767 26.4668 20.6068 26.6057 19.0678C26.7446 17.5288 26.4522 15.9815 25.7611 14.5993C25.0701 13.2172 24.0078 12.0548 22.6933 11.2424C21.3788 10.4301 19.864 9.99985 18.3187 10ZM12.0978 18.3198C12.0978 17.5029 12.2587 16.6939 12.5713 15.9392C12.884 15.1844 13.3422 14.4986 13.9199 13.921C14.4975 13.3433 15.1833 12.8851 15.9381 12.5724C16.6929 12.2598 17.5018 12.0989 18.3187 12.0989C19.1357 12.0989 19.9446 12.2598 20.6994 12.5724C21.4541 12.8851 22.1399 13.3433 22.7176 13.921C23.2953 14.4986 23.7535 15.1844 24.0661 15.9392C24.3788 16.6939 24.5397 17.5029 24.5397 18.3198C24.5397 19.9697 23.8843 21.552 22.7176 22.7187C21.551 23.8853 19.9686 24.5408 18.3187 24.5408C16.6688 24.5408 15.0865 23.8853 13.9199 22.7187C12.7532 21.552 12.0978 19.9697 12.0978 18.3198Z" fill="#D1D4DA"/>
</svg>
