<svg width="4" height="16" viewBox="0 0 4 16" fill="none" xmlns="http://www.w3.org/2000/svg">
<path d="M2.85024 8.00174L0.144322 4.9519C0.0524255 4.8482 0.00536991 4.71784 0.00315553 4.56085C0.00105187 4.40397 0.0481074 4.27125 0.144322 4.16268C0.240648 4.05423 0.357345 4 0.494415 4C0.631486 4 0.748183 4.05423 0.844509 4.16268L3.8301 7.52794C3.89221 7.59808 3.93606 7.67202 3.96164 7.74977C3.98721 7.82752 4 7.91151 4 8.00174C4 8.09197 3.98721 8.17596 3.96164 8.25371C3.93606 8.33146 3.89221 8.4054 3.8301 8.47554L0.844509 11.8408C0.752501 11.9444 0.636855 11.9974 0.497571 11.9999C0.358397 12.0023 0.240648 11.9493 0.144322 11.8408C0.0481074 11.7322 0 11.6007 0 11.4462C0 11.2917 0.0481074 11.1602 0.144322 11.0516L2.85024 8.00174Z" fill="#6D6F73"/>
</svg>
