<svg width="24" height="24" viewBox="0 0 24 24" fill="none" xmlns="http://www.w3.org/2000/svg">
<path d="M10.0278 15.8666L18.6663 7.22809C18.815 7.07926 18.989 7.00326 19.1883 7.0001C19.3876 6.99693 19.5649 7.07293 19.72 7.22809C19.8752 7.38326 19.9528 7.56143 19.9528 7.76259C19.9528 7.96393 19.8752 8.14218 19.72 8.29734L10.6605 17.3723C10.4797 17.553 10.2688 17.6433 10.0278 17.6433C9.78679 17.6433 9.57587 17.553 9.39504 17.3723L5.22004 13.1973C5.07137 13.0485 4.99804 12.8718 5.00004 12.6673C5.00187 12.463 5.08037 12.2833 5.23554 12.1281C5.39071 11.9729 5.56887 11.8953 5.77004 11.8953C5.97137 11.8953 6.14962 11.9729 6.30479 12.1281L10.0278 15.8666Z" fill="#E4E7EA"/>
</svg>
