<svg width="6" height="10" viewBox="0 0 6 10" fill="none" xmlns="http://www.w3.org/2000/svg">
<path d="M4.0628 5.00218L0.680403 1.18988C0.565532 1.06025 0.506712 0.897305 0.503944 0.701059C0.501315 0.504968 0.560134 0.339063 0.680403 0.203344C0.80081 0.0677815 0.946682 0 1.11802 0C1.28936 0 1.43523 0.0677815 1.55564 0.203344L5.28763 4.40993C5.36527 4.4976 5.42007 4.59003 5.45204 4.68721C5.48401 4.7844 5.5 4.88939 5.5 5.00218C5.5 5.11496 5.48401 5.21995 5.45204 5.31714C5.42007 5.41432 5.36527 5.50675 5.28763 5.59442L1.55564 9.80101C1.44063 9.93049 1.29607 9.99678 1.12196 9.9999C0.947996 10.0029 0.80081 9.93657 0.680403 9.80101C0.560134 9.66529 0.5 9.50086 0.5 9.30774C0.5 9.11461 0.560134 8.95019 0.680403 8.81447L4.0628 5.00218Z" fill="white"/>
</svg>
