<svg width="40" height="40" viewBox="0 0 40 40" fill="none" xmlns="http://www.w3.org/2000/svg">
<mask id="mask0_6059_1928" style="mask-type:alpha" maskUnits="userSpaceOnUse" x="16" y="8" width="24" height="24">
<rect x="16" y="8" width="24" height="24" fill="#D9D9D9"/>
</mask>
<g mask="url(#mask0_6059_1928)">
<path d="M28 21.4L23.1 26.3C22.9167 26.4833 22.6834 26.575 22.4 26.575C22.1167 26.575 21.8834 26.4833 21.7 26.3C21.5167 26.1167 21.425 25.8833 21.425 25.6C21.425 25.3167 21.5167 25.0833 21.7 24.9L26.6 20L21.7 15.1C21.5167 14.9167 21.425 14.6833 21.425 14.4C21.425 14.1167 21.5167 13.8833 21.7 13.7C21.8834 13.5167 22.1167 13.425 22.4 13.425C22.6834 13.425 22.9167 13.5167 23.1 13.7L28 18.6L32.9 13.7C33.0834 13.5167 33.3167 13.425 33.6 13.425C33.8834 13.425 34.1167 13.5167 34.3 13.7C34.4834 13.8833 34.575 14.1167 34.575 14.4C34.575 14.6833 34.4834 14.9167 34.3 15.1L29.4 20L34.3 24.9C34.4834 25.0833 34.575 25.3167 34.575 25.6C34.575 25.8833 34.4834 26.1167 34.3 26.3C34.1167 26.4833 33.8834 26.575 33.6 26.575C33.3167 26.575 33.0834 26.4833 32.9 26.3L28 21.4Z" fill="#6D6F73"/>
</g>
</svg>
