<svg width="112" height="66" viewBox="0 0 112 66" fill="none" xmlns="http://www.w3.org/2000/svg">
<g clip-path="url(#clip0_6656_924)">
<path d="M46.927 35.4028C46.719 35.4028 46.5581 35.3234 46.4482 35.1645C46.3383 35.0056 46.2834 34.815 46.2834 34.5926C46.2834 34.3543 46.3422 34.1478 46.46 33.9691C46.5777 33.7903 46.7386 33.695 46.9466 33.6831L59.6143 33.4845C59.8105 33.4845 59.9596 33.564 60.0617 33.7228C60.1676 33.8817 60.2186 34.0803 60.2186 34.3146C60.2186 34.5648 60.1598 34.7872 60.042 34.9778C59.9243 35.1685 59.7634 35.2638 59.5554 35.2638L55.1249 35.3234L55.0856 36.9041C55.5683 36.9835 56.0157 37.0868 56.4317 37.2178C57.3303 37.5078 58.0171 37.9208 58.4998 38.453C58.9825 38.9852 59.2219 39.5968 59.2219 40.2799C59.2219 40.963 58.9825 41.5747 58.4998 42.1069C58.0171 42.6391 57.3303 43.0521 56.4395 43.342C55.5487 43.632 54.5048 43.7749 53.3079 43.7749C52.111 43.7749 51.0671 43.628 50.1763 43.342C49.2855 43.0521 48.5987 42.6391 48.116 42.1069C47.6334 41.5747 47.394 40.963 47.394 40.2799C47.394 39.5968 47.6334 38.9852 48.116 38.453C48.5987 37.9208 49.2816 37.5078 50.1645 37.2178C50.5687 37.0868 51.0043 36.9875 51.4713 36.9239L51.4517 35.3631L46.923 35.4028H46.927ZM47.1428 27.9124C46.9741 27.9124 46.8446 27.829 46.7543 27.6661C46.664 27.5033 46.617 27.3007 46.617 27.0625C46.617 26.8242 46.664 26.6216 46.7622 26.4508C46.8603 26.28 46.9937 26.1927 47.1624 26.1927L59.2062 26.153C59.3631 26.153 59.4848 26.2364 59.579 26.3992C59.6692 26.562 59.7163 26.7646 59.7163 27.0029C59.7163 27.2531 59.6653 27.4715 59.5594 27.6542C59.4534 27.8369 59.32 27.9322 59.1512 27.9322H55.0503V28.3095C55.0385 29.1515 55.3917 29.7592 56.1138 30.1285C56.8359 30.4979 57.8994 30.7401 59.3043 30.8593C59.4495 30.8712 59.5594 30.9546 59.6457 31.1055C59.7281 31.2565 59.7713 31.4431 59.7713 31.6695C59.7713 31.9197 59.7124 32.1382 59.5947 32.3208C59.4769 32.5035 59.316 32.6028 59.1081 32.6187C58.4174 32.6306 57.6718 32.5472 56.8633 32.3606C56.0549 32.1779 55.325 31.9118 54.6696 31.5702C54.0104 31.2287 53.5473 30.8275 53.2726 30.3668C52.9626 30.9983 52.2091 31.5106 51.02 31.8959C49.831 32.2851 48.5752 32.5393 47.2645 32.6545C47.0565 32.6664 46.8917 32.5869 46.7661 32.4162C46.6405 32.2454 46.5816 32.0349 46.5816 31.7847C46.5816 31.5861 46.6248 31.4114 46.7072 31.2525C46.7935 31.0936 46.9113 31.0102 47.0682 30.9943C48.1239 30.8514 48.9637 30.6845 49.5877 30.5019C50.2116 30.3192 50.6943 30.0531 51.0318 29.7036C51.3693 29.3541 51.5341 28.8894 51.5184 28.3095L51.4988 27.9322L47.1467 27.9124H47.1428ZM55.7685 40.2799C55.7685 39.7795 55.5526 39.3823 55.1249 39.0845C54.6971 38.7866 54.0889 38.6397 53.3079 38.6397C52.527 38.6397 51.9226 38.7866 51.491 39.0845C51.0632 39.3823 50.8474 39.7795 50.8474 40.2799C50.8474 40.7803 51.0632 41.1775 51.491 41.4754C51.9226 41.7693 52.527 41.9202 53.3079 41.9202C54.0889 41.9202 54.6932 41.7732 55.1249 41.4754C55.5526 41.1775 55.7685 40.7803 55.7685 40.2799Z" fill="#57B9B1"/>
<path d="M62.1534 35.2042C61.9454 35.2042 61.7845 35.1248 61.6746 34.966C61.5647 34.8071 61.5098 34.6165 61.5098 34.394C61.5098 34.1557 61.5686 33.9492 61.6864 33.7705C61.8041 33.5918 61.965 33.4965 62.173 33.4845L74.8407 33.286C75.0369 33.286 75.186 33.3654 75.288 33.5243C75.3901 33.6831 75.445 33.8817 75.445 34.116C75.445 34.3662 75.3861 34.5887 75.2684 34.7793C75.1507 34.9699 74.9898 35.0652 74.7818 35.0652L70.3513 35.1248L70.2924 37.3966L72.9452 37.3767C74.0794 37.3767 74.6288 37.9089 74.6052 38.9773L74.5463 42.7503C74.5346 43.0402 74.3619 43.2626 74.0283 43.4215C73.6948 43.5803 73.3102 43.6598 72.8667 43.6598C72.4233 43.6598 72.023 43.5803 71.7051 43.4215C71.3873 43.2626 71.2264 43.0402 71.2264 42.7503L71.2656 39.0368L62.9304 39.1163C62.7616 39.1163 62.6282 39.0289 62.5301 38.8581C62.432 38.6873 62.3849 38.4808 62.3849 38.2465C62.3849 38.0241 62.432 37.8334 62.5222 37.6746C62.6125 37.5157 62.742 37.4363 62.9147 37.4363L66.7016 37.4164L66.682 35.1645L62.1534 35.2042ZM71.1675 31.9436L71.2656 27.8171L62.3653 27.6979C62.1847 27.686 62.0395 27.5947 61.9375 27.4318C61.8316 27.269 61.7805 27.0664 61.7805 26.8282C61.7805 26.6057 61.8276 26.4111 61.9257 26.2562C62.0239 26.0974 62.1573 26.0179 62.326 26.0179L73.059 26.1569C74.1892 26.1689 74.7426 26.705 74.719 27.7575L74.6209 31.9436C74.6091 32.1938 74.4404 32.3804 74.1147 32.4956C73.789 32.6148 73.4122 32.6743 72.9805 32.6743C72.5253 32.6743 72.1054 32.6108 71.7208 32.4877C71.3363 32.3646 71.1518 32.1819 71.1636 31.9436H71.1675Z" fill="#57B9B1"/>
<path d="M76.7518 39.0964C76.7518 38.9257 76.7793 38.7787 76.8303 38.6635C76.8813 38.5444 76.9677 38.4808 77.0854 38.4649C79.0122 38.0956 80.4446 37.3251 81.3904 36.1535C82.3322 34.9819 82.807 33.4012 82.807 31.4114V28.4684L77.5563 28.3493C77.4111 28.3374 77.2973 28.2421 77.2071 28.0713C77.1168 27.9005 77.0697 27.694 77.0697 27.4597C77.0697 27.2492 77.1129 27.0665 77.1953 26.9076C77.2777 26.7487 77.3915 26.6693 77.5367 26.6693L84.5808 26.7885C85.6875 26.8004 86.2408 27.3365 86.2408 28.389V31.2724C86.2408 32.8531 85.8837 34.2709 85.1656 35.5299C84.4513 36.7889 83.4271 37.8136 82.0928 38.6119C80.7586 39.4102 79.1888 39.9265 77.3797 40.1608C77.1992 40.1727 77.0462 40.0695 76.9323 39.8431C76.8146 39.6207 76.7558 39.3705 76.7558 39.0925L76.7518 39.0964ZM87.9754 27.0863C87.9754 26.7567 88.1677 26.5065 88.5522 26.3357C88.9368 26.1649 89.3803 26.0736 89.8904 26.0577C90.3849 26.0577 90.8205 26.153 91.1972 26.3436C91.574 26.5343 91.7584 26.7964 91.7427 27.1221L91.5465 32.2176L93.5754 32.4162C93.7167 32.4281 93.8305 32.5155 93.9168 32.6744C94.0031 32.8332 94.0424 33.0239 94.0424 33.2463C94.0424 33.4846 93.9953 33.6951 93.8972 33.8778C93.7991 34.0604 93.6656 34.1597 93.4969 34.1756L91.468 34.2749L91.1933 41.6819C91.1933 41.8646 91.0403 42.0076 90.7342 42.1069C90.4281 42.2062 90.067 42.2539 89.6511 42.2539C89.2351 42.2539 88.874 42.2022 88.5679 42.095C88.2619 41.9878 88.1088 41.8527 88.1088 41.6819L87.9715 27.0863H87.9754Z" fill="#57B9B1"/>
<path d="M94.9606 28.6074C94.7919 28.6074 94.6624 28.524 94.5721 28.3572C94.4819 28.1904 94.4348 27.9879 94.4348 27.7496C94.4348 27.5113 94.4819 27.3048 94.58 27.13C94.6781 26.9592 94.8115 26.8719 94.9802 26.8719L104.289 26.7527C104.446 26.7527 104.567 26.8361 104.658 27.0029C104.748 27.1697 104.795 27.3723 104.795 27.6106C104.795 27.8648 104.744 28.0832 104.638 28.2699C104.532 28.4565 104.399 28.5479 104.23 28.5479L101.597 28.5677L101.538 32.7617C101.526 34.2193 101.805 35.4227 102.378 36.3679C102.951 37.3172 103.751 38.0837 104.779 38.6794C104.921 38.7708 104.995 38.9018 104.995 39.0726C104.995 39.3109 104.889 39.5492 104.681 39.7954C104.473 40.0377 104.253 40.1608 104.018 40.1608C103.928 40.1608 103.857 40.1489 103.802 40.1211C102.943 39.7239 102.095 39.1203 101.255 38.3021C100.415 37.484 99.8582 36.6579 99.5874 35.8119C99.3127 36.6539 98.7633 37.484 97.9392 38.3021C97.1112 39.1203 96.2556 39.7239 95.3727 40.1211C95.2942 40.1608 95.2157 40.1807 95.1372 40.1807C94.9018 40.1807 94.6859 40.0576 94.4819 39.8153C94.2817 39.573 94.1797 39.3308 94.1797 39.0925C94.1797 38.882 94.2503 38.743 94.3955 38.6794C95.4237 38.0876 96.2243 37.3172 96.7972 36.3679C97.3702 35.4187 97.6488 34.2193 97.637 32.7617L97.5781 28.5876L94.9606 28.6074ZM105.929 27.0863C105.929 26.7567 106.121 26.5065 106.506 26.3357C106.891 26.1649 107.334 26.0736 107.844 26.0577C108.339 26.0577 108.774 26.153 109.151 26.3436C109.528 26.5343 109.712 26.7964 109.696 27.1221L109.5 32.2176L111.529 32.4162C111.67 32.4281 111.784 32.5155 111.871 32.6744C111.957 32.8332 111.996 33.0239 111.996 33.2463C111.996 33.4846 111.949 33.6951 111.851 33.8778C111.753 34.0604 111.619 34.1597 111.451 34.1756L109.422 34.2749L109.147 41.6819C109.147 41.8646 108.994 42.0076 108.688 42.1069C108.382 42.2062 108.021 42.2539 107.605 42.2539C107.189 42.2539 106.828 42.2022 106.522 42.095C106.216 41.9878 106.063 41.8527 106.063 41.6819L105.925 27.0863H105.929Z" fill="#57B9B1"/>
<path d="M32.3521 13.9244C32.0931 14.679 31.7085 15.3542 31.4063 15.8189C33.0506 16.7482 34.173 18.5037 34.173 20.5411V34.4139H31.2886V31.3994C31.2886 28.8735 29.2597 26.8202 26.7638 26.8202H19.6098L15.7561 21.4268C21.1756 21.2004 26.7874 19.294 30.0328 15.2589C30.6568 14.54 31.2493 13.424 31.2493 13.424C31.889 12.2405 32.3756 10.9338 32.615 9.45637C32.2775 10.8385 31.6889 12.1412 30.9236 13.3128C30.2486 13.1102 29.5383 12.9951 28.8006 12.9951H23.8834V7.44674H25.6454C26.2184 7.44674 26.6854 6.97412 26.6854 6.39427C26.6854 5.81442 26.2184 5.3418 25.6454 5.3418H10.6114C10.0384 5.3418 9.57141 5.81442 9.57141 6.39427C9.57141 6.97412 10.0384 7.44674 10.6114 7.44674H12.3734V12.9951H7.4562C3.34352 12.9951 0 16.3789 0 20.5411V53.7635C0 57.0401 2.07596 59.8242 4.96426 60.8647V60.8965C4.96426 63.7084 7.22467 65.996 10.0031 65.996C12.7815 65.996 14.7907 63.9268 15.0027 61.3095H21.2541C21.466 63.9268 23.6126 65.996 26.2537 65.996C29.0321 65.996 31.2925 63.7084 31.2925 60.8965V60.8647C34.1808 59.8242 36.2568 57.0361 36.2568 53.7635V20.5411C36.2568 17.6855 34.6753 15.2033 32.356 13.9244H32.3521ZM26.7638 28.9251C28.1138 28.9251 29.2087 30.0372 29.2087 31.3994V34.4139H18.2088C17.8242 32.8332 16.5999 31.598 15.038 31.2048V28.9251H26.7599H26.7638ZM23.8598 36.5188V41.7574H15.0458V39.7279C16.6077 39.3387 17.8282 38.0995 18.2167 36.5188H23.8638H23.8598ZM17.0433 26.8202H10.9606L14.002 22.5626L17.0433 26.8202ZM14.4533 7.44674H21.8035V12.9951H14.4533V7.44674ZM7.4562 15.1H28.7966C29.0203 15.1 29.2362 15.1397 29.452 15.1675C28.9222 15.7196 28.3532 16.224 27.741 16.6688C20.8263 21.2282 10.9724 20.5332 3.98318 16.4186C4.92109 15.6084 6.12586 15.096 7.45228 15.096L7.4562 15.1ZM2.07989 20.5411C2.07989 19.8342 2.22509 19.159 2.4684 18.5394C5.08591 19.9533 7.8761 20.7397 10.6977 21.1488C11.2235 21.2322 11.7612 21.2957 12.3067 21.3473L8.39411 26.8242H2.07989V20.5451V20.5411ZM10.0031 63.8951C8.50399 63.8951 7.27568 62.7592 7.08339 61.2937C7.20897 61.3016 7.33062 61.3135 7.4562 61.3135H12.9228C12.7226 62.7711 11.4982 63.8951 10.0031 63.8951ZM12.962 59.2046H7.4562C4.49334 59.2046 2.07989 56.7621 2.07989 53.7635V43.2388H8.66097C9.04555 43.2388 9.3595 43.5565 9.3595 43.9457V51.8373C9.3595 52.4171 9.82649 52.8898 10.3994 52.8898C10.9724 52.8898 11.4394 52.4171 11.4394 51.8373V43.9457C11.4394 42.3968 10.1954 41.1338 8.66097 41.1338H2.07989V28.9251H12.962V31.2048C11.0666 31.6814 9.65382 33.4011 9.65382 35.4664C9.65382 37.5316 11.0666 39.2513 12.962 39.7239V59.2046ZM14.002 37.7619C12.7501 37.7619 11.7337 36.7333 11.7337 35.4664C11.7337 34.1994 12.7501 33.1708 14.002 33.1708C15.2538 33.1708 16.2702 34.1994 16.2702 35.4664C16.2702 36.7333 15.2538 37.7619 14.002 37.7619ZM26.2498 63.8951C24.7585 63.8951 23.5302 62.7671 23.3301 61.3135H28.7966C28.9222 61.3135 29.0478 61.3016 29.1694 61.2937C28.9772 62.7592 27.7488 63.8951 26.2498 63.8951ZM29.2126 59.1649C29.0753 59.1768 28.9418 59.2086 28.8006 59.2086H15.0458V43.8663H20.4653L16.1564 51.313C15.866 51.8135 16.0308 52.4608 16.5292 52.7547C17.0237 53.0486 17.6633 52.8818 17.9537 52.3774L22.1331 45.1571L26.3125 52.3774C26.5048 52.711 26.8541 52.8977 27.2112 52.8977C27.3917 52.8977 27.5723 52.85 27.7371 52.7547C28.2315 52.4608 28.4003 51.8174 28.1099 51.313L23.801 43.8663H28.2394C28.7809 43.8663 29.2205 44.3111 29.2205 44.8592V59.1688L29.2126 59.1649ZM34.173 53.7635C34.173 55.8486 32.9957 57.6438 31.2886 58.5572V49.0651H34.173V53.7635ZM34.173 46.9602H31.2886V44.8552C31.2886 43.1474 29.9151 41.7574 28.2276 41.7574H25.9358V36.5188H34.173V46.9602Z" fill="#57B9B1"/>
<path d="M29.1773 6.20763L39.0116 0.0238553C39.1254 -0.0476334 39.2667 0.0516565 39.2392 0.182719L37.1633 11.2952C37.1397 11.4263 36.9749 11.466 36.8964 11.3588L34.4163 8.10606C34.3299 7.99485 34.1533 8.05045 34.1455 8.18946L34.0277 10.068L33.3214 7.42294C33.3096 7.37528 33.3214 7.32762 33.3488 7.28791L36.2018 3.62212L32.0734 6.82323C32.042 6.84309 32.0067 6.855 31.9675 6.84706L29.2362 6.48564C29.0949 6.46579 29.0556 6.27912 29.1773 6.20366V6.20763Z" fill="#57B9B1"/>
<path d="M57.0752 47.2104C57.0752 47.119 57.1263 47.0515 57.2322 47.0039C57.3382 46.9562 57.4598 46.9324 57.5972 46.9284C57.7306 46.9284 57.8523 46.9562 57.9543 47.0078C58.0563 47.0595 58.1073 47.131 58.1034 47.2223L57.9543 51.2018C57.9543 51.2535 57.9111 51.2892 57.8287 51.317C57.7463 51.3448 57.6443 51.3567 57.5305 51.3567C57.4167 51.3567 57.3186 51.3408 57.2361 51.313C57.1537 51.2852 57.1106 51.2455 57.1106 51.1979L57.0988 49.9667L56.4356 49.9468C56.3218 50.2328 56.1609 50.4512 55.9529 50.6061C55.7449 50.761 55.5094 50.8365 55.2387 50.8365C54.9679 50.8365 54.7324 50.761 54.5244 50.6061C54.3165 50.4512 54.1556 50.2328 54.0418 49.9468C53.9279 49.6609 53.8691 49.3312 53.8691 48.9539C53.8691 48.5766 53.9279 48.243 54.0418 47.961C54.1556 47.6751 54.3165 47.4566 54.5244 47.3017C54.7324 47.1468 54.9679 47.0714 55.2387 47.0714C55.5094 47.0714 55.741 47.1468 55.949 47.3017C56.1373 47.4407 56.2904 47.6353 56.4042 47.8856C56.412 47.8856 56.4199 47.8816 56.4317 47.8816L57.0752 47.8339V47.2144V47.2104ZM55.7096 48.9539C55.7096 48.4972 55.6664 48.1477 55.584 47.9134C55.5016 47.6751 55.3878 47.5559 55.2465 47.5559C55.1052 47.5559 54.9914 47.6751 54.909 47.9134C54.8266 48.1517 54.7834 48.4972 54.7834 48.9539C54.7834 49.4107 54.8227 49.7602 54.909 49.9945C54.9954 50.2288 55.1052 50.3519 55.2465 50.3519C55.3878 50.3519 55.5016 50.2328 55.584 49.9945C55.6664 49.7562 55.7096 49.4107 55.7096 48.9539ZM56.6122 48.9539C56.6122 49.1326 56.6004 49.3034 56.5769 49.4623L57.0988 49.4265L57.087 48.378L56.5572 48.3621C56.5926 48.5448 56.6122 48.7434 56.6122 48.9579V48.9539Z" fill="#57B9B1"/>
<path d="M58.747 47.8895C58.6999 47.8895 58.6646 47.8657 58.641 47.822C58.6175 47.7783 58.6057 47.7227 58.6057 47.6592C58.6057 47.5996 58.6175 47.544 58.645 47.4963C58.6724 47.4487 58.7077 47.4248 58.7548 47.4209H59.316L59.3199 47.0912C59.3199 47.0158 59.371 46.9522 59.4769 46.9046C59.5829 46.8569 59.7006 46.8331 59.8379 46.8331C59.9675 46.8331 60.0773 46.8569 60.1676 46.9006C60.2579 46.9443 60.3049 47.0078 60.3049 47.0912V47.397L60.87 47.3851C60.9132 47.3851 60.9446 47.409 60.9721 47.4526C60.9956 47.4963 61.0113 47.5519 61.0113 47.6155C61.0113 47.683 60.9956 47.7426 60.9682 47.7942C60.9407 47.8458 60.9014 47.8697 60.8544 47.8697H60.5247C60.5796 47.9094 60.6267 47.9451 60.6738 47.9848C60.874 48.1636 60.9721 48.4138 60.9721 48.7355C60.9721 49.0731 60.874 49.3391 60.6778 49.5258C60.4815 49.7125 60.2068 49.8078 59.8536 49.8078C59.4848 49.8078 59.1944 49.7125 58.9864 49.5258C58.7784 49.3352 58.6764 49.0731 58.6764 48.7355C58.6764 48.4138 58.7784 48.1636 58.9864 47.9848C59.0295 47.9491 59.0766 47.9173 59.1237 47.8895H58.7509H58.747ZM60.144 48.7355C60.144 48.5488 60.1205 48.4019 60.0656 48.3026C60.0145 48.1993 59.9439 48.1477 59.8497 48.1477C59.7555 48.1477 59.6849 48.1993 59.63 48.3026C59.575 48.4058 59.5515 48.5488 59.5515 48.7355C59.5515 48.9221 59.5789 49.0691 59.63 49.1684C59.6849 49.2716 59.7555 49.3233 59.8497 49.3233C59.9439 49.3233 60.0145 49.2716 60.0656 49.1684C60.1166 49.0651 60.144 48.9221 60.144 48.7355ZM59.5868 50.896C59.5868 50.622 59.732 50.4075 60.0263 50.2526C60.3206 50.0977 60.7288 50.0223 61.2546 50.0223C61.7805 50.0223 62.1925 50.0977 62.4829 50.2526C62.7773 50.4075 62.9225 50.622 62.9225 50.896C62.9225 51.1701 62.7773 51.3845 62.4829 51.5394C62.1886 51.6943 61.7805 51.7698 61.2546 51.7698C60.7288 51.7698 60.3167 51.6903 60.0263 51.5394C59.732 51.3845 59.5868 51.1701 59.5868 50.896ZM61.9846 50.896C61.9846 50.7808 61.9218 50.6895 61.7923 50.6259C61.6628 50.5624 61.4862 50.5306 61.2586 50.5306C61.0309 50.5306 60.8544 50.5624 60.7248 50.6259C60.5953 50.6895 60.5326 50.7808 60.5326 50.896C60.5326 51.0112 60.5953 51.1025 60.7248 51.1661C60.8544 51.2296 61.0309 51.2614 61.2586 51.2614C61.4862 51.2614 61.6628 51.2296 61.7923 51.1661C61.9218 51.1025 61.9846 51.0112 61.9846 50.896ZM62.2789 47.1548C62.2789 47.0595 62.3181 46.9919 62.4005 46.9482C62.4829 46.9046 62.5889 46.8807 62.7184 46.8768C62.8518 46.8768 62.9735 46.9046 63.0755 46.9562C63.1775 47.0078 63.2286 47.0793 63.2246 47.1707L63.0755 49.8872C63.0755 49.9349 63.0323 49.9706 62.9539 50.0024C62.8754 50.0302 62.7851 50.0461 62.6831 50.0461C62.581 50.0461 62.4829 50.0302 62.4045 50.0024C62.326 49.9746 62.2867 49.9349 62.2867 49.8872V48.5806L61.9571 48.5845L61.9139 49.7522C61.91 49.8038 61.8707 49.8396 61.8001 49.8674C61.7255 49.8952 61.6431 49.9071 61.545 49.9071C61.4469 49.9071 61.3645 49.8952 61.2899 49.8674C61.2154 49.8396 61.1801 49.7999 61.1761 49.7522L61.1369 47.1587C61.1369 47.0634 61.1683 46.9959 61.2468 46.9482C61.3213 46.9006 61.4234 46.8768 61.5529 46.8768C61.6824 46.8768 61.7923 46.9006 61.8825 46.9522C61.9689 47.0038 62.012 47.0753 62.0081 47.1667L61.9767 48.0325H62.275V47.1587L62.2789 47.1548Z" fill="#57B9B1"/>
<path d="M64.1273 50.9238C64.0763 50.9238 64.0331 50.904 63.9978 50.8523C63.9625 50.8007 63.9507 50.7411 63.9507 50.6696C63.9507 50.614 63.9625 50.5624 63.986 50.5187C64.0095 50.475 64.0449 50.4512 64.092 50.4472L66.7487 50.2407C66.8037 50.2407 66.8429 50.2606 66.8782 50.3082C66.9135 50.3559 66.9253 50.4155 66.9253 50.483C66.9253 50.5465 66.9096 50.6061 66.8821 50.6538C66.8547 50.7014 66.8154 50.7292 66.7644 50.7332L64.1233 50.9238H64.1273ZM64.0566 48.4654C64.0566 48.1914 64.1077 47.9491 64.2175 47.7346C64.3235 47.5241 64.4726 47.3573 64.6688 47.2422C64.8611 47.127 65.0848 47.0674 65.332 47.0674C65.5793 47.0674 65.803 47.127 65.9952 47.2422C66.1875 47.3573 66.3406 47.5241 66.4465 47.7346C66.5525 47.9491 66.6074 48.1914 66.6074 48.4654C66.6074 48.7395 66.5525 49.0016 66.4465 49.22C66.3406 49.4385 66.1875 49.6092 65.9952 49.7324C65.803 49.8555 65.5793 49.915 65.332 49.915C65.0848 49.915 64.8611 49.8555 64.6688 49.7324C64.4765 49.6092 64.3235 49.4385 64.2175 49.22C64.1116 49.0016 64.0566 48.7474 64.0566 48.4654ZM65.7402 48.4654C65.7402 48.1953 65.7009 47.9769 65.6264 47.8061C65.5518 47.6353 65.4498 47.5519 65.332 47.5519C65.2143 47.5519 65.1123 47.6353 65.0338 47.8061C64.9592 47.9769 64.92 48.1953 64.92 48.4654C64.92 48.7553 64.9592 48.9857 65.0338 49.1644C65.1123 49.3431 65.2104 49.4305 65.332 49.4305C65.4537 49.4305 65.5518 49.3431 65.6264 49.1644C65.7048 48.9857 65.7402 48.7514 65.7402 48.4654ZM67.1058 47.2104C67.1058 47.119 67.1568 47.0515 67.2628 47.0039C67.3688 46.9562 67.4904 46.9324 67.6278 46.9284C67.7612 46.9284 67.8828 46.9562 67.9849 47.0078C68.0869 47.0595 68.1379 47.131 68.134 47.2223L67.9849 51.2018C67.9849 51.2535 67.9417 51.2892 67.8593 51.317C67.7769 51.3448 67.6749 51.3567 67.5611 51.3567C67.4472 51.3567 67.3491 51.3408 67.2667 51.313C67.1843 51.2852 67.1411 51.2455 67.1411 51.1979L67.1058 47.2064V47.2104Z" fill="#57B9B1"/>
<path d="M70.2256 50.4909C70.2256 50.4433 70.2334 50.4036 70.2452 50.3718C70.2609 50.34 70.2844 50.3201 70.3158 50.3162C70.8417 50.2169 71.2341 50.0064 71.4931 49.6847C71.7521 49.363 71.8777 48.9341 71.8777 48.39V47.5837L70.4414 47.5519C70.4022 47.5519 70.3708 47.5241 70.3472 47.4765C70.3237 47.4288 70.3119 47.3732 70.3119 47.3097C70.3119 47.2501 70.3237 47.2024 70.3472 47.1588C70.3708 47.1151 70.4022 47.0952 70.4414 47.0952L72.3683 47.127C72.6704 47.127 72.8235 47.2779 72.8235 47.5639V48.3502C72.8235 48.7831 72.7254 49.1684 72.5292 49.5139C72.3329 49.8594 72.0543 50.1375 71.6894 50.3559C71.3244 50.5743 70.8927 50.7133 70.4022 50.7809C70.3512 50.7809 70.3119 50.757 70.2805 50.6935C70.2491 50.6339 70.2334 50.5624 70.2334 50.487L70.2256 50.4909ZM73.2944 47.2104C73.2944 47.119 73.3454 47.0515 73.4514 47.0039C73.5573 46.9562 73.679 46.9324 73.8163 46.9284C73.9498 46.9284 74.0714 46.9562 74.1734 47.0078C74.2755 47.0595 74.3265 47.131 74.3226 47.2223L74.2676 48.6163L74.821 48.6719C74.8602 48.6719 74.8916 48.6997 74.9151 48.7434C74.9387 48.7871 74.9505 48.8387 74.9505 48.8983C74.9505 48.9619 74.9387 49.0214 74.9112 49.0691C74.8838 49.1207 74.8484 49.1446 74.8013 49.1485L74.248 49.1763L74.1734 51.2018C74.1734 51.2535 74.1303 51.2892 74.0479 51.317C73.9655 51.3448 73.8634 51.3567 73.7496 51.3567C73.6358 51.3567 73.5377 51.3408 73.4553 51.313C73.3729 51.2852 73.3297 51.2455 73.3297 51.1979L73.2944 47.2064V47.2104Z" fill="#57B9B1"/>
<path d="M75.339 47.9451C75.2919 47.9451 75.2566 47.9213 75.233 47.8776C75.2095 47.8339 75.1977 47.7783 75.1977 47.7148C75.1977 47.6512 75.2095 47.5956 75.2369 47.548C75.2644 47.5003 75.2997 47.4765 75.3468 47.4765H76.1003V47.0952C76.1003 47.0158 76.1513 46.9522 76.2612 46.9046C76.3671 46.8569 76.4927 46.8331 76.634 46.8331C76.7674 46.8331 76.8891 46.8569 76.999 46.9006C77.1128 46.9443 77.1677 47.0078 77.1677 47.0912V47.4526L77.9996 47.4407C78.0428 47.4407 78.0781 47.4646 78.1017 47.5082C78.1252 47.5519 78.1409 47.6075 78.1409 47.6711C78.1409 47.7386 78.1252 47.7982 78.0978 47.8498C78.0703 47.9014 78.031 47.9253 77.984 47.9253H77.1559L77.152 48.8665C77.152 49.2677 77.2266 49.5933 77.3875 49.8515C77.5484 50.1096 77.7681 50.3201 78.0546 50.4869C78.0938 50.5108 78.1135 50.5465 78.1135 50.5942C78.1135 50.6577 78.086 50.7252 78.0271 50.7928C77.9683 50.8603 77.9094 50.892 77.8466 50.892C77.8231 50.892 77.8034 50.892 77.7877 50.8801C77.5523 50.7729 77.3207 50.6061 77.0931 50.3837C76.8655 50.1613 76.7125 49.9349 76.6379 49.7045C76.5633 49.9349 76.4142 50.1613 76.1866 50.3837C75.959 50.6061 75.7275 50.7729 75.4842 50.8801C75.4645 50.892 75.441 50.896 75.4214 50.896C75.3586 50.896 75.2958 50.8642 75.2409 50.7967C75.1859 50.7292 75.1584 50.6657 75.1584 50.5981C75.1584 50.5425 75.1781 50.5028 75.2173 50.483C75.5038 50.3162 75.7235 50.1057 75.8844 49.8475C76.0453 49.5894 76.1238 49.2597 76.1199 48.8626L76.1081 47.9332H75.3468L75.339 47.9451ZM78.4156 47.2104C78.4156 47.119 78.4666 47.0515 78.5726 47.0038C78.6786 46.9562 78.8002 46.9324 78.9376 46.9284C79.071 46.9284 79.1926 46.9562 79.2947 47.0078C79.3967 47.0595 79.4477 47.1309 79.4438 47.2223L79.2947 51.2018C79.2947 51.2535 79.2515 51.2892 79.1691 51.317C79.0867 51.3448 78.9847 51.3567 78.8708 51.3567C78.757 51.3567 78.6589 51.3408 78.5765 51.313C78.4941 51.2852 78.4509 51.2455 78.4509 51.1979L78.4156 47.2064V47.2104Z" fill="#57B9B1"/>
<path d="M80.213 49.5973C80.1541 49.5973 80.1109 49.5774 80.0835 49.5337C80.0521 49.494 80.0364 49.4424 80.0364 49.3868C80.0364 49.3272 80.0521 49.2716 80.0835 49.2239C80.1149 49.1763 80.158 49.1525 80.2169 49.1485L83.6781 49.0929C83.7331 49.0929 83.7723 49.1127 83.7998 49.1564C83.8273 49.2001 83.843 49.2517 83.843 49.3073C83.843 49.3709 83.8273 49.4305 83.7959 49.4821C83.7645 49.5337 83.7174 49.5576 83.6624 49.5576L80.209 49.5973H80.213ZM80.8016 48.8347C80.6564 48.8347 80.5505 48.8069 80.4837 48.7513C80.417 48.6957 80.3778 48.6044 80.3699 48.4773L80.3268 47.9927C80.315 47.8776 80.3425 47.7902 80.4053 47.7306C80.4681 47.671 80.5662 47.6432 80.6917 47.6432H82.6971V47.3414L80.4288 47.3613C80.3817 47.3613 80.3464 47.3374 80.3189 47.2858C80.2915 47.2342 80.2797 47.1786 80.2797 47.115C80.2797 47.0594 80.2875 47.0157 80.3111 46.976C80.3307 46.9363 80.3582 46.9164 80.3974 46.9164H83.2151C83.376 46.9204 83.4937 46.9562 83.5722 47.0277C83.6507 47.0991 83.6821 47.2024 83.6664 47.3454L83.6232 47.7187C83.6075 47.8418 83.5722 47.9292 83.5133 47.9808C83.4545 48.0325 83.3603 48.0603 83.2347 48.0603H81.2333L81.2451 48.374L83.5251 48.3621C83.5643 48.3621 83.5957 48.3859 83.6193 48.4336C83.6428 48.4813 83.6546 48.5329 83.6546 48.5964C83.6546 48.66 83.6428 48.7156 83.6193 48.7632C83.5957 48.8109 83.5604 48.8347 83.5133 48.8347L80.7977 48.8466L80.8016 48.8347ZM80.8487 51.73C80.7035 51.73 80.5976 51.7022 80.5348 51.6426C80.472 51.5831 80.4327 51.4878 80.417 51.3527L80.3739 50.9278C80.3621 50.8126 80.3896 50.7252 80.4524 50.6656C80.5151 50.6061 80.6133 50.5783 80.7388 50.5783H82.6343V50.2883L80.4798 50.328C80.4327 50.328 80.3974 50.3082 80.3699 50.2566C80.3425 50.2049 80.3307 50.1454 80.3307 50.0818C80.3307 50.0262 80.3386 49.9746 80.3621 49.9349C80.3817 49.8951 80.4092 49.8753 80.4484 49.8753H83.1523C83.3132 49.8713 83.4309 49.9031 83.5133 49.9746C83.5918 50.0461 83.6232 50.1493 83.6075 50.2923L83.5643 50.6378C83.5447 50.7609 83.5094 50.8483 83.4505 50.9C83.3917 50.9516 83.3014 50.9794 83.1719 50.9794H81.2843L81.2961 51.2693L83.5173 51.2574C83.5565 51.2574 83.5879 51.2812 83.6114 51.3289C83.635 51.3765 83.6507 51.4321 83.6507 51.4997C83.6507 51.5672 83.6389 51.6228 83.6114 51.6704C83.5879 51.7181 83.5526 51.7419 83.5055 51.7419H80.8487V51.73Z" fill="#57B9B1"/>
<path d="M85.868 51.1144C85.8091 51.1144 85.766 51.0946 85.7385 51.0509C85.7071 51.0072 85.6914 50.9556 85.6914 50.896C85.6914 50.8324 85.7071 50.7729 85.7385 50.7252C85.7699 50.6776 85.8131 50.6497 85.8719 50.6458L89.3332 50.5902C89.3881 50.5902 89.4274 50.61 89.4548 50.6537C89.4823 50.6974 89.498 50.749 89.498 50.8166C89.498 50.8841 89.4823 50.9437 89.4509 50.9993C89.4195 51.0509 89.3724 51.0787 89.3175 51.0787L85.8641 51.1144H85.868ZM86.3585 49.7085C86.1976 49.7085 86.0799 49.6807 85.9975 49.6132C85.919 49.5456 85.8759 49.4384 85.8719 49.2875L85.8248 47.5757C85.8248 47.4367 85.8641 47.3255 85.9583 47.2501C86.0524 47.1746 86.1859 47.1349 86.3585 47.1349H89.1762C89.2194 47.1389 89.2508 47.1667 89.2743 47.2143C89.2979 47.262 89.3096 47.3255 89.3096 47.393C89.3096 47.4606 89.2979 47.5201 89.2782 47.5678C89.2586 47.6154 89.2272 47.6393 89.188 47.6393L86.7981 47.6512L86.8098 49.1326L89.1801 49.1644C89.2194 49.1644 89.2468 49.1882 89.2704 49.2319C89.29 49.2756 89.2979 49.3312 89.2979 49.3947C89.2979 49.4662 89.2861 49.5298 89.2625 49.5854C89.239 49.641 89.2037 49.6648 89.1566 49.6648L86.3664 49.7045L86.3585 49.7085Z" fill="#57B9B1"/>
<path d="M90.5379 49.5616C90.3927 49.5695 90.2867 49.5417 90.2161 49.4821C90.1494 49.4226 90.1101 49.3233 90.1023 49.1843L90.0474 48.3542C90.0395 48.239 90.067 48.1556 90.1258 48.104C90.1847 48.0524 90.2828 48.0246 90.4123 48.0246H91.6289V47.4963L90.1729 47.5083C90.1258 47.5083 90.0905 47.4805 90.063 47.4209C90.0356 47.3613 90.0238 47.2938 90.0238 47.2223C90.0238 47.1588 90.0317 47.1032 90.0552 47.0634C90.0748 47.0198 90.1023 46.9999 90.1415 46.9999L92.1469 47.0317C92.4647 47.0396 92.6139 47.1826 92.6021 47.4685L92.5589 48.1397C92.5511 48.2589 92.5197 48.3423 92.4569 48.3939C92.398 48.4456 92.2999 48.4694 92.1704 48.4694H90.9617L90.9813 49.0532L92.763 48.9897C92.8061 48.9897 92.8415 49.0095 92.865 49.0572C92.8886 49.1048 92.9043 49.1604 92.9043 49.228C92.9043 49.2875 92.8925 49.3352 92.8689 49.3789C92.8454 49.4226 92.814 49.4464 92.7708 49.4504L90.534 49.5735L90.5379 49.5616ZM91.3424 51.7301C91.1972 51.7301 91.0912 51.7023 91.0206 51.6427C90.9539 51.5831 90.9146 51.4878 90.9068 51.3528L90.8361 50.0739C90.8361 49.9826 90.8754 49.915 90.9696 49.8674C91.0637 49.8197 91.1736 49.7959 91.3071 49.7959C91.4405 49.7959 91.5543 49.8197 91.6485 49.8714C91.7427 49.923 91.7937 49.9945 91.7937 50.0858V50.3281L93.073 50.3241V50.0223C93.0652 49.9309 93.1083 49.8634 93.2025 49.8158C93.2967 49.7681 93.4066 49.7443 93.5439 49.7403C93.6773 49.7403 93.7872 49.7641 93.8814 49.8158C93.9756 49.8674 94.0188 49.9389 94.0148 50.0302L93.956 51.3488C93.956 51.4838 93.9167 51.5831 93.85 51.6387C93.7833 51.6943 93.6734 51.7261 93.5243 51.7261H91.3424V51.7301ZM93.1005 51.2574L93.0887 50.7769L91.7858 50.7928V51.2535L93.0965 51.2574H93.1005ZM93.1436 47.1548C93.1397 47.0634 93.1907 46.9959 93.2967 46.9483C93.4026 46.9006 93.5243 46.8768 93.6656 46.8728C93.799 46.8728 93.9207 46.9006 94.0266 46.9522C94.1326 47.0039 94.1797 47.0754 94.1718 47.1667L94.0227 49.4742C94.0227 49.5258 93.9756 49.5616 93.8932 49.5894C93.8108 49.6172 93.7127 49.6291 93.6028 49.6291C93.4929 49.6291 93.3948 49.6172 93.3124 49.5894C93.23 49.5616 93.1868 49.5219 93.1829 49.4742L93.1476 47.1588L93.1436 47.1548Z" fill="#57B9B1"/>
<path d="M95.4825 50.7332C95.1647 50.757 95.0038 50.618 94.9959 50.3122L94.9488 47.3573C94.9449 47.27 94.9959 47.2024 95.1058 47.1548C95.2157 47.1071 95.3373 47.0833 95.4708 47.0833C95.5924 47.0833 95.6984 47.1071 95.7847 47.1508C95.871 47.1945 95.9181 47.258 95.9181 47.3414L95.9299 50.1494L97.5506 50.0699C97.5899 50.0699 97.6174 50.0858 97.637 50.1295C97.6566 50.1732 97.6684 50.2248 97.6684 50.2844C97.6684 50.3519 97.6566 50.4155 97.6291 50.4711C97.6017 50.5267 97.5703 50.5584 97.5232 50.5584L95.4786 50.7332H95.4825ZM98.049 47.2104C98.049 47.119 98.1 47.0515 98.206 47.0039C98.312 46.9562 98.4336 46.9324 98.571 46.9284C98.7044 46.9284 98.826 46.9562 98.9281 47.0078C99.0301 47.0595 99.0811 47.131 99.0772 47.2223L98.9281 51.2018C98.9281 51.2535 98.8849 51.2892 98.8025 51.317C98.7201 51.3448 98.6181 51.3567 98.5042 51.3567C98.3904 51.3567 98.2923 51.3408 98.2099 51.313C98.1275 51.2852 98.0843 51.2455 98.0843 51.1979L98.049 47.2064V47.2104Z" fill="#57B9B1"/>
<path d="M100.231 50.7411C99.9131 50.765 99.7522 50.626 99.7444 50.3201L99.6973 47.5837C99.6973 47.4407 99.7365 47.3335 99.8307 47.258C99.9249 47.1826 100.058 47.1429 100.231 47.1389L102.115 47.1151C102.158 47.1151 102.189 47.1389 102.213 47.1905C102.236 47.2382 102.248 47.3017 102.248 47.3732C102.248 47.4407 102.236 47.5003 102.217 47.5519C102.197 47.5996 102.166 47.6274 102.126 47.6274L100.67 47.6671L100.682 50.1613L102.252 50.0819C102.291 50.0819 102.319 50.0977 102.338 50.1414C102.358 50.1851 102.37 50.2367 102.37 50.2963C102.37 50.3638 102.358 50.4274 102.33 50.483C102.307 50.5386 102.272 50.5704 102.225 50.5704L100.235 50.7451L100.231 50.7411ZM102.746 47.2104C102.746 47.119 102.797 47.0515 102.903 47.0039C103.009 46.9562 103.131 46.9324 103.268 46.9284C103.402 46.9284 103.523 46.9562 103.626 47.0078C103.728 47.0595 103.779 47.131 103.775 47.2223L103.72 48.6163L104.273 48.6719C104.312 48.6719 104.344 48.6997 104.367 48.7434C104.391 48.7871 104.403 48.8387 104.403 48.8983C104.403 48.9619 104.391 49.0214 104.363 49.0691C104.336 49.1207 104.3 49.1446 104.253 49.1485L103.7 49.1763L103.626 51.2018C103.626 51.2535 103.582 51.2892 103.5 51.317C103.418 51.3448 103.315 51.3567 103.202 51.3567C103.088 51.3567 102.99 51.3408 102.907 51.313C102.825 51.2852 102.782 51.2455 102.782 51.1979L102.746 47.2064V47.2104Z" fill="#57B9B1"/>
</g>
<defs>
<clipPath id="clip0_6656_924">
<rect width="112" height="66" fill="white"/>
</clipPath>
</defs>
</svg>
