<svg width="24" height="24" viewBox="0 0 24 24" fill="none" xmlns="http://www.w3.org/2000/svg">
<mask id="mask0_1_3066" style="mask-type:alpha" maskUnits="userSpaceOnUse" x="0" y="0" width="24" height="24">
<rect width="24" height="24" fill="#D9D9D9"/>
</mask>
<g mask="url(#mask0_1_3066)">
<path d="M12.4976 13.2754L16.6911 9.21648C16.8337 9.07864 17.013 9.00805 17.2288 9.00473C17.4445 9.00158 17.627 9.07216 17.7763 9.21648C17.9254 9.36097 18 9.53602 18 9.74162C18 9.94723 17.9254 10.1223 17.7763 10.2668L13.1491 14.7452C13.0526 14.8383 12.951 14.9041 12.8441 14.9425C12.7372 14.9808 12.6217 15 12.4976 15C12.3735 15 12.2581 14.9808 12.1511 14.9425C12.0442 14.9041 11.9426 14.8383 11.8461 14.7452L7.21889 10.2668C7.07647 10.1288 7.00354 9.95528 7.0001 9.74636C6.99684 9.5376 7.06977 9.36097 7.21889 9.21648C7.36818 9.07216 7.54905 9 7.76149 9C7.97393 9 8.15479 9.07216 8.30408 9.21648L12.4976 13.2754Z" fill="#6D6F73"/>
</g>
</svg>
