<svg width="8" height="4" viewBox="0 0 8 4" fill="none" xmlns="http://www.w3.org/2000/svg">
<path d="M3.99826 2.85024L7.0481 0.144322C7.1518 0.0524255 7.28216 0.00536991 7.43915 0.00315553C7.59603 0.00105187 7.72875 0.0481074 7.83732 0.144322C7.94578 0.240648 8 0.357345 8 0.494415C8 0.631486 7.94578 0.748183 7.83732 0.844509L4.47206 3.8301C4.40192 3.89221 4.32798 3.93606 4.25023 3.96164C4.17248 3.98721 4.08849 4 3.99826 4C3.90803 4 3.82404 3.98721 3.74629 3.96164C3.66854 3.93606 3.5946 3.89221 3.52446 3.8301L0.159194 0.844509C0.0556113 0.752501 0.00257208 0.636855 7.61025e-05 0.497571C-0.00229508 0.358397 0.0507442 0.240648 0.159194 0.144322C0.26777 0.0481074 0.399308 0 0.553809 0C0.70831 0 0.839848 0.0481074 0.948423 0.144322L3.99826 2.85024Z" fill="#8D8F94"/>
</svg>
