<svg width="60" height="60" viewBox="0 0 60 60" fill="none" xmlns="http://www.w3.org/2000/svg">
<mask id="mask0_2099_4395" style="mask-type:alpha" maskUnits="userSpaceOnUse" x="0" y="0" width="60" height="60">
<rect width="60" height="60" fill="#D9D9D9"/>
</mask>
<g mask="url(#mask0_2099_4395)">
<path d="M30 41.8269C30.5721 41.8269 31.0517 41.6333 31.4387 41.2463C31.8258 40.8592 32.0194 40.3796 32.0194 39.8075C32.0194 39.2354 31.8258 38.7558 31.4387 38.3688C31.0517 37.9821 30.5721 37.7888 30 37.7888C29.4279 37.7888 28.9483 37.9821 28.5613 38.3688C28.1742 38.7558 27.9806 39.2354 27.9806 39.8075C27.9806 40.3796 28.1742 40.8592 28.5613 41.2463C28.9483 41.6333 29.4279 41.8269 30 41.8269ZM30.0006 32.6925C30.5323 32.6925 30.9775 32.5127 31.3363 32.1531C31.6954 31.794 31.875 31.3487 31.875 30.8175V19.5675C31.875 19.0363 31.6952 18.5908 31.3356 18.2313C30.976 17.8721 30.5306 17.6925 29.9994 17.6925C29.4677 17.6925 29.0225 17.8721 28.6637 18.2313C28.3046 18.5908 28.125 19.0363 28.125 19.5675V30.8175C28.125 31.3487 28.3048 31.794 28.6644 32.1531C29.024 32.5127 29.4694 32.6925 30.0006 32.6925ZM30.0044 53.75C26.7194 53.75 23.6317 53.1267 20.7412 51.88C17.8508 50.6333 15.3367 48.9415 13.1987 46.8044C11.0608 44.6673 9.36812 42.1542 8.12062 39.265C6.87354 36.3758 6.25 33.289 6.25 30.0044C6.25 26.7194 6.87333 23.6317 8.12 20.7412C9.36667 17.8508 11.0585 15.3367 13.1956 13.1987C15.3327 11.0608 17.8458 9.36812 20.735 8.12062C23.6242 6.87354 26.711 6.25 29.9956 6.25C33.2806 6.25 36.3683 6.87333 39.2588 8.12C42.1492 9.36667 44.6633 11.0585 46.8013 13.1956C48.9392 15.3327 50.6319 17.8458 51.8794 20.735C53.1265 23.6242 53.75 26.711 53.75 29.9956C53.75 33.2806 53.1267 36.3683 51.88 39.2588C50.6333 42.1492 48.9415 44.6633 46.8044 46.8013C44.6673 48.9392 42.1542 50.6319 39.265 51.8794C36.3758 53.1265 33.289 53.75 30.0044 53.75Z" fill="#57B9B1"/>
</g>
</svg>
