<svg width="40" height="40" viewBox="0 0 40 40" fill="none" xmlns="http://www.w3.org/2000/svg">
<path d="M3.11111 28H20.8889C21.5 28 22 27.4 22 26.6667C22 25.9333 21.5 25.3333 20.8889 25.3333H3.11111C2.5 25.3333 2 25.9333 2 26.6667C2 27.4 2.5 28 3.11111 28ZM3.11111 21.3333H20.8889C21.5 21.3333 22 20.7333 22 20C22 19.2667 21.5 18.6667 20.8889 18.6667H3.11111C2.5 18.6667 2 19.2667 2 20C2 20.7333 2.5 21.3333 3.11111 21.3333ZM2 13.3333C2 14.0667 2.5 14.6667 3.11111 14.6667H20.8889C21.5 14.6667 22 14.0667 22 13.3333C22 12.6 21.5 12 20.8889 12H3.11111C2.5 12 2 12.6 2 13.3333Z" fill="#333333"/>
</svg>
