<svg width="40" height="40" viewBox="0 0 40 40" fill="none" xmlns="http://www.w3.org/2000/svg">
<mask id="mask0_88_1157" style="mask-type:alpha" maskUnits="userSpaceOnUse" x="0" y="8" width="24" height="24">
<rect y="8" width="24" height="24" fill="#D9D9D9"/>
</mask>
<g mask="url(#mask0_88_1157)">
<path d="M11.9998 21.4L7.0998 26.3C6.91647 26.4834 6.68314 26.575 6.3998 26.575C6.11647 26.575 5.88314 26.4834 5.6998 26.3C5.51647 26.1167 5.4248 25.8834 5.4248 25.6C5.4248 25.3167 5.51647 25.0834 5.6998 24.9L10.5998 20L5.6998 15.1C5.51647 14.9167 5.4248 14.6834 5.4248 14.4C5.4248 14.1167 5.51647 13.8834 5.6998 13.7C5.88314 13.5167 6.11647 13.425 6.3998 13.425C6.68314 13.425 6.91647 13.5167 7.0998 13.7L11.9998 18.6L16.8998 13.7C17.0831 13.5167 17.3165 13.425 17.5998 13.425C17.8831 13.425 18.1165 13.5167 18.2998 13.7C18.4831 13.8834 18.5748 14.1167 18.5748 14.4C18.5748 14.6834 18.4831 14.9167 18.2998 15.1L13.3998 20L18.2998 24.9C18.4831 25.0834 18.5748 25.3167 18.5748 25.6C18.5748 25.8834 18.4831 26.1167 18.2998 26.3C18.1165 26.4834 17.8831 26.575 17.5998 26.575C17.3165 26.575 17.0831 26.4834 16.8998 26.3L11.9998 21.4Z" fill="#6D6F73"/>
</g>
</svg>
