<svg width="40" height="40" viewBox="0 0 40 40" fill="none" xmlns="http://www.w3.org/2000/svg">
<mask id="mask0_163_1303" style="mask-type:alpha" maskUnits="userSpaceOnUse" x="16" y="8" width="24" height="24">
<rect x="16" y="8" width="24" height="24" fill="#D9D9D9"/>
</mask>
<g mask="url(#mask0_163_1303)">
<path d="M22.2305 21.5C21.818 21.5 21.4649 21.3531 21.1712 21.0592C20.8774 20.7656 20.7305 20.4125 20.7305 20C20.7305 19.5875 20.8774 19.2344 21.1712 18.9408C21.4649 18.6469 21.818 18.5 22.2305 18.5C22.643 18.5 22.9961 18.6469 23.29 18.9408C23.5836 19.2344 23.7305 19.5875 23.7305 20C23.7305 20.4125 23.5836 20.7656 23.29 21.0592C22.9961 21.3531 22.643 21.5 22.2305 21.5ZM27.9997 21.5C27.5872 21.5 27.2341 21.3531 26.9405 21.0592C26.6466 20.7656 26.4997 20.4125 26.4997 20C26.4997 19.5875 26.6466 19.2344 26.9405 18.9408C27.2341 18.6469 27.5872 18.5 27.9997 18.5C28.4122 18.5 28.7653 18.6469 29.059 18.9408C29.3528 19.2344 29.4997 19.5875 29.4997 20C29.4997 20.4125 29.3528 20.7656 29.059 21.0592C28.7653 21.3531 28.4122 21.5 27.9997 21.5ZM33.769 21.5C33.3565 21.5 33.0033 21.3531 32.7095 21.0592C32.4158 20.7656 32.269 20.4125 32.269 20C32.269 19.5875 32.4158 19.2344 32.7095 18.9408C33.0033 18.6469 33.3565 18.5 33.769 18.5C34.1815 18.5 34.5346 18.6469 34.8282 18.9408C35.1221 19.2344 35.269 19.5875 35.269 20C35.269 20.4125 35.1221 20.7656 34.8282 21.0592C34.5346 21.3531 34.1815 21.5 33.769 21.5Z" fill="#333333"/>
</g>
</svg>
