<svg width="36" height="36" viewBox="0 0 36 36" fill="none" xmlns="http://www.w3.org/2000/svg">
<g clip-path="url(#clip0_4040_1099)">
<g filter="url(#filter1_f_4040_1099)">
<path d="M17.991 26C17.7881 26 17.5843 25.9629 17.3797 25.8886C17.1751 25.8142 16.995 25.6978 16.8395 25.5394L15.4786 24.2777C13.7989 22.7157 12.2992 21.1812 10.9795 19.6742C9.65984 18.1672 9 16.5529 9 14.8311C9 13.4598 9.45332 12.3118 10.3599 11.387C11.2667 10.4623 12.3924 10 13.7368 10C14.5007 10 15.2553 10.1796 16.0006 10.5389C16.7457 10.8982 17.4122 11.4816 18 12.2892C18.5878 11.4816 19.2543 10.8982 19.9994 10.5389C20.7447 10.1796 21.4993 10 22.2632 10C23.6076 10 24.7333 10.4623 25.6401 11.387C26.5467 12.3118 27 13.4598 27 14.8311C27 16.5715 26.3289 18.2039 24.9868 19.7281C23.6447 21.2523 22.1484 22.7737 20.4977 24.2925L19.1513 25.5394C18.9959 25.6978 18.8144 25.8142 18.6068 25.8886C18.399 25.9629 18.1937 26 17.991 26Z" fill="#E4E7EA" fill-opacity="0.4"/>
</g>
<path d="M17.991 26C17.7881 26 17.5843 25.9629 17.3797 25.8886C17.1751 25.8142 16.995 25.6978 16.8395 25.5394L15.4786 24.2777C13.7989 22.7157 12.2992 21.1812 10.9795 19.6742C9.65984 18.1672 9 16.5529 9 14.8311C9 13.4598 9.45332 12.3118 10.3599 11.387C11.2667 10.4623 12.3924 10 13.7368 10C14.5007 10 15.2553 10.1796 16.0006 10.5389C16.7457 10.8982 17.4122 11.4816 18 12.2892C18.5878 11.4816 19.2543 10.8982 19.9994 10.5389C20.7447 10.1796 21.4993 10 22.2632 10C23.6076 10 24.7333 10.4623 25.6401 11.387C26.5467 12.3118 27 13.4598 27 14.8311C27 16.5715 26.3289 18.2039 24.9868 19.7281C23.6447 21.2523 22.1484 22.7737 20.4977 24.2925L19.1513 25.5394C18.9959 25.6978 18.8144 25.8142 18.6068 25.8886C18.399 25.9629 18.1937 26 17.991 26ZM17.3186 13.7571C16.8061 12.9606 16.2665 12.3769 15.6998 12.0059C15.1333 11.6348 14.4789 11.4493 13.7368 11.4493C12.7895 11.4493 12 11.7714 11.3684 12.4155C10.7368 13.0597 10.4211 13.8649 10.4211 14.8311C10.4211 15.6064 10.6661 16.4172 11.1562 17.2633C11.6463 18.1093 12.2615 18.9504 13.0017 19.7865C13.7419 20.6228 14.5438 21.4397 15.4075 22.2373C16.2711 23.0351 17.0714 23.7765 17.8086 24.4615C17.8633 24.5111 17.9271 24.5359 18 24.5359C18.0729 24.5359 18.1367 24.5111 18.1914 24.4615C18.9286 23.7765 19.7289 23.0351 20.5925 22.2373C21.4562 21.4397 22.2581 20.6228 22.9983 19.7865C23.7385 18.9504 24.3537 18.1093 24.8438 17.2633C25.3339 16.4172 25.5789 15.6064 25.5789 14.8311C25.5789 13.8649 25.2632 13.0597 24.6316 12.4155C24 11.7714 23.2105 11.4493 22.2632 11.4493C21.5211 11.4493 20.8667 11.6348 20.3002 12.0059C19.7335 12.3769 19.1939 12.9606 18.6814 13.7571C18.6012 13.881 18.5004 13.9739 18.3789 14.0359C18.2575 14.0977 18.1312 14.1286 18 14.1286C17.8688 14.1286 17.7425 14.0977 17.6211 14.0359C17.4996 13.9739 17.3988 13.881 17.3186 13.7571Z" fill="white"/>
</g>
<defs>
<filter id="filter1_f_4040_1099" x="-1" y="0" width="38" height="36" filterUnits="userSpaceOnUse" color-interpolation-filters="sRGB">
<feFlood flood-opacity="0" result="BackgroundImageFix"/>
<feBlend mode="normal" in="SourceGraphic" in2="BackgroundImageFix" result="shape"/>
<feGaussianBlur stdDeviation="5" result="effect1_foregroundBlur_4040_1099"/>
</filter>
<clipPath id="clip0_4040_1099">
<rect width="36" height="36" fill="white"/>
</clipPath>
</defs>
</svg>
