<svg width="36" height="36" viewBox="0 0 36 36" fill="none" xmlns="http://www.w3.org/2000/svg">
<mask id="mask0_4065_1320" style="mask-type:alpha" maskUnits="userSpaceOnUse" x="6" y="6" width="24" height="24">
<rect x="6" y="6" width="24" height="24" fill="#D9D9D9"/>
</mask>
<g mask="url(#mask0_4065_1320)">
<path d="M25.0734 27.2956L21.6244 24.0128C21.0463 24.2275 20.4523 24.3825 19.8422 24.4779C19.2323 24.5732 18.6126 24.6209 17.9831 24.6209C15.92 24.6209 14.0305 24.094 12.3148 23.0402C10.5993 21.9862 9.23958 20.5973 8.2357 18.8733C8.15403 18.7383 8.09433 18.6007 8.0566 18.4607C8.01887 18.3208 8 18.1784 8 18.0337C8 17.8889 8.02042 17.745 8.06125 17.602C8.10209 17.4591 8.16334 17.3231 8.24501 17.194C8.63571 16.5703 9.051 15.9668 9.49087 15.3835C9.93058 14.8001 10.4419 14.284 11.0249 13.8353L8.8122 11.6961C8.67663 11.5659 8.60721 11.4046 8.60394 11.2121C8.60084 11.0197 8.67532 10.8505 8.82739 10.7044C8.96933 10.5681 9.14149 10.5 9.34387 10.5C9.54608 10.5 9.71816 10.5681 9.8601 10.7044L26.1061 26.3039C26.2418 26.4343 26.3138 26.5956 26.3219 26.7879C26.3301 26.9803 26.2582 27.1495 26.1061 27.2956C25.9641 27.4319 25.792 27.5 25.5896 27.5C25.3874 27.5 25.2153 27.4319 25.0734 27.2956ZM17.9831 21.8703C18.2005 21.8703 18.4081 21.8579 18.6059 21.8331C18.8039 21.8083 18.9971 21.7543 19.1856 21.671L14.195 16.879C14.1145 17.06 14.0598 17.2456 14.0309 17.4356C14.002 17.6256 13.9875 17.8249 13.9875 18.0337C13.9875 19.1014 14.3754 20.0078 15.1513 20.7528C15.9272 21.4978 16.8711 21.8703 17.9831 21.8703ZM17.9831 11.4464C20.0524 11.4464 21.9506 11.9758 23.6776 13.0344C25.4045 14.0931 26.7669 15.4905 27.7645 17.2265C27.8398 17.346 27.8979 17.4742 27.9387 17.6112C27.9796 17.7481 28 17.8889 28 18.0337C28 18.1784 27.9821 18.3193 27.9463 18.4562C27.9106 18.5931 27.855 18.7213 27.7795 18.8408C27.4817 19.3849 27.1488 19.8976 26.7808 20.379C26.4127 20.8603 26.0011 21.3133 25.5462 21.7381C25.3427 21.9335 25.1015 22.0233 24.8225 22.0077C24.5437 21.992 24.3024 21.8864 24.0987 21.691L22.0446 19.7275C21.9428 19.6298 21.8756 19.517 21.8429 19.389C21.8103 19.2612 21.8122 19.1279 21.8486 18.9891C21.895 18.8275 21.9282 18.6707 21.9483 18.5185C21.9686 18.3666 21.9787 18.2049 21.9787 18.0337C21.9787 16.9659 21.5908 16.0595 20.8149 15.3146C20.039 14.5696 19.0951 14.1971 17.9831 14.1971C17.8047 14.1971 17.638 14.2083 17.4828 14.2307C17.3276 14.253 17.1689 14.2865 17.0067 14.3312C16.8623 14.3721 16.7179 14.3769 16.5733 14.3455C16.4289 14.3142 16.3059 14.2496 16.2041 14.1519L15.2917 13.276C15.0129 13.0082 14.9202 12.6963 15.0138 12.3404C15.1074 11.9846 15.3427 11.7578 15.7197 11.6601C16.0903 11.5876 16.4635 11.5339 16.8392 11.4989C17.2148 11.4639 17.5961 11.4464 17.9831 11.4464ZM19.8809 16.2565C20.0795 16.4665 20.2432 16.7021 20.3719 16.9633C20.5006 17.2244 20.5813 17.4974 20.614 17.7822C20.6303 17.8956 20.5861 17.9743 20.4812 18.0184C20.3763 18.0623 20.278 18.0403 20.1862 17.9523L18.0831 15.9418C17.9913 15.8536 17.9708 15.7592 18.0218 15.6585C18.0726 15.5578 18.157 15.5075 18.2751 15.5075C18.5919 15.5327 18.884 15.609 19.1515 15.7364C19.4192 15.8636 19.6624 16.037 19.8809 16.2565Z" fill="#E4E7EA"/>
</g>
</svg>
