<svg width="20" height="20" viewBox="0 0 20 20" fill="none" xmlns="http://www.w3.org/2000/svg">
<mask id="mask0_1_3429" style="mask-type:alpha" maskUnits="userSpaceOnUse" x="0" y="0" width="20" height="20">
<rect width="20" height="20" fill="#D9D9D9"/>
</mask>
<g mask="url(#mask0_1_3429)">
<path d="M10.4146 11.0628L13.9092 7.6804C14.028 7.56553 14.1774 7.50671 14.3573 7.50394C14.537 7.50131 14.6891 7.56013 14.8135 7.6804C14.9378 7.80081 14.9999 7.94668 14.9999 8.11802C14.9999 8.28936 14.9378 8.43523 14.8135 8.55564L10.9575 12.2876C10.8771 12.3653 10.7924 12.4201 10.7033 12.452C10.6142 12.484 10.518 12.5 10.4146 12.5C10.3112 12.5 10.215 12.484 10.1259 12.452C10.0368 12.4201 9.95206 12.3653 9.8717 12.2876L6.01566 8.55564C5.89697 8.44063 5.8362 8.29607 5.83334 8.12196C5.83062 7.948 5.8914 7.80081 6.01566 7.6804C6.14007 7.56013 6.29079 7.5 6.46782 7.5C6.64486 7.5 6.79558 7.56013 6.91999 7.6804L10.4146 11.0628Z" fill="#6D6F73"/>
</g>
</svg>
