<svg width="48" height="48" viewBox="0 0 48 48" fill="none" xmlns="http://www.w3.org/2000/svg">
<path fill-rule="evenodd" clip-rule="evenodd" d="M33 14C33.7571 14 34.4159 13.5793 34.7555 12.959C35.0207 12.4745 35.4477 12 36 12H41C42.1046 12 43 12.8954 43 14V32C43 33.1046 42.1046 34 41 34H36C35.4477 34 35.0207 33.5255 34.7555 33.041C34.4159 32.4207 33.7571 32 33 32C32.2429 32 31.5841 32.4207 31.2445 33.041C30.9793 33.5255 30.5523 34 30 34H10C8.89543 34 8 33.1046 8 32V14C8 12.8954 8.89543 12 10 12H30C30.5523 12 30.9793 12.4745 31.2445 12.959C31.5841 13.5793 32.2429 14 33 14Z" fill="url(#paint0_linear_2_144)" fill-opacity="0.4"/>
<path fill-rule="evenodd" clip-rule="evenodd" d="M30 17C30.7571 17 31.4159 16.5793 31.7555 15.959C32.0207 15.4745 32.4477 15 33 15H38C39.1046 15 40 15.8954 40 17V35C40 36.1046 39.1046 37 38 37H33C32.4477 37 32.0207 36.5255 31.7555 36.041C31.4159 35.4207 30.7571 35 30 35C29.2429 35 28.5841 35.4207 28.2445 36.041C27.9793 36.5255 27.5523 37 27 37H7C5.89543 37 5 36.1046 5 35V17C5 15.8954 5.89543 15 7 15H27C27.5523 15 27.9793 15.4745 28.2445 15.959C28.5841 16.5793 29.2429 17 30 17Z" fill="url(#paint1_linear_2_144)"/>
<mask id="mask0_2_144" style="mask-type:alpha" maskUnits="userSpaceOnUse" x="5" y="15" width="35" height="22">
<path fill-rule="evenodd" clip-rule="evenodd" d="M30 17C30.7571 17 31.4159 16.5793 31.7555 15.959C32.0207 15.4745 32.4477 15 33 15H38C39.1046 15 40 15.8954 40 17V35C40 36.1046 39.1046 37 38 37H33C32.4477 37 32.0207 36.5255 31.7555 36.041C31.4159 35.4207 30.7571 35 30 35C29.2429 35 28.5841 35.4207 28.2445 36.041C27.9793 36.5255 27.5523 37 27 37H7C5.89543 37 5 36.1046 5 35V17C5 15.8954 5.89543 15 7 15H27C27.5523 15 27.9793 15.4745 28.2445 15.959C28.5841 16.5793 29.2429 17 30 17Z" fill="url(#paint2_linear_2_144)"/>
</mask>
<g mask="url(#mask0_2_144)">
<path d="M5 20H40V37H5V20Z" fill="url(#paint3_linear_2_144)"/>
</g>
<path d="M21.7465 24.6866C21.7028 24.5439 21.6185 24.4183 21.5047 24.3261C21.391 24.234 21.253 24.1797 21.109 24.1703L18.5155 23.9846L17.555 21.471C17.5025 21.3326 17.4112 21.2137 17.2929 21.1297C17.1746 21.0458 17.0347 21.0006 16.8913 21C16.7479 21.0006 16.608 21.0458 16.4897 21.1297C16.3714 21.2137 16.2801 21.3326 16.2276 21.471L15.2496 23.9982L12.6736 24.1703C12.5297 24.1803 12.3921 24.2349 12.2784 24.3269C12.1648 24.4189 12.0804 24.5442 12.0361 24.6866C11.9907 24.8311 11.9881 24.9865 12.0285 25.1326C12.069 25.2787 12.1507 25.4089 12.2632 25.5063L14.2454 27.2455L13.656 29.6504C13.6152 29.8131 13.6225 29.9847 13.677 30.143C13.7316 30.3013 13.8307 30.439 13.9616 30.538C14.0887 30.6326 14.2401 30.6858 14.3964 30.6906C14.5528 30.6954 14.7069 30.6518 14.8392 30.5652L16.8869 29.2201H16.8957L19.1006 30.6649C19.2137 30.7411 19.3455 30.782 19.4804 30.7826C19.5906 30.7817 19.699 30.7546 19.7975 30.7034C19.896 30.6523 19.9818 30.5783 20.0484 30.4874C20.1151 30.3964 20.1607 30.2908 20.1818 30.1787C20.2029 30.0665 20.199 29.9509 20.1703 29.8406L19.5459 27.2092L21.5194 25.5063C21.6319 25.4089 21.7136 25.2787 21.7541 25.1326C21.7946 24.9865 21.7919 24.8311 21.7465 24.6866Z" fill="url(#paint4_linear_2_144)"/>
<path d="M30 20V32" stroke="white" stroke-opacity="0.8" stroke-width="2" stroke-linecap="round" stroke-dasharray="2 3"/>
<defs>
<linearGradient id="paint0_linear_2_144" x1="38.625" y1="34" x2="6.35938" y2="34" gradientUnits="userSpaceOnUse">
<stop stop-color="#22BCB3"/>
<stop offset="1" stop-color="#89E3DE"/>
</linearGradient>
<linearGradient id="paint1_linear_2_144" x1="22.0139" y1="37" x2="22.0139" y2="15" gradientUnits="userSpaceOnUse">
<stop stop-color="#2DA59E"/>
<stop offset="1" stop-color="#5AEEE0"/>
</linearGradient>
<linearGradient id="paint2_linear_2_144" x1="22.0139" y1="37" x2="22.0139" y2="15" gradientUnits="userSpaceOnUse">
<stop stop-color="#2DA59E"/>
<stop offset="1" stop-color="#5AEEE0"/>
</linearGradient>
<linearGradient id="paint3_linear_2_144" x1="22.0139" y1="37" x2="22.0139" y2="20" gradientUnits="userSpaceOnUse">
<stop stop-color="#2DA59E"/>
<stop offset="1" stop-color="#5AEEE0"/>
</linearGradient>
<linearGradient id="paint4_linear_2_144" x1="14.1882" y1="21" x2="14.1882" y2="30.9953" gradientUnits="userSpaceOnUse">
<stop stop-color="#DFEFFF"/>
<stop offset="0.34" stop-color="#E3F2FE"/>
<stop offset="1" stop-color="#AAD5FE"/>
</linearGradient>
</defs>
</svg>
