<svg width="16" height="16" viewBox="0 0 16 16" fill="none" xmlns="http://www.w3.org/2000/svg">
<mask id="mask0_1_3550" style="mask-type:alpha" maskUnits="userSpaceOnUse" x="0" y="0" width="16" height="16">
<rect width="16" height="16" fill="#D9D9D9"/>
</mask>
<g mask="url(#mask0_1_3550)">
<path d="M8.00002 13.9602C7.87013 13.9602 7.74024 13.9378 7.61035 13.893C7.48035 13.8481 7.3628 13.7787 7.25768 13.6847C6.65946 13.1334 6.09963 12.5656 5.57818 11.9814C5.05685 11.3972 4.60368 10.8133 4.21868 10.2295C3.83357 9.64574 3.52885 9.06713 3.30452 8.49369C3.08018 7.92013 2.96802 7.36624 2.96802 6.83202C2.96802 5.29358 3.46563 4.04808 4.46085 3.09552C5.45618 2.14296 6.63591 1.66669 8.00002 1.66669C9.36413 1.66669 10.5438 2.14296 11.5392 3.09552C12.5344 4.04808 13.032 5.29358 13.032 6.83202C13.032 7.36624 12.9199 7.91902 12.6955 8.49035C12.4712 9.0618 12.1676 9.64046 11.7847 10.2264C11.4017 10.8122 10.9495 11.3962 10.4282 11.9782C9.90685 12.5603 9.34702 13.127 8.74868 13.6782C8.64513 13.7722 8.52741 13.8427 8.39552 13.8897C8.26374 13.9367 8.13191 13.9602 8.00002 13.9602ZM8.00118 7.91019C8.33285 7.91019 8.61641 7.79208 8.85185 7.55585C9.08741 7.31963 9.20518 7.03569 9.20518 6.70402C9.20518 6.37235 9.08707 6.08874 8.85085 5.85319C8.61463 5.61774 8.33063 5.50002 7.99885 5.50002C7.66718 5.50002 7.38363 5.61813 7.14818 5.85435C6.91263 6.09058 6.79485 6.37458 6.79485 6.70635C6.79485 7.03802 6.91296 7.32158 7.14918 7.55702C7.38541 7.79247 7.66941 7.91019 8.00118 7.91019Z" fill="white"/>
</g>
</svg>
