<svg width="48" height="48" viewBox="0 0 48 48" fill="none" xmlns="http://www.w3.org/2000/svg">
<path fill-rule="evenodd" clip-rule="evenodd" d="M33.8584 7.13486C33.7657 6.69608 33.4358 6.33269 32.9939 6.25636L27.0279 5.22601C25.263 4.92119 23.4594 4.91488 21.6923 5.20734L14.521 6.39427C14.0827 6.46681 13.752 6.82206 13.6526 7.25505C12.9567 10.287 10.3364 12.5413 7.21029 12.5413C7.09525 12.5413 7 12.6332 7 12.7482V27.2626C7 31.2402 9.1473 34.9079 12.6158 36.8548L22.8615 42.6058C23.7907 43.1273 24.9267 43.1169 25.8461 42.5784L35.5594 36.8892C38.9293 34.9154 41 31.3029 41 27.3975V13.1802C41 12.8199 40.6875 12.5413 40.3272 12.5413C37.1599 12.5413 34.5118 10.2273 33.8584 7.13486Z" fill="url(#paint0_linear_2_156)"/>
<path fill-rule="evenodd" clip-rule="evenodd" d="M33.8584 7.13488C33.7657 6.6961 33.4358 6.33271 32.9939 6.25638L27.0279 5.22603C25.263 4.92121 23.4594 4.9149 21.6923 5.20736L14.521 6.39428C14.0827 6.46683 13.752 6.82208 13.6526 7.25507C12.9567 10.2871 10.3364 12.5413 7.21029 12.5413C7.09525 12.5413 7 12.6332 7 12.7482V27.2626C7 31.2402 9.1473 34.9079 12.6158 36.8548L22.8615 42.6058C23.7907 43.1273 24.9267 43.1169 25.8461 42.5784L35.5594 36.8892C38.9293 34.9154 41 31.3029 41 27.3975V13.1802C41 12.8199 40.6875 12.5413 40.3272 12.5413C37.1599 12.5413 34.5118 10.2273 33.8584 7.13488Z" fill="url(#paint1_linear_2_156)"/>
<path fill-rule="evenodd" clip-rule="evenodd" d="M28.2353 19.1245L31.5136 28.7335C31.9001 29.8662 31.302 31.0984 30.1715 31.4986C29.9782 31.5671 29.7631 31.4927 29.6539 31.3195L24.3822 22.968L28.2353 19.1245ZM28.2353 19.1245L18.5616 15.7342C17.3775 15.3192 16.092 16.0097 15.7875 17.2243C15.7429 17.4026 15.8181 17.5893 15.974 17.6872L24.3822 22.968L28.2353 19.1245Z" fill="#E3F2FE"/>
<mask id="mask0_2_156" style="mask-type:alpha" maskUnits="userSpaceOnUse" x="15" y="15" width="17" height="17">
<path fill-rule="evenodd" clip-rule="evenodd" d="M28.2353 19.1245L31.5136 28.7335C31.9001 29.8662 31.302 31.0984 30.1715 31.4986C29.9782 31.5671 29.7631 31.4927 29.6539 31.3195L24.3822 22.968L28.2353 19.1245ZM28.2353 19.1245L18.5616 15.7342C17.3775 15.3192 16.092 16.0097 15.7875 17.2243C15.7429 17.4026 15.8181 17.5893 15.974 17.6872L24.3822 22.968L28.2353 19.1245Z" fill="#E3F2FE"/>
</mask>
<g mask="url(#mask0_2_156)">
<path d="M14.2294 16.0436L25.4677 22.129L31.2474 32.3782L20.9724 26.613L14.2294 16.0436Z" fill="url(#paint2_radial_2_156)"/>
</g>
<path fill-rule="evenodd" clip-rule="evenodd" d="M21.6735 25.3907L15.8539 23.7673C15.6128 23.7001 15.359 23.8208 15.2596 24.05L14.9258 24.8197C14.8239 25.0545 14.9165 25.3281 15.1402 25.4534L19.2845 27.7737L21.6735 25.3907ZM21.7959 25.5127L23.4234 31.3177C23.4908 31.5582 23.3697 31.8114 23.14 31.9105L22.3684 32.2435C22.1329 32.3451 21.8586 32.2527 21.733 32.0296L19.4069 27.8957L21.7959 25.5127Z" fill="url(#paint3_linear_2_156)"/>
<g filter="url(#filter0_d_2_156)">
<path d="M17.4698 27.5266L27.1085 16.2268C27.8708 15.3331 29.0823 14.9596 30.2172 15.2683C31.2535 15.5502 32.0631 16.3578 32.3457 17.3915C32.6552 18.5235 32.2808 19.732 31.3848 20.4924L20.0565 30.1068C19.5704 30.5194 19.012 30.8387 18.4095 31.0487C17.2404 31.4561 16.1171 30.3356 16.5255 29.1695C16.736 28.5685 17.0562 28.0115 17.4698 27.5266Z" fill="url(#paint4_linear_2_156)"/>
</g>
<path fill-rule="evenodd" clip-rule="evenodd" d="M30.2424 19.8285C30.3508 20.0644 30.6464 20.1662 30.8304 19.9827C31.77 19.0454 31.813 17.5686 30.9263 16.6842C30.0397 15.7997 28.5591 15.8426 27.6194 16.7799C27.4355 16.9634 27.5376 17.2583 27.7741 17.3665C28.2873 17.6012 28.7834 17.941 29.2249 18.3814C29.6664 18.8217 30.0071 19.3166 30.2424 19.8285Z" fill="url(#paint5_linear_2_156)"/>
<path fill-rule="evenodd" clip-rule="evenodd" d="M30.2424 19.8285C30.3508 20.0644 30.6464 20.1662 30.8304 19.9827C31.77 19.0454 31.813 17.5686 30.9263 16.6842C30.0397 15.7997 28.5591 15.8426 27.6194 16.7799C27.4355 16.9634 27.5376 17.2583 27.7741 17.3665C28.2873 17.6012 28.7834 17.941 29.2249 18.3814C29.6664 18.8217 30.0071 19.3166 30.2424 19.8285Z" fill="url(#paint6_linear_2_156)" fill-opacity="0.2"/>
<defs>
<filter id="filter0_d_2_156" x="13.4399" y="13.1616" width="22.0128" height="21.9725" filterUnits="userSpaceOnUse" color-interpolation-filters="sRGB">
<feFlood flood-opacity="0" result="BackgroundImageFix"/>
<feColorMatrix in="SourceAlpha" type="matrix" values="0 0 0 0 0 0 0 0 0 0 0 0 0 0 0 0 0 0 127 0" result="hardAlpha"/>
<feOffset dy="1"/>
<feGaussianBlur stdDeviation="1.5"/>
<feComposite in2="hardAlpha" operator="out"/>
<feColorMatrix type="matrix" values="0 0 0 0 0 0 0 0 0 0.113725 0 0 0 0 0.384314 0 0 0 0.4 0"/>
<feBlend mode="normal" in2="BackgroundImageFix" result="effect1_dropShadow_2_156"/>
<feBlend mode="normal" in="SourceGraphic" in2="effect1_dropShadow_2_156" result="shape"/>
</filter>
<linearGradient id="paint0_linear_2_156" x1="43.2667" y1="48.6401" x2="8.55338" y2="3.57449" gradientUnits="userSpaceOnUse">
<stop offset="0.335" stop-color="#51CEFF"/>
<stop offset="1" stop-color="#0C66C6" stop-opacity="0.996078"/>
</linearGradient>
<linearGradient id="paint1_linear_2_156" x1="24" y1="4.99261" x2="24" y2="42.9897" gradientUnits="userSpaceOnUse">
<stop stop-color="#51CEFF"/>
<stop offset="1" stop-color="#0C66C6"/>
</linearGradient>
<radialGradient id="paint2_radial_2_156" cx="0" cy="0" r="1" gradientUnits="userSpaceOnUse" gradientTransform="translate(21.6146 25.9724) rotate(-44.9278) scale(6.80287 46.0141)">
<stop stop-color="white" stop-opacity="0"/>
<stop offset="1" stop-color="#9DCDF8"/>
</radialGradient>
<linearGradient id="paint3_linear_2_156" x1="20.9738" y1="25.9713" x2="15.5402" y2="31.4187" gradientUnits="userSpaceOnUse">
<stop stop-color="#E3F2FE"/>
<stop offset="1" stop-color="#ABD5FE"/>
</linearGradient>
<linearGradient id="paint4_linear_2_156" x1="25.1466" y1="18.6059" x2="28.99" y2="22.459" gradientUnits="userSpaceOnUse">
<stop stop-color="#DFEFFF"/>
<stop offset="0.34" stop-color="#E3F2FE"/>
<stop offset="1" stop-color="#AAD5FE"/>
</linearGradient>
<linearGradient id="paint5_linear_2_156" x1="29.3209" y1="16.3639" x2="31.2403" y2="19.571" gradientUnits="userSpaceOnUse">
<stop offset="0.175" stop-color="#1888EF"/>
<stop offset="0.395" stop-color="#1888EF"/>
<stop offset="1" stop-color="#0467FA"/>
</linearGradient>
<linearGradient id="paint6_linear_2_156" x1="30.2841" y1="17.3247" x2="29.003" y2="16.0404" gradientUnits="userSpaceOnUse">
<stop stop-opacity="0"/>
<stop offset="1"/>
</linearGradient>
</defs>
</svg>
