<svg width="48" height="48" viewBox="0 0 48 48" fill="none" xmlns="http://www.w3.org/2000/svg">
<g clip-path="url(#clip0_2_150)">
<path d="M24.4004 4.05136C34.8386 4.05144 43.3008 12.5135 43.3008 22.9518C43.3007 33.39 34.8386 41.8521 24.4004 41.8521C13.9621 41.8521 5.50008 33.39 5.5 22.9518C5.5 12.5134 13.9621 4.05136 24.4004 4.05136Z" fill="url(#paint0_linear_2_150)" stroke="#E6F0FA"/>
<g filter="url(#filter0_ii_2_150)">
<path d="M24.4002 7.49538C15.864 7.49538 8.94404 14.4154 8.94404 22.9516C8.94404 31.4878 15.864 38.4078 24.4002 38.4078C32.9365 38.4078 39.8564 31.4878 39.8564 22.9516C39.8564 14.4154 32.9365 7.49538 24.4002 7.49538Z" fill="#F0F2F5"/>
</g>
<path d="M24.2944 35.2184C31.0108 35.2184 36.4555 29.7738 36.4555 23.0574C36.4555 16.341 31.0108 10.8963 24.2944 10.8963C17.578 10.8963 12.1333 16.341 12.1333 23.0574C12.1333 29.7738 17.578 35.2184 24.2944 35.2184Z" fill="url(#paint1_linear_2_150)"/>
<mask id="mask0_2_150" style="mask-type:alpha" maskUnits="userSpaceOnUse" x="5" y="3" width="39" height="40">
<path d="M24.4004 4.05136C34.8386 4.05144 43.3008 12.5135 43.3008 22.9518C43.3007 33.39 34.8386 41.8521 24.4004 41.8521C13.9621 41.8521 5.50008 33.39 5.5 22.9518C5.5 12.5134 13.9621 4.05136 24.4004 4.05136Z" fill="url(#paint2_linear_2_150)" stroke="#E6F0F9"/>
</mask>
<g mask="url(#mask0_2_150)">
<g filter="url(#filter1_f_2_150)">
<path d="M22.3378 15.9725C23.1262 15.9725 23.7655 16.6118 23.7655 17.4003V29.4471C23.7655 29.5038 23.7602 29.5602 23.7538 29.6151C23.6409 31.1533 22.4125 32.3651 20.91 32.3651H19.5536L20.1727 38.8309C20.1866 38.8768 20.1962 38.9251 20.1962 38.9754V57.3485C20.1962 57.6246 19.9723 57.8485 19.6962 57.8485H16.4139C16.1378 57.8485 15.9139 57.6246 15.9139 57.3485V56.7196C15.9138 56.7131 15.913 56.7066 15.913 56.7001V39.0712L15.9139 39.0604V38.9754C15.9139 38.9269 15.9225 38.8802 15.9354 38.8358L16.5555 32.3651H15.1991C13.6968 32.3648 12.4682 31.1532 12.3553 29.6151C12.3489 29.5602 12.3446 29.5037 12.3446 29.4471V17.4003C12.3446 16.6118 12.9839 15.9725 13.7723 15.9725C14.5607 15.9726 15.2001 16.6119 15.2001 17.4003V24.9237C15.2052 25.3305 15.5221 25.6588 15.913 25.659C16.3071 25.659 16.6267 25.3253 16.6268 24.9139V17.4003C16.6268 16.6118 17.2661 15.9725 18.0546 15.9725C18.8429 15.9726 19.4823 16.6119 19.4823 17.4003V24.9139C19.4825 25.3253 19.8021 25.659 20.1962 25.659C20.5903 25.659 20.9099 25.3253 20.91 24.9139V17.4003C20.91 16.6118 21.5493 15.9725 22.3378 15.9725ZM30.1112 15.4422C30.1115 14.7351 30.8279 14.2642 31.3944 14.6874C36.3898 18.422 35.9882 30.3541 35.9882 35.8465H34.5194V40.1122H34.5184V57.245C34.5184 57.5211 34.2946 57.745 34.0184 57.745H30.6112C30.3351 57.745 30.1112 57.5211 30.1112 57.245V15.4422Z" fill="#A3AEC3" style="mix-blend-mode:multiply"/>
</g>
</g>
<path d="M22.3374 15.9722C23.1259 15.9722 23.7652 16.6115 23.7652 17.3999V29.4468C23.7652 29.5035 23.7599 29.5597 23.7535 29.6147C23.6408 31.1531 22.4123 32.3647 20.9097 32.3647H19.5533L20.1958 39.0708V56.6997C20.1957 57.2518 19.748 57.6996 19.1958 57.6997H16.9126C16.3605 57.6996 15.9127 57.2518 15.9126 56.6997V39.0708L16.5552 32.3647H15.1997C13.6971 32.3647 12.4677 31.1532 12.355 29.6147C12.3486 29.5598 12.3443 29.5035 12.3443 29.4468V17.3999C12.3443 16.6115 12.9836 15.9722 13.772 15.9722C14.5604 15.9722 15.1997 16.6115 15.1997 17.3999V24.9136L15.2134 25.064C15.2799 25.4034 15.5679 25.6585 15.9126 25.6587C16.3069 25.6587 16.6265 25.3251 16.6265 24.9136V17.3999C16.6265 16.6115 17.2658 15.9722 18.0542 15.9722C18.8426 15.9722 19.482 16.6115 19.482 17.3999V24.9136C19.482 25.3251 19.8016 25.6587 20.1958 25.6587C20.5901 25.6587 20.9097 25.3251 20.9097 24.9136V17.3999C20.9097 16.6115 21.549 15.9722 22.3374 15.9722Z" fill="url(#paint3_linear_2_150)"/>
<path d="M22.3365 15.9722C23.125 15.9722 23.7643 16.6115 23.7643 17.3999V29.4468C23.7643 29.5035 23.759 29.5597 23.7525 29.6147C23.6398 31.1531 22.4114 32.3647 20.9088 32.3647H19.5523L20.1949 39.0708V42.4702C19.7579 42.2849 19.4822 41.9242 19.482 41.3071C19.482 38.3266 18.7682 32.3648 18.7682 31.6196C18.7694 30.8753 23.0504 32.3644 23.0504 29.3843V18.2075C23.0504 16.7647 22.4313 16.1951 21.942 16.0288C22.0674 15.9927 22.1995 15.9722 22.3365 15.9722Z" fill="#DFE6F0"/>
<path d="M13.7715 15.9722C12.9832 15.9723 12.3438 16.6116 12.3438 17.3999V29.4468C12.3438 29.5065 12.3484 29.5657 12.3555 29.6235C12.4722 31.1577 13.6996 32.3646 15.1992 32.3647H16.5557L15.9131 39.0708V42.4702C16.3504 42.285 16.6268 41.9245 16.627 41.3071C16.627 38.3266 17.3408 32.3648 17.3408 31.6196C17.3396 30.8753 13.0576 32.3644 13.0576 29.3843V18.2075C13.0577 16.7644 13.6777 16.195 14.167 16.0288C14.0414 15.9926 13.9087 15.9722 13.7715 15.9722Z" fill="white"/>
<path d="M17.341 25.6592C17.3407 26.4039 16.3075 26.4044 15.9133 26.4044C15.5192 26.4044 15.1996 26.0706 15.1994 25.6592L15.2414 25.1651C15.3402 25.4525 15.603 25.658 15.9123 25.6583C16.3065 25.6583 16.6261 25.3247 16.6261 24.9131V17.3995C16.6263 16.8712 16.9143 16.4109 17.341 16.1641V25.6592ZM21.6232 25.6592C21.6229 26.404 20.5896 26.4044 20.1955 26.4044C19.8016 26.4041 19.4828 26.0704 19.4826 25.6592L19.5285 25.1719C19.6293 25.4556 19.8887 25.6581 20.1955 25.6583C20.5897 25.6583 20.9094 25.3247 20.9094 24.9131V17.3995C20.9095 16.8715 21.1969 16.411 21.6232 16.1641V25.6592Z" fill="#F8FAFA"/>
<rect x="15.9135" y="38.4751" width="4.28282" height="19.3734" rx="0.5" fill="url(#paint4_linear_2_150)"/>
<path d="M34.5183 40.1126H30.1101V15.4427C30.1101 14.7353 30.8267 14.2645 31.3933 14.6878C36.3889 18.4225 35.9871 30.3547 35.9871 35.847H34.5183V40.1126Z" fill="url(#paint5_linear_2_150)"/>
<mask id="mask1_2_150" style="mask-type:alpha" maskUnits="userSpaceOnUse" x="30" y="14" width="6" height="26">
<path d="M34.5186 39.9793H30.1104V15.4452C30.1105 14.7386 30.8265 14.2678 31.3936 14.6893C36.3898 18.4035 35.9873 30.273 35.9873 35.7362H34.5186V39.9793Z" fill="url(#paint6_linear_2_150)"/>
</mask>
<g mask="url(#mask1_2_150)">
<path d="M31.0163 16.4057C31.0163 15.4466 31.4393 14.5996 31.6508 14.5996L32.2853 13.4084H29.1128L28.4783 40.984H31.0163V16.4057Z" fill="white"/>
</g>
<rect x="30.1104" y="38.6436" width="4.40804" height="19.1015" rx="0.5" fill="url(#paint7_linear_2_150)"/>
</g>
<defs>
<filter id="filter0_ii_2_150" x="7.94404" y="6.49538" width="33.9124" height="33.9124" filterUnits="userSpaceOnUse" color-interpolation-filters="sRGB">
<feFlood flood-opacity="0" result="BackgroundImageFix"/>
<feBlend mode="normal" in="SourceGraphic" in2="BackgroundImageFix" result="shape"/>
<feColorMatrix in="SourceAlpha" type="matrix" values="0 0 0 0 0 0 0 0 0 0 0 0 0 0 0 0 0 0 127 0" result="hardAlpha"/>
<feOffset dx="2" dy="2"/>
<feGaussianBlur stdDeviation="2"/>
<feComposite in2="hardAlpha" operator="arithmetic" k2="-1" k3="1"/>
<feColorMatrix type="matrix" values="0 0 0 0 0.688897 0 0 0 0 0.789691 0 0 0 0 0.897436 0 0 0 0.25 0"/>
<feBlend mode="normal" in2="shape" result="effect1_innerShadow_2_150"/>
<feColorMatrix in="SourceAlpha" type="matrix" values="0 0 0 0 0 0 0 0 0 0 0 0 0 0 0 0 0 0 127 0" result="hardAlpha"/>
<feOffset dx="-1" dy="-1"/>
<feGaussianBlur stdDeviation="2.5"/>
<feComposite in2="hardAlpha" operator="arithmetic" k2="-1" k3="1"/>
<feColorMatrix type="matrix" values="0 0 0 0 1 0 0 0 0 1 0 0 0 0 1 0 0 0 0.8 0"/>
<feBlend mode="normal" in2="effect1_innerShadow_2_150" result="effect2_innerShadow_2_150"/>
</filter>
<filter id="filter1_f_2_150" x="9.3446" y="11.5271" width="29.6513" height="49.3214" filterUnits="userSpaceOnUse" color-interpolation-filters="sRGB">
<feFlood flood-opacity="0" result="BackgroundImageFix"/>
<feBlend mode="normal" in="SourceGraphic" in2="BackgroundImageFix" result="shape"/>
<feGaussianBlur stdDeviation="1.5" result="effect1_foregroundBlur_2_150"/>
</filter>
<linearGradient id="paint0_linear_2_150" x1="12.6241" y1="9.70343" x2="36.9124" y2="36.1998" gradientUnits="userSpaceOnUse">
<stop stop-color="#F5FAFF"/>
<stop offset="1" stop-color="#EDF0F5"/>
</linearGradient>
<linearGradient id="paint1_linear_2_150" x1="17.1889" y1="12.6901" x2="29.522" y2="33.8557" gradientUnits="userSpaceOnUse">
<stop stop-color="#F9F9F9"/>
<stop offset="1" stop-color="#EAEDEF"/>
</linearGradient>
<linearGradient id="paint2_linear_2_150" x1="12.6241" y1="9.70343" x2="36.9124" y2="36.1998" gradientUnits="userSpaceOnUse">
<stop stop-color="#F5FAFF"/>
<stop offset="1" stop-color="#EDF0F5"/>
</linearGradient>
<linearGradient id="paint3_linear_2_150" x1="18.0547" y1="15.9722" x2="18.1402" y2="44.2888" gradientUnits="userSpaceOnUse">
<stop stop-color="#F3F6FB"/>
<stop offset="1" stop-color="#F8F8F8"/>
</linearGradient>
<linearGradient id="paint4_linear_2_150" x1="15.9135" y1="48.1618" x2="20.1963" y2="48.1618" gradientUnits="userSpaceOnUse">
<stop stop-color="#DCB390"/>
<stop offset="1" stop-color="#A3735E"/>
</linearGradient>
<linearGradient id="paint5_linear_2_150" x1="35.9948" y1="27.3202" x2="27.6248" y2="27.2328" gradientUnits="userSpaceOnUse">
<stop stop-color="#F8FBFF"/>
<stop offset="1" stop-color="#E6EBF4"/>
</linearGradient>
<linearGradient id="paint6_linear_2_150" x1="30.1104" y1="27.2548" x2="35.9951" y2="27.2548" gradientUnits="userSpaceOnUse">
<stop stop-color="#DFE3EA"/>
<stop offset="1" stop-color="#EBF2F6"/>
</linearGradient>
<linearGradient id="paint7_linear_2_150" x1="34.5184" y1="48.1944" x2="30.1104" y2="48.1944" gradientUnits="userSpaceOnUse">
<stop stop-color="#A3735E"/>
<stop offset="1" stop-color="#DCB390"/>
</linearGradient>
<clipPath id="clip0_2_150">
<rect width="48" height="48" fill="white"/>
</clipPath>
</defs>
</svg>
