<svg width="48" height="48" viewBox="0 0 48 48" fill="none" xmlns="http://www.w3.org/2000/svg">
<path d="M32 12.25H15C12.9289 12.25 11.25 13.9289 11.25 16V36C11.25 38.0711 12.9289 39.75 15 39.75H32C34.0711 39.75 35.75 38.0711 35.75 36V16C35.75 13.9289 34.0711 12.25 32 12.25Z" fill="url(#paint0_linear_2_141)" stroke="#FFE29E" stroke-width="0.5"/>
<path d="M25 17C25 16.4477 25.4477 16 26 16C26.5523 16 27 16.4477 27 17V35C27 35.5523 26.5523 36 26 36C25.4477 36 25 35.5523 25 35V17Z" fill="url(#paint1_linear_2_141)"/>
<path d="M29 17C29 16.4477 29.4477 16 30 16C30.5523 16 31 16.4477 31 17V35C31 35.5523 30.5523 36 30 36C29.4477 36 29 35.5523 29 35V17Z" fill="url(#paint2_linear_2_141)"/>
<path d="M16 17C16 16.4477 16.4477 16 17 16C17.5523 16 18 16.4477 18 17V35C18 35.5523 17.5523 36 17 36C16.4477 36 16 35.5523 16 35V17Z" fill="url(#paint3_linear_2_141)"/>
<path d="M21 7H19V12H21V7Z" fill="url(#paint4_linear_2_141)"/>
<path d="M29 7H27V12H29V7Z" fill="url(#paint5_linear_2_141)"/>
<path d="M22 17C22 16.4477 21.5523 16 21 16C20.4477 16 20 16.4477 20 17V35C20 35.5523 20.4477 36 21 36C21.5523 36 22 35.5523 22 35V17Z" fill="url(#paint6_linear_2_141)"/>
<path d="M15 40H18V42C18 42.5523 17.5523 43 17 43H16C15.4477 43 15 42.5523 15 42V40Z" fill="url(#paint7_linear_2_141)"/>
<path d="M30 40H33V42C33 42.5523 32.5523 43 32 43H31C30.4477 43 30 42.5523 30 42V40Z" fill="url(#paint8_linear_2_141)"/>
<path d="M28 6C29.1046 6 30 6.89543 30 8C30 8.55229 29.5523 9 29 9H19C18.4477 9 18 8.55228 18 8C18 6.89543 18.8954 6 20 6H28Z" fill="url(#paint9_linear_2_141)"/>
<defs>
<linearGradient id="paint0_linear_2_141" x1="17.25" y1="17.6" x2="30.6893" y2="38.5989" gradientUnits="userSpaceOnUse">
<stop stop-color="#FDF287"/>
<stop offset="1" stop-color="#FEB739"/>
</linearGradient>
<linearGradient id="paint1_linear_2_141" x1="25" y1="28" x2="27" y2="28" gradientUnits="userSpaceOnUse">
<stop stop-color="#FFB97F"/>
<stop offset="0.175" stop-color="#FEB739"/>
</linearGradient>
<linearGradient id="paint2_linear_2_141" x1="29" y1="28" x2="31" y2="28" gradientUnits="userSpaceOnUse">
<stop stop-color="#FFB97F"/>
<stop offset="0.175" stop-color="#FEB739"/>
</linearGradient>
<linearGradient id="paint3_linear_2_141" x1="16" y1="28" x2="18" y2="28" gradientUnits="userSpaceOnUse">
<stop stop-color="#FFB97F"/>
<stop offset="0.175" stop-color="#FEB739"/>
</linearGradient>
<linearGradient id="paint4_linear_2_141" x1="19.4474" y1="7" x2="19.4474" y2="12.1087" gradientUnits="userSpaceOnUse">
<stop stop-color="#DFEFFF"/>
<stop offset="0.34" stop-color="#E3F2FE"/>
<stop offset="1" stop-color="#AAD5FE"/>
</linearGradient>
<linearGradient id="paint5_linear_2_141" x1="27.4474" y1="7" x2="27.4474" y2="12.1087" gradientUnits="userSpaceOnUse">
<stop stop-color="#DFEFFF"/>
<stop offset="0.34" stop-color="#E3F2FE"/>
<stop offset="1" stop-color="#AAD5FE"/>
</linearGradient>
<linearGradient id="paint6_linear_2_141" x1="20" y1="28" x2="22" y2="28" gradientUnits="userSpaceOnUse">
<stop stop-color="#FFB97F"/>
<stop offset="0.175" stop-color="#FEB739"/>
</linearGradient>
<linearGradient id="paint7_linear_2_141" x1="17.1" y1="40.3" x2="15.3" y2="42.55" gradientUnits="userSpaceOnUse">
<stop stop-color="#525E6C"/>
<stop offset="1" stop-color="#242526"/>
</linearGradient>
<linearGradient id="paint8_linear_2_141" x1="32.1" y1="40.3" x2="30.3" y2="42.55" gradientUnits="userSpaceOnUse">
<stop stop-color="#525E6C"/>
<stop offset="1" stop-color="#242526"/>
</linearGradient>
<linearGradient id="paint9_linear_2_141" x1="28.8" y1="8.1" x2="27.4868" y2="3.89786" gradientUnits="userSpaceOnUse">
<stop stop-color="#525E6C"/>
<stop offset="1" stop-color="#242526"/>
</linearGradient>
</defs>
</svg>
