<svg width="88" height="147" viewBox="0 0 88 147" fill="none" xmlns="http://www.w3.org/2000/svg">
<g clip-path="url(#clip0_2798_19590)">
<path d="M72.552 31.0084C71.968 32.689 71.112 34.1928 70.432 35.2302C74.112 37.2969 76.632 41.2131 76.632 45.7486V76.6443H70.168V69.9296C70.168 64.3005 65.616 59.7248 60.016 59.7248H43.976L35.328 47.7107C47.48 47.2121 60.064 42.9662 67.336 33.9677C68.736 32.3674 70.064 29.8745 70.064 29.8745C71.504 27.2369 72.584 24.3258 73.128 21.0368C72.376 24.1167 71.056 27.0117 69.336 29.6252C67.824 29.1749 66.232 28.9175 64.576 28.9175H53.552V16.5576H57.504C58.792 16.5576 59.832 15.5042 59.832 14.2175C59.832 12.9309 58.784 11.8774 57.504 11.8774H23.792C22.504 11.8774 21.464 12.9309 21.464 14.2175C21.464 15.5042 22.512 16.5576 23.792 16.5576H27.744V28.9175H16.72C7.504 28.9417 0 36.4847 0 45.7486V119.747C0 127.041 4.656 133.249 11.128 135.565V135.629C11.128 141.894 16.2 146.992 22.432 146.992C28.664 146.992 33.168 142.376 33.64 136.554H47.656C48.128 142.384 52.944 146.992 58.864 146.992C65.096 146.992 70.168 141.894 70.168 135.629V135.565C76.64 133.249 81.296 127.041 81.296 119.747V45.7486C81.296 39.3877 77.752 33.8551 72.544 31.0084H72.552ZM60.016 64.4211C63.04 64.4211 65.504 66.8979 65.504 69.9376V76.6523H40.84C39.976 73.1382 37.232 70.3799 33.736 69.5114V64.4291H60.024L60.016 64.4211ZM53.504 81.3406V93.0089H33.736V88.4895C37.232 87.621 39.976 84.8628 40.84 81.3486H53.504V81.3406ZM38.224 59.7329H24.584L31.408 50.2518L38.232 59.7329H38.224ZM32.408 16.5818H48.888V28.9417H32.408V16.5818ZM16.72 33.6299H64.576C65.08 33.6299 65.56 33.7184 66.048 33.7827C64.864 35.0131 63.584 36.1389 62.216 37.128C46.704 47.2765 24.608 45.7325 8.936 36.5731C11.04 34.7638 13.736 33.6299 16.72 33.6299ZM4.664 45.7486C4.664 44.1724 4.984 42.6686 5.536 41.2855C11.4 44.4297 17.656 46.1828 23.992 47.0995C25.168 47.2845 26.376 47.4292 27.6 47.5418L18.824 59.7409H4.664V45.7566V45.7486ZM22.432 142.312C19.072 142.312 16.312 139.779 15.88 136.514C16.16 136.53 16.432 136.554 16.72 136.554H28.976C28.528 139.795 25.776 142.304 22.432 142.304V142.312ZM29.072 131.866H16.72C10.072 131.866 4.664 126.43 4.664 119.747V96.3059H19.424C20.288 96.3059 20.984 97.0136 20.984 97.8741V115.453C20.984 116.748 22.032 117.793 23.312 117.793C24.592 117.793 25.64 116.74 25.64 115.453V97.8741C25.64 94.4242 22.848 91.6177 19.416 91.6177H4.664V64.4211H29.072V69.5034C24.824 70.5649 21.656 74.4007 21.656 78.9924C21.656 83.5842 24.824 87.42 29.072 88.4815V131.866ZM31.4 84.1069C28.592 84.1069 26.312 81.815 26.312 78.9924C26.312 76.1698 28.592 73.878 31.4 73.878C34.208 73.878 36.488 76.1698 36.488 78.9924C36.488 81.815 34.208 84.1069 31.4 84.1069ZM58.864 142.312C55.52 142.312 52.768 139.803 52.32 136.562H64.576C64.856 136.562 65.136 136.53 65.416 136.522C64.984 139.787 62.232 142.32 58.864 142.32V142.312ZM65.504 131.769C65.192 131.793 64.896 131.866 64.576 131.866H33.728V97.6891H45.88L36.216 114.271C35.568 115.389 35.936 116.82 37.048 117.479C38.16 118.131 39.584 117.761 40.24 116.643L49.616 100.56L58.992 116.643C59.424 117.391 60.208 117.801 61.008 117.801C61.408 117.801 61.816 117.697 62.184 117.479C63.296 116.828 63.672 115.389 63.016 114.271L53.352 97.6891H63.304C64.52 97.6891 65.504 98.6782 65.504 99.9005V131.769ZM76.632 119.747C76.632 124.395 73.992 128.384 70.168 130.418V109.277H76.632V119.747ZM76.632 104.589H70.168V99.9005C70.168 96.0969 67.088 93.0009 63.304 93.0009H58.16V81.3325H76.632V104.589Z" fill="#57B9B1"/>
<path d="M65.432 13.8235L87.48 0.0563157C87.728 -0.104516 88.048 0.120648 87.992 0.410145L83.336 25.1621C83.28 25.4516 82.912 25.5401 82.736 25.3069L77.176 18.0614C76.984 17.8121 76.584 17.9327 76.568 18.2464L76.304 22.428L74.72 16.5415C74.696 16.437 74.72 16.3244 74.776 16.244L81.176 8.08181L71.92 15.2147C71.848 15.2629 71.768 15.279 71.688 15.271L65.568 14.4668C65.248 14.4266 65.16 14.0084 65.432 13.8396V13.8235Z" fill="#57B9B1"/>
</g>
<defs>
<clipPath id="clip0_2798_19590">
<rect width="88" height="147" fill="white"/>
</clipPath>
</defs>
</svg>
