<svg width="90" height="40" viewBox="0 0 90 40" fill="none" xmlns="http://www.w3.org/2000/svg">
<g clip-path="url(#clip0_4017_1786)">
<path d="M29.6458 20.484C29.4544 20.484 29.3085 20.4118 29.2056 20.2673C29.1027 20.1229 29.0525 19.9496 29.0525 19.745C29.0525 19.5284 29.1075 19.3382 29.2152 19.1769C29.3228 19.0157 29.4712 18.9266 29.6625 18.9146L41.2943 18.7341C41.4737 18.7341 41.61 18.8063 41.7057 18.9507C41.8014 19.0951 41.8493 19.2756 41.8493 19.4923C41.8493 19.7209 41.7966 19.9231 41.689 20.0964C41.5813 20.2697 41.4306 20.3588 41.2416 20.3588L37.1722 20.4142L37.1363 21.856C37.5789 21.9282 37.9904 22.0245 38.3732 22.1448C39.1985 22.4096 39.8301 22.7851 40.2727 23.2713C40.7153 23.7575 40.9354 24.3135 40.9354 24.9394C40.9354 25.5652 40.7153 26.1212 40.2727 26.6074C39.8301 27.0937 39.2009 27.4692 38.3827 27.7339C37.5645 27.9987 36.6052 28.1311 35.5047 28.1311C34.4042 28.1311 33.4473 27.9987 32.6291 27.7339C31.8109 27.4692 31.1793 27.0937 30.7391 26.6074C30.2965 26.1212 30.0764 25.5652 30.0764 24.9394C30.0764 24.3135 30.2965 23.7575 30.7391 23.2713C31.1817 22.7851 31.8085 22.4096 32.6219 22.1448C32.9927 22.0245 33.3922 21.9354 33.8229 21.8752L33.8037 20.4503L29.6458 20.4864V20.484ZM29.8444 13.648C29.6889 13.648 29.5692 13.5734 29.4855 13.4217C29.4018 13.2725 29.3587 13.0896 29.3587 12.8729C29.3587 12.6563 29.4042 12.471 29.4927 12.3145C29.5836 12.1581 29.7056 12.081 29.8611 12.081L40.9186 12.0449C41.0622 12.0449 41.1746 12.1195 41.2584 12.2712C41.3421 12.4228 41.3828 12.6058 41.3828 12.8224C41.3828 13.0511 41.3349 13.2484 41.2392 13.4169C41.1435 13.5854 41.0167 13.6697 40.8636 13.6697H37.1004V14.0115C37.0885 14.7817 37.4138 15.3329 38.0765 15.6699C38.7392 16.0069 39.7177 16.2283 41.0072 16.3367C41.1387 16.3487 41.2416 16.4233 41.3206 16.5629C41.3971 16.7001 41.4378 16.8734 41.4378 17.0756C41.4378 17.3043 41.3828 17.5017 41.2775 17.6701C41.1698 17.8386 41.0191 17.9277 40.8301 17.9397C40.1962 17.9518 39.5095 17.8747 38.7679 17.7063C38.0263 17.5378 37.354 17.2971 36.7511 16.9841C36.1483 16.6712 35.72 16.3054 35.4688 15.8841C35.1817 16.4618 34.4927 16.9264 33.3994 17.2826C32.3061 17.6365 31.1554 17.8675 29.9496 17.9758C29.7582 17.9879 29.6051 17.9157 29.4927 17.7592C29.3802 17.6028 29.3228 17.4102 29.3228 17.1815C29.3228 17.001 29.3611 16.8397 29.4401 16.6953C29.5166 16.5509 29.6291 16.4739 29.7702 16.4618C30.7391 16.3294 31.5095 16.1802 32.0812 16.0117C32.6554 15.8432 33.0956 15.6001 33.4066 15.2824C33.7176 14.9646 33.8659 14.541 33.854 14.0115L33.8348 13.6697L29.8372 13.6504L29.8444 13.648ZM37.7655 24.937C37.7655 24.4796 37.5693 24.1162 37.1746 23.8466C36.7798 23.577 36.2248 23.4398 35.5071 23.4398C34.7894 23.4398 34.2344 23.5746 33.8396 23.8466C33.4449 24.1162 33.2487 24.4796 33.2487 24.937C33.2487 25.3943 33.4449 25.7578 33.8396 26.0274C34.2344 26.2969 34.7894 26.4341 35.5071 26.4341C36.2248 26.4341 36.7798 26.2993 37.1746 26.0274C37.5693 25.7578 37.7655 25.3919 37.7655 24.937Z" fill="#57B9B1"/>
<path d="M43.6268 20.3033C43.4354 20.3033 43.2894 20.2311 43.1866 20.0867C43.0837 19.9423 43.0334 19.769 43.0334 19.5644C43.0334 19.3477 43.0885 19.1576 43.1961 18.9963C43.3038 18.835 43.4521 18.746 43.6435 18.7339L55.2752 18.5534C55.4546 18.5534 55.591 18.6256 55.6867 18.77C55.7824 18.9145 55.8302 19.095 55.8302 19.3116C55.8302 19.5403 55.7776 19.7425 55.67 19.9158C55.5623 20.0891 55.4116 20.1782 55.2226 20.1782L51.1532 20.2335L51.0981 22.3084L53.536 22.2891C54.5766 22.2891 55.0838 22.7753 55.0599 23.7502L55.0049 27.1946C54.9929 27.4594 54.835 27.664 54.5288 27.8084C54.225 27.9529 53.8685 28.0251 53.4618 28.0251C53.0551 28.0251 52.6867 27.9529 52.3948 27.8084C52.1029 27.664 51.9546 27.4594 51.9546 27.1946L51.9905 23.8056L44.3373 23.8778C44.1818 23.8778 44.0598 23.8007 43.9689 23.6443C43.8803 23.4878 43.8349 23.3025 43.8349 23.0859C43.8349 22.8813 43.8756 22.7079 43.9593 22.5635C44.043 22.4191 44.1626 22.3469 44.3182 22.3469L47.7943 22.3276L47.7751 20.272L43.6172 20.3081L43.6268 20.3033ZM51.9068 17.3258L51.9953 13.5564L43.8229 13.4481C43.6555 13.4361 43.5239 13.3542 43.4282 13.205C43.3325 13.0558 43.2846 12.8728 43.2846 12.6562C43.2846 12.4516 43.3301 12.2783 43.4186 12.1339C43.5071 11.9894 43.6315 11.9172 43.7847 11.9172L53.6412 12.0424C54.6795 12.0544 55.1891 12.5407 55.1652 13.5035L55.0766 17.3258C55.0647 17.5545 54.9092 17.723 54.6101 17.8313C54.3111 17.9396 53.9642 17.9926 53.5694 17.9926C53.1508 17.9926 52.7656 17.9348 52.4139 17.8217C52.0623 17.7085 51.8924 17.5425 51.9044 17.3258H51.9068Z" fill="#57B9B1"/>
<path d="M57.0312 23.8537C57.0312 23.6973 57.0552 23.5649 57.103 23.4566C57.1509 23.3482 57.2274 23.2881 57.3351 23.276C59.103 22.939 60.4212 22.2362 61.2873 21.1675C62.1533 20.0963 62.5863 18.6545 62.5863 16.8396V14.1534L57.7657 14.0451C57.6341 14.033 57.5265 13.9488 57.4427 13.7923C57.359 13.6359 57.3159 13.4505 57.3159 13.2339C57.3159 13.0413 57.3542 12.8729 57.4332 12.7284C57.5097 12.584 57.615 12.5118 57.7466 12.5118L64.2179 12.6201C65.2323 12.6322 65.7419 13.1184 65.7419 14.0812V16.7145C65.7419 18.1563 65.4141 19.4537 64.7562 20.5994C64.0983 21.7476 63.1581 22.6863 61.9332 23.4132C60.7083 24.1402 59.2657 24.6119 57.6054 24.8286C57.438 24.8406 57.3016 24.7443 57.1939 24.5397C57.0863 24.3351 57.0312 24.1065 57.0312 23.8537ZM67.3376 12.8921C67.3376 12.5912 67.5146 12.3626 67.8663 12.2061C68.218 12.0497 68.6271 11.9654 69.0936 11.9534C69.5481 11.9534 69.9477 12.04 70.2946 12.2157C70.6414 12.389 70.8089 12.6273 70.797 12.9282L70.6175 17.581L72.4812 17.7615C72.6128 17.7736 72.7156 17.8506 72.7946 17.995C72.8711 18.1394 72.9118 18.3151 72.9118 18.5173C72.9118 18.734 72.8664 18.9265 72.7778 19.095C72.6893 19.2635 72.5649 19.3526 72.4118 19.3646L70.5481 19.4537L70.2969 26.215C70.2969 26.3835 70.1558 26.5111 69.8759 26.6025C69.596 26.694 69.2634 26.7373 68.8807 26.7373C68.4979 26.7373 68.1677 26.6892 67.8854 26.5929C67.6055 26.4966 67.4644 26.3691 67.4644 26.215L67.3376 12.8897V12.8921Z" fill="#57B9B1"/>
<path d="M73.754 14.281C73.5985 14.281 73.4788 14.2039 73.3951 14.0523C73.3114 13.9007 73.2683 13.7153 73.2683 13.4963C73.2683 13.2772 73.3138 13.0895 73.4023 12.9306C73.4908 12.7742 73.6152 12.6947 73.7683 12.6947L82.3186 12.5864C82.4622 12.5864 82.5746 12.6634 82.6584 12.8151C82.7421 12.9667 82.7852 13.1521 82.7852 13.3711C82.7852 13.6022 82.7373 13.802 82.6416 13.9729C82.5459 14.1438 82.4215 14.228 82.266 14.228L79.8473 14.2473L79.7923 18.0768C79.7803 19.4079 80.0363 20.5055 80.5626 21.3697C81.089 22.2338 81.8234 22.9366 82.7684 23.4782C82.9 23.5625 82.9646 23.6828 82.9646 23.8393C82.9646 24.0559 82.8689 24.2749 82.6775 24.4964C82.4861 24.7202 82.2828 24.831 82.0675 24.831C81.9837 24.831 81.9167 24.8189 81.8713 24.7949C81.0818 24.4338 80.3043 23.8826 79.5315 23.1364C78.7612 22.3902 78.2492 21.6344 78.0004 20.8642C77.7492 21.6344 77.2444 22.3902 76.4861 23.1364C75.7277 23.8826 74.9406 24.4338 74.1296 24.7949C74.0578 24.831 73.986 24.8502 73.9143 24.8502C73.6989 24.8502 73.498 24.7395 73.3138 24.5157C73.1272 24.2942 73.0363 24.0728 73.0363 23.8585C73.0363 23.666 73.1008 23.5408 73.2348 23.4806C74.1774 22.939 74.9143 22.2362 75.4382 21.3721C75.9645 20.5079 76.2205 19.4103 76.2085 18.0793L76.1535 14.2665L73.7516 14.2858L73.754 14.281ZM83.8258 12.8921C83.8258 12.5912 84.0029 12.3626 84.3546 12.2061C84.7062 12.0497 85.1153 11.9654 85.5818 11.9534C86.0364 11.9534 86.4359 12.04 86.7828 12.2157C87.1297 12.3914 87.2972 12.6273 87.2852 12.9282L87.1058 17.581L88.9694 17.7615C89.101 17.7736 89.2039 17.8506 89.2828 17.995C89.3594 18.1394 89.4001 18.3151 89.4001 18.5173C89.4001 18.734 89.3546 18.9265 89.2661 19.095C89.1776 19.2635 89.0532 19.3526 88.9001 19.3646L87.0364 19.4537L86.7852 26.215C86.7852 26.3835 86.6441 26.5111 86.3641 26.6025C86.0842 26.694 85.7517 26.7373 85.3689 26.7373C84.9861 26.7373 84.656 26.6892 84.3737 26.5929C84.0938 26.4966 83.9526 26.3691 83.9526 26.215L83.8258 12.8897V12.8921Z" fill="#57B9B1"/>
<path d="M20.3227 8.43914C20.1648 8.89647 19.9303 9.30567 19.7461 9.58729C20.7485 10.1505 21.4327 11.2144 21.4327 12.4492V20.857H19.6743V19.0301C19.6743 17.4992 18.4375 16.2548 16.9159 16.2548H12.5547L10.2053 12.986C13.5092 12.8488 16.9303 11.6934 18.9088 9.2479C19.2892 8.81223 19.6504 8.13585 19.6504 8.13585C20.0404 7.41856 20.337 6.62664 20.483 5.73123C20.2772 6.56888 19.9184 7.35838 19.4519 8.06846C19.0404 7.9457 18.6073 7.87589 18.1576 7.87589H15.1599V4.51327H16.2341C16.5834 4.51327 16.8681 4.22684 16.8681 3.87541C16.8681 3.52399 16.5834 3.23755 16.2341 3.23755H7.06895C6.71966 3.23755 6.43497 3.52399 6.43497 3.87541C6.43497 4.22684 6.71966 4.51327 7.06895 4.51327H8.14312V7.87589H5.14548C2.63828 7.87589 0.599976 9.92668 0.599976 12.4492V32.584C0.599976 34.5698 1.86554 36.2572 3.62632 36.8878V36.9071C3.62632 38.6112 5.00433 39.9977 6.69813 39.9977C8.39193 39.9977 9.61682 38.7436 9.74601 37.1574H13.5571C13.6862 38.7436 14.9949 39.9977 16.6049 39.9977C18.2987 39.9977 19.6767 38.6112 19.6767 36.9071V36.8878C21.4375 36.2572 22.7031 34.5674 22.7031 32.584V12.4492C22.7031 10.7186 21.739 9.2142 20.3251 8.43914H20.3227ZM16.9159 17.5305C17.7389 17.5305 18.4064 18.2045 18.4064 19.0301V20.857H11.7006C11.4661 19.899 10.7197 19.1504 9.76754 18.9121V17.5305H16.9136H16.9159ZM15.1456 22.1327V25.3076H9.77232V24.0776C10.7245 23.8417 11.4685 23.0907 11.7054 22.1327H15.148H15.1456ZM10.99 16.2548H7.28187L9.13595 13.6744L10.99 16.2548ZM9.41108 4.51327H13.892V7.87589H9.41108V4.51327ZM5.14548 9.15162H18.1552C18.2916 9.15162 18.4231 9.17569 18.5547 9.19254C18.2317 9.52711 17.8849 9.83281 17.5116 10.1024C13.2963 12.8657 7.28904 12.4444 3.02823 9.95075C3.60001 9.45972 4.33447 9.14921 5.14309 9.14921L5.14548 9.15162ZM1.86793 12.4492C1.86793 12.0208 1.95645 11.6116 2.10478 11.2361C3.70049 12.093 5.40146 12.5696 7.12158 12.8175C7.44216 12.8681 7.76991 12.9066 8.10245 12.9379L5.71726 16.2572H1.86793V12.4517V12.4492ZM6.69813 38.7244C5.78424 38.7244 5.03543 38.036 4.9182 37.1478C4.99476 37.1526 5.06892 37.1598 5.14548 37.1598H8.47805C8.35604 38.0432 7.60962 38.7244 6.69813 38.7244ZM8.50198 35.8817H5.14548C3.33924 35.8817 1.86793 34.4013 1.86793 32.584V26.2054H5.87994C6.11439 26.2054 6.30578 26.398 6.30578 26.6339V31.4166C6.30578 31.7681 6.59047 32.0545 6.93976 32.0545C7.28904 32.0545 7.57374 31.7681 7.57374 31.4166V26.6339C7.57374 25.6951 6.81535 24.9297 5.87994 24.9297H1.86793V17.5305H8.50198V18.9121C7.34646 19.201 6.48521 20.2432 6.48521 21.4949C6.48521 22.7465 7.34646 23.7888 8.50198 24.0752V35.8817ZM9.13595 22.8861C8.37279 22.8861 7.75316 22.2627 7.75316 21.4949C7.75316 20.727 8.37279 20.1036 9.13595 20.1036C9.89912 20.1036 10.5187 20.727 10.5187 21.4949C10.5187 22.2627 9.89912 22.8861 9.13595 22.8861ZM16.6025 38.7244C15.6934 38.7244 14.9446 38.0408 14.8226 37.1598H18.1552C18.2317 37.1598 18.3083 37.1526 18.3825 37.1478C18.2652 38.036 17.5164 38.7244 16.6025 38.7244ZM18.4088 35.8576C18.3251 35.8648 18.2437 35.8841 18.1576 35.8841H9.77232V26.5857H13.0762L10.4494 31.0989C10.2723 31.4022 10.3728 31.7945 10.6766 31.9727C10.9781 32.1508 11.368 32.0497 11.5451 31.744L14.0929 27.368L16.6408 31.744C16.758 31.9462 16.971 32.0593 17.1887 32.0593C17.2987 32.0593 17.4088 32.0304 17.5093 31.9727C17.8107 31.7945 17.9136 31.4046 17.7365 31.0989L15.1097 26.5857H17.8155C18.1456 26.5857 18.4136 26.8553 18.4136 27.1875V35.86L18.4088 35.8576ZM21.4327 32.584C21.4327 33.8477 20.715 34.9357 19.6743 35.4893V29.7365H21.4327V32.584ZM21.4327 28.4608H19.6743V27.1851C19.6743 26.1501 18.837 25.3076 17.8083 25.3076H16.4112V22.1327H21.4327V28.4608Z" fill="#57B9B1"/>
<path d="M18.3872 3.76224L24.3825 0.0144948C24.4519 -0.0288317 24.538 0.031344 24.5213 0.110776L23.2557 6.84564C23.2414 6.92507 23.1409 6.94914 23.093 6.88415L21.5811 4.9128C21.5284 4.8454 21.4208 4.8791 21.416 4.96335L21.3442 6.10187L20.9136 4.49879C20.9064 4.4699 20.9136 4.44102 20.9303 4.41695L22.6696 2.19526L20.1528 4.13533C20.1337 4.14736 20.1121 4.15458 20.0882 4.14977L18.4231 3.93073C18.337 3.91869 18.3131 3.80556 18.3872 3.75983V3.76224Z" fill="#57B9B1"/>
<path d="M38.9664 31.2626C38.9664 31.1807 39.0143 31.1181 39.11 31.0748C39.2057 31.0315 39.3181 31.0098 39.4449 31.005C39.5693 31.005 39.6794 31.0291 39.7727 31.0772C39.8684 31.1254 39.9138 31.1903 39.909 31.2722L39.7727 34.9044C39.7727 34.9501 39.7344 34.9862 39.6578 35.0103C39.5813 35.0344 39.4904 35.0464 39.3851 35.0464C39.2798 35.0464 39.1889 35.0344 39.1124 35.0079C39.0358 34.9814 38.9975 34.9477 38.9975 34.9044L38.988 33.7803L38.3803 33.7611C38.2774 34.021 38.1291 34.2208 37.9377 34.3628C37.7463 34.5048 37.5286 34.5746 37.2846 34.5746C37.0406 34.5746 36.8205 34.5048 36.6315 34.3628C36.4401 34.2208 36.2942 34.021 36.1889 33.7611C36.0836 33.5011 36.031 33.1978 36.031 32.8536C36.031 32.5094 36.0836 32.2061 36.1889 31.9462C36.2942 31.6862 36.4401 31.4864 36.6315 31.3444C36.8229 31.2024 37.0406 31.1326 37.2846 31.1326C37.5286 31.1326 37.7463 31.2024 37.9353 31.3444C38.1076 31.472 38.2463 31.6501 38.3516 31.8763C38.3588 31.8739 38.366 31.8715 38.3755 31.8715L38.9688 31.8282L38.9641 31.2626H38.9664ZM37.7104 32.8536C37.7104 32.4372 37.6722 32.1195 37.5956 31.9028C37.5191 31.6862 37.4138 31.5779 37.2846 31.5779C37.1554 31.5779 37.0502 31.6862 36.9736 31.9028C36.897 32.1195 36.8588 32.4372 36.8588 32.8536C36.8588 33.27 36.897 33.5877 36.9736 33.8044C37.0502 34.021 37.1554 34.1293 37.2846 34.1293C37.4138 34.1293 37.5191 34.021 37.5956 33.8044C37.6722 33.5877 37.7104 33.27 37.7104 32.8536ZM38.5382 32.8536C38.5382 33.0173 38.5262 33.1713 38.5047 33.3158L38.9856 33.2821L38.976 32.3265L38.4904 32.312C38.5239 32.4805 38.5406 32.661 38.5406 32.8536H38.5382Z" fill="#57B9B1"/>
<path d="M40.4975 31.8835C40.4545 31.8835 40.421 31.8619 40.3995 31.8209C40.3779 31.78 40.366 31.7295 40.366 31.6717C40.366 31.6163 40.3779 31.5658 40.4019 31.5249C40.4258 31.484 40.4593 31.4599 40.5023 31.4551L41.0167 31.4503L41.0215 31.1542C41.0215 31.0844 41.0693 31.029 41.1674 30.9833C41.2655 30.9376 41.3732 30.9159 41.4976 30.9159C41.6148 30.9159 41.7153 30.9376 41.8014 30.9785C41.8851 31.0194 41.9282 31.0772 41.9282 31.1542L41.9234 31.4358L42.4473 31.4262C42.4856 31.4262 42.5167 31.4478 42.5406 31.4888C42.5646 31.5297 42.5741 31.5802 42.5741 31.638C42.5741 31.7006 42.5598 31.7535 42.5358 31.8017C42.5095 31.8474 42.476 31.8715 42.433 31.8715L42.1291 31.8763C42.1794 31.9052 42.2248 31.9389 42.2655 31.975C42.4473 32.1387 42.5406 32.3673 42.5406 32.661C42.5406 32.9691 42.4497 33.2098 42.2679 33.3831C42.0861 33.5564 41.8349 33.6406 41.5119 33.6406C41.1722 33.6406 40.9066 33.554 40.7153 33.3831C40.5239 33.2098 40.4282 32.9691 40.4282 32.661C40.4282 32.3673 40.5239 32.1411 40.7129 31.975C40.7511 31.9413 40.7942 31.9124 40.8397 31.8859H40.4975V31.8835ZM41.7822 32.6586C41.7822 32.4877 41.7583 32.3553 41.7105 32.2614C41.6626 32.1675 41.598 32.1218 41.5119 32.1218C41.4258 32.1218 41.3612 32.1675 41.311 32.2614C41.2607 32.3553 41.2368 32.4877 41.2368 32.6586C41.2368 32.8295 41.2607 32.9619 41.311 33.0557C41.3612 33.1496 41.4258 33.1953 41.5119 33.1953C41.598 33.1953 41.6626 33.1496 41.7105 33.0557C41.7583 32.9619 41.7822 32.8295 41.7822 32.6586ZM41.2727 34.6299C41.2727 34.3796 41.4066 34.1846 41.677 34.0426C41.9473 33.9006 42.3229 33.8308 42.8062 33.8308C43.2894 33.8308 43.6674 33.9006 43.9354 34.0426C44.2057 34.1846 44.3397 34.3796 44.3397 34.6299C44.3397 34.8803 44.2057 35.0752 43.9354 35.2173C43.6674 35.3569 43.2894 35.4291 42.8062 35.4291C42.3229 35.4291 41.9473 35.3569 41.677 35.2173C41.409 35.0752 41.2727 34.8803 41.2727 34.6299ZM43.4713 34.6299C43.4713 34.524 43.4115 34.4422 43.2942 34.3844C43.177 34.3242 43.0143 34.2954 42.8038 34.2954C42.5933 34.2954 42.4306 34.3242 42.3134 34.3844C42.1961 34.4446 42.1363 34.5264 42.1363 34.6299C42.1363 34.7334 42.1937 34.8177 42.3134 34.8755C42.433 34.9332 42.5933 34.9645 42.8038 34.9645C43.0143 34.9645 43.177 34.9356 43.2942 34.8755C43.4115 34.8153 43.4713 34.7334 43.4713 34.6299ZM43.7416 31.212C43.7416 31.1277 43.7799 31.0627 43.854 31.0218C43.9282 30.9809 44.0263 30.9592 44.1483 30.9544C44.2727 30.9544 44.3828 30.9785 44.4761 31.0266C44.5718 31.0748 44.6172 31.1397 44.6124 31.2216L44.4761 33.7008C44.4737 33.7442 44.4354 33.7779 44.3636 33.8043C44.2918 33.8308 44.2081 33.8428 44.1124 33.8428C44.0167 33.8428 43.9306 33.8308 43.8588 33.8043C43.7871 33.7779 43.7512 33.7442 43.7512 33.7008L43.7464 32.5069L43.4473 32.5118L43.4091 33.5757C43.4043 33.6214 43.3708 33.6575 43.3038 33.6816C43.2368 33.7056 43.1603 33.7177 43.0717 33.7177C42.9832 33.7177 42.9067 33.7056 42.8397 33.6816C42.7727 33.6575 42.7368 33.6214 42.7344 33.5757L42.7009 31.2096C42.6985 31.1253 42.732 31.0603 42.8014 31.017C42.8708 30.9737 42.9641 30.952 43.0837 30.952C43.2033 30.952 43.3038 30.9737 43.3851 31.0218C43.4641 31.0675 43.5048 31.1325 43.5 31.2192L43.4713 32.0087H43.7464V31.2096L43.7416 31.212Z" fill="#57B9B1"/>
<path d="M45.4426 34.6541C45.3948 34.6565 45.3541 34.6348 45.3254 34.5867C45.2967 34.5385 45.2823 34.4832 45.2823 34.4206C45.2823 34.3676 45.2943 34.3219 45.3158 34.2834C45.3398 34.2449 45.3709 34.2232 45.4139 34.2184L47.8541 34.0306C47.9044 34.0282 47.9427 34.0475 47.9714 34.0932C48.0001 34.139 48.0144 34.1919 48.0144 34.2545C48.0144 34.3123 48.0001 34.3652 47.9762 34.411C47.9498 34.4543 47.914 34.4783 47.8685 34.4832L45.4426 34.6565V34.6541ZM45.3733 32.4107C45.3733 32.1604 45.4211 31.9389 45.5192 31.7464C45.6173 31.5538 45.756 31.4022 45.9331 31.2963C46.1101 31.1903 46.3135 31.135 46.5431 31.135C46.7728 31.135 46.9738 31.1879 47.1532 31.2963C47.3302 31.4022 47.469 31.5538 47.5671 31.7464C47.6652 31.9413 47.713 32.1628 47.713 32.4107C47.713 32.6586 47.6628 32.8993 47.5671 33.1015C47.469 33.3013 47.3302 33.4578 47.1532 33.5709C46.9738 33.6816 46.7704 33.7394 46.5431 33.7394C46.3159 33.7394 46.1101 33.684 45.9331 33.5709C45.7536 33.4602 45.6173 33.3037 45.5192 33.1015C45.4211 32.9017 45.3733 32.6707 45.3733 32.4107ZM46.9211 32.4107C46.9211 32.1652 46.8876 31.963 46.8159 31.809C46.7465 31.6549 46.6556 31.5779 46.5431 31.5779C46.4307 31.5779 46.3422 31.6549 46.2704 31.809C46.201 31.963 46.1651 32.1628 46.1651 32.4107C46.1651 32.6731 46.201 32.8873 46.2704 33.0486C46.3422 33.2123 46.4307 33.2917 46.5431 33.2917C46.6556 33.2917 46.7441 33.2098 46.8159 33.0486C46.8876 32.8849 46.9211 32.6731 46.9211 32.4107ZM48.1771 31.2626C48.1771 31.1807 48.225 31.1181 48.3207 31.0748C48.4164 31.0315 48.5288 31.0098 48.6556 31.005C48.78 31.005 48.89 31.0291 48.9833 31.0772C49.079 31.1254 49.1245 31.1903 49.1197 31.2722L48.9833 34.9044C48.9833 34.9501 48.9451 34.9862 48.8685 35.0103C48.792 35.0344 48.701 35.0464 48.5958 35.0464C48.4905 35.0464 48.3996 35.0344 48.323 35.0079C48.2465 34.9814 48.2082 34.9477 48.2082 34.9044L48.1747 31.2626H48.1771Z" fill="#57B9B1"/>
<path d="M51.0408 34.2593C51.0408 34.216 51.0479 34.1799 51.0599 34.151C51.0743 34.1221 51.0934 34.1053 51.1245 34.1028C51.6078 34.0114 51.969 33.8188 52.2059 33.5252C52.4427 33.2315 52.5599 32.8392 52.5599 32.3409V31.6068L51.2417 31.5779C51.2058 31.5755 51.1771 31.5514 51.1532 31.5081C51.1293 31.4647 51.1197 31.4142 51.1197 31.3564C51.1197 31.3035 51.1293 31.2577 51.1508 31.2192C51.1724 31.1807 51.2011 31.1591 51.2369 31.1591L53.0049 31.1879C53.2824 31.1903 53.4212 31.3251 53.4212 31.5875V32.3072C53.4212 32.702 53.3303 33.0558 53.1508 33.3687C52.9714 33.6816 52.713 33.9392 52.3805 34.1366C52.0456 34.3363 51.6508 34.4639 51.1963 34.5241C51.1508 34.5265 51.1125 34.5024 51.0838 34.4447C51.0551 34.3893 51.0408 34.3267 51.0408 34.2569V34.2593ZM53.859 31.2626C53.859 31.1807 53.9068 31.1181 54.0025 31.0748C54.0982 31.0315 54.2107 31.0098 54.3375 31.005C54.4619 31.005 54.5695 31.0291 54.6652 31.0772C54.7609 31.1254 54.8064 31.1903 54.8016 31.2722L54.7513 32.5431L55.2609 32.5936C55.2968 32.5961 55.3255 32.6177 55.347 32.6586C55.3686 32.6996 55.3781 32.7453 55.3781 32.8006C55.3781 32.8584 55.3662 32.9114 55.3423 32.9571C55.3183 33.0028 55.2848 33.0269 55.2418 33.0317L54.7322 33.0558L54.6628 34.9044C54.6628 34.9501 54.6245 34.9862 54.548 35.0103C54.4714 35.0344 54.3805 35.0464 54.2753 35.0464C54.17 35.0464 54.0791 35.0344 54.0025 35.0079C53.926 34.9814 53.8877 34.9477 53.8877 34.9044L53.8542 31.2626H53.859Z" fill="#57B9B1"/>
<path d="M55.7346 31.9317C55.6915 31.9317 55.658 31.9124 55.6365 31.8691C55.615 31.8257 55.603 31.7776 55.603 31.7198C55.603 31.6621 55.615 31.6091 55.6389 31.5682C55.6628 31.5249 55.6963 31.5032 55.7394 31.5032L56.4308 31.4984V31.1542C56.4308 31.082 56.4786 31.0242 56.5767 30.9809C56.6748 30.9376 56.7896 30.9159 56.9188 30.9159C57.0408 30.9159 57.1509 30.9376 57.2537 30.9785C57.3566 31.0194 57.4092 31.0772 57.4092 31.1542L57.4045 31.484L58.1724 31.4743C58.2131 31.4743 58.2442 31.496 58.2657 31.5369C58.2872 31.5778 58.2992 31.6284 58.2992 31.6861C58.2992 31.7487 58.2848 31.8017 58.2585 31.8498C58.2322 31.8956 58.1987 31.9196 58.1557 31.9196L57.3973 31.9244L57.3925 32.7765C57.3901 33.1424 57.4619 33.4409 57.6078 33.6768C57.7561 33.9126 57.9595 34.1052 58.2203 34.2569C58.2561 34.2785 58.2753 34.3122 58.2753 34.3555C58.2753 34.4133 58.249 34.4759 58.1963 34.5361C58.1437 34.5962 58.0887 34.6275 58.0289 34.6275C58.0073 34.6275 57.9882 34.6251 57.9738 34.6179C57.7585 34.5192 57.5456 34.3676 57.3351 34.1654C57.1245 33.9608 56.9858 33.7538 56.9164 33.5444C56.847 33.7538 56.7107 33.9608 56.5025 34.1654C56.2944 34.37 56.0815 34.5216 55.859 34.6179C55.8398 34.6275 55.8207 34.6323 55.8016 34.6323C55.7418 34.6323 55.6867 34.6011 55.6365 34.5409C55.5863 34.4807 55.5599 34.4205 55.5599 34.3604C55.5599 34.3074 55.5767 34.2737 55.6126 34.2569C55.8733 34.1052 56.0791 33.9126 56.225 33.6768C56.3709 33.4409 56.4427 33.1424 56.4403 32.7765L56.4308 31.9293L55.7298 31.9341L55.7346 31.9317ZM58.5624 31.2625C58.5624 31.1807 58.6102 31.1181 58.7059 31.0748C58.8016 31.0314 58.914 31.0098 59.0408 31.005C59.1652 31.005 59.2753 31.029 59.3686 31.0772C59.4643 31.1253 59.5097 31.1903 59.505 31.2721L59.3686 34.9043C59.3686 34.9501 59.3303 34.9862 59.2538 35.0102C59.1772 35.0343 59.0863 35.0464 58.981 35.0464C58.8758 35.0464 58.7849 35.0343 58.7083 35.0078C58.6317 34.9814 58.5935 34.9477 58.5935 34.9043L58.56 31.2625H58.5624Z" fill="#57B9B1"/>
<path d="M60.213 33.4408C60.1604 33.4408 60.1221 33.4216 60.0934 33.3831C60.0647 33.3446 60.0527 33.3012 60.0527 33.2483C60.0527 33.1929 60.0671 33.1424 60.0958 33.099C60.1245 33.0557 60.1652 33.034 60.2178 33.0292L63.3973 32.9787C63.4475 32.9787 63.4834 32.9979 63.5097 33.0389C63.536 33.0774 63.548 33.1231 63.548 33.1761C63.548 33.2362 63.5336 33.2868 63.5049 33.3349C63.4762 33.3807 63.4332 33.4047 63.3829 33.4047L60.213 33.4384V33.4408ZM60.7513 32.7452C60.6173 32.7452 60.5216 32.7187 60.4594 32.6682C60.3972 32.6176 60.3637 32.5334 60.3542 32.4203L60.3135 31.9774C60.3039 31.8715 60.3279 31.792 60.3877 31.7391C60.4475 31.6861 60.5336 31.6572 60.6532 31.6572L62.4953 31.6524V31.3804L60.414 31.3997C60.3709 31.3997 60.3374 31.378 60.3135 31.3299C60.2896 31.2841 60.2776 31.2312 60.2776 31.1734C60.2776 31.1229 60.2872 31.0819 60.3039 31.0458C60.3207 31.0097 60.3494 30.9905 60.3853 30.9905L62.9714 30.9953C63.1174 30.9953 63.2274 31.0266 63.2992 31.0916C63.371 31.1566 63.3997 31.2528 63.3877 31.3804L63.3494 31.7198C63.3351 31.8305 63.304 31.9124 63.2489 31.9581C63.1963 32.0062 63.1102 32.0303 62.993 32.0303H61.1556L61.1652 32.3167L63.2585 32.3071C63.2944 32.3071 63.3231 32.3288 63.347 32.3721C63.371 32.4154 63.3805 32.4636 63.3805 32.5213C63.3805 32.5791 63.3686 32.6321 63.347 32.673C63.3255 32.7163 63.292 32.738 63.2489 32.738L60.7561 32.7476L60.7513 32.7452ZM60.7968 35.3881C60.6628 35.3881 60.5671 35.3616 60.5073 35.3087C60.4475 35.2557 60.4116 35.1667 60.3996 35.0415L60.359 34.6516C60.3494 34.5457 60.3733 34.4662 60.4331 34.4133C60.4929 34.3603 60.5791 34.3314 60.6987 34.3314L62.4379 34.3266V34.0643L60.4594 34.098C60.4164 34.1004 60.3829 34.0787 60.359 34.0306C60.335 33.9824 60.3231 33.9295 60.3231 33.8693C60.3231 33.8163 60.3326 33.773 60.3494 33.7369C60.3661 33.7008 60.3948 33.6815 60.4307 33.6815L62.914 33.6767C63.0599 33.6767 63.17 33.708 63.2442 33.773C63.3183 33.838 63.347 33.9343 63.3303 34.0618L63.2896 34.3772C63.2729 34.4879 63.2394 34.5697 63.1867 34.6155C63.1341 34.6612 63.0504 34.6877 62.9331 34.6877H61.1987L61.2082 34.9549L63.2465 34.9452C63.2824 34.9452 63.3111 34.9669 63.3351 35.0102C63.359 35.0535 63.3686 35.1041 63.3686 35.1643C63.3686 35.2244 63.3566 35.275 63.3351 35.3183C63.3135 35.3616 63.28 35.3833 63.237 35.3833H60.7968V35.3881Z" fill="#57B9B1"/>
<path d="M65.4046 34.8249C65.3519 34.8249 65.3136 34.8056 65.2849 34.7671C65.2562 34.7286 65.2443 34.6805 65.2443 34.6251C65.2443 34.5649 65.2586 34.5144 65.2873 34.4687C65.316 34.4253 65.3567 34.4013 65.4093 34.3964L68.5888 34.3459C68.639 34.3459 68.6749 34.3652 68.7012 34.4061C68.7276 34.4446 68.7395 34.4951 68.7395 34.5529C68.7395 34.6155 68.7252 34.6709 68.6965 34.719C68.6678 34.7671 68.6247 34.7912 68.5744 34.7912L65.4046 34.8249ZM65.8567 33.5444C65.7108 33.5468 65.6007 33.5179 65.5266 33.4577C65.4524 33.3975 65.4141 33.2964 65.4117 33.1592L65.3687 31.5971C65.3663 31.4695 65.4069 31.3708 65.4907 31.301C65.5744 31.2312 65.6988 31.1975 65.8591 31.1975L68.4453 31.2023C68.4835 31.2023 68.5146 31.2264 68.5362 31.2721C68.5577 31.3179 68.5673 31.3732 68.5673 31.4358C68.5673 31.4984 68.5577 31.5513 68.5386 31.5971C68.5194 31.6428 68.4907 31.6645 68.4548 31.6645L66.261 31.6741L66.2706 33.0244L68.4453 33.0533C68.4811 33.0533 68.5075 33.075 68.5266 33.1159C68.5433 33.1568 68.5529 33.2074 68.5529 33.2651C68.5529 33.3301 68.5409 33.3879 68.5194 33.4385C68.4979 33.4866 68.4644 33.5131 68.4213 33.5131L65.8591 33.5468L65.8567 33.5444Z" fill="#57B9B1"/>
<path d="M69.6917 33.412C69.5577 33.4193 69.4596 33.3952 69.3974 33.3398C69.3352 33.2845 69.3017 33.1954 69.2945 33.0654L69.2443 32.3072C69.2371 32.2013 69.2634 32.1267 69.3185 32.0785C69.3735 32.0304 69.462 32.0063 69.584 32.0063L70.7012 32.0015V31.5225L69.3639 31.5322C69.3208 31.5322 69.2874 31.5057 69.2634 31.4527C69.2395 31.3998 69.2275 31.3372 69.2275 31.2698C69.2275 31.212 69.2371 31.1615 69.2539 31.123C69.2706 31.0844 69.2993 31.0652 69.3352 31.0652L71.1773 31.0941C71.4692 31.1013 71.608 31.2337 71.5936 31.4912L71.5553 32.105C71.5481 32.2133 71.517 32.2904 71.462 32.3361C71.407 32.3818 71.3185 32.4059 71.1965 32.4059H70.084L70.1031 32.9379L71.7395 32.8801C71.7802 32.8777 71.8113 32.8969 71.8328 32.9427C71.8544 32.9884 71.8663 33.039 71.8663 33.0991C71.8663 33.1521 71.8568 33.1978 71.8352 33.2363C71.8137 33.2748 71.7826 33.2965 71.7443 33.3013L69.6917 33.4145V33.412ZM70.4333 35.3882C70.2993 35.3882 70.2012 35.3617 70.139 35.3088C70.0768 35.2558 70.0433 35.1668 70.0362 35.0416L69.9716 33.8742C69.9692 33.7924 70.0099 33.7298 70.0936 33.684C70.1773 33.6383 70.2802 33.6166 70.4022 33.6166C70.5242 33.6166 70.6271 33.6407 70.7156 33.6864C70.8041 33.7322 70.8472 33.7972 70.8472 33.8838L70.8424 34.1053L72.0218 34.1005L72.017 33.8236C72.0123 33.7418 72.0553 33.6792 72.1391 33.6359C72.2252 33.5926 72.3281 33.5709 72.4525 33.5661C72.5745 33.5661 72.6773 33.5902 72.7611 33.6359C72.8448 33.6816 72.8879 33.7466 72.8831 33.8333L72.8281 35.0368C72.8257 35.162 72.7922 35.251 72.73 35.304C72.6678 35.3569 72.5673 35.3834 72.4309 35.3834L70.4285 35.3882H70.4333ZM72.0434 34.9598L72.0338 34.5217L70.8376 34.5361L70.8328 34.9549L72.0434 34.9598ZM72.084 31.212C72.0792 31.1302 72.1271 31.0676 72.2228 31.0243C72.3185 30.9809 72.4333 30.9593 72.5625 30.9545C72.6869 30.9545 72.797 30.9785 72.8927 31.0267C72.9883 31.0748 73.0338 31.1398 73.0266 31.2216L72.8903 33.3278C72.8879 33.3735 72.8472 33.4096 72.7706 33.4337C72.6941 33.4578 72.6056 33.4698 72.5027 33.4698C72.3998 33.4698 72.3113 33.4578 72.2348 33.4337C72.1582 33.4096 72.1175 33.3735 72.1151 33.3278L72.0816 31.212H72.084Z" fill="#57B9B1"/>
<path d="M74.2348 34.4808C73.9453 34.5048 73.7946 34.3748 73.7898 34.0956L73.7468 31.3998C73.742 31.3203 73.7922 31.2601 73.8903 31.2144C73.9884 31.1687 74.1032 31.147 74.2252 31.147C74.3353 31.147 74.4334 31.1687 74.5147 31.2096C74.5961 31.2505 74.6367 31.3083 74.6367 31.3853L74.6463 33.9488L76.1367 33.8742C76.1726 33.8718 76.1989 33.8886 76.2181 33.9295C76.2348 33.9681 76.2444 34.0162 76.2444 34.0716C76.2444 34.1341 76.2324 34.1919 76.2109 34.2425C76.1894 34.293 76.1559 34.3195 76.1128 34.3243L74.2372 34.4832L74.2348 34.4808ZM76.5913 31.2626C76.5913 31.1807 76.6391 31.1181 76.7348 31.0748C76.8305 31.0315 76.943 31.0098 77.0698 31.005C77.1942 31.005 77.3042 31.0291 77.3975 31.0772C77.4932 31.1254 77.5387 31.1903 77.5339 31.2722L77.3975 34.9044C77.3975 34.9501 77.3593 34.9862 77.2827 35.0103C77.2061 35.0344 77.1152 35.0464 77.01 35.0464C76.9047 35.0464 76.8138 35.0344 76.7372 35.0079C76.6607 34.9814 76.6224 34.9477 76.6224 34.9044L76.5889 31.2626H76.5913Z" fill="#57B9B1"/>
<path d="M78.5936 34.4856C78.3041 34.5072 78.1534 34.3797 78.1486 34.1004L78.1056 31.6019C78.1032 31.472 78.1438 31.3733 78.2276 31.3059C78.3113 31.2385 78.4357 31.2024 78.596 31.1976L80.3257 31.1783C80.364 31.1783 80.3951 31.2 80.4166 31.2457C80.4381 31.2914 80.4477 31.3468 80.4477 31.4118C80.4477 31.4744 80.4381 31.5297 80.419 31.5731C80.3999 31.6188 80.3711 31.6405 80.3353 31.6405L78.9979 31.6742L79.0075 33.9512L80.4477 33.8766C80.4836 33.8742 80.5099 33.891 80.529 33.932C80.5458 33.9705 80.5554 34.0186 80.5554 34.074C80.5554 34.1365 80.5434 34.1943 80.5219 34.2449C80.5003 34.2954 80.4668 34.3243 80.4238 34.3267L78.596 34.4856H78.5936ZM80.9023 31.2626C80.9023 31.1807 80.9501 31.1181 81.0458 31.0748C81.1415 31.0315 81.2539 31.0098 81.3807 31.005C81.5051 31.005 81.6128 31.0291 81.7085 31.0772C81.8042 31.1254 81.8496 31.1903 81.8448 31.2722L81.7946 32.5431L82.3042 32.5936C82.3401 32.5961 82.3688 32.6177 82.3903 32.6586C82.4118 32.6996 82.4214 32.7453 82.4214 32.8006C82.4214 32.8584 82.4094 32.9114 82.3855 32.9571C82.3616 33.0028 82.3281 33.0269 82.285 33.0317L81.7755 33.0558L81.7061 34.9044C81.7061 34.9501 81.6678 34.9862 81.5913 35.0103C81.5147 35.0344 81.4238 35.0464 81.3185 35.0464C81.2133 35.0464 81.1223 35.0344 81.0458 35.0079C80.9692 34.9814 80.931 34.9477 80.931 34.9044L80.8975 31.2626H80.9023Z" fill="#57B9B1"/>
</g>
<defs>
<clipPath id="clip0_4017_1786">
<rect width="88.8" height="40" fill="white" transform="translate(0.599976)"/>
</clipPath>
</defs>
</svg>
