<svg width="36" height="36" viewBox="0 0 36 36" fill="none" xmlns="http://www.w3.org/2000/svg">
<path d="M25.6951 11.775H20.5651V17.43H28.8601L25.6951 11.775Z" fill="#57B9B1"/>
<path d="M14.385 11.775H19.53V17.43H11.235L14.385 11.775Z" fill="#57B9B1"/>
<path d="M14.865 9.01501C13.71 9.01501 12.645 9.63001 12.075 10.635L7.8 16.515H2.59499C1.78499 16.515 1.125 17.175 1.125 17.985V24.045C1.125 24.855 1.78499 25.515 2.59499 25.515H5.52001" stroke="#333333" stroke-width="1.5" stroke-linecap="round" stroke-linejoin="round"/>
<path d="M30.585 25.5H33.39C34.2 25.5 34.86 24.84 34.86 24.03V19.5C34.86 18.69 34.2 18.03 33.39 18.03H32.46L28.185 10.62C27.615 9.615 26.535 9 25.395 9H19.005" stroke="#333333" stroke-width="1.5" stroke-linecap="round" stroke-linejoin="round"/>
<path d="M5.92494 20.52C5.92494 19.935 5.45995 19.47 4.87495 19.47C4.28995 19.47 3.82495 19.935 3.82495 20.52C3.82495 21.105 4.28995 21.57 4.87495 21.57C5.45995 21.57 5.92494 21.105 5.92494 20.52Z" fill="#57B9B1"/>
<path d="M15.54 25.5H20.295" stroke="#333333" stroke-width="1.5" stroke-linecap="round" stroke-linejoin="round"/>
<path d="M10.3501 27.42C11.4104 27.42 12.2701 26.5603 12.2701 25.5C12.2701 24.4396 11.4104 23.58 10.3501 23.58C9.28967 23.58 8.43005 24.4396 8.43005 25.5C8.43005 26.5603 9.28967 27.42 10.3501 27.42Z" stroke="#333333" stroke-width="1.5" stroke-miterlimit="10"/>
<path d="M25.56 27.42C26.6204 27.42 27.48 26.5603 27.48 25.5C27.48 24.4396 26.6204 23.58 25.56 23.58C24.4996 23.58 23.64 24.4396 23.64 25.5C23.64 26.5603 24.4996 27.42 25.56 27.42Z" stroke="#333333" stroke-width="1.5" stroke-miterlimit="10"/>
</svg>
