<svg width="40" height="40" viewBox="0 0 40 40" fill="none" xmlns="http://www.w3.org/2000/svg">
<rect width="40" height="40" rx="20" fill="#57B9B1"/>
<path d="M24.6182 19.2698C24.5302 19.2281 24.4412 19.1885 24.3512 19.151C24.1944 16.3062 22.6137 14.6781 19.9587 14.6615H19.9227C18.3346 14.6615 17.0145 15.3281 16.2019 16.5406L17.6618 17.525C18.2689 16.6198 19.2213 16.426 19.9238 16.426H19.9481C20.8222 16.4312 21.4811 16.6812 21.9081 17.1687C22.2185 17.5229 22.4262 18.0135 22.5289 18.6323C21.7545 18.5031 20.9165 18.4625 20.0202 18.5135C17.4965 18.6562 15.8745 20.1031 15.9837 22.1146C16.0387 23.1344 16.5558 24.0125 17.4383 24.5854C18.1852 25.0698 19.1461 25.3073 20.1462 25.2531C21.4663 25.1823 22.5014 24.6865 23.2239 23.7812C23.7727 23.0938 24.1192 22.2031 24.2728 21.0802C24.9021 21.4531 25.3683 21.9448 25.6257 22.5354C26.0633 23.5385 26.0887 25.1885 24.7199 26.5333C23.5206 27.7115 22.0787 28.2208 19.9004 28.2365C17.4838 28.2188 15.6563 27.4573 14.4676 25.9719C13.3552 24.5813 12.7799 22.5719 12.7587 20.001C12.7799 17.4302 13.3552 15.4208 14.4676 14.0302C15.6563 12.5448 17.4838 11.7833 19.9004 11.7656C22.334 11.7833 24.1944 12.549 25.4276 14.0417C26.0325 14.774 26.4881 15.6937 26.789 16.7667L28.5 16.3177C28.1355 14.9969 27.5624 13.8583 26.7816 12.9146C25.2009 11.001 22.887 10.0198 19.9068 10H19.8951C16.9202 10.0198 14.6329 11.0042 13.0967 12.925C11.7289 14.6344 11.0233 17.0125 11 19.9927V20V20.0073C11.0233 22.9885 11.7289 25.3667 13.0967 27.075C14.6329 28.9958 16.9202 29.9802 19.8951 30H19.9068C22.5512 29.9823 24.4148 29.301 25.951 27.7927C27.9597 25.8187 27.8993 23.3458 27.2371 21.8271C26.7625 20.7385 25.8567 19.8542 24.6182 19.2698ZM20.0519 23.4906C18.9459 23.5521 17.7964 23.0635 17.7402 22.0177C17.6978 21.2427 18.3017 20.3771 20.1197 20.274C20.3285 20.2625 20.5319 20.2562 20.7332 20.2562C21.3943 20.2562 22.0119 20.3198 22.5734 20.4396C22.3637 23.0125 21.1347 23.4302 20.0519 23.4885V23.4906Z" fill="white"/>
</svg>
