<svg width="36" height="36" viewBox="0 0 36 36" fill="none" xmlns="http://www.w3.org/2000/svg">
<path d="M23.91 24.27H21.12V32.145H23.91V24.27Z" fill="#57B9B1"/>
<path d="M1.5 20.4149L15.42 11.5649" stroke="#333333" stroke-width="1.5" stroke-linecap="round" stroke-linejoin="round"/>
<path d="M30.6 12.15V32.67H4.63501V18.81" stroke="#333333" stroke-width="1.5" stroke-linecap="round" stroke-linejoin="round"/>
<path d="M28.605 10.785L34.5 14.25" stroke="#333333" stroke-width="1.5" stroke-linecap="round" stroke-linejoin="round"/>
<path d="M15.39 3L25.005 8.655" stroke="#333333" stroke-width="1.5" stroke-linecap="round" stroke-linejoin="round"/>
<path d="M15.39 3L15.42 32.535" stroke="#333333" stroke-width="1.5" stroke-linecap="round" stroke-linejoin="round"/>
<path d="M20.3251 12.78H18.8101V18.855H20.3251V12.78Z" fill="#57B9B1"/>
<path d="M23.28 12.78H21.765V18.855H23.28V12.78Z" fill="#57B9B1"/>
<path d="M26.22 12.78H24.705V18.855H26.22V12.78Z" fill="#57B9B1"/>
<path d="M11.3549 20.34H8.56494V28.215H11.3549V20.34Z" fill="#57B9B1"/>
<path d="M7.06494 16.68V10.785" stroke="#333333" stroke-width="1.5" stroke-linecap="round" stroke-linejoin="round"/>
<path d="M10.5601 14.49V10.785" stroke="#333333" stroke-width="1.5" stroke-linecap="round" stroke-linejoin="round"/>
<path d="M5.59497 10.785H11.895" stroke="#333333" stroke-width="1.5" stroke-linecap="round" stroke-linejoin="round"/>
</svg>
