<svg width="40" height="40" viewBox="0 0 40 40" fill="none" xmlns="http://www.w3.org/2000/svg">
<rect width="40" height="40" rx="20" fill="#57B9B1"/>
<path d="M20 17.3612C18.5735 17.3612 17.3611 18.5737 17.3611 20.0001C17.3611 21.4266 18.5735 22.639 20 22.639C21.4264 22.639 22.6389 21.4266 22.6389 20.0001C22.6389 18.5737 21.4264 17.3612 20 17.3612Z" fill="white"/>
<path d="M23.3826 12.0833H16.6894C14.0985 12.0833 12.0834 14.0985 12.0834 16.6174V23.3106C12.0834 25.9015 14.0985 27.9167 16.6894 27.9167H23.3826C25.9016 27.9167 27.9167 25.9015 27.9167 23.3106V16.6174C27.9167 14.0985 25.9016 12.0833 23.3826 12.0833ZM20 24.1743C17.697 24.1743 15.8978 22.303 15.8978 20.072C15.8978 17.8409 17.697 15.8977 20 15.8977C22.3031 15.8977 24.1023 17.7689 24.1023 20C24.1023 22.2311 22.3031 24.1743 20 24.1743ZM24.2463 16.7614C23.7425 16.7614 23.3106 16.3296 23.3106 15.8258C23.3106 15.322 23.7425 14.8902 24.2463 14.8902C24.75 14.8902 25.1819 15.322 25.1819 15.8258C25.1819 16.3296 24.75 16.7614 24.2463 16.7614Z" fill="white"/>
</svg>
