<svg width="36" height="36" viewBox="0 0 36 36" fill="none" xmlns="http://www.w3.org/2000/svg">
<path d="M0.824951 14.865V15.255C0.824951 16.29 1.37995 17.22 2.23495 17.79C3.22495 18.45 3.88495 19.575 3.88495 20.865C3.88495 22.155 3.22495 23.28 2.23495 23.94C1.37995 24.51 0.824951 25.44 0.824951 26.475V26.865C0.824951 28.515 2.15995 29.865 3.82495 29.865H10.77V11.91H3.82495C2.17495 11.91 0.824951 13.245 0.824951 14.91V14.865Z" fill="#57B9B1"/>
<path d="M3.47993 12C2.33993 12 1.42493 12.915 1.42493 14.055V16.455C1.42493 17.25 1.88993 17.955 2.60993 18.3C3.53993 18.735 4.16993 19.68 4.16993 20.775C4.16993 21.87 3.52493 22.815 2.60993 23.25C1.88993 23.595 1.42493 24.3 1.42493 25.095V27.495C1.42493 28.635 2.33993 29.55 3.47993 29.55H28.7399C29.8799 29.55 30.7949 28.635 30.7949 27.495V14.04C30.7949 12.9 29.8799 11.985 28.7399 11.985H6.89993" stroke="#333333" stroke-width="1.5" stroke-linecap="round" stroke-linejoin="round"/>
<path d="M8.03992 8.805C8.03992 7.665 8.95492 6.75 10.0949 6.75H32.3549C33.4949 6.75 34.4099 7.665 34.4099 8.805V22.26C34.4099 22.26 34.4699 24.06 32.9699 24.06" stroke="#333333" stroke-width="1.5" stroke-linecap="round" stroke-linejoin="round"/>
<path d="M10.7699 12V29.565" stroke="#333333" stroke-width="1.5" stroke-linecap="round" stroke-linejoin="round" stroke-dasharray="1.1 2.2"/>
</svg>
