<svg width="36" height="36" viewBox="0 0 36 36" fill="none" xmlns="http://www.w3.org/2000/svg">
<path d="M34.5 9.73504H19.335L20.775 6.16504H33.06L34.5 9.73504Z" fill="#57B9B1"/>
<path d="M5.02497 30.915V32.7C5.02497 33.3 4.52997 33.795 3.92997 33.795C3.32997 33.795 2.83496 33.3 2.83496 32.7V30.915" stroke="#333333" stroke-width="1.5" stroke-linecap="round" stroke-linejoin="round"/>
<path d="M20.805 30.915V32.7C20.805 33.3 20.31 33.795 19.71 33.795C19.11 33.795 18.615 33.3 18.615 32.7V30.915" stroke="#333333" stroke-width="1.5" stroke-linecap="round" stroke-linejoin="round"/>
<path d="M10.53 14.5649H17.385C18.84 14.5649 20.025 15.7499 20.025 17.2049V20.7749" stroke="#333333" stroke-width="1.5" stroke-linecap="round" stroke-linejoin="round"/>
<path d="M3.59998 20.7749V17.2049C3.59998 15.7499 4.78498 14.5649 6.23998 14.5649" stroke="#333333" stroke-width="1.5" stroke-linecap="round" stroke-linejoin="round"/>
<path d="M20.055 30.57H3.585C2.43 30.57 1.5 29.64 1.5 28.485V23.19C1.5 22.035 2.43 21.105 3.585 21.105C4.74 21.105 5.67001 22.035 5.67001 23.19V26.4H17.97V23.19C17.97 22.035 18.9 21.105 20.055 21.105C21.21 21.105 22.14 22.035 22.14 23.19V28.485C22.14 29.64 21.21 30.57 20.055 30.57Z" stroke="#333333" stroke-width="1.5" stroke-linecap="round" stroke-linejoin="round"/>
<path d="M13.275 19.65C13.485 19.65 13.68 19.5749 13.845 19.4099L14.835 18.4199C15.15 18.1049 15.15 17.595 14.835 17.28C14.52 16.965 14.01 16.965 13.695 17.28L12.705 18.27C12.39 18.585 12.39 19.0949 12.705 19.4099C12.855 19.5599 13.065 19.65 13.275 19.65Z" fill="#57B9B1"/>
<path d="M9.73504 21.2399L8.74504 22.2299C8.43004 22.5449 8.43004 23.0549 8.74504 23.3699C8.89504 23.5199 9.10505 23.6099 9.31505 23.6099C9.52505 23.6099 9.72004 23.5349 9.88504 23.3699L10.875 22.3799C11.19 22.0649 11.19 21.5549 10.875 21.2399C10.56 20.9249 10.05 20.9249 9.73504 21.2399Z" fill="#57B9B1"/>
<path d="M9.88504 17.28C9.57004 16.965 9.06004 16.965 8.74504 17.28C8.43004 17.595 8.43004 18.1049 8.74504 18.4199L9.73504 19.4099C9.88504 19.5599 10.095 19.65 10.305 19.65C10.515 19.65 10.71 19.5749 10.875 19.4099C11.19 19.0949 11.19 18.585 10.875 18.27L9.88504 17.28Z" fill="#57B9B1"/>
<path d="M13.845 21.2399C13.53 20.9249 13.02 20.9249 12.705 21.2399C12.39 21.5549 12.39 22.0649 12.705 22.3799L13.695 23.3699C13.845 23.5199 14.055 23.6099 14.265 23.6099C14.475 23.6099 14.67 23.5349 14.835 23.3699C15.15 23.0549 15.15 22.5449 14.835 22.2299L13.845 21.2399Z" fill="#57B9B1"/>
<path d="M34.5 10.56H19.005L22.215 1.5H31.275L34.5 10.56Z" stroke="#333333" stroke-width="1.5" stroke-linecap="round" stroke-linejoin="round"/>
<path d="M26.745 11.415V33.78" stroke="#333333" stroke-width="1.5" stroke-linecap="round" stroke-linejoin="round"/>
<path d="M24.5551 33.78H28.9501" stroke="#333333" stroke-width="1.5" stroke-linecap="round" stroke-linejoin="round"/>
</svg>
