<svg width="40" height="40" viewBox="0 0 40 40" fill="none" xmlns="http://www.w3.org/2000/svg">
<rect width="40" height="40" rx="20" fill="#57B9B1"/>
<path fill-rule="evenodd" clip-rule="evenodd" d="M27.1649 13.9297C27.954 14.1399 28.5749 14.7641 28.7851 15.5596C29.1667 16.9988 29.1635 19.9999 29.1635 19.9999C29.1635 19.9999 29.1635 23.001 28.7819 24.4401C28.5717 25.2324 27.9507 25.8566 27.1616 26.07C25.7322 26.4549 19.9984 26.4549 19.9984 26.4549C19.9984 26.4549 14.2646 26.4549 12.8352 26.07C12.0461 25.8598 11.4252 25.2357 11.215 24.4401C10.8334 23.001 10.8334 19.9999 10.8334 19.9999C10.8334 19.9999 10.8334 16.9988 11.2182 15.5564C11.4284 14.7641 12.0493 14.1399 12.8384 13.9265C14.2678 13.5417 20.0017 13.5417 20.0017 13.5417C20.0017 13.5417 25.7322 13.5417 27.1649 13.9297ZM22.9187 19.9999L18.126 17.2737V22.7261L22.9187 19.9999Z" fill="white"/>
</svg>
