<svg width="64" height="64" viewBox="0 0 64 64" fill="none" xmlns="http://www.w3.org/2000/svg">
<rect width="64" height="64" rx="32" fill="#E4E7EA"/>
<mask id="mask0_4040_2250" style="mask-type:alpha" maskUnits="userSpaceOnUse" x="20" y="20" width="24" height="24">
<rect x="20" y="20" width="24" height="24" fill="#D9D9D9"/>
</mask>
<g mask="url(#mask0_4040_2250)">
<path d="M31.25 32.75H26.25C26.0375 32.75 25.8594 32.6781 25.7158 32.5342C25.5719 32.3904 25.5 32.2122 25.5 31.9997C25.5 31.7871 25.5719 31.609 25.7158 31.4655C25.8594 31.3218 26.0375 31.25 26.25 31.25H31.25V26.25C31.25 26.0375 31.3219 25.8594 31.4658 25.7158C31.6096 25.5719 31.7878 25.5 32.0003 25.5C32.2129 25.5 32.391 25.5719 32.5345 25.7158C32.6782 25.8594 32.75 26.0375 32.75 26.25V31.25H37.75C37.9625 31.25 38.1406 31.3219 38.2843 31.4658C38.4281 31.6096 38.5 31.7878 38.5 32.0003C38.5 32.2129 38.4281 32.391 38.2843 32.5345C38.1406 32.6782 37.9625 32.75 37.75 32.75H32.75V37.75C32.75 37.9625 32.6781 38.1406 32.5342 38.2843C32.3904 38.4281 32.2122 38.5 31.9997 38.5C31.7871 38.5 31.609 38.4281 31.4655 38.2843C31.3218 38.1406 31.25 37.9625 31.25 37.75V32.75Z" fill="#C6C9D1"/>
</g>
</svg>
