<svg width="36" height="36" viewBox="0 0 36 36" fill="none" xmlns="http://www.w3.org/2000/svg">
<path d="M10.29 9.56995H6.98999V30.8699H10.29V9.56995Z" fill="#57B9B1"/>
<path d="M29.01 9.56995H25.71V30.8699H29.01V9.56995Z" fill="#57B9B1"/>
<path d="M11.1 9.87H31.98C32.55 9.87 33.015 10.23 33.015 10.68V30.06C33.015 30.51 32.55 30.87 31.98 30.87H4.035C3.465 30.87 3 30.51 3 30.06V10.695C3 10.245 3.465 9.885 4.035 9.885H6.03" stroke="#333333" stroke-width="1.5" stroke-linecap="round" stroke-linejoin="round"/>
<path d="M13.05 9.54V7.26C13.05 6.15 13.95 5.25 15.06 5.25H20.94C22.05 5.25 22.9501 6.15 22.9501 7.26V9.54" stroke="#333333" stroke-width="1.5" stroke-linecap="round" stroke-linejoin="round"/>
<path d="M16.2041 21.1699L12.863 24.511L16.0662 27.7142L19.4073 24.3731L16.2041 21.1699Z" fill="#57B9B1"/>
<path d="M19.7842 14.4502L13.3945 16.762L14.6193 20.1472L21.009 17.8355L19.7842 14.4502Z" fill="#57B9B1"/>
<path d="M19.32 21.24L21.21 23.445C21.51 23.805 22.11 23.7 22.26 23.265L23.13 20.73C23.265 20.325 22.92 19.92 22.485 19.965L19.725 20.295C19.245 20.355 19.035 20.88 19.335 21.24H19.32Z" fill="#57B9B1"/>
</svg>
