<svg width="40" height="40" viewBox="0 0 40 40" fill="none" xmlns="http://www.w3.org/2000/svg">
<rect width="40" height="40" rx="20" fill="#57B9B1"/>
<path d="M14.8064 18.2442C14.6067 18.2442 14.4291 18.3229 14.2959 18.4691C14.1517 18.6153 14.0851 18.7952 14.0851 19.0089C14.0851 19.2225 14.1517 19.3912 14.2959 19.5486C14.4402 19.6948 14.6067 19.7735 14.8064 19.7735C15.0062 19.7735 15.1837 19.6948 15.328 19.5486C15.4723 19.4024 15.5499 19.2225 15.5499 19.0089C15.5499 18.7952 15.4723 18.6153 15.328 18.4691C15.1837 18.3117 15.0173 18.2442 14.8064 18.2442Z" fill="white"/>
<path d="M21.032 18.2327C20.8322 18.2327 20.6547 18.3114 20.5215 18.4576C20.3773 18.6038 20.3107 18.7837 20.3107 18.9973C20.3107 19.211 20.3773 19.3797 20.5215 19.5371C20.6658 19.6833 20.8322 19.762 21.032 19.762C21.2318 19.762 21.4093 19.6833 21.5536 19.5371C21.6978 19.3909 21.7755 19.211 21.7755 18.9973C21.7755 18.7837 21.6978 18.615 21.5536 18.4576C21.4204 18.3002 21.2429 18.2327 21.032 18.2327Z" fill="white"/>
<path d="M25.1936 18.2442C24.9939 18.2442 24.8163 18.3229 24.6831 18.4691C24.5389 18.6153 24.4723 18.7952 24.4723 19.0089C24.4723 19.2225 24.5389 19.3912 24.6831 19.5486C24.8274 19.6948 24.9939 19.7735 25.1936 19.7735C25.3934 19.7735 25.5709 19.6948 25.7152 19.5486C25.8595 19.4024 25.9372 19.2225 25.9372 19.0089C25.9372 18.7952 25.8595 18.6153 25.7152 18.4691C25.5709 18.3117 25.3934 18.2442 25.1936 18.2442Z" fill="white"/>
<path d="M27.0358 12.6894H12.9642C11.8878 12.6894 11 13.589 11 14.6797V22.7419C11 23.8326 11.8878 24.7322 12.9642 24.7322H18.4908C18.4908 24.7322 19.5561 27.6894 19.9445 27.6894C20.3329 27.6894 21.4871 24.7322 21.4871 24.7322H27.0358C28.1122 24.7322 29 23.8326 29 22.7419V14.6797C29 13.589 28.1122 12.6894 27.0358 12.6894ZM16.2269 20.1332C15.9494 20.448 15.5166 20.583 15.0506 20.583C14.6289 20.583 14.3181 20.4593 14.0962 20.2794H14.0851V20.5043H13.0308V15.8378H14.0851V17.6257H14.1073C14.3958 17.3783 14.7731 17.2996 15.217 17.2771C15.5943 17.2659 15.9938 17.502 16.238 17.7831C16.471 18.0642 16.6486 18.5028 16.6486 18.9863C16.6486 19.5148 16.5154 19.8184 16.2269 20.1332ZM18.5018 20.5492H17.4254C17.4254 20.5492 17.4254 18.098 17.4254 17.6594C17.4254 16.996 16.9038 16.9061 16.9038 16.9061V15.7479C16.9038 15.7479 18.4131 15.8378 18.5018 17.6932C18.5018 18.2217 18.5018 20.5492 18.5018 20.5492ZM22.73 19.6609C22.6412 19.8746 22.508 20.0545 22.3305 20.2232C22.164 20.3806 21.9642 20.5043 21.7423 20.5942C21.5203 20.6842 21.2873 20.7292 21.0432 20.7292C20.799 20.7292 20.566 20.6842 20.3551 20.5942C20.1332 20.5043 19.9334 20.3806 19.767 20.2232C19.5894 20.0545 19.4562 19.8633 19.3674 19.6609C19.2787 19.4585 19.2343 19.2337 19.2343 18.9975C19.2343 18.7614 19.2787 18.5477 19.3674 18.3341C19.4562 18.1317 19.5894 17.9405 19.767 17.7719C19.9445 17.6145 20.1332 17.4908 20.3551 17.4008C20.5771 17.3109 20.8101 17.2659 21.0432 17.2659C21.2873 17.2659 21.5203 17.3109 21.7423 17.4008C21.9642 17.4908 22.164 17.6145 22.3305 17.7719C22.508 17.9405 22.6301 18.1205 22.73 18.3341C22.8187 18.5477 22.8631 18.7614 22.8631 18.9975C22.8631 19.2337 22.8187 19.4473 22.73 19.6609ZM26.9692 20.122C26.9692 20.9428 26.8138 21.4375 26.4587 21.7861C26.0259 22.2022 25.4155 22.2247 24.9051 22.1572V21.3139C25.3379 21.3588 25.926 21.0665 25.926 20.5043V20.2906H25.9149C25.6708 20.628 25.3268 20.7516 24.8496 20.7516C24.4168 20.7516 24.0395 20.5942 23.7842 20.2906C23.529 19.987 23.4069 19.5822 23.4069 19.0762C23.4069 18.5028 23.5512 18.053 23.8286 17.7157C24.1171 17.3783 24.5166 17.2209 24.9827 17.2209C25.3933 17.2209 25.6597 17.3221 25.9149 17.5582H25.926V17.2996H26.9803V20.122H26.9692Z" fill="white"/>
</svg>
