<svg width="24" height="24" viewBox="0 0 24 24" fill="none" xmlns="http://www.w3.org/2000/svg">
<mask id="mask0_2798_20058" style="mask-type:alpha" maskUnits="userSpaceOnUse" x="0" y="0" width="24" height="24">
<rect width="24" height="24" fill="#D9D9D9"/>
</mask>
<g mask="url(#mask0_2798_20058)">
<path fill-rule="evenodd" clip-rule="evenodd" d="M12 21.5C17.2467 21.5 21.5 17.2467 21.5 12C21.5 6.75329 17.2467 2.5 12 2.5C6.75329 2.5 2.5 6.75329 2.5 12C2.5 17.2467 6.75329 21.5 12 21.5Z" fill="#57B9B1"/>
<path d="M7.57692 12.5C7.41346 12.5 7.27647 12.4281 7.16596 12.2842C7.05532 12.1404 7 11.9622 7 11.7497C7 11.5371 7.05532 11.359 7.16596 11.2155C7.27647 11.0718 7.41346 11 7.57692 11H16.4231C16.5865 11 16.7235 11.0719 16.834 11.2158C16.9447 11.3596 17 11.5378 17 11.7503C17 11.9629 16.9447 12.141 16.834 12.2845C16.7235 12.4282 16.5865 12.5 16.4231 12.5H7.57692Z" fill="white"/>
</g>
</svg>
