<svg width="41" height="40" viewBox="0 0 41 40" fill="none" xmlns="http://www.w3.org/2000/svg">
<mask id="mask0_4112_1331" style="mask-type:alpha" maskUnits="userSpaceOnUse" x="0" y="0" width="41" height="40">
<rect x="0.5" width="40" height="40" fill="#D9D9D9"/>
</mask>
<g mask="url(#mask0_4112_1331)">
<path d="M18.1346 23.5771L14.2629 19.705C14.0321 19.4745 13.742 19.3564 13.3925 19.3508C13.0434 19.3456 12.7479 19.4636 12.5063 19.705C12.2649 19.9467 12.1442 20.2395 12.1442 20.5833C12.1442 20.9272 12.2649 21.22 12.5063 21.4617L17.08 26.0354C17.3814 26.3365 17.7329 26.4871 18.1346 26.4871C18.5363 26.4871 18.8878 26.3365 19.1892 26.0354L28.4617 16.7629C28.6922 16.5321 28.8103 16.2419 28.8159 15.8925C28.8211 15.5433 28.7031 15.2479 28.4617 15.0063C28.22 14.7649 27.9272 14.6442 27.5834 14.6442C27.2395 14.6442 26.9467 14.7649 26.705 15.0063L18.1346 23.5771ZM20.5029 35.8333C18.3129 35.8333 16.2545 35.4178 14.3275 34.5867C12.4006 33.7556 10.7245 32.6276 9.29919 31.2029C7.87391 29.7782 6.74544 28.1028 5.91377 26.1767C5.08238 24.2506 4.66669 22.1926 4.66669 20.0029C4.66669 17.8129 5.08224 15.7544 5.91335 13.8275C6.74446 11.9006 7.87238 10.2244 9.2971 8.79917C10.7218 7.37389 12.3972 6.24542 14.3234 5.41375C16.2495 4.58237 18.3074 4.16667 20.4971 4.16667C22.6871 4.16667 24.7456 4.58223 26.6725 5.41334C28.5995 6.24445 30.2756 7.37237 31.7009 8.79709C33.1261 10.2218 34.2546 11.8972 35.0863 13.8233C35.9177 15.7494 36.3334 17.8074 36.3334 19.9971C36.3334 22.1871 35.9178 24.2456 35.0867 26.1725C34.2556 28.0995 33.1277 29.7756 31.7029 31.2008C30.2782 32.6261 28.6028 33.7546 26.6767 34.5863C24.7506 35.4176 22.6927 35.8333 20.5029 35.8333Z" fill="#57B9B1"/>
</g>
</svg>
