<svg width="40" height="40" viewBox="0 0 40 40" fill="none" xmlns="http://www.w3.org/2000/svg">
<mask id="mask0_4065_1936" style="mask-type:alpha" maskUnits="userSpaceOnUse" x="0" y="0" width="40" height="40">
<rect width="40" height="40" fill="#D9D9D9"/>
</mask>
<g mask="url(#mask0_4065_1936)">
<path d="M19.9998 27.8845C20.3812 27.8845 20.7009 27.7555 20.959 27.4975C21.2171 27.2394 21.3461 26.9197 21.3461 26.5383C21.3461 26.1569 21.2171 25.8372 20.959 25.5791C20.7009 25.3213 20.3812 25.1925 19.9998 25.1925C19.6184 25.1925 19.2987 25.3213 19.0407 25.5791C18.7826 25.8372 18.6536 26.1569 18.6536 26.5383C18.6536 26.9197 18.7826 27.2394 19.0407 27.4975C19.2987 27.7555 19.6184 27.8845 19.9998 27.8845ZM20.0003 21.795C20.3547 21.795 20.6515 21.6751 20.8907 21.4354C21.1301 21.1959 21.2498 20.8991 21.2498 20.545V13.045C21.2498 12.6908 21.13 12.3938 20.8903 12.1541C20.6505 11.9147 20.3536 11.795 19.9994 11.795C19.645 11.795 19.3482 11.9147 19.109 12.1541C18.8696 12.3938 18.7498 12.6908 18.7498 13.045V20.545C18.7498 20.8991 18.8697 21.1959 19.1094 21.4354C19.3491 21.6751 19.6461 21.795 20.0003 21.795ZM20.0028 35.8333C17.8128 35.8333 15.7543 35.4177 13.8273 34.5866C11.9004 33.7555 10.2243 32.6276 8.799 31.2029C7.37373 29.7782 6.24525 28.1027 5.41359 26.1766C4.5822 24.2505 4.1665 22.1926 4.1665 20.0029C4.1665 17.8129 4.58206 15.7544 5.41317 13.8275C6.24428 11.9005 7.3722 10.2244 8.79692 8.79913C10.2216 7.37385 11.8971 6.24538 13.8232 5.41371C15.7493 4.58232 17.8072 4.16663 19.9969 4.16663C22.1869 4.16663 24.2454 4.58218 26.1723 5.41329C28.0993 6.2444 29.7754 7.37232 31.2007 8.79704C32.6259 10.2218 33.7544 11.8972 34.5861 13.8233C35.4175 15.7494 35.8332 17.8073 35.8332 19.997C35.8332 22.187 35.4176 24.2455 34.5865 26.1725C33.7554 28.0994 32.6275 29.7755 31.2028 31.2008C29.778 32.6261 28.1026 33.7545 26.1765 34.5862C24.2504 35.4176 22.1925 35.8333 20.0028 35.8333Z" fill="#FF5C5C"/>
</g>
</svg>
