<svg width="41" height="41" viewBox="0 0 41 41" fill="none" xmlns="http://www.w3.org/2000/svg">
<mask id="mask0_4112_1178" style="mask-type:alpha" maskUnits="userSpaceOnUse" x="0" y="0" width="41" height="41">
<rect x="0.5" y="0.5" width="40" height="40" fill="#D9D9D9"/>
</mask>
<g mask="url(#mask0_4112_1178)">
<path d="M18.1346 24.0771L14.2629 20.205C14.0321 19.9744 13.742 19.8564 13.3925 19.8508C13.0434 19.8455 12.7479 19.9636 12.5063 20.205C12.2649 20.4467 12.1442 20.7394 12.1442 21.0833C12.1442 21.4272 12.2649 21.72 12.5063 21.9617L17.08 26.5354C17.3814 26.8365 17.7329 26.9871 18.1346 26.9871C18.5363 26.9871 18.8878 26.8365 19.1892 26.5354L28.4617 17.2629C28.6922 17.0321 28.8103 16.7419 28.8159 16.3925C28.8211 16.0433 28.7031 15.7479 28.4617 15.5062C28.22 15.2649 27.9272 15.1442 27.5834 15.1442C27.2395 15.1442 26.9467 15.2649 26.705 15.5062L18.1346 24.0771ZM20.5029 36.3333C18.3129 36.3333 16.2545 35.9178 14.3275 35.0867C12.4006 34.2555 10.7245 33.1276 9.29919 31.7029C7.87391 30.2782 6.74544 28.6028 5.91377 26.6767C5.08238 24.7505 4.66669 22.6926 4.66669 20.5029C4.66669 18.3129 5.08224 16.2544 5.91335 14.3275C6.74446 12.4005 7.87238 10.7244 9.2971 9.29916C10.7218 7.87388 12.3972 6.74541 14.3234 5.91374C16.2495 5.08235 18.3074 4.66666 20.4971 4.66666C22.6871 4.66666 24.7456 5.08221 26.6725 5.91332C28.5995 6.74443 30.2756 7.87235 31.7009 9.29707C33.1261 10.7218 34.2546 12.3972 35.0863 14.3233C35.9177 16.2494 36.3334 18.3074 36.3334 20.4971C36.3334 22.6871 35.9178 24.7455 35.0867 26.6725C34.2556 28.5994 33.1277 30.2755 31.7029 31.7008C30.2782 33.1261 28.6028 34.2546 26.6767 35.0862C24.7506 35.9176 22.6927 36.3333 20.5029 36.3333Z" fill="#FF5C5C"/>
</g>
</svg>
