<svg width="36" height="36" viewBox="0 0 36 36" fill="none" xmlns="http://www.w3.org/2000/svg">
<path d="M15.6469 3.75H13.9012V8.07774H15.6469V3.75Z" fill="url(#paint0_linear_1_3121)"/>
<path d="M22.6391 3.75H20.8934V8.07774H22.6391V3.75Z" fill="url(#paint1_linear_1_3121)"/>
<path d="M22.3513 3.75C22.9556 3.75 23.4544 4.20555 23.5119 4.78448V6.34095C23.5119 6.81549 23.1186 7.2046 22.6391 7.2046H20.8934C20.4139 7.2046 20.0206 6.81549 20.0206 6.34095V5.4773H16.5293V6.34095C16.5293 6.81549 16.1361 7.2046 15.6565 7.2046H13.9108C13.4313 7.2046 13.038 6.81549 13.038 6.34095V4.78448C13.0956 4.20555 13.5943 3.75 14.1986 3.75H22.3513Z" fill="url(#paint2_linear_1_3121)"/>
<path d="M24.1066 9.00781H11.887C10.7058 9.00781 9.74814 9.95537 9.74814 11.1242V26.2998C9.74814 27.4687 10.7058 28.4162 11.887 28.4162H24.1066C25.2879 28.4162 26.2455 27.4687 26.2455 26.2998V11.1242C26.2455 9.95537 25.2879 9.00781 24.1066 9.00781Z" fill="url(#paint3_linear_1_3121)"/>
<path d="M24.1066 8.07776H11.8487C10.2757 8.07776 9 9.34002 9 10.8965V26.7269C9 28.2834 10.2757 29.5456 11.8487 29.5456H14.7357C15.081 29.5456 15.3687 29.2704 15.3687 28.9193C15.3687 28.5681 15.0906 28.2929 14.7357 28.2929H11.8487C10.9758 28.2929 10.2661 27.5906 10.2661 26.7269V10.887C10.2661 10.0233 10.9758 9.32104 11.8487 9.32104H24.1066C24.9698 9.32104 25.67 10.0139 25.67 10.868V13.1173L26.9361 11.8456V10.868C26.9361 9.33053 25.67 8.07776 24.1162 8.07776" fill="#7FD3C9"/>
<path d="M13.5 33C14.3284 33 15 32.3284 15 31.5C15 30.6716 14.3284 30 13.5 30C12.6716 30 12 30.6716 12 31.5C12 32.3284 12.6716 33 13.5 33Z" fill="url(#paint4_linear_1_3121)"/>
<path d="M23.5159 33C24.3532 33 25.0319 32.3284 25.0319 31.5C25.0319 30.6716 24.3532 30 23.5159 30C22.6787 30 22 30.6716 22 31.5C22 32.3284 22.6787 33 23.5159 33Z" fill="url(#paint5_linear_1_3121)"/>
<path d="M22.7158 27.0401C22.7158 26.0151 23.5503 25.1894 24.5861 25.1894C23.5503 25.1894 22.7158 24.3637 22.7158 23.3387C22.7158 24.3637 21.8814 25.1894 20.8455 25.1894C21.8814 25.1894 22.7158 26.0151 22.7158 27.0401Z" fill="white"/>
<path d="M26.1783 15.8981C25.833 15.8981 25.5453 16.1733 25.5453 16.5245V26.7174C25.5453 27.5811 24.8355 28.2834 23.9627 28.2834H16.7979C16.4526 28.2834 16.1648 28.5586 16.1648 28.9098C16.1648 29.2609 16.443 29.5362 16.7979 29.5362H23.9627C25.5357 29.5362 26.8114 28.2739 26.8114 26.7174V16.5245C26.8114 16.1828 26.5332 15.8981 26.1783 15.8981Z" fill="#7FD3C9"/>
<path d="M14.2178 29.4317C13.9396 29.4317 13.6711 29.2989 13.4984 29.0806C13.3258 28.8528 13.2586 28.5681 13.3258 28.2834L16.5773 15.936H13.0956C12.5968 15.936 12.098 15.7272 11.8103 15.3096C10.7936 13.8006 11.8391 12.1872 13.249 12.1872H25.4302L24.5478 13.0129C24.2217 13.3166 23.8956 13.8006 23.5311 14.3606C23.2433 14.7876 23.0227 15.2052 22.8501 15.6418L22.735 15.936H20.5481L17.2199 28.644C17.0952 29.1091 16.6828 29.4317 16.2032 29.4317H14.2274H14.2178Z" fill="#7FD3C9" stroke="white" stroke-width="1.01"/>
<path d="M34.8778 8.90343L34.7147 10.1087C34.5996 10.9819 34.3886 11.7032 34.0817 12.2726C33.8227 12.6807 33.4966 13.0034 33.113 13.2407C33.0266 13.7816 32.6718 14.2657 32.221 14.5788C31.7606 14.9205 31.1947 15.1198 30.6096 15.1862C30.1972 15.8506 29.4107 16.2682 28.6337 16.2682H28.5858C28.5858 16.2682 28.4419 16.2492 28.4036 16.2492C28.2213 16.2492 28.0487 16.1923 27.8856 16.1543C27.7801 16.1258 27.6075 16.0594 27.502 16.0309L27.0991 15.8411L26.4277 15.7652C26.4277 16.0689 26.3893 16.4011 26.2263 16.7142C25.9577 17.2267 25.3631 17.5874 24.778 17.5874H24.7204C24.2217 17.5684 23.7709 17.3311 23.5023 16.942C23.2146 16.5339 23.1474 15.9835 23.3201 15.4805C23.6941 14.3701 24.6821 13.4495 25.4973 12.6997C25.4973 12.6997 26.1112 12.1492 26.4757 11.874C27.454 11.0483 28.2021 10.6402 29.6696 10.5833H29.9766C30.178 10.5833 30.3794 10.5833 30.5712 10.6023C30.7631 10.6023 30.9549 10.6023 31.1371 10.6023C31.3865 10.6023 31.6167 10.6023 31.8565 10.5548C32.4032 10.4789 33.0554 10.346 33.5925 9.99485C33.7172 9.91893 33.8515 9.82402 33.9666 9.71962L34.897 8.92241M35.6643 7.47034L34.4941 8.46686L33.5638 9.26407C33.4583 9.34949 33.3528 9.42541 33.2568 9.50134C32.806 9.79555 32.2401 9.89995 31.7606 9.97587C31.5783 9.99485 31.3769 10.0138 31.1275 10.0138C30.9549 10.0138 30.7726 10.0138 30.5808 10.0138C30.3794 10.0138 30.178 9.99485 29.9766 9.99485H29.6504C28.0103 10.0613 27.1279 10.5453 26.1016 11.4279C25.7467 11.6842 25.1329 12.2441 25.1137 12.2631C24.308 13.0034 23.205 14.0189 22.7734 15.2906C22.5432 15.974 22.6391 16.7048 23.0323 17.2647C23.416 17.8057 24.0298 18.1378 24.7204 18.1663H24.7972C25.6124 18.1663 26.3989 17.6918 26.773 16.9895C26.8689 16.7997 26.9361 16.6098 26.9744 16.439L27.2813 16.5814L27.3101 16.6004H27.3389L27.4924 16.6668C27.5787 16.6953 27.665 16.7332 27.7226 16.7427H27.7513L27.7801 16.7617L27.8952 16.7807C28.0391 16.8092 28.2021 16.8471 28.394 16.8566H28.4419C28.4419 16.8566 28.5474 16.8756 28.5762 16.8756H28.6433C29.5353 16.8756 30.4274 16.439 30.9549 15.7557C31.5496 15.6418 32.1155 15.414 32.5758 15.0724C33.1034 14.7022 33.487 14.1802 33.6501 13.6108C34.0337 13.3356 34.3407 12.9939 34.5901 12.5953C34.9449 11.9404 35.1847 11.1432 35.3094 10.2036L35.4725 8.99833L35.6739 7.47983L35.6643 7.47034Z" fill="white"/>
<path d="M34.8778 8.90343L34.7147 10.1087C34.5996 10.9819 34.3886 11.7032 34.0817 12.2726C33.8227 12.6807 33.4966 13.0034 33.113 13.2407C33.0266 13.7816 32.6718 14.2657 32.221 14.5788C31.7606 14.9205 31.1947 15.1198 30.6096 15.1862C30.1972 15.8506 29.4107 16.2682 28.6337 16.2682H28.5858C28.5858 16.2682 28.4419 16.2492 28.4036 16.2492C28.2213 16.2492 28.0487 16.1923 27.8856 16.1543C27.7801 16.1258 27.6075 16.0594 27.502 16.0309L27.0991 15.8411L26.4277 15.7652C26.4277 16.0689 26.3893 16.4011 26.2263 16.7142C25.9577 17.2267 25.3631 17.5874 24.778 17.5874H24.7204C24.2217 17.5684 23.7709 17.3311 23.5023 16.942C23.2146 16.5339 23.1474 15.9835 23.3201 15.4805C23.6941 14.3701 24.6821 13.4495 25.4973 12.6997C25.4973 12.6997 26.1112 12.1492 26.4757 11.874C27.454 11.0483 28.2021 10.6402 29.6696 10.5833H29.9766C30.178 10.5833 30.3794 10.5833 30.5712 10.6023C30.7631 10.6023 30.9549 10.6023 31.1371 10.6023C31.3865 10.6023 31.6167 10.6023 31.8565 10.5548C32.4032 10.4789 33.0554 10.346 33.5925 9.99485C33.7172 9.91893 33.8515 9.82402 33.9666 9.71963L34.897 8.92241M35.6643 7.47034L34.4941 8.46686L33.5638 9.26407C33.4583 9.34949 33.3528 9.42541 33.2568 9.50134C32.806 9.79555 32.2401 9.89995 31.7606 9.97587C31.5783 9.99485 31.3769 10.0138 31.1275 10.0138C30.9549 10.0138 30.7726 10.0138 30.5808 10.0138C30.3794 10.0138 30.178 9.99485 29.9766 9.99485H29.6504C28.0103 10.0613 27.1279 10.5453 26.1016 11.4279C25.7467 11.6842 25.1329 12.2441 25.1137 12.2631C24.308 13.0034 23.205 14.0189 22.7734 15.2906C22.5432 15.974 22.6391 16.7048 23.0323 17.2647C23.416 17.8057 24.0298 18.1378 24.7204 18.1663H24.7972C25.6124 18.1663 26.3989 17.6918 26.773 16.9895C26.8689 16.7997 26.9361 16.6098 26.9744 16.439L27.2813 16.5814L27.3101 16.6004H27.3389L27.4924 16.6668C27.5787 16.6953 27.665 16.7332 27.7226 16.7427H27.7513L27.7801 16.7617L27.8952 16.7807C28.0391 16.8092 28.2021 16.8471 28.394 16.8566H28.4419C28.4419 16.8566 28.5474 16.8756 28.5762 16.8756H28.6433C29.5353 16.8756 30.4274 16.439 30.9549 15.7557C31.5496 15.6418 32.1155 15.414 32.5758 15.0724C33.1034 14.7022 33.487 14.1802 33.6501 13.6108C34.0337 13.3356 34.3407 12.9939 34.5901 12.5953C34.9449 11.9404 35.1847 11.1432 35.3094 10.2036L35.4725 8.99833L35.6739 7.47983L35.6643 7.47034Z" stroke="white" stroke-width="0.5"/>
<path d="M26.4181 12.3675C26.4181 12.3675 23.4352 14.3701 23.6558 15.6893C23.8764 17.0085 23.8956 17.5589 24.8643 17.2173C25.833 16.8756 26.0153 16.3156 26.0153 16.1543L26.4181 15.7747L27.1087 15.8601L28.3172 16.0214L29.9286 15.4805L31.2618 14.6738L32.7293 13.4684L34.1201 10.384L29.7847 11.2381L28.0391 11.352L26.4277 12.3865L26.4181 12.3675Z" fill="white"/>
<path d="M25.4877 12.6902C24.6725 13.44 23.6941 14.3606 23.3105 15.471C23.1474 15.974 23.205 16.5244 23.4927 16.9325C23.7613 17.3312 24.2121 17.5684 24.7108 17.5779H24.7684C25.3631 17.5779 25.9481 17.2268 26.2167 16.7048C26.4373 16.2872 26.4277 15.8506 26.4181 15.4615V13.0793C26.6004 12.918 27.9815 11.4564 29.6792 11.4944H30.5137C30.9837 11.5134 31.4632 11.5229 31.962 11.4564C32.4607 11.39 33.0266 11.2761 33.5734 11.0294C33.487 11.3331 33.3815 11.5988 33.2568 11.8266C32.6813 13.0983 31.0316 13.383 29.7464 13.1837C29.5737 13.1458 29.3051 13.0793 29.1229 13.0414L29.0366 13.3451C29.8902 13.7057 30.9165 13.8576 31.8661 13.6962C31.6071 14.0284 31.2522 14.2847 30.8206 14.4365C30.0533 14.7307 29.0366 14.7117 28.2597 14.408L28.135 14.6358C28.5282 14.8826 29.0941 15.0914 29.5641 15.1673C29.3723 15.4235 29.1037 15.6133 28.7872 15.7177C28.7584 15.7177 28.5762 15.7747 28.557 15.7842C28.3556 15.8126 28.2021 15.8316 28.0103 15.8221H27.9048C27.8377 15.8221 27.665 15.8032 27.5979 15.7937L27.1758 15.6988L27.1183 15.8411L27.5211 16.0309C27.6266 16.0594 27.7993 16.1258 27.9048 16.1543C28.0774 16.1828 28.2501 16.2397 28.4227 16.2492C28.4611 16.2492 28.5666 16.2682 28.605 16.2682C29.4011 16.2872 30.2067 15.8696 30.6288 15.1863C31.2139 15.1198 31.7797 14.911 32.2401 14.5789C32.6909 14.2657 33.0458 13.7816 33.1321 13.2407C33.5062 13.0034 33.8419 12.6902 34.1009 12.2726C34.1009 12.2726 34.0721 12.2536 34.0337 12.2347L34.1009 12.2726C34.4078 11.7032 34.6188 10.9819 34.7339 10.1088L34.897 8.90344L33.9666 9.70066C33.8515 9.80506 33.7172 9.89996 33.5925 9.97589C33.0458 10.327 32.4032 10.4599 31.8565 10.5358C31.4536 10.5928 31.022 10.5833 30.5808 10.5643C30.2931 10.5643 29.9861 10.5453 29.6888 10.5643C28.2213 10.6213 27.4732 11.0294 26.4948 11.855C26.14 12.1208 25.5165 12.6807 25.5165 12.6807L25.4877 12.6902ZM25.3439 16.4295C25.2288 16.6478 24.9506 16.7997 24.7012 16.7902C24.4902 16.7902 24.3176 16.6953 24.2121 16.5434C24.097 16.3726 24.0682 16.1353 24.1449 15.9076C24.3559 15.2717 24.8835 14.6643 25.4302 14.1233V15.6418C25.4302 15.9455 25.4494 16.2207 25.3343 16.4201L25.3439 16.4295Z" fill="#7FD3C9"/>
<defs>
<linearGradient id="paint0_linear_1_3121" x1="14.7741" y1="3.75" x2="14.7741" y2="8.17265" gradientUnits="userSpaceOnUse">
<stop stop-color="#DFEFFF"/>
<stop offset="0.34" stop-color="#E3F2FE"/>
<stop offset="1" stop-color="#AAD5FE"/>
</linearGradient>
<linearGradient id="paint1_linear_1_3121" x1="21.7663" y1="-986.791" x2="21.7663" y2="-986.791" gradientUnits="userSpaceOnUse">
<stop stop-color="#DFEFFF"/>
<stop offset="0.34" stop-color="#E3F2FE"/>
<stop offset="1" stop-color="#AAD5FE"/>
</linearGradient>
<linearGradient id="paint2_linear_1_3121" x1="21.9581" y1="7.35645" x2="14.0596" y2="3.37009" gradientUnits="userSpaceOnUse">
<stop offset="0.42" stop-color="#525E6C"/>
<stop offset="1" stop-color="#242526"/>
</linearGradient>
<linearGradient id="paint3_linear_1_3121" x1="11.0718" y1="9.92841" x2="24.57" y2="27.4157" gradientUnits="userSpaceOnUse">
<stop stop-color="#CFFFF6"/>
<stop offset="1" stop-color="#74D6CE"/>
</linearGradient>
<linearGradient id="paint4_linear_1_3121" x1="14.565" y1="30.4425" x2="12.4425" y2="32.5575" gradientUnits="userSpaceOnUse">
<stop offset="0.42" stop-color="#525E6C"/>
<stop offset="1" stop-color="#242526"/>
</linearGradient>
<linearGradient id="paint5_linear_1_3121" x1="24.5847" y1="30.4425" x2="22.4622" y2="32.5799" gradientUnits="userSpaceOnUse">
<stop offset="0.42" stop-color="#525E6C"/>
<stop offset="1" stop-color="#242526"/>
</linearGradient>
</defs>
</svg>
