<svg width="48" height="48" viewBox="0 0 48 48" fill="none" xmlns="http://www.w3.org/2000/svg">
<g clip-path="url(#clip0_6102_2608)">
<path d="M24.4003 41.8518C34.8386 41.8518 43.3005 33.3899 43.3005 22.9516C43.3005 12.5133 34.8386 4.05136 24.4003 4.05136C13.962 4.05136 5.50006 12.5133 5.50006 22.9516C5.50006 33.3899 13.962 41.8518 24.4003 41.8518Z" fill="url(#paint0_linear_6102_2608)" stroke="#E6F0FA"/>
<g filter="url(#filter0_ii_6102_2608)">
<path d="M24.4003 7.49537C15.8641 7.49537 8.9441 14.4153 8.9441 22.9516C8.9441 31.4878 15.8641 38.4078 24.4003 38.4078C32.9365 38.4078 39.8565 31.4878 39.8565 22.9516C39.8565 14.4153 32.9365 7.49537 24.4003 7.49537Z" fill="#F0F2F5"/>
</g>
<path d="M24.2944 35.2185C31.0108 35.2185 36.4555 29.7738 36.4555 23.0574C36.4555 16.341 31.0108 10.8963 24.2944 10.8963C17.5781 10.8963 12.1334 16.341 12.1334 23.0574C12.1334 29.7738 17.5781 35.2185 24.2944 35.2185Z" fill="url(#paint1_linear_6102_2608)"/>
<mask id="mask0_6102_2608" style="mask-type:alpha" maskUnits="userSpaceOnUse" x="5" y="3" width="39" height="40">
<path d="M24.4003 41.8518C34.8386 41.8518 43.3005 33.3899 43.3005 22.9516C43.3005 12.5133 34.8386 4.05136 24.4003 4.05136C13.962 4.05136 5.50006 12.5133 5.50006 22.9516C5.50006 33.3899 13.962 41.8518 24.4003 41.8518Z" fill="url(#paint2_linear_6102_2608)" stroke="#E6F0F9"/>
</mask>
<g mask="url(#mask0_6102_2608)">
<g filter="url(#filter1_f_6102_2608)">
<path fill-rule="evenodd" clip-rule="evenodd" d="M30.1109 35.847V15.4422C30.1109 14.7347 30.8279 14.2643 31.3945 14.6879C36.0649 18.1795 36.0178 28.8361 35.9918 34.6967C35.99 35.1047 35.9883 35.4895 35.9883 35.847H34.519L34.519 39.1436L34.519 40.1129L34.519 57.2452C34.519 57.5213 34.2951 57.7452 34.019 57.7452H30.6109C30.3348 57.7452 30.1109 57.5213 30.1109 57.2452V40.1129V39.1436V35.847ZM18.0547 15.9722C17.2663 15.9722 16.6271 16.6114 16.6271 17.3998V24.9381C16.6148 25.3384 16.3001 25.6589 15.9137 25.6589C15.5257 25.6589 15.2101 25.3359 15.2001 24.9334V17.3999C15.2001 16.6114 14.561 15.9723 13.7725 15.9723C12.9841 15.9723 12.3449 16.6114 12.3449 17.3999V27.8551L12.3447 27.8943V29.3846L12.3449 29.4238V29.4473C12.3449 29.4885 12.3467 29.5294 12.3501 29.5697C12.4417 31.1296 13.6825 32.3651 15.1999 32.3651H16.5559L15.9372 38.8235C15.922 38.8713 15.9138 38.9223 15.9138 38.9751V39.0677L15.9134 39.0713V56.6996C15.9134 56.7085 15.9136 56.7174 15.9138 56.7263V57.3485C15.9138 57.6247 16.1377 57.8485 16.4138 57.8485H19.6966C19.9728 57.8485 20.1966 57.6247 20.1966 57.3485V38.9751C20.1966 38.9211 20.1881 38.8691 20.1722 38.8204L19.5538 32.3651H20.9103C22.4229 32.3651 23.6608 31.1373 23.7592 29.5843C23.7635 29.5392 23.7657 29.4935 23.7657 29.4473V17.3998C23.7657 16.6114 23.1265 15.9722 22.3381 15.9722C21.5496 15.9722 20.9105 16.6114 20.9105 17.3998V24.9138H20.9103C20.9103 25.3253 20.5907 25.6589 20.1965 25.6589C19.8023 25.6589 19.4827 25.3253 19.4827 24.9138H19.4823V17.3998C19.4823 16.6114 18.8432 15.9722 18.0547 15.9722Z" fill="#A3AEC3" style="mix-blend-mode:multiply"/>
</g>
</g>
<path fill-rule="evenodd" clip-rule="evenodd" d="M16.6268 17.3998C16.6268 16.6113 17.266 15.9722 18.0544 15.9722C18.8429 15.9722 19.482 16.6113 19.482 17.3998V24.9137H19.4824C19.4824 25.3253 19.802 25.6589 20.1962 25.6589C20.5904 25.6589 20.91 25.3253 20.91 24.9137C20.9101 24.9137 20.9101 24.9137 20.9102 24.9137V17.3998C20.9102 16.6113 21.5493 15.9722 22.3378 15.9722C23.1262 15.9722 23.7654 16.6113 23.7654 17.3998V29.4472C23.7654 29.4934 23.7632 29.5391 23.7589 29.5842C23.6605 31.1372 22.4226 32.3651 20.91 32.3651H19.5535L20.196 39.0712V56.6996C20.196 57.2518 19.7482 57.6996 19.196 57.6996H16.9131C16.3609 57.6996 15.9131 57.2518 15.9131 56.6996V39.0712L16.5556 32.3651H15.1996C13.6825 32.3651 12.4419 31.13 12.3498 29.5706C12.3464 29.53 12.3446 29.4888 12.3446 29.4472V29.4217C12.3444 29.4093 12.3444 29.3969 12.3444 29.3845V27.8943C12.3444 27.8819 12.3444 27.8695 12.3446 27.8571V17.3998C12.3446 16.6114 12.9837 15.9722 13.7722 15.9722C14.5606 15.9722 15.1998 16.6114 15.1998 17.3998V24.9323C15.2092 25.3353 15.5251 25.6589 15.9134 25.6589C16.2998 25.6589 16.6145 25.3383 16.6268 24.938V17.3998Z" fill="url(#paint3_linear_6102_2608)"/>
<path fill-rule="evenodd" clip-rule="evenodd" d="M21.9404 16.0281C22.43 16.1935 23.0511 16.7629 23.0511 18.2076V29.3846C23.0511 31.3716 21.1476 31.3716 19.8786 31.3716C19.2441 31.3716 18.7682 31.3716 18.7682 31.62C18.7682 31.8684 18.8476 32.6963 18.9533 33.8003C19.1648 36.0081 19.482 39.3197 19.4821 41.3067C19.4821 41.9244 19.758 42.2861 20.1955 42.4713V39.0712L19.5531 32.3651H20.9095C22.4221 32.3651 23.66 31.1372 23.7584 29.5842C23.7627 29.5391 23.7649 29.4934 23.7649 29.4472V17.3998C23.7649 16.6113 23.1258 15.9722 22.3373 15.9722C22.1996 15.9722 22.0664 15.9917 21.9404 16.0281Z" fill="#DFE6F0"/>
<path fill-rule="evenodd" clip-rule="evenodd" d="M14.1687 16.0281C13.6791 16.1936 13.0581 16.763 13.0581 18.2076V29.3846C13.0581 31.3716 14.9615 31.3716 16.2305 31.3716C16.865 31.3716 17.3409 31.3716 17.3409 31.62C17.3409 31.8684 17.2616 32.6963 17.1558 33.8003C16.9443 36.0081 16.6271 39.3197 16.6271 41.3067C16.6271 41.9245 16.3511 42.2862 15.9135 42.4714V39.0712L16.5559 32.3651H15.1994C13.6868 32.3651 12.4489 31.1372 12.3505 29.5842C12.3462 29.5391 12.344 29.4934 12.344 29.4472V17.3998C12.344 16.6113 12.9832 15.9722 13.7716 15.9722C13.9094 15.9722 14.0426 15.9917 14.1687 16.0281Z" fill="white"/>
<path fill-rule="evenodd" clip-rule="evenodd" d="M17.3409 16.1631V24.1688V25.6591C17.3409 26.4042 16.3075 26.4042 15.9133 26.4042C15.519 26.4042 15.1995 26.0706 15.1995 25.6591L15.2422 25.1682C15.3418 25.4545 15.6047 25.659 15.9134 25.659C16.2998 25.659 16.6145 25.3385 16.6268 24.9382V17.3999C16.6268 16.8714 16.914 16.4099 17.3409 16.1631ZM19.5284 25.1777L19.4823 25.6591C19.4823 26.0706 19.8019 26.4042 20.1961 26.4042C20.5903 26.4042 21.6237 26.4042 21.6237 25.6591V24.1688V16.1635C21.1971 16.4103 20.9102 16.8716 20.9102 17.3999V24.9139H20.91C20.91 25.3254 20.5904 25.659 20.1962 25.659C19.8909 25.659 19.6304 25.459 19.5284 25.1777Z" fill="#F8FAFA"/>
<rect x="15.9136" y="38.4751" width="4.28282" height="19.3734" rx="0.5" fill="url(#paint4_linear_6102_2608)"/>
<path d="M30.1102 35.847V15.4422C30.1102 14.7347 30.8271 14.2643 31.3937 14.6879C36.3893 18.4226 35.9876 30.3548 35.9876 35.847H30.1102Z" fill="url(#paint5_linear_6102_2608)"/>
<path d="M30.1102 35.847H34.5182V40.1129H30.1102V35.847Z" fill="url(#paint6_linear_6102_2608)"/>
<mask id="mask1_6102_2608" style="mask-type:alpha" maskUnits="userSpaceOnUse" x="30" y="14" width="6" height="26">
<path d="M30.1104 35.7363V15.4454C30.1104 14.7387 30.8261 14.2679 31.3932 14.6895C36.3896 18.4036 35.9878 30.2731 35.9878 35.7363H30.1104Z" fill="url(#paint7_linear_6102_2608)"/>
<path d="M30.1104 35.7363H34.5185V39.9794H30.1104V35.7363Z" fill="url(#paint8_linear_6102_2608)"/>
</mask>
<g mask="url(#mask1_6102_2608)">
<path d="M31.0164 16.4058C31.0164 15.4466 31.4394 14.5996 31.6508 14.5996L32.2853 13.4084H29.1129L28.4784 40.984H31.0164V16.4058Z" fill="white"/>
</g>
<rect x="30.1104" y="38.6436" width="4.40804" height="19.1015" rx="0.5" fill="url(#paint9_linear_6102_2608)"/>
</g>
<defs>
<filter id="filter0_ii_6102_2608" x="7.94409" y="6.49536" width="33.9124" height="33.9124" filterUnits="userSpaceOnUse" color-interpolation-filters="sRGB">
<feFlood flood-opacity="0" result="BackgroundImageFix"/>
<feBlend mode="normal" in="SourceGraphic" in2="BackgroundImageFix" result="shape"/>
<feColorMatrix in="SourceAlpha" type="matrix" values="0 0 0 0 0 0 0 0 0 0 0 0 0 0 0 0 0 0 127 0" result="hardAlpha"/>
<feOffset dx="2" dy="2"/>
<feGaussianBlur stdDeviation="2"/>
<feComposite in2="hardAlpha" operator="arithmetic" k2="-1" k3="1"/>
<feColorMatrix type="matrix" values="0 0 0 0 0.688897 0 0 0 0 0.789691 0 0 0 0 0.897436 0 0 0 0.25 0"/>
<feBlend mode="normal" in2="shape" result="effect1_innerShadow_6102_2608"/>
<feColorMatrix in="SourceAlpha" type="matrix" values="0 0 0 0 0 0 0 0 0 0 0 0 0 0 0 0 0 0 127 0" result="hardAlpha"/>
<feOffset dx="-1" dy="-1"/>
<feGaussianBlur stdDeviation="2.5"/>
<feComposite in2="hardAlpha" operator="arithmetic" k2="-1" k3="1"/>
<feColorMatrix type="matrix" values="0 0 0 0 1 0 0 0 0 1 0 0 0 0 1 0 0 0 0.8 0"/>
<feBlend mode="normal" in2="effect1_innerShadow_6102_2608" result="effect2_innerShadow_6102_2608"/>
</filter>
<filter id="filter1_f_6102_2608" x="9.34467" y="11.5272" width="29.6514" height="49.3213" filterUnits="userSpaceOnUse" color-interpolation-filters="sRGB">
<feFlood flood-opacity="0" result="BackgroundImageFix"/>
<feBlend mode="normal" in="SourceGraphic" in2="BackgroundImageFix" result="shape"/>
<feGaussianBlur stdDeviation="1.5" result="effect1_foregroundBlur_6102_2608"/>
</filter>
<linearGradient id="paint0_linear_6102_2608" x1="12.6241" y1="9.70343" x2="36.9125" y2="36.1998" gradientUnits="userSpaceOnUse">
<stop stop-color="#F5FAFF"/>
<stop offset="1" stop-color="#EDF0F5"/>
</linearGradient>
<linearGradient id="paint1_linear_6102_2608" x1="17.1889" y1="12.6902" x2="29.522" y2="33.8557" gradientUnits="userSpaceOnUse">
<stop stop-color="#F9F9F9"/>
<stop offset="1" stop-color="#EAEDEF"/>
</linearGradient>
<linearGradient id="paint2_linear_6102_2608" x1="12.6241" y1="9.70343" x2="36.9125" y2="36.1998" gradientUnits="userSpaceOnUse">
<stop stop-color="#F5FAFF"/>
<stop offset="1" stop-color="#EDF0F5"/>
</linearGradient>
<linearGradient id="paint3_linear_6102_2608" x1="18.0548" y1="15.9722" x2="18.1403" y2="44.2888" gradientUnits="userSpaceOnUse">
<stop stop-color="#F3F6FB"/>
<stop offset="1" stop-color="#F8F8F8"/>
</linearGradient>
<linearGradient id="paint4_linear_6102_2608" x1="15.9136" y1="48.1618" x2="20.1964" y2="48.1618" gradientUnits="userSpaceOnUse">
<stop stop-color="#DCB390"/>
<stop offset="1" stop-color="#A3735E"/>
</linearGradient>
<linearGradient id="paint5_linear_6102_2608" x1="35.9953" y1="27.32" x2="27.6246" y2="27.2326" gradientUnits="userSpaceOnUse">
<stop stop-color="#F8FBFF"/>
<stop offset="1" stop-color="#E6EBF4"/>
</linearGradient>
<linearGradient id="paint6_linear_6102_2608" x1="35.9953" y1="27.32" x2="27.6246" y2="27.2326" gradientUnits="userSpaceOnUse">
<stop stop-color="#F8FBFF"/>
<stop offset="1" stop-color="#E6EBF4"/>
</linearGradient>
<linearGradient id="paint7_linear_6102_2608" x1="30.1104" y1="27.2547" x2="35.9955" y2="27.2547" gradientUnits="userSpaceOnUse">
<stop stop-color="#DFE3EA"/>
<stop offset="1" stop-color="#EBF2F6"/>
</linearGradient>
<linearGradient id="paint8_linear_6102_2608" x1="30.1104" y1="27.2547" x2="35.9955" y2="27.2547" gradientUnits="userSpaceOnUse">
<stop stop-color="#DFE3EA"/>
<stop offset="1" stop-color="#EBF2F6"/>
</linearGradient>
<linearGradient id="paint9_linear_6102_2608" x1="34.5185" y1="48.1944" x2="30.1104" y2="48.1944" gradientUnits="userSpaceOnUse">
<stop stop-color="#A3735E"/>
<stop offset="1" stop-color="#DCB390"/>
</linearGradient>
<clipPath id="clip0_6102_2608">
<rect width="48" height="48" fill="white"/>
</clipPath>
</defs>
</svg>
