<svg width="48" height="48" viewBox="0 0 48 48" fill="none" xmlns="http://www.w3.org/2000/svg">
<path d="M9 13C9 10.7909 10.7909 9 13 9H35C37.2091 9 39 10.7909 39 13V20H9V13Z" fill="url(#paint0_linear_4147_3219)"/>
<path d="M13 16C13 14.8954 13.8954 14 15 14H21C22.1046 14 23 14.8954 23 16V20H13V16Z" fill="url(#paint1_linear_4147_3219)"/>
<path d="M25 16C25 14.8954 25.8954 14 27 14H33C34.1046 14 35 14.8954 35 16V20H25V16Z" fill="url(#paint2_linear_4147_3219)"/>
<path d="M6 23C6 21.3431 7.34315 20 9 20H39C40.6569 20 42 21.3431 42 23V29H6V23Z" fill="url(#paint3_linear_4147_3219)"/>
<path fill-rule="evenodd" clip-rule="evenodd" d="M42 29H6V35V36V37.5C6 38.3284 6.67157 39 7.5 39C8.32843 39 9 38.3284 9 37.5V36H39V37.5C39 38.3284 39.6716 39 40.5 39C41.3284 39 42 38.3284 42 37.5V36V35V29Z" fill="url(#paint4_linear_4147_3219)"/>
<defs>
<linearGradient id="paint0_linear_4147_3219" x1="24" y1="9" x2="24" y2="20" gradientUnits="userSpaceOnUse">
<stop stop-color="#B6ADF8"/>
<stop offset="1" stop-color="#948EF5"/>
</linearGradient>
<linearGradient id="paint1_linear_4147_3219" x1="15.2368" y1="14" x2="15.2368" y2="20.1304" gradientUnits="userSpaceOnUse">
<stop offset="0.34" stop-color="#EDF1FF"/>
<stop offset="1" stop-color="#D6DDFF"/>
</linearGradient>
<linearGradient id="paint2_linear_4147_3219" x1="27.2368" y1="14" x2="27.2368" y2="20.1304" gradientUnits="userSpaceOnUse">
<stop offset="0.34" stop-color="#EDF1FF"/>
<stop offset="1" stop-color="#D6DDFF"/>
</linearGradient>
<linearGradient id="paint3_linear_4147_3219" x1="14.0526" y1="20" x2="14.0526" y2="29.1957" gradientUnits="userSpaceOnUse">
<stop offset="0.34" stop-color="#EDF1FF"/>
<stop offset="1" stop-color="#D6DDFF"/>
</linearGradient>
<linearGradient id="paint4_linear_4147_3219" x1="24" y1="29" x2="24" y2="39" gradientUnits="userSpaceOnUse">
<stop stop-color="#B6ADF8"/>
<stop offset="1" stop-color="#948EF5"/>
</linearGradient>
</defs>
</svg>
