<svg width="30" height="30" viewBox="0 0 30 30" fill="none" xmlns="http://www.w3.org/2000/svg">
<path fill-rule="evenodd" clip-rule="evenodd" d="M20.625 8.75C21.0982 8.75 21.5099 8.48706 21.7222 8.09937C21.8879 7.79656 22.1548 7.5 22.5 7.5H25.625C26.3154 7.5 26.875 8.05963 26.875 8.75V20C26.875 20.6904 26.3154 21.25 25.625 21.25H22.5C22.1548 21.25 21.8879 20.9534 21.7222 20.6506C21.5099 20.2629 21.0982 20 20.625 20C20.1518 20 19.7401 20.2629 19.5278 20.6506C19.3621 20.9534 19.0952 21.25 18.75 21.25H6.25C5.55964 21.25 5 20.6904 5 20V8.75C5 8.05963 5.55964 7.5 6.25 7.5H18.75C19.0952 7.5 19.3621 7.79656 19.5278 8.09937C19.7401 8.48706 20.1518 8.75 20.625 8.75Z" fill="url(#paint0_linear_2813_19300)" fill-opacity="0.4"/>
<path fill-rule="evenodd" clip-rule="evenodd" d="M18.75 10.625C19.2232 10.625 19.6349 10.3621 19.8472 9.97437C20.0129 9.67156 20.2798 9.375 20.625 9.375H23.75C24.4404 9.375 25 9.93463 25 10.625V21.875C25 22.5654 24.4404 23.125 23.75 23.125H20.625C20.2798 23.125 20.0129 22.8284 19.8472 22.5256C19.6349 22.1379 19.2232 21.875 18.75 21.875C18.2768 21.875 17.8651 22.1379 17.6528 22.5256C17.4871 22.8284 17.2202 23.125 16.875 23.125H4.375C3.68464 23.125 3.125 22.5654 3.125 21.875V10.625C3.125 9.93463 3.68464 9.375 4.375 9.375H16.875C17.2202 9.375 17.4871 9.67156 17.6528 9.97437C17.8651 10.3621 18.2768 10.625 18.75 10.625Z" fill="url(#paint1_linear_2813_19300)"/>
<mask id="mask0_2813_19300" style="mask-type:alpha" maskUnits="userSpaceOnUse" x="3" y="9" width="22" height="15">
<path fill-rule="evenodd" clip-rule="evenodd" d="M18.75 10.625C19.2232 10.625 19.6349 10.3621 19.8472 9.97437C20.0129 9.67156 20.2798 9.375 20.625 9.375H23.75C24.4404 9.375 25 9.93463 25 10.625V21.875C25 22.5654 24.4404 23.125 23.75 23.125H20.625C20.2798 23.125 20.0129 22.8284 19.8472 22.5256C19.6349 22.1379 19.2232 21.875 18.75 21.875C18.2768 21.875 17.8651 22.1379 17.6528 22.5256C17.4871 22.8284 17.2202 23.125 16.875 23.125H4.375C3.68464 23.125 3.125 22.5654 3.125 21.875V10.625C3.125 9.93463 3.68464 9.375 4.375 9.375H16.875C17.2202 9.375 17.4871 9.67156 17.6528 9.97437C17.8651 10.3621 18.2768 10.625 18.75 10.625Z" fill="url(#paint2_linear_2813_19300)"/>
</mask>
<g mask="url(#mask0_2813_19300)">
<path d="M3.125 12.5H25V23.125H3.125V12.5Z" fill="url(#paint3_linear_2813_19300)"/>
</g>
<path d="M13.5916 15.4291C13.5642 15.3399 13.5116 15.2614 13.4404 15.2038C13.3694 15.1462 13.2831 15.1123 13.1931 15.1064L11.5722 14.9904L10.9719 13.4194C10.9391 13.3329 10.882 13.2586 10.8081 13.2061C10.7341 13.1536 10.6467 13.1254 10.5571 13.125C10.4674 13.1254 10.38 13.1536 10.3061 13.2061C10.2321 13.2586 10.1751 13.3329 10.1422 13.4194L9.53099 14.9989L7.92099 15.1064C7.83106 15.1127 7.74506 15.1468 7.67399 15.2043C7.60299 15.2618 7.55024 15.3401 7.52256 15.4291C7.49418 15.5194 7.49256 15.6166 7.51781 15.7079C7.54312 15.7992 7.59418 15.8806 7.66449 15.9414L8.90337 17.0284L8.53499 18.5315C8.50949 18.6332 8.51406 18.7404 8.54812 18.8394C8.58224 18.9383 8.64418 19.0244 8.72599 19.0862C8.80543 19.1454 8.90006 19.1786 8.99774 19.1816C9.09549 19.1846 9.19181 19.1574 9.27449 19.1032L10.5543 18.2626H10.5598L11.9379 19.1656C12.0086 19.2132 12.0909 19.2387 12.1752 19.2391C12.2441 19.2386 12.3119 19.2216 12.3734 19.1896C12.435 19.1577 12.4886 19.1114 12.5302 19.0546C12.5719 18.9977 12.6004 18.9317 12.6136 18.8617C12.6268 18.7916 12.6244 18.7193 12.6064 18.6504L12.2162 17.0057L13.4496 15.9414C13.5199 15.8806 13.571 15.7992 13.5963 15.7079C13.6216 15.6166 13.6199 15.5194 13.5916 15.4291Z" fill="url(#paint4_linear_2813_19300)"/>
<path d="M18.75 12.5V20" stroke="white" stroke-opacity="0.8" stroke-width="2" stroke-linecap="round" stroke-dasharray="2 3"/>
<defs>
<linearGradient id="paint0_linear_2813_19300" x1="24.1406" y1="21.25" x2="3.97461" y2="21.25" gradientUnits="userSpaceOnUse">
<stop stop-color="#22BCB3"/>
<stop offset="1" stop-color="#89E3DE"/>
</linearGradient>
<linearGradient id="paint1_linear_2813_19300" x1="13.7587" y1="23.125" x2="13.7587" y2="9.375" gradientUnits="userSpaceOnUse">
<stop stop-color="#2DA59E"/>
<stop offset="1" stop-color="#5AEEE0"/>
</linearGradient>
<linearGradient id="paint2_linear_2813_19300" x1="13.7587" y1="23.125" x2="13.7587" y2="9.375" gradientUnits="userSpaceOnUse">
<stop stop-color="#2DA59E"/>
<stop offset="1" stop-color="#5AEEE0"/>
</linearGradient>
<linearGradient id="paint3_linear_2813_19300" x1="13.7587" y1="23.125" x2="13.7587" y2="12.5" gradientUnits="userSpaceOnUse">
<stop stop-color="#2DA59E"/>
<stop offset="1" stop-color="#5AEEE0"/>
</linearGradient>
<linearGradient id="paint4_linear_2813_19300" x1="8.86762" y1="13.125" x2="8.86762" y2="19.3721" gradientUnits="userSpaceOnUse">
<stop stop-color="#DFEFFF"/>
<stop offset="0.34" stop-color="#E3F2FE"/>
<stop offset="1" stop-color="#AAD5FE"/>
</linearGradient>
</defs>
</svg>
