<svg width="36" height="36" viewBox="0 0 36 36" fill="none" xmlns="http://www.w3.org/2000/svg">
<rect x="17.25" y="3" width="1.5" height="8.25" rx="0.75" fill="#D7D9E3"/>
<rect x="15.75" y="15.75" width="1.5" height="16.5" fill="url(#paint0_linear_1_3189)"/>
<rect x="18.75" y="15.75" width="1.5" height="16.5" fill="url(#paint1_linear_1_3189)"/>
<path d="M14.25 32.25L15.75 28.5L15 27L12.75 32.25H14.25Z" fill="url(#paint2_linear_1_3189)"/>
<path d="M21.75 32.25L20.25 28.5L21 27L23.25 32.25H21.75Z" fill="url(#paint3_linear_1_3189)"/>
<path d="M17.25 30H18.75V30.75H17.25V30Z" fill="url(#paint4_linear_1_3189)"/>
<path d="M17.25 18.75H18.75V19.5H17.25V18.75Z" fill="url(#paint5_linear_1_3189)"/>
<path d="M17.25 20.25H18.75V21H17.25V20.25Z" fill="url(#paint6_linear_1_3189)"/>
<path d="M17.25 17.25H18.75V18H17.25V17.25Z" fill="url(#paint7_linear_1_3189)"/>
<circle cx="18" cy="25.5" r="3.75" fill="url(#paint8_radial_1_3189)"/>
<mask id="mask0_1_3189" style="mask-type:alpha" maskUnits="userSpaceOnUse" x="14" y="21" width="8" height="9">
<circle cx="18" cy="25.5" r="3.75" fill="url(#paint9_radial_1_3189)"/>
</mask>
<g mask="url(#mask0_1_3189)">
<rect x="13.5" y="24" width="9" height="3" fill="url(#paint10_linear_1_3189)"/>
</g>
<circle cx="18" cy="12.75" r="3.75" fill="url(#paint11_radial_1_3189)"/>
<mask id="mask1_1_3189" style="mask-type:alpha" maskUnits="userSpaceOnUse" x="14" y="9" width="8" height="8">
<circle cx="18" cy="12.75" r="3.75" fill="url(#paint12_radial_1_3189)"/>
</mask>
<g mask="url(#mask1_1_3189)">
<rect x="13.5" y="9" width="9" height="5.25" fill="url(#paint13_linear_1_3189)"/>
</g>
<circle cx="18" cy="6" r="1.5" fill="url(#paint14_radial_1_3189)"/>
<mask id="mask2_1_3189" style="mask-type:alpha" maskUnits="userSpaceOnUse" x="16" y="4" width="4" height="4">
<circle cx="18" cy="6" r="1.5" fill="url(#paint15_radial_1_3189)"/>
</mask>
<g mask="url(#mask2_1_3189)">
<rect x="16.5" y="5.25" width="3" height="1.5" fill="url(#paint16_linear_1_3189)"/>
</g>
<path d="M3.75 23.5C3.75 22.9477 4.19772 22.5 4.75 22.5H9.5C10.0523 22.5 10.5 22.9477 10.5 23.5V32.25H3.75V23.5Z" fill="url(#paint17_linear_1_3189)"/>
<rect x="6" y="24.75" width="2.25" height="2.25" fill="url(#paint18_linear_1_3189)"/>
<rect x="6" y="28.5" width="2.25" height="2.25" fill="url(#paint19_linear_1_3189)"/>
<path d="M25.5 20.3558C25.5 19.9326 25.7663 19.5553 26.165 19.4136L30.915 17.7247C31.566 17.4932 32.25 17.9759 32.25 18.6669V32.25H25.5V20.3558Z" fill="url(#paint20_linear_1_3189)"/>
<rect x="27.75" y="21" width="2.25" height="2.25" fill="url(#paint21_linear_1_3189)"/>
<rect x="27.75" y="24.75" width="2.25" height="2.25" fill="url(#paint22_linear_1_3189)"/>
<rect x="27.75" y="28.5" width="2.25" height="2.25" fill="url(#paint23_linear_1_3189)"/>
<path d="M28.6875 5.25C29.8251 5.25 30.758 6.11851 30.8633 7.22852C31.3925 7.52947 31.75 8.09763 31.75 8.75C31.75 9.65617 31.0613 10.4017 30.1787 10.4912L30 10.5H26.5L26.3213 10.4912C25.4387 10.4017 24.75 9.65617 24.75 8.75C24.75 7.7835 25.5335 7 26.5 7C26.5147 7 26.5293 7.00159 26.5439 7.00195C26.7459 6.00256 27.6286 5.25 28.6875 5.25Z" fill="url(#paint24_linear_1_3189)"/>
<path d="M7.6875 11.25C8.82507 11.25 9.75799 12.1185 9.86328 13.2285C10.3925 13.5295 10.75 14.0976 10.75 14.75C10.75 15.6562 10.0613 16.4017 9.17871 16.4912L9 16.5H5.5L5.32129 16.4912C4.43873 16.4017 3.75001 15.6562 3.75 14.75C3.75 13.7835 4.5335 13 5.5 13C5.5147 13 5.52933 13.0016 5.54395 13.002C5.74591 12.0026 6.62856 11.25 7.6875 11.25Z" fill="url(#paint25_linear_1_3189)"/>
<defs>
<linearGradient id="paint0_linear_1_3189" x1="16.5" y1="15.75" x2="16.5" y2="32.25" gradientUnits="userSpaceOnUse">
<stop stop-color="#E7F1F9"/>
<stop offset="1" stop-color="#C6D1DF"/>
</linearGradient>
<linearGradient id="paint1_linear_1_3189" x1="19.5" y1="15.75" x2="19.5" y2="32.25" gradientUnits="userSpaceOnUse">
<stop stop-color="#E7F1F9"/>
<stop offset="1" stop-color="#C6D1DF"/>
</linearGradient>
<linearGradient id="paint2_linear_1_3189" x1="14.25" y1="27" x2="14.25" y2="32.25" gradientUnits="userSpaceOnUse">
<stop stop-color="#E7F1F9"/>
<stop offset="1" stop-color="#C6D1DF"/>
</linearGradient>
<linearGradient id="paint3_linear_1_3189" x1="21.75" y1="27" x2="21.75" y2="32.25" gradientUnits="userSpaceOnUse">
<stop stop-color="#E7F1F9"/>
<stop offset="1" stop-color="#C6D1DF"/>
</linearGradient>
<linearGradient id="paint4_linear_1_3189" x1="18" y1="30" x2="18" y2="30.75" gradientUnits="userSpaceOnUse">
<stop stop-color="#FFB4D7"/>
<stop offset="1" stop-color="#FF74AD"/>
</linearGradient>
<linearGradient id="paint5_linear_1_3189" x1="18" y1="18.75" x2="18" y2="19.5" gradientUnits="userSpaceOnUse">
<stop stop-color="#FFB4D7"/>
<stop offset="1" stop-color="#FF74AD"/>
</linearGradient>
<linearGradient id="paint6_linear_1_3189" x1="18" y1="20.25" x2="18" y2="21" gradientUnits="userSpaceOnUse">
<stop stop-color="#FFB4D7"/>
<stop offset="1" stop-color="#FF74AD"/>
</linearGradient>
<linearGradient id="paint7_linear_1_3189" x1="18" y1="17.25" x2="18" y2="18" gradientUnits="userSpaceOnUse">
<stop stop-color="#FFB4D7"/>
<stop offset="1" stop-color="#FF74AD"/>
</linearGradient>
<radialGradient id="paint8_radial_1_3189" cx="0" cy="0" r="1" gradientUnits="userSpaceOnUse" gradientTransform="translate(18 25.5) rotate(90) scale(3.75)">
<stop offset="0.73" stop-color="#BBC2C7"/>
<stop offset="1" stop-color="#A8B1D1"/>
</radialGradient>
<radialGradient id="paint9_radial_1_3189" cx="0" cy="0" r="1" gradientUnits="userSpaceOnUse" gradientTransform="translate(18 25.5) rotate(64.6538) scale(7.88392)">
<stop stop-color="#B0B0B0"/>
<stop offset="1" stop-color="#B7C8CE"/>
</radialGradient>
<linearGradient id="paint10_linear_1_3189" x1="18" y1="24" x2="18" y2="27" gradientUnits="userSpaceOnUse">
<stop stop-color="#FF8FC9"/>
<stop offset="1" stop-color="#D55796"/>
</linearGradient>
<radialGradient id="paint11_radial_1_3189" cx="0" cy="0" r="1" gradientUnits="userSpaceOnUse" gradientTransform="translate(18 12.75) rotate(90) scale(3.75)">
<stop offset="0.57" stop-color="#BBC2C7"/>
<stop offset="1" stop-color="#ADB7D6"/>
</radialGradient>
<radialGradient id="paint12_radial_1_3189" cx="0" cy="0" r="1" gradientUnits="userSpaceOnUse" gradientTransform="translate(18 12.75) rotate(64.6538) scale(7.88392)">
<stop stop-color="#B0B0B0"/>
<stop offset="1" stop-color="#778083"/>
</radialGradient>
<linearGradient id="paint13_linear_1_3189" x1="18" y1="9" x2="18" y2="14.25" gradientUnits="userSpaceOnUse">
<stop stop-color="#FF8FC9"/>
<stop offset="1" stop-color="#D55796"/>
</linearGradient>
<radialGradient id="paint14_radial_1_3189" cx="0" cy="0" r="1" gradientUnits="userSpaceOnUse" gradientTransform="translate(18 6) rotate(90) scale(1.5)">
<stop offset="0.57" stop-color="#BBC2C7"/>
<stop offset="1" stop-color="#AFB5BD"/>
</radialGradient>
<radialGradient id="paint15_radial_1_3189" cx="0" cy="0" r="1" gradientUnits="userSpaceOnUse" gradientTransform="translate(18 6) rotate(64.6538) scale(3.15357)">
<stop stop-color="#B0B0B0"/>
<stop offset="1" stop-color="#778083"/>
</radialGradient>
<linearGradient id="paint16_linear_1_3189" x1="18" y1="5.25" x2="18" y2="6.75" gradientUnits="userSpaceOnUse">
<stop stop-color="#FF8FC9"/>
<stop offset="1" stop-color="#D55796"/>
</linearGradient>
<linearGradient id="paint17_linear_1_3189" x1="7.125" y1="22.5" x2="7.125" y2="32.25" gradientUnits="userSpaceOnUse">
<stop stop-color="#E7F1F9"/>
<stop offset="1" stop-color="#C6D1DF"/>
</linearGradient>
<linearGradient id="paint18_linear_1_3189" x1="7.125" y1="24.75" x2="7.125" y2="27" gradientUnits="userSpaceOnUse">
<stop stop-color="#9FA8B4"/>
<stop offset="1" stop-color="#565F6B"/>
</linearGradient>
<linearGradient id="paint19_linear_1_3189" x1="7.125" y1="28.5" x2="7.125" y2="30.75" gradientUnits="userSpaceOnUse">
<stop stop-color="#9FA8B4"/>
<stop offset="1" stop-color="#565F6B"/>
</linearGradient>
<linearGradient id="paint20_linear_1_3189" x1="28.875" y1="20.25" x2="28.875" y2="32.25" gradientUnits="userSpaceOnUse">
<stop stop-color="#E7F1F9"/>
<stop offset="1" stop-color="#C6D1DF"/>
</linearGradient>
<linearGradient id="paint21_linear_1_3189" x1="28.875" y1="21" x2="28.875" y2="23.25" gradientUnits="userSpaceOnUse">
<stop stop-color="#9FA8B4"/>
<stop offset="1" stop-color="#565F6B"/>
</linearGradient>
<linearGradient id="paint22_linear_1_3189" x1="28.875" y1="24.75" x2="28.875" y2="27" gradientUnits="userSpaceOnUse">
<stop stop-color="#9FA8B4"/>
<stop offset="1" stop-color="#565F6B"/>
</linearGradient>
<linearGradient id="paint23_linear_1_3189" x1="28.875" y1="28.5" x2="28.875" y2="30.75" gradientUnits="userSpaceOnUse">
<stop stop-color="#9FA8B4"/>
<stop offset="1" stop-color="#565F6B"/>
</linearGradient>
<linearGradient id="paint24_linear_1_3189" x1="28.25" y1="5.25" x2="28.25" y2="10.5" gradientUnits="userSpaceOnUse">
<stop stop-color="#E7FDFF"/>
<stop offset="1" stop-color="#93DAE9"/>
</linearGradient>
<linearGradient id="paint25_linear_1_3189" x1="7.25" y1="11.25" x2="7.25" y2="16.5" gradientUnits="userSpaceOnUse">
<stop stop-color="#E7FDFF"/>
<stop offset="1" stop-color="#93DAE9"/>
</linearGradient>
</defs>
</svg>
