<svg width="48" height="48" viewBox="0 0 48 48" fill="none" xmlns="http://www.w3.org/2000/svg">
<path d="M8 33C8 31.8954 8.89543 31 10 31H38C39.1046 31 40 31.8954 40 33V39C40 40.1046 39.1046 41 38 41H10C8.89543 41 8 40.1046 8 39V33Z" fill="url(#paint0_linear_4147_3222)"/>
<path d="M7 17H41V37C41 38.1046 40.1046 39 39 39H9C7.89543 39 7 38.1046 7 37V17Z" fill="url(#paint1_linear_4147_3222)"/>
<path d="M13 20H11C10.4477 20 10 20.4477 10 21V23C10 23.5523 10.4477 24 11 24H13C13.5523 24 14 23.5523 14 23V21C14 20.4477 13.5523 20 13 20Z" fill="url(#paint2_linear_4147_3222)" fill-opacity="0.2"/>
<path d="M13 26H11C10.4477 26 10 26.4477 10 27V29C10 29.5523 10.4477 30 11 30H13C13.5523 30 14 29.5523 14 29V27C14 26.4477 13.5523 26 13 26Z" fill="url(#paint3_linear_4147_3222)" fill-opacity="0.2"/>
<path d="M13 32H11C10.4477 32 10 32.4477 10 33V35C10 35.5523 10.4477 36 11 36H13C13.5523 36 14 35.5523 14 35V33C14 32.4477 13.5523 32 13 32Z" fill="url(#paint4_linear_4147_3222)" fill-opacity="0.2"/>
<path d="M21 20H19C18.4477 20 18 20.4477 18 21V23C18 23.5523 18.4477 24 19 24H21C21.5523 24 22 23.5523 22 23V21C22 20.4477 21.5523 20 21 20Z" fill="url(#paint5_linear_4147_3222)" fill-opacity="0.2"/>
<path d="M21 26H19C18.4477 26 18 26.4477 18 27V29C18 29.5523 18.4477 30 19 30H21C21.5523 30 22 29.5523 22 29V27C22 26.4477 21.5523 26 21 26Z" fill="url(#paint6_linear_4147_3222)" fill-opacity="0.2"/>
<path d="M21 32H19C18.4477 32 18 32.4477 18 33V35C18 35.5523 18.4477 36 19 36H21C21.5523 36 22 35.5523 22 35V33C22 32.4477 21.5523 32 21 32Z" fill="url(#paint7_linear_4147_3222)" fill-opacity="0.2"/>
<path d="M29 20H27C26.4477 20 26 20.4477 26 21V23C26 23.5523 26.4477 24 27 24H29C29.5523 24 30 23.5523 30 23V21C30 20.4477 29.5523 20 29 20Z" fill="url(#paint8_linear_4147_3222)" fill-opacity="0.2"/>
<path d="M29 26H27C26.4477 26 26 26.4477 26 27V29C26 29.5523 26.4477 30 27 30H29C29.5523 30 30 29.5523 30 29V27C30 26.4477 29.5523 26 29 26Z" fill="url(#paint9_linear_4147_3222)" fill-opacity="0.2"/>
<path d="M29 32H27C26.4477 32 26 32.4477 26 33V35C26 35.5523 26.4477 36 27 36H29C29.5523 36 30 35.5523 30 35V33C30 32.4477 29.5523 32 29 32Z" fill="url(#paint10_linear_4147_3222)" fill-opacity="0.2"/>
<path d="M37 20H35C34.4477 20 34 20.4477 34 21V23C34 23.5523 34.4477 24 35 24H37C37.5523 24 38 23.5523 38 23V21C38 20.4477 37.5523 20 37 20Z" fill="url(#paint11_linear_4147_3222)" fill-opacity="0.2"/>
<path d="M37 26H35C34.4477 26 34 26.4477 34 27V29C34 29.5523 34.4477 30 35 30H37C37.5523 30 38 29.5523 38 29V27C38 26.4477 37.5523 26 37 26Z" fill="url(#paint12_linear_4147_3222)" fill-opacity="0.2"/>
<path d="M37 32H35C34.4477 32 34 32.4477 34 33V35C34 35.5523 34.4477 36 35 36H37C37.5523 36 38 35.5523 38 35V33C38 32.4477 37.5523 32 37 32Z" fill="url(#paint13_linear_4147_3222)" fill-opacity="0.2"/>
<path d="M7 11C7 9.89543 7.89543 9 9 9H39C40.1046 9 41 9.89543 41 11V17H7V11Z" fill="url(#paint14_linear_4147_3222)"/>
<path d="M24 15C25.1046 15 26 14.1046 26 13C26 11.8954 25.1046 11 24 11C22.8954 11 22 11.8954 22 13C22 14.1046 22.8954 15 24 15Z" fill="#D55796"/>
<path d="M13 15C14.1046 15 15 14.1046 15 13C15 11.8954 14.1046 11 13 11C11.8954 11 11 11.8954 11 13C11 14.1046 11.8954 15 13 15Z" fill="#D55796"/>
<path d="M35 15C36.1046 15 37 14.1046 37 13C37 11.8954 36.1046 11 35 11C33.8954 11 33 11.8954 33 13C33 14.1046 33.8954 15 35 15Z" fill="#D55796"/>
<path d="M23 9C23 8.44772 23.4477 8 24 8C24.5523 8 25 8.44772 25 9V12C25 12.5523 24.5523 13 24 13C23.4477 13 23 12.5523 23 12V9Z" fill="url(#paint15_linear_4147_3222)"/>
<path d="M34 9C34 8.44772 34.4477 8 35 8C35.5523 8 36 8.44772 36 9V12C36 12.5523 35.5523 13 35 13C34.4477 13 34 12.5523 34 12V9Z" fill="url(#paint16_linear_4147_3222)"/>
<path d="M14 9C14 8.44772 13.5523 8 13 8C12.4477 8 12 8.44772 12 9V12C12 12.5523 12.4477 13 13 13C13.5523 13 14 12.5523 14 12V9Z" fill="url(#paint17_linear_4147_3222)"/>
<defs>
<linearGradient id="paint0_linear_4147_3222" x1="24" y1="31" x2="24" y2="41" gradientUnits="userSpaceOnUse">
<stop stop-color="#FFCAE5"/>
<stop offset="1" stop-color="#F892C5"/>
</linearGradient>
<linearGradient id="paint1_linear_4147_3222" x1="24" y1="17" x2="24" y2="39" gradientUnits="userSpaceOnUse">
<stop stop-color="#FFF0F8"/>
<stop offset="1" stop-color="#FFD3E9"/>
</linearGradient>
<linearGradient id="paint2_linear_4147_3222" x1="12" y1="20" x2="12" y2="24" gradientUnits="userSpaceOnUse">
<stop stop-color="#FF8FC9"/>
<stop offset="1" stop-color="#D55796"/>
</linearGradient>
<linearGradient id="paint3_linear_4147_3222" x1="12" y1="26" x2="12" y2="30" gradientUnits="userSpaceOnUse">
<stop stop-color="#FF8FC9"/>
<stop offset="1" stop-color="#D55796"/>
</linearGradient>
<linearGradient id="paint4_linear_4147_3222" x1="12" y1="32" x2="12" y2="36" gradientUnits="userSpaceOnUse">
<stop stop-color="#FF8FC9"/>
<stop offset="1" stop-color="#D55796"/>
</linearGradient>
<linearGradient id="paint5_linear_4147_3222" x1="20" y1="20" x2="20" y2="24" gradientUnits="userSpaceOnUse">
<stop stop-color="#FF8FC9"/>
<stop offset="1" stop-color="#D55796"/>
</linearGradient>
<linearGradient id="paint6_linear_4147_3222" x1="20" y1="26" x2="20" y2="30" gradientUnits="userSpaceOnUse">
<stop stop-color="#FF8FC9"/>
<stop offset="1" stop-color="#D55796"/>
</linearGradient>
<linearGradient id="paint7_linear_4147_3222" x1="20" y1="32" x2="20" y2="36" gradientUnits="userSpaceOnUse">
<stop stop-color="#FF8FC9"/>
<stop offset="1" stop-color="#D55796"/>
</linearGradient>
<linearGradient id="paint8_linear_4147_3222" x1="28" y1="20" x2="28" y2="24" gradientUnits="userSpaceOnUse">
<stop stop-color="#FF8FC9"/>
<stop offset="1" stop-color="#D55796"/>
</linearGradient>
<linearGradient id="paint9_linear_4147_3222" x1="28" y1="26" x2="28" y2="30" gradientUnits="userSpaceOnUse">
<stop stop-color="#FF8FC9"/>
<stop offset="1" stop-color="#D55796"/>
</linearGradient>
<linearGradient id="paint10_linear_4147_3222" x1="28" y1="32" x2="28" y2="36" gradientUnits="userSpaceOnUse">
<stop stop-color="#FF8FC9"/>
<stop offset="1" stop-color="#D55796"/>
</linearGradient>
<linearGradient id="paint11_linear_4147_3222" x1="36" y1="20" x2="36" y2="24" gradientUnits="userSpaceOnUse">
<stop stop-color="#FF8FC9"/>
<stop offset="1" stop-color="#D55796"/>
</linearGradient>
<linearGradient id="paint12_linear_4147_3222" x1="36" y1="26" x2="36" y2="30" gradientUnits="userSpaceOnUse">
<stop stop-color="#FF8FC9"/>
<stop offset="1" stop-color="#D55796"/>
</linearGradient>
<linearGradient id="paint13_linear_4147_3222" x1="36" y1="32" x2="36" y2="36" gradientUnits="userSpaceOnUse">
<stop stop-color="#FF8FC9"/>
<stop offset="1" stop-color="#D55796"/>
</linearGradient>
<linearGradient id="paint14_linear_4147_3222" x1="24" y1="9" x2="24" y2="17" gradientUnits="userSpaceOnUse">
<stop stop-color="#FFCAE5"/>
<stop offset="1" stop-color="#F892C5"/>
</linearGradient>
<linearGradient id="paint15_linear_4147_3222" x1="23" y1="10.5" x2="25" y2="10.5" gradientUnits="userSpaceOnUse">
<stop stop-color="#FFF0F8"/>
<stop offset="1" stop-color="#FFD3E9"/>
</linearGradient>
<linearGradient id="paint16_linear_4147_3222" x1="34" y1="10.5" x2="36" y2="10.5" gradientUnits="userSpaceOnUse">
<stop stop-color="#FFF0F8"/>
<stop offset="1" stop-color="#FFD3E9"/>
</linearGradient>
<linearGradient id="paint17_linear_4147_3222" x1="12" y1="10.5" x2="14" y2="10.5" gradientUnits="userSpaceOnUse">
<stop stop-color="#FFF0F8"/>
<stop offset="1" stop-color="#FFD3E9"/>
</linearGradient>
</defs>
</svg>
