<svg width="30" height="30" viewBox="0 0 30 30" fill="none" xmlns="http://www.w3.org/2000/svg">
<path d="M5 20.625C5 19.9346 5.55964 19.375 6.25 19.375H23.75C24.4404 19.375 25 19.9346 25 20.625V24.375C25 25.0654 24.4404 25.625 23.75 25.625H6.25C5.55964 25.625 5 25.0654 5 24.375V20.625Z" fill="url(#paint0_linear_2813_19308)"/>
<path d="M4.375 10.625H25.625V23.125C25.625 23.8154 25.0654 24.375 24.375 24.375H5.625C4.93464 24.375 4.375 23.8154 4.375 23.125V10.625Z" fill="url(#paint1_linear_2813_19308)"/>
<path d="M8.125 12.5H6.875C6.52982 12.5 6.25 12.7798 6.25 13.125V14.375C6.25 14.7202 6.52982 15 6.875 15H8.125C8.47018 15 8.75 14.7202 8.75 14.375V13.125C8.75 12.7798 8.47018 12.5 8.125 12.5Z" fill="url(#paint2_linear_2813_19308)" fill-opacity="0.2"/>
<path d="M8.125 16.25H6.875C6.52982 16.25 6.25 16.5298 6.25 16.875V18.125C6.25 18.4702 6.52982 18.75 6.875 18.75H8.125C8.47018 18.75 8.75 18.4702 8.75 18.125V16.875C8.75 16.5298 8.47018 16.25 8.125 16.25Z" fill="url(#paint3_linear_2813_19308)" fill-opacity="0.2"/>
<path d="M8.125 20H6.875C6.52982 20 6.25 20.2798 6.25 20.625V21.875C6.25 22.2202 6.52982 22.5 6.875 22.5H8.125C8.47018 22.5 8.75 22.2202 8.75 21.875V20.625C8.75 20.2798 8.47018 20 8.125 20Z" fill="url(#paint4_linear_2813_19308)" fill-opacity="0.2"/>
<path d="M13.125 12.5H11.875C11.5298 12.5 11.25 12.7798 11.25 13.125V14.375C11.25 14.7202 11.5298 15 11.875 15H13.125C13.4702 15 13.75 14.7202 13.75 14.375V13.125C13.75 12.7798 13.4702 12.5 13.125 12.5Z" fill="url(#paint5_linear_2813_19308)" fill-opacity="0.2"/>
<path d="M13.125 16.25H11.875C11.5298 16.25 11.25 16.5298 11.25 16.875V18.125C11.25 18.4702 11.5298 18.75 11.875 18.75H13.125C13.4702 18.75 13.75 18.4702 13.75 18.125V16.875C13.75 16.5298 13.4702 16.25 13.125 16.25Z" fill="url(#paint6_linear_2813_19308)" fill-opacity="0.2"/>
<path d="M13.125 20H11.875C11.5298 20 11.25 20.2798 11.25 20.625V21.875C11.25 22.2202 11.5298 22.5 11.875 22.5H13.125C13.4702 22.5 13.75 22.2202 13.75 21.875V20.625C13.75 20.2798 13.4702 20 13.125 20Z" fill="url(#paint7_linear_2813_19308)" fill-opacity="0.2"/>
<path d="M18.125 12.5H16.875C16.5298 12.5 16.25 12.7798 16.25 13.125V14.375C16.25 14.7202 16.5298 15 16.875 15H18.125C18.4702 15 18.75 14.7202 18.75 14.375V13.125C18.75 12.7798 18.4702 12.5 18.125 12.5Z" fill="url(#paint8_linear_2813_19308)" fill-opacity="0.2"/>
<path d="M18.125 16.25H16.875C16.5298 16.25 16.25 16.5298 16.25 16.875V18.125C16.25 18.4702 16.5298 18.75 16.875 18.75H18.125C18.4702 18.75 18.75 18.4702 18.75 18.125V16.875C18.75 16.5298 18.4702 16.25 18.125 16.25Z" fill="url(#paint9_linear_2813_19308)" fill-opacity="0.2"/>
<path d="M18.125 20H16.875C16.5298 20 16.25 20.2798 16.25 20.625V21.875C16.25 22.2202 16.5298 22.5 16.875 22.5H18.125C18.4702 22.5 18.75 22.2202 18.75 21.875V20.625C18.75 20.2798 18.4702 20 18.125 20Z" fill="url(#paint10_linear_2813_19308)" fill-opacity="0.2"/>
<path d="M23.125 12.5H21.875C21.5298 12.5 21.25 12.7798 21.25 13.125V14.375C21.25 14.7202 21.5298 15 21.875 15H23.125C23.4702 15 23.75 14.7202 23.75 14.375V13.125C23.75 12.7798 23.4702 12.5 23.125 12.5Z" fill="url(#paint11_linear_2813_19308)" fill-opacity="0.2"/>
<path d="M23.125 16.25H21.875C21.5298 16.25 21.25 16.5298 21.25 16.875V18.125C21.25 18.4702 21.5298 18.75 21.875 18.75H23.125C23.4702 18.75 23.75 18.4702 23.75 18.125V16.875C23.75 16.5298 23.4702 16.25 23.125 16.25Z" fill="url(#paint12_linear_2813_19308)" fill-opacity="0.2"/>
<path d="M23.125 20H21.875C21.5298 20 21.25 20.2798 21.25 20.625V21.875C21.25 22.2202 21.5298 22.5 21.875 22.5H23.125C23.4702 22.5 23.75 22.2202 23.75 21.875V20.625C23.75 20.2798 23.4702 20 23.125 20Z" fill="url(#paint13_linear_2813_19308)" fill-opacity="0.2"/>
<path d="M4.375 6.875C4.375 6.18464 4.93464 5.625 5.625 5.625H24.375C25.0654 5.625 25.625 6.18464 25.625 6.875V10.625H4.375V6.875Z" fill="url(#paint14_linear_2813_19308)"/>
<path d="M15 9.375C15.6904 9.375 16.25 8.81536 16.25 8.125C16.25 7.43464 15.6904 6.875 15 6.875C14.3096 6.875 13.75 7.43464 13.75 8.125C13.75 8.81536 14.3096 9.375 15 9.375Z" fill="#D55796"/>
<path d="M8.125 9.375C8.81536 9.375 9.375 8.81536 9.375 8.125C9.375 7.43464 8.81536 6.875 8.125 6.875C7.43464 6.875 6.875 7.43464 6.875 8.125C6.875 8.81536 7.43464 9.375 8.125 9.375Z" fill="#D55796"/>
<path d="M21.875 9.375C22.5654 9.375 23.125 8.81536 23.125 8.125C23.125 7.43464 22.5654 6.875 21.875 6.875C21.1846 6.875 20.625 7.43464 20.625 8.125C20.625 8.81536 21.1846 9.375 21.875 9.375Z" fill="#D55796"/>
<path d="M14.375 5.625C14.375 5.27983 14.6548 5 15 5C15.3452 5 15.625 5.27983 15.625 5.625V7.5C15.625 7.84519 15.3452 8.125 15 8.125C14.6548 8.125 14.375 7.84519 14.375 7.5V5.625Z" fill="url(#paint15_linear_2813_19308)"/>
<path d="M21.25 5.625C21.25 5.27983 21.5298 5 21.875 5C22.2202 5 22.5 5.27983 22.5 5.625V7.5C22.5 7.84519 22.2202 8.125 21.875 8.125C21.5298 8.125 21.25 7.84519 21.25 7.5V5.625Z" fill="url(#paint16_linear_2813_19308)"/>
<path d="M8.75 5.625C8.75 5.27982 8.47018 5 8.125 5C7.77982 5 7.5 5.27982 7.5 5.625V7.5C7.5 7.84518 7.77982 8.125 8.125 8.125C8.47018 8.125 8.75 7.84518 8.75 7.5V5.625Z" fill="url(#paint17_linear_2813_19308)"/>
<defs>
<linearGradient id="paint0_linear_2813_19308" x1="15" y1="19.375" x2="15" y2="25.625" gradientUnits="userSpaceOnUse">
<stop stop-color="#FFCAE5"/>
<stop offset="1" stop-color="#F892C5"/>
</linearGradient>
<linearGradient id="paint1_linear_2813_19308" x1="15" y1="10.625" x2="15" y2="24.375" gradientUnits="userSpaceOnUse">
<stop stop-color="#FFF0F8"/>
<stop offset="1" stop-color="#FFD3E9"/>
</linearGradient>
<linearGradient id="paint2_linear_2813_19308" x1="7.5" y1="12.5" x2="7.5" y2="15" gradientUnits="userSpaceOnUse">
<stop stop-color="#FF8FC9"/>
<stop offset="1" stop-color="#D55796"/>
</linearGradient>
<linearGradient id="paint3_linear_2813_19308" x1="7.5" y1="16.25" x2="7.5" y2="18.75" gradientUnits="userSpaceOnUse">
<stop stop-color="#FF8FC9"/>
<stop offset="1" stop-color="#D55796"/>
</linearGradient>
<linearGradient id="paint4_linear_2813_19308" x1="7.5" y1="20" x2="7.5" y2="22.5" gradientUnits="userSpaceOnUse">
<stop stop-color="#FF8FC9"/>
<stop offset="1" stop-color="#D55796"/>
</linearGradient>
<linearGradient id="paint5_linear_2813_19308" x1="12.5" y1="12.5" x2="12.5" y2="15" gradientUnits="userSpaceOnUse">
<stop stop-color="#FF8FC9"/>
<stop offset="1" stop-color="#D55796"/>
</linearGradient>
<linearGradient id="paint6_linear_2813_19308" x1="12.5" y1="16.25" x2="12.5" y2="18.75" gradientUnits="userSpaceOnUse">
<stop stop-color="#FF8FC9"/>
<stop offset="1" stop-color="#D55796"/>
</linearGradient>
<linearGradient id="paint7_linear_2813_19308" x1="12.5" y1="20" x2="12.5" y2="22.5" gradientUnits="userSpaceOnUse">
<stop stop-color="#FF8FC9"/>
<stop offset="1" stop-color="#D55796"/>
</linearGradient>
<linearGradient id="paint8_linear_2813_19308" x1="17.5" y1="12.5" x2="17.5" y2="15" gradientUnits="userSpaceOnUse">
<stop stop-color="#FF8FC9"/>
<stop offset="1" stop-color="#D55796"/>
</linearGradient>
<linearGradient id="paint9_linear_2813_19308" x1="17.5" y1="16.25" x2="17.5" y2="18.75" gradientUnits="userSpaceOnUse">
<stop stop-color="#FF8FC9"/>
<stop offset="1" stop-color="#D55796"/>
</linearGradient>
<linearGradient id="paint10_linear_2813_19308" x1="17.5" y1="20" x2="17.5" y2="22.5" gradientUnits="userSpaceOnUse">
<stop stop-color="#FF8FC9"/>
<stop offset="1" stop-color="#D55796"/>
</linearGradient>
<linearGradient id="paint11_linear_2813_19308" x1="22.5" y1="12.5" x2="22.5" y2="15" gradientUnits="userSpaceOnUse">
<stop stop-color="#FF8FC9"/>
<stop offset="1" stop-color="#D55796"/>
</linearGradient>
<linearGradient id="paint12_linear_2813_19308" x1="22.5" y1="16.25" x2="22.5" y2="18.75" gradientUnits="userSpaceOnUse">
<stop stop-color="#FF8FC9"/>
<stop offset="1" stop-color="#D55796"/>
</linearGradient>
<linearGradient id="paint13_linear_2813_19308" x1="22.5" y1="20" x2="22.5" y2="22.5" gradientUnits="userSpaceOnUse">
<stop stop-color="#FF8FC9"/>
<stop offset="1" stop-color="#D55796"/>
</linearGradient>
<linearGradient id="paint14_linear_2813_19308" x1="15" y1="5.625" x2="15" y2="10.625" gradientUnits="userSpaceOnUse">
<stop stop-color="#FFCAE5"/>
<stop offset="1" stop-color="#F892C5"/>
</linearGradient>
<linearGradient id="paint15_linear_2813_19308" x1="14.375" y1="6.5625" x2="15.625" y2="6.5625" gradientUnits="userSpaceOnUse">
<stop stop-color="#FFF0F8"/>
<stop offset="1" stop-color="#FFD3E9"/>
</linearGradient>
<linearGradient id="paint16_linear_2813_19308" x1="21.25" y1="6.5625" x2="22.5" y2="6.5625" gradientUnits="userSpaceOnUse">
<stop stop-color="#FFF0F8"/>
<stop offset="1" stop-color="#FFD3E9"/>
</linearGradient>
<linearGradient id="paint17_linear_2813_19308" x1="7.5" y1="6.5625" x2="8.75" y2="6.5625" gradientUnits="userSpaceOnUse">
<stop stop-color="#FFF0F8"/>
<stop offset="1" stop-color="#FFD3E9"/>
</linearGradient>
</defs>
</svg>
