<svg width="30" height="30" viewBox="0 0 30 30" fill="none" xmlns="http://www.w3.org/2000/svg">
<g clip-path="url(#clip0_2813_19308)">
<path d="M15.2502 26.3449C21.8777 26.3449 27.2503 20.9723 27.2503 14.3448C27.2503 7.71726 21.8777 2.3446 15.2502 2.3446C8.62268 2.3446 3.25003 7.71726 3.25003 14.3448C3.25003 20.9723 8.62268 26.3449 15.2502 26.3449Z" fill="url(#paint0_linear_2813_19308)" stroke="#E6F0FA"/>
<g filter="url(#filter0_ii_2813_19308)">
<path d="M15.2502 4.68462C9.91504 4.68462 5.59005 9.00961 5.59005 14.3448C5.59005 19.6799 9.91504 24.0049 15.2502 24.0049C20.5853 24.0049 24.9103 19.6799 24.9103 14.3448C24.9103 9.00961 20.5853 4.68462 15.2502 4.68462Z" fill="#F0F2F5"/>
</g>
<path d="M15.1841 22.0115C19.3818 22.0115 22.7847 18.6086 22.7847 14.4109C22.7847 10.2131 19.3818 6.81018 15.1841 6.81018C10.9863 6.81018 7.58337 10.2131 7.58337 14.4109C7.58337 18.6086 10.9863 22.0115 15.1841 22.0115Z" fill="url(#paint1_linear_2813_19308)"/>
<mask id="mask0_2813_19308" style="mask-type:alpha" maskUnits="userSpaceOnUse" x="2" y="1" width="26" height="26">
<path d="M15.2502 26.3449C21.8777 26.3449 27.2503 20.9723 27.2503 14.3448C27.2503 7.71726 21.8777 2.3446 15.2502 2.3446C8.62268 2.3446 3.25003 7.71726 3.25003 14.3448C3.25003 20.9723 8.62268 26.3449 15.2502 26.3449Z" fill="url(#paint2_linear_2813_19308)" stroke="#E6F0F9"/>
</mask>
<g mask="url(#mask0_2813_19308)">
<g filter="url(#filter1_f_2813_19308)">
<path fill-rule="evenodd" clip-rule="evenodd" d="M18.8193 22.4044V10.2052C18.8193 9.49778 19.5381 9.04341 20.0399 9.5421C22.5376 12.0244 22.5103 18.2067 22.4949 21.6854V21.6857V21.686V21.6863C22.4938 21.941 22.4927 22.1812 22.4927 22.4044H21.5744V24.6523V25.0705V35.5907C21.5744 35.8668 21.3505 36.0907 21.0744 36.0907H19.3193C19.0432 36.0907 18.8193 35.8668 18.8193 35.5907V25.0705V24.6523V22.4044ZM11.2841 9.98261C10.7913 9.98261 10.3918 10.3821 10.3918 10.8749V15.5863C10.3841 15.8364 10.1874 16.0368 9.9459 16.0368C9.70344 16.0368 9.50616 15.8349 9.49993 15.5834V10.8749C9.49993 10.3821 9.10045 9.98263 8.60768 9.98263C8.1149 9.98263 7.71542 10.3821 7.71542 10.8749V17.4094L7.71527 17.4339V18.3653L7.71542 18.3899V18.4045C7.71542 18.4303 7.71652 18.4558 7.71866 18.481C7.77588 19.456 8.55144 20.2282 9.49978 20.2282H10.3473L9.94576 24.4195V35.0622C9.94576 35.0714 9.94588 35.0805 9.94613 35.0896V35.6553C9.94613 35.9315 10.17 36.1553 10.4461 36.1553H12.1229C12.399 36.1553 12.6229 35.9315 12.6229 35.6553V24.5469C12.6229 24.5404 12.6228 24.5339 12.6225 24.5275V24.4195L12.221 20.2282H13.0688C14.0142 20.2282 14.7879 19.4607 14.8494 18.4901C14.852 18.4619 14.8534 18.4334 14.8534 18.4045V10.8749C14.8534 10.3821 14.4539 9.98261 13.9612 9.98261C13.4684 9.98261 13.0689 10.3821 13.0689 10.8749V15.5711H13.0688C13.0688 15.8283 12.8691 16.0368 12.6227 16.0368C12.3763 16.0368 12.1765 15.8283 12.1765 15.5711H12.1763V10.8749C12.1763 10.3821 11.7768 9.98261 11.2841 9.98261Z" fill="#A3AEC3" style="mix-blend-mode:multiply"/>
</g>
</g>
<path fill-rule="evenodd" clip-rule="evenodd" d="M10.3916 10.8749C10.3916 10.3821 10.7911 9.9826 11.2838 9.9826C11.7766 9.9826 12.1761 10.3821 12.1761 10.8749V15.5711H12.1763C12.1763 15.8283 12.3761 16.0368 12.6224 16.0368C12.8688 16.0368 13.0686 15.8283 13.0686 15.5711C13.0686 15.5711 13.0687 15.5711 13.0687 15.5711V10.8749C13.0687 10.3821 13.4682 9.9826 13.9609 9.9826C14.4537 9.9826 14.8532 10.3821 14.8532 10.8749V18.4045C14.8532 18.4334 14.8518 18.462 14.8491 18.4901C14.7876 19.4608 14.014 20.2282 13.0686 20.2282H12.2208L12.6223 24.4195V35.0622C12.6223 35.6145 12.1746 36.0622 11.6223 36.0622H10.9455C10.3933 36.0622 9.94554 35.6145 9.94554 35.0622V24.4195L10.3471 20.2282H9.49956C8.55142 20.2282 7.77598 19.4563 7.71848 18.4816C7.7163 18.4562 7.71519 18.4305 7.71519 18.4045V18.3886C7.7151 18.3808 7.71506 18.3731 7.71506 18.3653V17.4339C7.71506 17.4262 7.7151 17.4184 7.71519 17.4107V10.8749C7.71519 10.3821 8.11467 9.98262 8.60745 9.98262C9.10022 9.98262 9.4997 10.3821 9.4997 10.8749V15.5827C9.50559 15.8345 9.70301 16.0368 9.94569 16.0368C10.1872 16.0368 10.3839 15.8364 10.3916 15.5863V10.8749Z" fill="url(#paint3_linear_2813_19308)"/>
<path fill-rule="evenodd" clip-rule="evenodd" d="M13.7125 10.0175C14.0185 10.1209 14.4068 10.4767 14.4068 11.3797V18.3654C14.4068 19.6072 13.2171 19.6072 12.424 19.6072C12.0275 19.6072 11.73 19.6072 11.73 19.7625C11.73 19.9177 11.7796 20.4352 11.8457 21.1252C11.9779 22.505 12.1762 24.5748 12.1762 25.8167C12.1762 26.2027 12.3486 26.4287 12.6219 26.5445V24.4195L12.2204 20.2281H13.0682C14.0136 20.2281 14.7873 19.4607 14.8488 18.4901C14.8515 18.4619 14.8528 18.4334 14.8528 18.4045V10.8748C14.8528 10.3821 14.4534 9.98257 13.9606 9.98257C13.8745 9.98257 13.7913 9.99476 13.7125 10.0175Z" fill="#DFE6F0"/>
<path fill-rule="evenodd" clip-rule="evenodd" d="M8.85528 10.0175C8.5493 10.121 8.16113 10.4768 8.16113 11.3797V18.3654C8.16113 19.6072 9.3508 19.6072 10.1439 19.6072C10.5405 19.6072 10.8379 19.6072 10.8379 19.7625C10.8379 19.9177 10.7883 20.4352 10.7222 21.1252C10.59 22.505 10.3918 24.5748 10.3918 25.8167C10.3918 26.2028 10.2193 26.4289 9.94575 26.5446V24.4195L10.3473 20.2281H9.49948C8.5541 20.2281 7.78042 19.4607 7.71891 18.4901C7.71623 18.4619 7.71486 18.4334 7.71486 18.4045V10.8748C7.71486 10.3821 8.11434 9.98257 8.60711 9.98257C8.69323 9.98257 8.7765 9.99478 8.85528 10.0175Z" fill="white"/>
<path fill-rule="evenodd" clip-rule="evenodd" d="M10.838 10.1018V15.1054V16.0368C10.838 16.5025 10.1921 16.5025 9.94573 16.5025C9.69934 16.5025 9.4996 16.294 9.4996 16.0368L9.52629 15.7303C9.58861 15.9091 9.75285 16.0368 9.94565 16.0368C10.1872 16.0368 10.3839 15.8364 10.3915 15.5862V10.8748C10.3915 10.5445 10.5711 10.256 10.838 10.1018ZM12.2052 15.7362L12.1764 16.0368C12.1764 16.294 12.3761 16.5025 12.6225 16.5025C12.8689 16.5025 13.5147 16.5025 13.5147 16.0368V15.1054V10.102C13.2481 10.2563 13.0687 10.5446 13.0687 10.8748V15.5711H13.0685C13.0685 15.8283 12.8688 16.0368 12.6224 16.0368C12.4317 16.0368 12.269 15.9119 12.2052 15.7362Z" fill="#F8FAFA"/>
<rect x="9.94598" y="24.0469" width="2.67676" height="12.1084" rx="0.5" fill="url(#paint4_linear_2813_19308)"/>
<path d="M18.8188 22.4044V10.2052C18.8188 9.49778 19.5376 9.04341 20.0394 9.5421C22.7203 12.2063 22.4922 19.1331 22.4922 22.4044H18.8188Z" fill="url(#paint5_linear_2813_19308)"/>
<path d="M18.8188 22.4044H21.5739V25.0705H18.8188V22.4044Z" fill="url(#paint6_linear_2813_19308)"/>
<mask id="mask1_2813_19308" style="mask-type:alpha" maskUnits="userSpaceOnUse" x="18" y="9" width="5" height="16">
<path d="M18.819 22.3352V10.2061C18.819 9.49946 19.5366 9.04452 20.0392 9.54126C22.7204 12.191 22.4924 19.0812 22.4924 22.3352H18.819Z" fill="url(#paint7_linear_2813_19308)"/>
<path d="M18.819 22.3352H21.574V24.9871H18.819V22.3352Z" fill="url(#paint8_linear_2813_19308)"/>
</mask>
<g mask="url(#mask1_2813_19308)">
<path d="M19.3852 10.2536C19.3852 9.65412 19.6496 9.12476 19.7818 9.12476L20.1783 8.38025H18.1955L17.799 25.615H19.3852V10.2536Z" fill="white"/>
</g>
<rect x="18.819" y="24.1523" width="2.75503" height="11.9385" rx="0.5" fill="url(#paint9_linear_2813_19308)"/>
</g>
<defs>
<filter id="filter0_ii_2813_19308" x="4.59006" y="3.68463" width="22.3203" height="22.3203" filterUnits="userSpaceOnUse" color-interpolation-filters="sRGB">
<feFlood flood-opacity="0" result="BackgroundImageFix"/>
<feBlend mode="normal" in="SourceGraphic" in2="BackgroundImageFix" result="shape"/>
<feColorMatrix in="SourceAlpha" type="matrix" values="0 0 0 0 0 0 0 0 0 0 0 0 0 0 0 0 0 0 127 0" result="hardAlpha"/>
<feOffset dx="2" dy="2"/>
<feGaussianBlur stdDeviation="2"/>
<feComposite in2="hardAlpha" operator="arithmetic" k2="-1" k3="1"/>
<feColorMatrix type="matrix" values="0 0 0 0 0.688897 0 0 0 0 0.789691 0 0 0 0 0.897436 0 0 0 0.25 0"/>
<feBlend mode="normal" in2="shape" result="effect1_innerShadow_2813_19308"/>
<feColorMatrix in="SourceAlpha" type="matrix" values="0 0 0 0 0 0 0 0 0 0 0 0 0 0 0 0 0 0 127 0" result="hardAlpha"/>
<feOffset dx="-1" dy="-1"/>
<feGaussianBlur stdDeviation="2.5"/>
<feComposite in2="hardAlpha" operator="arithmetic" k2="-1" k3="1"/>
<feColorMatrix type="matrix" values="0 0 0 0 1 0 0 0 0 1 0 0 0 0 1 0 0 0 0.8 0"/>
<feBlend mode="normal" in2="effect1_innerShadow_2813_19308" result="effect2_innerShadow_2813_19308"/>
</filter>
<filter id="filter1_f_2813_19308" x="4.71527" y="6.3316" width="20.7823" height="32.8237" filterUnits="userSpaceOnUse" color-interpolation-filters="sRGB">
<feFlood flood-opacity="0" result="BackgroundImageFix"/>
<feBlend mode="normal" in="SourceGraphic" in2="BackgroundImageFix" result="shape"/>
<feGaussianBlur stdDeviation="1.5" result="effect1_foregroundBlur_2813_19308"/>
</filter>
<linearGradient id="paint0_linear_2813_19308" x1="7.89009" y1="6.06465" x2="23.0703" y2="22.6249" gradientUnits="userSpaceOnUse">
<stop stop-color="#F5FAFF"/>
<stop offset="1" stop-color="#EDF0F5"/>
</linearGradient>
<linearGradient id="paint1_linear_2813_19308" x1="10.7431" y1="7.93134" x2="18.4513" y2="21.1598" gradientUnits="userSpaceOnUse">
<stop stop-color="#F9F9F9"/>
<stop offset="1" stop-color="#EAEDEF"/>
</linearGradient>
<linearGradient id="paint2_linear_2813_19308" x1="7.89009" y1="6.06465" x2="23.0703" y2="22.6249" gradientUnits="userSpaceOnUse">
<stop stop-color="#F5FAFF"/>
<stop offset="1" stop-color="#EDF0F5"/>
</linearGradient>
<linearGradient id="paint3_linear_2813_19308" x1="11.2841" y1="9.9826" x2="11.3376" y2="27.6805" gradientUnits="userSpaceOnUse">
<stop stop-color="#F3F6FB"/>
<stop offset="1" stop-color="#F8F8F8"/>
</linearGradient>
<linearGradient id="paint4_linear_2813_19308" x1="9.94598" y1="30.1011" x2="12.6227" y2="30.1011" gradientUnits="userSpaceOnUse">
<stop stop-color="#DCB390"/>
<stop offset="1" stop-color="#A3735E"/>
</linearGradient>
<linearGradient id="paint5_linear_2813_19308" x1="22.497" y1="17.2011" x2="17.2654" y2="17.1455" gradientUnits="userSpaceOnUse">
<stop stop-color="#F8FBFF"/>
<stop offset="1" stop-color="#E6EBF4"/>
</linearGradient>
<linearGradient id="paint6_linear_2813_19308" x1="22.497" y1="17.2011" x2="17.2654" y2="17.1455" gradientUnits="userSpaceOnUse">
<stop stop-color="#F8FBFF"/>
<stop offset="1" stop-color="#E6EBF4"/>
</linearGradient>
<linearGradient id="paint7_linear_2813_19308" x1="18.819" y1="17.1596" x2="22.4972" y2="17.1596" gradientUnits="userSpaceOnUse">
<stop stop-color="#DFE3EA"/>
<stop offset="1" stop-color="#EBF2F6"/>
</linearGradient>
<linearGradient id="paint8_linear_2813_19308" x1="18.819" y1="17.1596" x2="22.4972" y2="17.1596" gradientUnits="userSpaceOnUse">
<stop stop-color="#DFE3EA"/>
<stop offset="1" stop-color="#EBF2F6"/>
</linearGradient>
<linearGradient id="paint9_linear_2813_19308" x1="21.574" y1="30.1215" x2="18.819" y2="30.1215" gradientUnits="userSpaceOnUse">
<stop stop-color="#A3735E"/>
<stop offset="1" stop-color="#DCB390"/>
</linearGradient>
<clipPath id="clip0_2813_19308">
<rect width="30" height="30" fill="white"/>
</clipPath>
</defs>
</svg>
