<svg width="24" height="24" viewBox="0 0 24 24" fill="none" xmlns="http://www.w3.org/2000/svg">
<mask id="mask0_1_3978" style="mask-type:alpha" maskUnits="userSpaceOnUse" x="0" y="0" width="24" height="24">
<rect width="24" height="24" fill="#D9D9D9"/>
</mask>
<g mask="url(#mask0_1_3978)">
<path d="M12 12.6644L8.80151 15.863C8.71419 15.9502 8.60443 15.9949 8.47224 15.997C8.34015 15.999 8.2284 15.9543 8.13697 15.863C8.04566 15.7716 8 15.6608 8 15.5308C8 15.4007 8.04566 15.2899 8.13697 15.1985L11.3356 12L8.13697 8.80151C8.04976 8.71419 8.0051 8.60443 8.00299 8.47224C8.001 8.34015 8.04566 8.2284 8.13697 8.13697C8.2284 8.04566 8.33915 8 8.46924 8C8.59934 8 8.71009 8.04566 8.80151 8.13697L12 11.3356L15.1985 8.13697C15.2858 8.04976 15.3956 8.0051 15.5278 8.00299C15.6598 8.001 15.7716 8.04566 15.863 8.13697C15.9543 8.2284 16 8.33915 16 8.46924C16 8.59934 15.9543 8.71009 15.863 8.80151L12.6644 12L15.863 15.1985C15.9502 15.2858 15.9949 15.3956 15.997 15.5278C15.999 15.6598 15.9543 15.7716 15.863 15.863C15.7716 15.9543 15.6608 16 15.5308 16C15.4007 16 15.2899 15.9543 15.1985 15.863L12 12.6644Z" fill="white"/>
</g>
</svg>
