<svg width="32" height="32" viewBox="0 0 32 32" fill="none" xmlns="http://www.w3.org/2000/svg">
<rect width="32" height="32" rx="16" fill="white"/>
<mask id="mask0_116_2121" style="mask-type:alpha" maskUnits="userSpaceOnUse" x="4" y="4" width="24" height="24">
<rect x="4" y="4" width="24" height="24" fill="#D9D9D9"/>
</mask>
<g mask="url(#mask0_116_2121)">
<path d="M15.25 16.75H10.25C10.0375 16.75 9.85942 16.6781 9.71575 16.5342C9.57192 16.3904 9.5 16.2122 9.5 15.9997C9.5 15.7871 9.57192 15.609 9.71575 15.4655C9.85942 15.3218 10.0375 15.25 10.25 15.25H15.25V10.25C15.25 10.0375 15.3219 9.85942 15.4658 9.71575C15.6096 9.57192 15.7878 9.5 16.0003 9.5C16.2129 9.5 16.391 9.57192 16.5345 9.71575C16.6782 9.85942 16.75 10.0375 16.75 10.25V15.25H21.75C21.9625 15.25 22.1406 15.3219 22.2843 15.4658C22.4281 15.6096 22.5 15.7878 22.5 16.0003C22.5 16.2129 22.4281 16.391 22.2843 16.5345C22.1406 16.6782 21.9625 16.75 21.75 16.75H16.75V21.75C16.75 21.9625 16.6781 22.1406 16.5342 22.2843C16.3904 22.4281 16.2122 22.5 15.9997 22.5C15.7871 22.5 15.609 22.4281 15.4655 22.2843C15.3218 22.1406 15.25 21.9625 15.25 21.75V16.75Z" fill="#333333"/>
</g>
</svg>
