<svg width="40" height="40" viewBox="0 0 40 40" fill="none" xmlns="http://www.w3.org/2000/svg">
<mask id="mask0_163_2500" style="mask-type:alpha" maskUnits="userSpaceOnUse" x="0" y="0" width="40" height="40">
<rect width="40" height="40" fill="#D9D9D9"/>
</mask>
<g mask="url(#mask0_163_2500)">
<path d="M20.0003 27.8845C20.3817 27.8845 20.7014 27.7555 20.9595 27.4975C21.2175 27.2394 21.3466 26.9197 21.3466 26.5383C21.3466 26.1569 21.2175 25.8372 20.9595 25.5791C20.7014 25.3213 20.3817 25.1925 20.0003 25.1925C19.6189 25.1925 19.2992 25.3213 19.0412 25.5791C18.7831 25.8372 18.6541 26.1569 18.6541 26.5383C18.6541 26.9197 18.7831 27.2394 19.0412 27.4975C19.2992 27.7555 19.6189 27.8845 20.0003 27.8845ZM20.0007 21.795C20.3552 21.795 20.652 21.6751 20.8912 21.4354C21.1306 21.1959 21.2503 20.8991 21.2503 20.545V13.045C21.2503 12.6908 21.1305 12.3938 20.8907 12.1541C20.651 11.9147 20.3541 11.795 19.9999 11.795C19.6455 11.795 19.3487 11.9147 19.1095 12.1541C18.87 12.3938 18.7503 12.6908 18.7503 13.045V20.545C18.7503 20.8991 18.8702 21.1959 19.1099 21.4354C19.3496 21.6751 19.6466 21.795 20.0007 21.795ZM20.0032 35.8333C17.8132 35.8333 15.7548 35.4177 13.8278 34.5866C11.9009 33.7555 10.2248 32.6276 8.79949 31.2029C7.37421 29.7782 6.24574 28.1027 5.41408 26.1766C4.58269 24.2505 4.16699 22.1926 4.16699 20.0029C4.16699 17.8129 4.58255 15.7544 5.41366 13.8275C6.24477 11.9005 7.37269 10.2244 8.79741 8.79913C10.2221 7.37385 11.8975 6.24538 13.8237 5.41371C15.7498 4.58232 17.8077 4.16663 19.9974 4.16663C22.1874 4.16663 24.2459 4.58218 26.1728 5.41329C28.0998 6.2444 29.7759 7.37232 31.2012 8.79704C32.6264 10.2218 33.7549 11.8972 34.5866 13.8233C35.418 15.7494 35.8337 17.8073 35.8337 19.997C35.8337 22.187 35.4181 24.2455 34.587 26.1725C33.7559 28.0994 32.628 29.7755 31.2032 31.2008C29.7785 32.6261 28.1031 33.7545 26.177 34.5862C24.2509 35.4176 22.193 35.8333 20.0032 35.8333Z" fill="#FF5C5C"/>
</g>
</svg>
