<svg width="16" height="16" viewBox="0 0 16 16" fill="none" xmlns="http://www.w3.org/2000/svg">
<mask id="mask0_88_2100" style="mask-type:alpha" maskUnits="userSpaceOnUse" x="0" y="0" width="16" height="16">
<rect width="16" height="16" fill="#D9D9D9"/>
</mask>
<g mask="url(#mask0_88_2100)">
<path d="M8.33157 8.85024L11.1273 6.14432C11.2223 6.05243 11.3418 6.00537 11.4857 6.00316C11.6295 6.00105 11.7512 6.04811 11.8507 6.14432C11.9501 6.24065 11.9998 6.35735 11.9998 6.49442C11.9998 6.63149 11.9501 6.74818 11.8507 6.84451L8.76589 9.8301C8.7016 9.89221 8.63382 9.93606 8.56255 9.96164C8.49128 9.98721 8.41428 10 8.33157 10C8.24886 10 8.17187 9.98721 8.1006 9.96164C8.02933 9.93606 7.96155 9.89221 7.89726 9.8301L4.81243 6.84451C4.71748 6.7525 4.66886 6.63686 4.66657 6.49757C4.6644 6.3584 4.71302 6.24065 4.81243 6.14432C4.91196 6.04811 5.03254 6 5.17416 6C5.31579 6 5.43636 6.04811 5.53589 6.14432L8.33157 8.85024Z" fill="#8D8F94"/>
</g>
</svg>
