<svg width="40" height="40" viewBox="0 0 40 40" fill="none" xmlns="http://www.w3.org/2000/svg">
<mask id="mask0_82_2485" style="mask-type:alpha" maskUnits="userSpaceOnUse" x="16" y="8" width="24" height="24">
<rect x="16" y="8" width="24" height="24" fill="#D9D9D9"/>
</mask>
<g mask="url(#mask0_82_2485)">
<path d="M32.8055 29.5C32.057 29.5 31.4215 29.2383 30.899 28.7148C30.3767 28.1912 30.1155 27.5556 30.1155 26.8078C30.1155 26.7078 30.1501 26.4648 30.2193 26.0788L23.1077 21.8923C22.8667 22.1423 22.5804 22.3381 22.2487 22.4798C21.9171 22.6214 21.5617 22.6923 21.1827 22.6923C20.4376 22.6923 19.8042 22.4294 19.2825 21.9038C18.7608 21.3781 18.5 20.7435 18.5 20C18.5 19.2565 18.7608 18.6219 19.2825 18.0962C19.8042 17.5706 20.4376 17.3078 21.1827 17.3078C21.5617 17.3078 21.9171 17.3786 22.2487 17.5202C22.5804 17.6619 22.8667 17.8577 23.1077 18.1077L30.2193 13.9307C30.1796 13.8077 30.1523 13.6873 30.1375 13.5693C30.1228 13.4513 30.1155 13.3256 30.1155 13.1923C30.1155 12.4444 30.3774 11.8087 30.9012 11.2852C31.4253 10.7617 32.0615 10.5 32.81 10.5C33.5585 10.5 34.1939 10.762 34.7163 11.286C35.2388 11.8098 35.5 12.446 35.5 13.1945C35.5 13.943 35.2383 14.5785 34.7148 15.101C34.1912 15.6233 33.5556 15.8845 32.8077 15.8845C32.4269 15.8845 32.0728 15.8121 31.7452 15.6673C31.4176 15.5224 31.1333 15.325 30.8923 15.075L23.7808 19.2615C23.8204 19.3847 23.8477 19.5052 23.8625 19.623C23.8772 19.741 23.8845 19.8667 23.8845 20C23.8845 20.1333 23.8772 20.259 23.8625 20.377C23.8477 20.4948 23.8204 20.6153 23.7808 20.7385L30.8923 24.925C31.1333 24.675 31.4176 24.4776 31.7452 24.3328C32.0728 24.1879 32.4269 24.1155 32.8077 24.1155C33.5556 24.1155 34.1912 24.3774 34.7148 24.9012C35.2383 25.4253 35.5 26.0615 35.5 26.81C35.5 27.5585 35.238 28.1939 34.714 28.7163C34.1902 29.2388 33.554 29.5 32.8055 29.5ZM32.8077 28C33.1456 28 33.4287 27.8857 33.6572 27.6572C33.8857 27.4287 34 27.1456 34 26.8078C34 26.4699 33.8857 26.1868 33.6572 25.9583C33.4287 25.7296 33.1456 25.6152 32.8077 25.6152C32.4699 25.6152 32.1868 25.7296 31.9583 25.9583C31.7296 26.1868 31.6152 26.4699 31.6152 26.8078C31.6152 27.1456 31.7296 27.4287 31.9583 27.6572C32.1868 27.8857 32.4699 28 32.8077 28ZM21.1827 21.1923C21.5233 21.1923 21.8087 21.078 22.039 20.8495C22.2695 20.621 22.3848 20.3378 22.3848 20C22.3848 19.6622 22.2695 19.379 22.039 19.1505C21.8087 18.922 21.5233 18.8077 21.1827 18.8077C20.8476 18.8077 20.5667 18.922 20.34 19.1505C20.1133 19.379 20 19.6622 20 20C20 20.3378 20.1133 20.621 20.34 20.8495C20.5667 21.078 20.8476 21.1923 21.1827 21.1923ZM32.8077 14.3848C33.1456 14.3848 33.4287 14.2704 33.6572 14.0417C33.8857 13.8132 34 13.5301 34 13.1923C34 12.8544 33.8857 12.5713 33.6572 12.3428C33.4287 12.1143 33.1456 12 32.8077 12C32.4699 12 32.1868 12.1143 31.9583 12.3428C31.7296 12.5713 31.6152 12.8544 31.6152 13.1923C31.6152 13.5301 31.7296 13.8132 31.9583 14.0417C32.1868 14.2704 32.4699 14.3848 32.8077 14.3848Z" fill="white"/>
</g>
</svg>
