<svg width="32" height="32" viewBox="0 0 32 32" fill="none" xmlns="http://www.w3.org/2000/svg">
<mask id="mask0_1_3640" style="mask-type:alpha" maskUnits="userSpaceOnUse" x="0" y="0" width="32" height="32">
<rect width="32" height="32" fill="#D9D9D9"/>
</mask>
<g mask="url(#mask0_1_3640)">
<path d="M10.4999 8.99492L14.1049 4.26392C14.3443 3.9437 14.6285 3.70859 14.9576 3.55859C15.2867 3.40836 15.6341 3.33325 15.9999 3.33325C16.3657 3.33325 16.7131 3.40836 17.0423 3.55859C17.3714 3.70859 17.6556 3.9437 17.8949 4.26392L21.4999 8.99492L27.0126 10.8563C27.5393 11.0256 27.9499 11.3241 28.2446 11.7519C28.5395 12.1799 28.6869 12.6526 28.6869 13.1699C28.6869 13.4088 28.652 13.6469 28.5823 13.8843C28.5125 14.1216 28.3978 14.349 28.2383 14.5666L24.6486 19.5486L24.7819 24.8359C24.8041 25.5379 24.5727 26.1296 24.0876 26.6109C23.6027 27.0925 23.0376 27.3333 22.3923 27.3333C22.3734 27.3333 22.1503 27.3041 21.7229 27.2459L15.9999 25.6049L10.2769 27.2459C10.1658 27.2904 10.0511 27.316 9.93292 27.3229C9.8147 27.3298 9.70625 27.3333 9.60759 27.3333C8.95625 27.3333 8.38959 27.0925 7.90758 26.6109C7.42558 26.1296 7.1957 25.5379 7.21792 24.8359L7.35125 19.5153L3.78192 14.5666C3.62236 14.3481 3.5077 14.1198 3.43792 13.8816C3.36814 13.6431 3.33325 13.4048 3.33325 13.1666C3.33325 12.6637 3.4797 12.196 3.77259 11.7636C4.06547 11.3311 4.47459 11.0245 4.99992 10.8436L10.4999 8.99492Z" fill="#FEE500"/>
</g>
</svg>
