<svg width="20" height="20" viewBox="0 0 20 20" fill="none" xmlns="http://www.w3.org/2000/svg">
<mask id="mask0_1_3557" style="mask-type:alpha" maskUnits="userSpaceOnUse" x="0" y="0" width="20" height="20">
<rect width="20" height="20" fill="#D9D9D9"/>
</mask>
<g mask="url(#mask0_1_3557)">
<path d="M6.56242 5.62185L8.81554 2.66498C8.96513 2.46484 9.14277 2.3179 9.34846 2.22415C9.55416 2.13026 9.77131 2.08331 9.99992 2.08331C10.2285 2.08331 10.4457 2.13026 10.6514 2.22415C10.8571 2.3179 11.0347 2.46484 11.1843 2.66498L13.4374 5.62185L16.8828 6.78519C17.212 6.89102 17.4687 7.07762 17.6528 7.34498C17.8371 7.61248 17.9293 7.9079 17.9293 8.23123C17.9293 8.38054 17.9075 8.52936 17.8639 8.67769C17.8203 8.82602 17.7486 8.96817 17.6489 9.10415L15.4053 12.2179L15.4887 15.5225C15.5026 15.9612 15.3579 16.331 15.0547 16.6319C14.7517 16.9328 14.3985 17.0833 13.9951 17.0833C13.9833 17.0833 13.8439 17.0651 13.5768 17.0287L9.99992 16.0031L6.42304 17.0287C6.3536 17.0565 6.28193 17.0725 6.20804 17.0769C6.13415 17.0812 6.06638 17.0833 6.00471 17.0833C5.59763 17.0833 5.24346 16.9328 4.94221 16.6319C4.64096 16.331 4.49728 15.9612 4.51117 15.5225L4.5945 12.1971L2.36367 9.10415C2.26395 8.96762 2.19228 8.82491 2.14867 8.67602C2.10506 8.52699 2.08325 8.37804 2.08325 8.22915C2.08325 7.91484 2.17478 7.62255 2.35784 7.35227C2.54089 7.08199 2.79659 6.89033 3.12492 6.77727L6.56242 5.62185Z" fill="#FEE500"/>
</g>
</svg>
