<svg width="20" height="20" viewBox="0 0 20 20" fill="none" xmlns="http://www.w3.org/2000/svg">
<mask id="mask0_88_2291" style="mask-type:alpha" maskUnits="userSpaceOnUse" x="0" y="0" width="20" height="20">
<rect width="20" height="20" fill="#D9D9D9"/>
</mask>
<g mask="url(#mask0_88_2291)">
<path d="M6.56266 5.62179L8.81579 2.66492C8.96537 2.46478 9.14301 2.31784 9.3487 2.22409C9.5544 2.1302 9.77155 2.08325 10.0002 2.08325C10.2288 2.08325 10.4459 2.1302 10.6516 2.22409C10.8573 2.31784 11.035 2.46478 11.1845 2.66492L13.4377 5.62179L16.8831 6.78513C17.2122 6.89096 17.4689 7.07756 17.6531 7.34492C17.8374 7.61242 17.9295 7.90784 17.9295 8.23117C17.9295 8.38047 17.9077 8.52929 17.8641 8.67763C17.8205 8.82596 17.7488 8.96811 17.6491 9.10409L15.4056 12.2178L15.4889 15.5224C15.5028 15.9612 15.3581 16.331 15.055 16.6318C14.7519 16.9328 14.3987 17.0833 13.9954 17.0833C13.9836 17.0833 13.8441 17.0651 13.577 17.0287L10.0002 16.003L6.42329 17.0287C6.35384 17.0564 6.28218 17.0725 6.20829 17.0768C6.1344 17.0811 6.06662 17.0833 6.00495 17.0833C5.59787 17.0833 5.2437 16.9328 4.94245 16.6318C4.6412 16.331 4.49752 15.9612 4.51141 15.5224L4.59475 12.197L2.36391 9.10409C2.26419 8.96756 2.19252 8.82485 2.14891 8.67596C2.1053 8.52693 2.0835 8.37797 2.0835 8.22909C2.0835 7.91478 2.17502 7.62249 2.35808 7.35221C2.54113 7.08193 2.79683 6.89027 3.12516 6.77721L6.56266 5.62179Z" fill="#FEE500"/>
</g>
</svg>
