<svg width="48" height="48" viewBox="0 0 48 48" fill="none" xmlns="http://www.w3.org/2000/svg">
<rect width="48" height="48" rx="24" fill="#E4E7EA"/>
<path d="M24 24C25.094 24 26.1432 23.5654 26.9168 22.7918C27.6904 22.0182 28.125 20.969 28.125 19.875C28.125 18.781 27.6904 17.7318 26.9168 16.9582C26.1432 16.1846 25.094 15.75 24 15.75C22.906 15.75 21.8568 16.1846 21.0832 16.9582C20.3096 17.7318 19.875 18.781 19.875 19.875C19.875 20.969 20.3096 22.0182 21.0832 22.7918C21.8568 23.5654 22.906 24 24 24ZM26.75 19.875C26.75 20.6043 26.4603 21.3038 25.9445 21.8195C25.4288 22.3353 24.7293 22.625 24 22.625C23.2707 22.625 22.5712 22.3353 22.0555 21.8195C21.5397 21.3038 21.25 20.6043 21.25 19.875C21.25 19.1457 21.5397 18.4462 22.0555 17.9305C22.5712 17.4147 23.2707 17.125 24 17.125C24.7293 17.125 25.4288 17.4147 25.9445 17.9305C26.4603 18.4462 26.75 19.1457 26.75 19.875ZM32.25 30.875C32.25 32.25 30.875 32.25 30.875 32.25H17.125C17.125 32.25 15.75 32.25 15.75 30.875C15.75 29.5 17.125 25.375 24 25.375C30.875 25.375 32.25 29.5 32.25 30.875ZM30.875 30.8695C30.8736 30.5312 30.6632 29.5138 29.731 28.5815C28.8345 27.685 27.1474 26.75 24 26.75C20.8526 26.75 19.1655 27.685 18.269 28.5815C17.3368 29.5138 17.1278 30.5312 17.125 30.8695H30.875Z" fill="white"/>
</svg>
