<svg width="24" height="24" viewBox="0 0 24 24" fill="none" xmlns="http://www.w3.org/2000/svg">
<mask id="mask0_1_3583" style="mask-type:alpha" maskUnits="userSpaceOnUse" x="0" y="0" width="24" height="24">
<rect width="24" height="24" fill="#D9D9D9"/>
</mask>
<g mask="url(#mask0_1_3583)">
<path d="M12 13.2001L15.9 9.30015C16.0834 9.11681 16.3167 9.02515 16.6 9.02515C16.8834 9.02515 17.1167 9.11681 17.3 9.30015C17.4834 9.48348 17.575 9.71681 17.575 10.0001C17.575 10.2835 17.4834 10.5168 17.3 10.7001L12.7 15.3001C12.6 15.4001 12.4917 15.471 12.375 15.5126C12.2584 15.5543 12.1334 15.5751 12 15.5751C11.8667 15.5751 11.7417 15.5543 11.625 15.5126C11.5084 15.471 11.4 15.4001 11.3 15.3001L6.70005 10.7001C6.51672 10.5168 6.42505 10.2835 6.42505 10.0001C6.42505 9.71681 6.51672 9.48348 6.70005 9.30015C6.88338 9.11681 7.11672 9.02515 7.40005 9.02515C7.68338 9.02515 7.91672 9.11681 8.10005 9.30015L12 13.2001Z" fill="#57B9B1"/>
</g>
</svg>
