<svg width="40" height="40" viewBox="0 0 40 40" fill="none" xmlns="http://www.w3.org/2000/svg">
<path fill-rule="evenodd" clip-rule="evenodd" d="M9.88844 10.6984C10.4574 10.244 11.1701 10 11.9 10C12.6299 10 13.3426 10.244 13.9116 10.6984L20.6616 16.0928C20.6615 16.0927 20.6617 16.0929 20.6616 16.0928C21.0133 16.3737 21.3001 16.7273 21.498 17.1305C21.6961 17.534 21.7999 17.9761 21.8 18.4254V27.2421C21.8 27.9367 21.5083 28.5923 21.0064 29.0677C20.5062 29.5417 19.8376 29.8 19.15 29.8H16.15C14.7334 29.8 13.5 28.6995 13.5 27.2421V23.4497C13.5 23.3914 13.4765 23.3251 13.418 23.2682C13.3595 23.2112 13.2712 23.17 13.1686 23.1654H10.6313C10.4034 23.1751 10.3 23.3405 10.3 23.4497V27.2421C10.3 27.9366 10.0083 28.5923 9.50642 29.0677C9.00618 29.5417 8.3376 29.8 7.65 29.8H4.65C3.23339 29.8 2 28.6995 2 27.2421V18.4266C2.0001 17.9773 2.10387 17.535 2.30199 17.1314C2.49993 16.7282 2.78638 16.3749 3.13807 16.0941L9.88844 10.6984ZM11.0116 12.105L4.26193 17.5001C4.1127 17.6192 3.99612 17.7651 3.91777 17.9247C3.83955 18.084 3.80007 18.2551 3.8 18.4266C3.8 18.4265 3.8 18.4267 3.8 18.4266V27.2421C3.8 27.615 4.13461 28 4.65 28H7.65C7.89066 28 8.11232 27.909 8.26846 27.7611C8.42295 27.6147 8.5 27.4269 8.5 27.2421V23.4497C8.5 22.2717 9.47807 21.3939 10.5943 21.3657L10.6056 21.3654H13.1943L13.2055 21.3657C13.751 21.3793 14.2787 21.5941 14.6733 21.9781C15.0694 22.3635 15.3001 22.8906 15.3 23.4497C15.3 23.4495 15.3 23.4498 15.3 23.4497V27.2421C15.3 27.615 15.6346 28 16.15 28H19.15C19.3907 28 19.6123 27.909 19.7685 27.7611C19.9229 27.6147 20 27.4269 20 27.2421V18.4258C20 18.4258 20 18.4259 20 18.4258C19.9999 18.2544 19.9604 18.083 19.8822 17.9237C19.8039 17.7641 19.6877 17.6186 19.5384 17.4994L12.7884 12.105C12.5459 11.9113 12.2314 11.8 11.9 11.8C11.5686 11.8 11.2541 11.9113 11.0116 12.105Z" fill="white"/>
</svg>
