<svg width="16" height="16" viewBox="0 0 16 16" fill="none" xmlns="http://www.w3.org/2000/svg">
<mask id="mask0_1_4069" style="mask-type:alpha" maskUnits="userSpaceOnUse" x="0" y="0" width="16" height="16">
<rect width="16" height="16" fill="#D9D9D9"/>
</mask>
<g mask="url(#mask0_1_4069)">
<path d="M13.7947 5.66658C14.1118 5.66658 14.3919 5.78819 14.635 6.03141C14.8782 6.27452 14.9998 6.55463 14.9998 6.87174V7.94858C14.9998 8.01858 14.9908 8.09358 14.9728 8.17358C14.9549 8.25347 14.9349 8.32808 14.9127 8.39741L13.002 12.9057C12.9066 13.119 12.7464 13.2991 12.5217 13.4461C12.2969 13.5931 12.0623 13.6666 11.818 13.6666H4.8075V5.66658L8.68567 1.82174C8.81823 1.6893 8.97167 1.61024 9.146 1.58458C9.32034 1.55891 9.48739 1.5888 9.64717 1.67424C9.80706 1.7598 9.92417 1.88119 9.9985 2.03841C10.0728 2.19563 10.0887 2.35847 10.046 2.52691L9.328 5.66658H13.7947ZM5.8075 6.09224V12.6666H11.8203C11.8673 12.6666 11.9154 12.6537 11.9645 12.6281C12.0137 12.6024 12.0512 12.5597 12.0768 12.4999L13.9998 7.99991V6.87174C13.9998 6.81185 13.9806 6.76269 13.9422 6.72424C13.9037 6.6858 13.8546 6.66658 13.7947 6.66658H8.064L8.89984 3.01274L5.8075 6.09224ZM2.87167 13.6666C2.54023 13.6666 2.2565 13.5486 2.0205 13.3126C1.7845 13.0766 1.6665 12.7929 1.6665 12.4614V6.87174C1.6665 6.5403 1.7845 6.25658 2.0205 6.02058C2.2565 5.78458 2.54023 5.66658 2.87167 5.66658H4.8075V6.66658H2.87167C2.81178 6.66658 2.76262 6.6858 2.72417 6.72424C2.68573 6.76269 2.6665 6.81185 2.6665 6.87174V12.4614C2.6665 12.5213 2.68573 12.5705 2.72417 12.6089C2.76262 12.6474 2.81178 12.6666 2.87167 12.6666H4.8075V13.6666H2.87167Z" fill="#8D8F94"/>
</g>
</svg>
