<svg width="113" height="112" viewBox="0 0 113 112" fill="none" xmlns="http://www.w3.org/2000/svg">
<rect x="0.5" width="112" height="112" rx="56" fill="#E4E7EA"/>
<path d="M56.5 56C58.4449 56 60.3102 55.2274 61.6855 53.8521C63.0607 52.4768 63.8333 50.6116 63.8333 48.6666C63.8333 46.7217 63.0607 44.8565 61.6855 43.4812C60.3102 42.1059 58.4449 41.3333 56.5 41.3333C54.5551 41.3333 52.6898 42.1059 51.3146 43.4812C49.9393 44.8565 49.1667 46.7217 49.1667 48.6666C49.1667 50.6116 49.9393 52.4768 51.3146 53.8521C52.6898 55.2274 54.5551 56 56.5 56ZM61.3889 48.6666C61.3889 49.9633 60.8738 51.2068 59.957 52.1236C59.0401 53.0405 57.7966 53.5555 56.5 53.5555C55.2034 53.5555 53.9599 53.0405 53.043 52.1236C52.1262 51.2068 51.6111 49.9633 51.6111 48.6666C51.6111 47.37 52.1262 46.1265 53.043 45.2097C53.9599 44.2928 55.2034 43.7778 56.5 43.7778C57.7966 43.7778 59.0401 44.2928 59.957 45.2097C60.8738 46.1265 61.3889 47.37 61.3889 48.6666ZM71.1667 68.2222C71.1667 70.6666 68.7222 70.6666 68.7222 70.6666H44.2778C44.2778 70.6666 41.8333 70.6666 41.8333 68.2222C41.8333 65.7778 44.2778 58.4444 56.5 58.4444C68.7222 58.4444 71.1667 65.7778 71.1667 68.2222ZM68.7222 68.2124C68.7198 67.6111 68.3458 65.8022 66.6884 64.1449C65.0947 62.5511 62.0953 60.8889 56.5 60.8889C50.9047 60.8889 47.9053 62.5511 46.3116 64.1449C44.6542 65.8022 44.2827 67.6111 44.2778 68.2124H68.7222Z" fill="white"/>
</svg>
