<svg width="24" height="24" viewBox="0 0 24 24" fill="none" xmlns="http://www.w3.org/2000/svg">
<mask id="mask0_1_4398" style="mask-type:alpha" maskUnits="userSpaceOnUse" x="0" y="0" width="24" height="24">
<rect width="24" height="24" fill="#D9D9D9"/>
</mask>
<g mask="url(#mask0_1_4398)">
<path d="M11.9971 14.5239L17.6999 9.20508C17.8503 9.06481 18.0294 8.99649 18.2371 9.00014C18.4448 9.00379 18.6239 9.07575 18.7744 9.21603C18.9248 9.3563 19 9.5233 19 9.717C19 9.91071 18.9248 10.0778 18.7744 10.2182L12.9668 15.6238C12.8298 15.7514 12.6765 15.846 12.5066 15.9075C12.3368 15.9692 12.167 16 11.9971 16C11.8273 16 11.6575 15.9692 11.4876 15.9075C11.3178 15.846 11.1644 15.7514 11.0275 15.6238L5.21989 10.2072C5.06948 10.0669 4.99624 9.90176 5.00015 9.7117C5.00406 9.52153 5.08122 9.3563 5.23162 9.21603C5.38203 9.07575 5.56107 9.00561 5.76876 9.00561C5.97645 9.00561 6.15556 9.07575 6.30609 9.21603L11.9971 14.5239Z" fill="#333333"/>
</g>
</svg>
