<svg width="20" height="20" viewBox="0 0 20 20" fill="none" xmlns="http://www.w3.org/2000/svg">
<mask id="mask0_1_4235" style="mask-type:alpha" maskUnits="userSpaceOnUse" x="0" y="0" width="20" height="20">
<rect width="20" height="20" fill="#D9D9D9"/>
</mask>
<g mask="url(#mask0_1_4235)">
<path d="M6.56217 5.62185L8.8153 2.66498C8.96488 2.46484 9.14252 2.3179 9.34822 2.22415C9.55391 2.13026 9.77106 2.08331 9.99967 2.08331C10.2283 2.08331 10.4454 2.13026 10.6511 2.22415C10.8568 2.3179 11.0345 2.46484 11.184 2.66498L13.4372 5.62185L16.8826 6.78519C17.2118 6.89102 17.4684 7.07762 17.6526 7.34498C17.8369 7.61248 17.929 7.9079 17.929 8.23123C17.929 8.38054 17.9072 8.52936 17.8636 8.67769C17.82 8.82602 17.7484 8.96817 17.6486 9.10415L15.4051 12.2179L15.4884 15.5225C15.5023 15.9612 15.3577 16.331 15.0545 16.6319C14.7514 16.9328 14.3982 17.0833 13.9949 17.0833C13.9831 17.0833 13.8436 17.0651 13.5765 17.0287L9.99967 16.0031L6.4228 17.0287C6.35335 17.0565 6.28169 17.0725 6.2078 17.0769C6.13391 17.0812 6.06613 17.0833 6.00447 17.0833C5.59738 17.0833 5.24322 16.9328 4.94197 16.6319C4.64072 16.331 4.49704 15.9612 4.51092 15.5225L4.59426 12.1971L2.36342 9.10415C2.2637 8.96762 2.19204 8.82491 2.14842 8.67602C2.10481 8.52699 2.08301 8.37804 2.08301 8.22915C2.08301 7.91484 2.17454 7.62255 2.35759 7.35227C2.54065 7.08199 2.79634 6.89033 3.12467 6.77727L6.56217 5.62185Z" fill="#FEE500"/>
</g>
</svg>
