<svg width="36" height="36" viewBox="0 0 36 36" fill="none" xmlns="http://www.w3.org/2000/svg">
<mask id="mask0_1_4238" style="mask-type:alpha" maskUnits="userSpaceOnUse" x="12" y="6" width="24" height="24">
<rect x="12" y="6" width="24" height="24" fill="#D9D9D9"/>
</mask>
<g mask="url(#mask0_1_4238)">
<path d="M25.2754 18.5024L21.2165 14.3089C21.0786 14.1663 21.0081 13.987 21.0047 13.7712C21.0016 13.5555 21.0722 13.373 21.2165 13.2237C21.361 13.0746 21.536 13 21.7416 13C21.9472 13 22.1223 13.0746 22.2668 13.2237L26.7452 17.8509C26.8383 17.9474 26.9041 18.049 26.9425 18.1559C26.9808 18.2628 27 18.3783 27 18.5024C27 18.6265 26.9808 18.7419 26.9425 18.8489C26.9041 18.9558 26.8383 19.0574 26.7452 19.1539L22.2668 23.7811C22.1288 23.9235 21.9553 23.9965 21.7464 23.9999C21.5376 24.0032 21.361 23.9302 21.2165 23.7811C21.0722 23.6318 21 23.451 21 23.2385C21 23.0261 21.0722 22.8452 21.2165 22.6959L25.2754 18.5024Z" fill="#6D6F73"/>
</g>
</svg>
