<svg width="32" height="32" viewBox="0 0 32 32" fill="none" xmlns="http://www.w3.org/2000/svg">
<mask id="mask0_1_4386" style="mask-type:alpha" maskUnits="userSpaceOnUse" x="0" y="0" width="32" height="32">
<rect width="32" height="32" fill="#D9D9D9"/>
</mask>
<g mask="url(#mask0_1_4386)">
<circle cx="16" cy="16" r="11" fill="black"/>
<path d="M16 16.7382L12.4461 20.2923C12.3491 20.3892 12.2271 20.4388 12.0803 20.4411C11.9335 20.4433 11.8093 20.3937 11.7077 20.2923C11.6063 20.1907 11.5556 20.0676 11.5556 19.9231C11.5556 19.7785 11.6063 19.6555 11.7077 19.5539L15.2618 16L11.7077 12.4461C11.6108 12.3491 11.5612 12.2271 11.5589 12.0803C11.5567 11.9335 11.6063 11.8093 11.7077 11.7077C11.8093 11.6063 11.9324 11.5556 12.0769 11.5556C12.2215 11.5556 12.3445 11.6063 12.4461 11.7077L16 15.2618L19.5539 11.7077C19.6509 11.6108 19.7729 11.5612 19.9197 11.5589C20.0665 11.5567 20.1907 11.6063 20.2923 11.7077C20.3937 11.8093 20.4444 11.9324 20.4444 12.0769C20.4444 12.2215 20.3937 12.3445 20.2923 12.4461L16.7382 16L20.2923 19.5539C20.3892 19.6509 20.4388 19.7729 20.4411 19.9197C20.4433 20.0665 20.3937 20.1907 20.2923 20.2923C20.1907 20.3937 20.0676 20.4444 19.9231 20.4444C19.7785 20.4444 19.6555 20.3937 19.5539 20.2923L16 16.7382Z" fill="white"/>
<path d="M20.4444 12.0769C20.4444 11.9324 20.3937 11.8093 20.2923 11.7077C20.1907 11.6063 20.0665 11.5567 19.9197 11.5589C19.7729 11.5612 19.6509 11.6108 19.5539 11.7077L16 15.2618L12.4461 11.7077C12.37 11.6317 12.2818 11.5844 12.1816 11.5653L12.0769 11.5556C11.9324 11.5556 11.8093 11.6063 11.7077 11.7077C11.6063 11.8093 11.5567 11.9335 11.5589 12.0803C11.5612 12.2271 11.6108 12.3491 11.7077 12.4461L15.2618 16L11.7077 19.5539C11.6063 19.6555 11.5556 19.7785 11.5556 19.9231C11.5556 20.0676 11.6063 20.1907 11.7077 20.2923C11.7839 20.3684 11.8728 20.4158 11.9744 20.4336L12.0803 20.4411C12.19 20.4393 12.2864 20.4112 12.3683 20.3566L12.4461 20.2923L16 16.7382L19.5539 20.2923C19.63 20.3683 19.7182 20.4156 19.8184 20.4347L19.9231 20.4444C20.0316 20.4444 20.128 20.4159 20.2122 20.3587L20.2923 20.2923C20.3684 20.2161 20.4158 20.1272 20.4336 20.0256L20.4411 19.9197C20.4388 19.7729 20.3892 19.6509 20.2923 19.5539L16.7382 16L20.2923 12.4461C20.3683 12.37 20.4156 12.2818 20.4347 12.1816L20.4444 12.0769ZM21 12.0775C20.9999 12.3679 20.8915 12.6328 20.6853 12.8392L17.5234 16L20.6853 19.1608L20.758 19.2411C20.8931 19.4062 20.9687 19.6004 20.9902 19.8064L20.9967 19.9106C21.0011 20.2036 20.8955 20.475 20.6853 20.6853C20.4788 20.8916 20.2132 21 19.9225 21C19.6321 20.9999 19.3672 20.8915 19.1608 20.6853L16 17.5234L12.8392 20.6853C12.6325 20.8918 12.369 20.9922 12.0894 20.9967C11.7964 21.0011 11.525 20.8955 11.3147 20.6853C11.1084 20.4788 11 20.2132 11 19.9225C11.0001 19.6321 11.1085 19.3672 11.3147 19.1608L14.4755 16L11.3147 12.8392C11.1082 12.6325 11.0078 12.369 11.0033 12.0894C10.9989 11.7964 11.1045 11.525 11.3147 11.3147L11.395 11.242C11.588 11.0829 11.8231 11 12.0775 11C12.3317 11.0001 12.566 11.083 12.7589 11.242L12.8392 11.3147L16 14.4755L19.1608 11.3147L19.2411 11.242C19.4338 11.0843 19.6669 11.0071 19.9117 11.0033C20.168 10.9995 20.4063 11.0801 20.6029 11.2409L20.6853 11.3147L20.758 11.395C20.9171 11.588 21 11.8231 21 12.0775Z" fill="white"/>
</g>
</svg>
