<svg width="40" height="40" viewBox="0 0 40 40" fill="none" xmlns="http://www.w3.org/2000/svg">
<mask id="mask0_1_4493" style="mask-type:alpha" maskUnits="userSpaceOnUse" x="0" y="0" width="40" height="40">
<rect width="40" height="40" fill="#D9D9D9"/>
</mask>
<g mask="url(#mask0_1_4493)">
<path d="M13.1253 11.2437L17.6316 5.32999C17.9307 4.92971 18.286 4.63582 18.6974 4.44832C19.1088 4.26055 19.5431 4.16666 20.0003 4.16666C20.4575 4.16666 20.8919 4.26055 21.3032 4.44832C21.7146 4.63582 22.0699 4.92971 22.3691 5.32999L26.8753 11.2437L33.7662 13.5704C34.4245 13.7821 34.9378 14.1553 35.3062 14.69C35.6748 15.225 35.8591 15.8158 35.8591 16.4625C35.8591 16.7611 35.8155 17.0587 35.7282 17.3554C35.641 17.6521 35.4977 17.9364 35.2982 18.2083L30.8112 24.4358L30.9778 31.045C31.0056 31.9225 30.7163 32.6621 30.1099 33.2637C29.5038 33.8657 28.7974 34.1667 27.9907 34.1667C27.9671 34.1667 27.6882 34.1303 27.1541 34.0575L20.0003 32.0062L12.8466 34.0575C12.7077 34.113 12.5644 34.1451 12.4166 34.1537C12.2688 34.1624 12.1332 34.1667 12.0099 34.1667C11.1957 34.1667 10.4874 33.8657 9.88491 33.2637C9.28241 32.6621 8.99505 31.9225 9.02282 31.045L9.18949 24.3942L4.72783 18.2083C4.52838 17.9353 4.38505 17.6499 4.29783 17.3521C4.2106 17.054 4.16699 16.7561 4.16699 16.4583C4.16699 15.8297 4.35005 15.2451 4.71616 14.7046C5.08227 14.164 5.59366 13.7807 6.25033 13.5546L13.1253 11.2437Z" fill="#FEE500"/>
</g>
</svg>
