<svg width="24" height="24" viewBox="0 0 24 24" fill="none" xmlns="http://www.w3.org/2000/svg">
<mask id="mask0_2794_3228" style="mask-type:alpha" maskUnits="userSpaceOnUse" x="0" y="0" width="24" height="24">
<rect width="24" height="24" fill="#D9D9D9"/>
</mask>
<g mask="url(#mask0_2794_3228)">
<path d="M13.2754 12.5024L9.21648 8.30887C9.07864 8.16627 9.00805 7.98704 9.00473 7.77116C9.00158 7.55546 9.07216 7.37297 9.21648 7.22368C9.36097 7.07456 9.53602 7 9.74162 7C9.94723 7 10.1223 7.07456 10.2668 7.22368L14.7452 11.8509C14.8383 11.9474 14.9041 12.049 14.9425 12.1559C14.9808 12.2628 15 12.3783 15 12.5024C15 12.6265 14.9808 12.7419 14.9425 12.8489C14.9041 12.9558 14.8383 13.0574 14.7452 13.1539L10.2668 17.7811C10.1288 17.9235 9.95528 17.9965 9.74636 17.9999C9.5376 18.0032 9.36097 17.9302 9.21648 17.7811C9.07216 17.6318 9 17.451 9 17.2385C9 17.0261 9.07216 16.8452 9.21648 16.6959L13.2754 12.5024Z" fill="#57B9B1"/>
</g>
</svg>
