<svg width="32" height="33" viewBox="0 0 32 33" fill="none" xmlns="http://www.w3.org/2000/svg">
<mask id="mask0_2054_15193" style="mask-type:alpha" maskUnits="userSpaceOnUse" x="4" y="4" width="24" height="25">
<rect x="4" y="4.5" width="24" height="24" fill="#D9D9D9"/>
</mask>
<g mask="url(#mask0_2054_15193)">
<path d="M17.2754 17.0024L13.2165 12.8089C13.0786 12.6663 13.0081 12.487 13.0047 12.2712C13.0016 12.0555 13.0722 11.873 13.2165 11.7237C13.361 11.5746 13.536 11.5 13.7416 11.5C13.9472 11.5 14.1223 11.5746 14.2668 11.7237L18.7452 16.3509C18.8383 16.4474 18.9041 16.549 18.9425 16.6559C18.9808 16.7628 19 16.8783 19 17.0024C19 17.1265 18.9808 17.2419 18.9425 17.3489C18.9041 17.4558 18.8383 17.5574 18.7452 17.6539L14.2668 22.2811C14.1288 22.4235 13.9553 22.4965 13.7464 22.4999C13.5376 22.5032 13.361 22.4302 13.2165 22.2811C13.0722 22.1318 13 21.951 13 21.7385C13 21.5261 13.0722 21.3452 13.2165 21.1959L17.2754 17.0024Z" fill="#333333"/>
</g>
</svg>
