<svg width="4" height="15" viewBox="0 0 4 15" fill="none" xmlns="http://www.w3.org/2000/svg">
<path d="M2.85024 7.50174L0.144322 4.4519C0.0524255 4.3482 0.00536991 4.21784 0.00315553 4.06085C0.00105187 3.90397 0.0481074 3.77125 0.144322 3.66268C0.240648 3.55423 0.357345 3.5 0.494415 3.5C0.631486 3.5 0.748183 3.55423 0.844509 3.66268L3.8301 7.02794C3.89221 7.09808 3.93606 7.17202 3.96164 7.24977C3.98721 7.32752 4 7.41151 4 7.50174C4 7.59197 3.98721 7.67596 3.96164 7.75371C3.93606 7.83146 3.89221 7.9054 3.8301 7.97554L0.844509 11.3408C0.752501 11.4444 0.636855 11.4974 0.497571 11.4999C0.358397 11.5023 0.240648 11.4493 0.144322 11.3408C0.0481074 11.2322 0 11.1007 0 10.9462C0 10.7917 0.0481074 10.6602 0.144322 10.5516L2.85024 7.50174Z" fill="white"/>
</svg>
