<svg width="36" height="36" viewBox="0 0 36 36" fill="none" xmlns="http://www.w3.org/2000/svg">
<mask id="mask0_1_3793" style="mask-type:alpha" maskUnits="userSpaceOnUse" x="6" y="6" width="24" height="24">
<rect x="6" y="6" width="24" height="24" fill="#D9D9D9"/>
</mask>
<g mask="url(#mask0_1_3793)">
<path d="M20.5239 18.0029L15.2051 12.3001C15.0648 12.1497 14.9965 11.9706 15.0001 11.7629C15.0038 11.5552 15.0757 11.3761 15.216 11.2256C15.3563 11.0752 15.5233 11 15.717 11C15.9107 11 16.0778 11.0752 16.2182 11.2256L21.6238 17.0332C21.7514 17.1702 21.846 17.3235 21.9075 17.4934C21.9692 17.6632 22 17.833 22 18.0029C22 18.1727 21.9692 18.3425 21.9075 18.5124C21.846 18.6822 21.7514 18.8356 21.6238 18.9725L16.2072 24.7801C16.0669 24.9305 15.9018 25.0038 15.7117 24.9999C15.5215 24.9959 15.3563 24.9188 15.216 24.7684C15.0757 24.618 15.0056 24.4389 15.0056 24.2312C15.0056 24.0236 15.0757 23.8444 15.216 23.6939L20.5239 18.0029Z" fill="#B4B7BE"/>
</g>
</svg>
