<svg width="24" height="24" viewBox="0 0 24 24" fill="none" xmlns="http://www.w3.org/2000/svg">
<mask id="mask0_4107_2287" style="mask-type:alpha" maskUnits="userSpaceOnUse" x="0" y="0" width="24" height="24">
<rect width="24" height="24" fill="#D9D9D9"/>
</mask>
<g mask="url(#mask0_4107_2287)">
<path d="M13.2753 12.5024L9.21647 8.30887C9.07863 8.16627 9.00804 7.98704 9.00472 7.77116C9.00157 7.55547 9.07215 7.37297 9.21647 7.22368C9.36096 7.07456 9.53601 7 9.74161 7C9.94722 7 10.1223 7.07456 10.2668 7.22368L14.7451 11.8509C14.8383 11.9474 14.9041 12.049 14.9424 12.1559C14.9808 12.2628 15 12.3783 15 12.5024C15 12.6265 14.9808 12.7419 14.9424 12.8489C14.9041 12.9558 14.8383 13.0574 14.7451 13.1539L10.2668 17.7811C10.1287 17.9235 9.95527 17.9965 9.74634 17.9999C9.53758 18.0032 9.36096 17.9302 9.21647 17.7811C9.07215 17.6318 8.99999 17.451 8.99999 17.2385C8.99999 17.0261 9.07215 16.8452 9.21647 16.6959L13.2753 12.5024Z" fill="#AEAEAE"/>
</g>
</svg>
