<svg width="24" height="24" viewBox="0 0 24 24" fill="none" xmlns="http://www.w3.org/2000/svg">
<mask id="mask0_4081_130" style="mask-type:alpha" maskUnits="userSpaceOnUse" x="0" y="0" width="24" height="24">
<rect width="24" height="24" fill="#D9D9D9"/>
</mask>
<g mask="url(#mask0_4081_130)">
<path d="M14.5239 12.0029L9.20508 6.30007C9.06481 6.14967 8.99649 5.97062 9.00014 5.76293C9.00379 5.55524 9.07575 5.37614 9.21603 5.22561C9.3563 5.0752 9.5233 5 9.717 5C9.91071 5 10.0778 5.0752 10.2182 5.22561L15.6238 11.0332C15.7514 11.1702 15.846 11.3235 15.9075 11.4934C15.9692 11.6632 16 11.833 16 12.0029C16 12.1727 15.9692 12.3425 15.9075 12.5124C15.846 12.6822 15.7514 12.8356 15.6238 12.9725L10.2072 18.7801C10.0669 18.9305 9.90176 19.0038 9.7117 18.9999C9.52153 18.9959 9.3563 18.9188 9.21603 18.7684C9.07575 18.618 9.00561 18.4389 9.00561 18.2312C9.00561 18.0236 9.07575 17.8444 9.21603 17.6939L14.5239 12.0029Z" fill="#B4B7BE"/>
</g>
</svg>
