<svg width="48" height="48" viewBox="0 0 48 48" fill="none" xmlns="http://www.w3.org/2000/svg">
<circle cx="24" cy="24" r="23.5" fill="white" stroke="#E4E7EA"/>
<mask id="mask0_1_3659" style="mask-type:alpha" maskUnits="userSpaceOnUse" x="12" y="12" width="24" height="24">
<rect x="12" y="12" width="24" height="24" fill="#D9D9D9"/>
</mask>
<g mask="url(#mask0_1_3659)">
<path d="M17.25 17C17.0375 17 16.8594 16.9281 16.7158 16.7842C16.5719 16.6404 16.5 16.4622 16.5 16.2497C16.5 16.0371 16.5719 15.859 16.7158 15.7155C16.8594 15.5718 17.0375 15.5 17.25 15.5H30.75C30.9625 15.5 31.1406 15.5719 31.2843 15.7158C31.4281 15.8596 31.5 16.0378 31.5 16.2503C31.5 16.4629 31.4281 16.641 31.2843 16.7845C31.1406 16.9282 30.9625 17 30.75 17H17.25ZM23.9997 32.5C23.7871 32.5 23.609 32.4281 23.4655 32.2843C23.3218 32.1406 23.25 31.9625 23.25 31.75V22.2038L20.927 24.527C20.782 24.6718 20.6063 24.7443 20.4 24.7443C20.1937 24.7443 20.018 24.6718 19.873 24.527C19.7282 24.382 19.6573 24.2048 19.6605 23.9952C19.6638 23.7856 19.7347 23.6115 19.873 23.473L23.3672 19.9788C23.4609 19.8853 23.5601 19.8192 23.6648 19.7807C23.7694 19.7422 23.8816 19.723 24.0012 19.723C24.1209 19.723 24.2327 19.7422 24.3365 19.7807C24.4403 19.8192 24.5391 19.8853 24.6328 19.9788L28.127 23.473C28.2718 23.618 28.3443 23.7937 28.3443 24C28.3443 24.2063 28.2718 24.382 28.127 24.527C27.982 24.6718 27.8048 24.7427 27.5953 24.7395C27.3856 24.7362 27.2115 24.6653 27.073 24.527L24.75 22.2038V31.75C24.75 31.9625 24.6781 32.1406 24.5343 32.2843C24.3904 32.4281 24.2122 32.5 23.9997 32.5Z" fill="#333333"/>
</g>
</svg>
