<svg width="36" height="36" viewBox="0 0 36 36" fill="none" xmlns="http://www.w3.org/2000/svg">
<mask id="mask0_6125_645" style="mask-type:alpha" maskUnits="userSpaceOnUse" x="6" y="6" width="24" height="24">
<rect x="6" y="6" width="24" height="24" fill="#D9D9D9"/>
</mask>
<g mask="url(#mask0_6125_645)">
<path d="M18 18.6644L14.8015 21.863C14.7142 21.9502 14.6044 21.9949 14.4722 21.997C14.3402 21.999 14.2284 21.9543 14.137 21.863C14.0457 21.7716 14 21.6608 14 21.5308C14 21.4007 14.0457 21.2899 14.137 21.1985L17.3356 18L14.137 14.8015C14.0498 14.7142 14.0051 14.6044 14.003 14.4722C14.001 14.3402 14.0457 14.2284 14.137 14.137C14.2284 14.0457 14.3392 14 14.4692 14C14.5993 14 14.7101 14.0457 14.8015 14.137L18 17.3356L21.1985 14.137C21.2858 14.0498 21.3956 14.0051 21.5278 14.003C21.6598 14.001 21.7716 14.0457 21.863 14.137C21.9543 14.2284 22 14.3392 22 14.4692C22 14.5993 21.9543 14.7101 21.863 14.8015L18.6644 18L21.863 21.1985C21.9502 21.2858 21.9949 21.3956 21.997 21.5278C21.999 21.6598 21.9543 21.7716 21.863 21.863C21.7716 21.9543 21.6608 22 21.5308 22C21.4007 22 21.2899 21.9543 21.1985 21.863L18 18.6644Z" fill="#D1D4DA"/>
</g>
</svg>
