<svg width="36" height="36" viewBox="0 0 36 36" fill="none" xmlns="http://www.w3.org/2000/svg">
<mask id="mask0_6274_1309" style="mask-type:alpha" maskUnits="userSpaceOnUse" x="6" y="6" width="24" height="24">
<rect x="6" y="6" width="24" height="24" fill="#D9D9D9"/>
</mask>
<g mask="url(#mask0_6274_1309)">
<path d="M18 19.0538L21.073 22.127C21.2115 22.2653 21.3856 22.3362 21.5953 22.3395C21.8048 22.3427 21.982 22.2718 22.127 22.127C22.2718 21.982 22.3443 21.8063 22.3443 21.6C22.3443 21.3937 22.2718 21.218 22.127 21.073L19.0538 18L22.127 14.927C22.2653 14.7885 22.3362 14.6144 22.3395 14.4048C22.3427 14.1953 22.2718 14.018 22.127 13.873C21.982 13.7282 21.8063 13.6557 21.6 13.6557C21.3937 13.6557 21.218 13.7282 21.073 13.873L18 16.9462L14.927 13.873C14.7885 13.7347 14.6144 13.6638 14.4048 13.6605C14.1953 13.6573 14.018 13.7282 13.873 13.873C13.7282 14.018 13.6558 14.1937 13.6558 14.4C13.6558 14.6063 13.7282 14.782 13.873 14.927L16.9462 18L13.873 21.073C13.7347 21.2115 13.6638 21.3856 13.6605 21.5953C13.6573 21.8048 13.7282 21.982 13.873 22.127C14.018 22.2718 14.1937 22.3443 14.4 22.3443C14.6063 22.3443 14.782 22.2718 14.927 22.127L18 19.0538ZM18.0017 27.5C16.6877 27.5 15.4527 27.2507 14.2965 26.752C13.1403 26.2533 12.1347 25.5766 11.2795 24.7218C10.4243 23.8669 9.74725 22.8617 9.24825 21.706C8.74942 20.5503 8.5 19.3156 8.5 18.0017C8.5 16.6877 8.74933 15.4527 9.248 14.2965C9.74667 13.1403 10.4234 12.1347 11.2783 11.2795C12.1331 10.4243 13.1383 9.74725 14.294 9.24825C15.4497 8.74942 16.6844 8.5 17.9983 8.5C19.3123 8.5 20.5473 8.74933 21.7035 9.248C22.8597 9.74667 23.8653 10.4234 24.7205 11.2783C25.5757 12.1331 26.2528 13.1383 26.7518 14.294C27.2506 15.4497 27.5 16.6844 27.5 17.9983C27.5 19.3123 27.2507 20.5473 26.752 21.7035C26.2533 22.8597 25.5766 23.8653 24.7218 24.7205C23.8669 25.5757 22.8617 26.2528 21.706 26.7518C20.5503 27.2506 19.3156 27.5 18.0017 27.5Z" fill="#D1D4DA"/>
</g>
</svg>
