<svg width="40" height="40" viewBox="0 0 40 40" fill="none" xmlns="http://www.w3.org/2000/svg">
<path fill-rule="evenodd" clip-rule="evenodd" d="M26.3187 10C25.0005 10.0002 23.7012 10.3136 22.5278 10.9144C21.3544 11.5153 20.3406 12.3863 19.57 13.4558C18.7993 14.5253 18.2937 15.7626 18.0951 17.0658C17.8964 18.369 18.0102 19.7007 18.4271 20.9513C18.8441 22.2019 19.5522 23.3355 20.4932 24.2587C21.4342 25.1819 22.5811 25.8683 23.8394 26.2613C25.0977 26.6543 26.4314 26.7427 27.7305 26.5192C29.0297 26.2957 30.2571 25.7666 31.3117 24.9757C31.3745 25.1596 31.4783 25.3316 31.6255 25.4777L35.78 29.6322C36.0268 29.8714 36.3579 30.0039 36.7016 30.0011C37.0454 29.9982 37.3742 29.8603 37.6171 29.6171C37.86 29.3739 37.9976 29.0449 38 28.7012C38.0024 28.3575 37.8695 28.0266 37.63 27.78L33.4755 23.6255C33.3348 23.4841 33.1634 23.3772 32.9746 23.3128C33.902 22.0767 34.4668 20.6068 34.6057 19.0678C34.7446 17.5288 34.4522 15.9815 33.7611 14.5993C33.0701 13.2172 32.0078 12.0548 30.6933 11.2424C29.3788 10.4301 27.864 9.99985 26.3187 10ZM20.0978 18.3198C20.0978 17.5029 20.2587 16.6939 20.5713 15.9392C20.884 15.1844 21.3422 14.4986 21.9199 13.921C22.4975 13.3433 23.1833 12.8851 23.9381 12.5724C24.6929 12.2598 25.5018 12.0989 26.3187 12.0989C27.1357 12.0989 27.9446 12.2598 28.6994 12.5724C29.4541 12.8851 30.1399 13.3433 30.7176 13.921C31.2953 14.4986 31.7535 15.1844 32.0661 15.9392C32.3788 16.6939 32.5397 17.5029 32.5397 18.3198C32.5397 19.9697 31.8843 21.552 30.7176 22.7187C29.551 23.8853 27.9686 24.5408 26.3187 24.5408C24.6688 24.5408 23.0865 23.8853 21.9199 22.7187C20.7532 21.552 20.0978 19.9697 20.0978 18.3198Z" fill="#333333"/>
</svg>
