<svg width="24" height="24" viewBox="0 0 24 24" fill="none" xmlns="http://www.w3.org/2000/svg">
<mask id="mask0_4107_2353" style="mask-type:alpha" maskUnits="userSpaceOnUse" x="0" y="0" width="24" height="24">
<rect width="24" height="24" fill="#D9D9D9"/>
</mask>
<g mask="url(#mask0_4107_2353)">
<path d="M10.8923 21.5C10.5513 21.5 10.2568 21.3868 10.0088 21.1605C9.76059 20.9343 9.60959 20.6558 9.55575 20.325L9.3115 18.4538C9.04367 18.3641 8.769 18.2385 8.4875 18.077C8.20617 17.9153 7.95459 17.7422 7.73275 17.5577L6 18.2943C5.68583 18.4328 5.37017 18.4462 5.053 18.3345C4.73567 18.223 4.48917 18.0205 4.3135 17.727L3.1865 15.773C3.01084 15.4795 2.96025 15.1689 3.03475 14.8413C3.10909 14.5138 3.27959 14.2436 3.54625 14.0308L5.04425 12.9058C5.02125 12.7571 5.00492 12.6077 4.99525 12.4578C4.98558 12.3078 4.98075 12.1583 4.98075 12.0095C4.98075 11.8673 4.98558 11.7228 4.99525 11.576C5.00492 11.4292 5.02125 11.2686 5.04425 11.0943L3.54625 9.96925C3.27959 9.75642 3.11067 9.48458 3.0395 9.15375C2.96834 8.82308 3.02059 8.51092 3.19625 8.21725L4.3135 6.29225C4.48917 6.00508 4.73567 5.80417 5.053 5.6895C5.37017 5.57467 5.68583 5.5865 6 5.725L7.723 6.452C7.96417 6.261 8.22159 6.08633 8.49525 5.928C8.76892 5.76967 9.03783 5.64242 9.302 5.54625L9.55575 3.675C9.60959 3.34417 9.76059 3.06567 10.0088 2.8395C10.2568 2.61317 10.5513 2.5 10.8923 2.5H13.1078C13.4488 2.5 13.7433 2.61317 13.9913 2.8395C14.2394 3.06567 14.3904 3.34417 14.4443 3.675L14.6885 5.55575C14.9885 5.66475 15.2599 5.792 15.5028 5.9375C15.7458 6.083 15.991 6.2545 16.2385 6.452L18.0098 5.725C18.3238 5.5865 18.6394 5.57467 18.9568 5.6895C19.2741 5.80417 19.5205 6.00508 19.696 6.29225L20.8135 8.227C20.9892 8.5205 21.0398 8.83108 20.9653 9.15875C20.8909 9.48625 20.7204 9.75642 20.4538 9.96925L18.9173 11.123C18.9531 11.2845 18.9727 11.4355 18.976 11.576C18.9792 11.7163 18.9808 11.8577 18.9808 12C18.9808 12.1358 18.9775 12.274 18.971 12.4145C18.9647 12.5548 18.9417 12.7154 18.902 12.8963L20.4095 14.0308C20.6762 14.2436 20.8483 14.5138 20.926 14.8413C21.0035 15.1689 20.9544 15.4795 20.7788 15.773L19.646 17.7172C19.4705 18.0109 19.2225 18.2135 18.902 18.325C18.5815 18.4365 18.2642 18.423 17.95 18.2845L16.2385 17.548C15.991 17.7455 15.7384 17.9202 15.4808 18.072C15.2231 18.224 14.959 18.3481 14.6885 18.4443L14.4443 20.325C14.3904 20.6558 14.2394 20.9343 13.9913 21.1605C13.7433 21.3868 13.4488 21.5 13.1078 21.5H10.8923ZM12.0115 15C12.8435 15 13.5515 14.708 14.1355 14.124C14.7195 13.54 15.0115 12.832 15.0115 12C15.0115 11.168 14.7195 10.46 14.1355 9.876C13.5515 9.292 12.8435 9 12.0115 9C11.1692 9 10.4586 9.292 9.87975 9.876C9.30092 10.46 9.0115 11.168 9.0115 12C9.0115 12.832 9.30092 13.54 9.87975 14.124C10.4586 14.708 11.1692 15 12.0115 15Z" fill="#333333"/>
</g>
</svg>
