<svg width="30" height="30" viewBox="0 0 30 30" fill="none" xmlns="http://www.w3.org/2000/svg">
<path d="M21.0636 25.9899H8.2406C5.9027 25.9899 4 24.088 4 21.7512V8.93396C4 6.59712 5.9027 4.69527 8.2406 4.69527H15.2644V6.51619H8.2406C6.90466 6.51619 5.83186 7.59862 5.83186 8.93396V21.7613C5.83186 23.0966 6.91478 24.1791 8.2406 24.1791H21.0737C22.4097 24.1791 23.4926 23.0966 23.4926 21.7613V15.2667H25.3143V21.7613C25.3143 24.0982 23.4116 26 21.0737 26L21.0636 25.9899Z" fill="#333333"/>
<path d="M23.4521 8.19548L21.7923 6.53642C21.185 5.92945 20.2033 5.91933 19.6062 6.5263L10.0725 16.0558C9.83968 16.2884 9.68787 16.602 9.63726 16.9156L9.28304 19.4548C9.23243 19.7886 9.35388 20.1326 9.58666 20.3754C9.78907 20.5777 10.0725 20.6991 10.366 20.6991C10.4166 20.6991 10.4672 20.6991 10.5178 20.6991L13.0581 20.345C13.3921 20.2945 13.6856 20.1528 13.9285 19.91L23.4622 10.3806C24.0593 9.78372 24.0492 8.80245 23.4521 8.19548Z" fill="#57B9B1"/>
<path d="M23.2699 10.5831L19.4139 6.72885L21.347 4.79665C22.4097 3.73445 24.1403 3.73445 25.203 4.79665C26.2657 5.85885 26.2657 7.58872 25.203 8.65093L23.2699 10.5831ZM21.9846 6.71873L23.2699 8.00349L23.9075 7.36617C24.2618 7.0121 24.2618 6.43548 23.9075 6.08141C23.5533 5.72734 22.9764 5.72734 22.6222 6.08141L21.9846 6.71873Z" fill="#333333"/>
</svg>
