<svg width="36" height="36" viewBox="0 0 36 36" fill="none" xmlns="http://www.w3.org/2000/svg">
<rect width="36" height="36" rx="18" fill="white"/>
<path d="M6.55 15.9099V16.1699C6.55 16.8599 6.92 17.4799 7.49 17.8599C8.15 18.2999 8.59 19.0499 8.59 19.9099C8.59 20.7699 8.15 21.5199 7.49 21.9599C6.92 22.3399 6.55 22.9599 6.55 23.6499V23.9099C6.55 25.0099 7.44 25.9099 8.55 25.9099H13.18V13.9399H8.55C7.45 13.9399 6.55 14.8299 6.55 15.9399V15.9099Z" fill="#57B9B1"/>
<path d="M8.32 14C7.56 14 6.95 14.61 6.95 15.37V16.97C6.95 17.5 7.26 17.97 7.74 18.2C8.36 18.49 8.78 19.12 8.78 19.85C8.78 20.58 8.35 21.21 7.74 21.5C7.26 21.73 6.95 22.2 6.95 22.73V24.33C6.95 25.09 7.56 25.7 8.32 25.7H25.16C25.92 25.7 26.53 25.09 26.53 24.33V15.36C26.53 14.6 25.92 13.99 25.16 13.99H10.6" stroke="#333333" stroke-width="1.5" stroke-linecap="round" stroke-linejoin="round"/>
<path d="M11.36 11.87C11.36 11.11 11.97 10.5 12.73 10.5H27.57C28.33 10.5 28.94 11.11 28.94 11.87V20.84C28.94 20.84 28.98 22.04 27.98 22.04" stroke="#333333" stroke-width="1.5" stroke-linecap="round" stroke-linejoin="round"/>
<path d="M13.18 14V25.71" stroke="#333333" stroke-width="1.5" stroke-linecap="round" stroke-linejoin="round" stroke-dasharray="1.1 2.2"/>
</svg>
