<svg width="36" height="36" viewBox="0 0 36 36" fill="none" xmlns="http://www.w3.org/2000/svg">
<rect width="36" height="36" rx="18" fill="white"/>
<path d="M21.6864 21.9434H19.8264V27.1934H21.6864V21.9434Z" fill="#57B9B1"/>
<path d="M6.74645 20.1134C6.49645 20.1134 6.25646 19.9934 6.11646 19.7634C5.89646 19.4134 5.99645 18.9534 6.34645 18.7234L15.6265 12.8334C15.9765 12.6134 16.4365 12.7134 16.6665 13.0634C16.8865 13.4134 16.7865 13.8734 16.4365 14.1034L7.15646 19.9934C7.03646 20.0734 6.89646 20.1134 6.75646 20.1134H6.74645Z" fill="#333333"/>
<path d="M26.1465 28.2834H8.83646C8.42646 28.2834 8.08646 27.9434 8.08646 27.5334V18.2934C8.08646 17.8834 8.42646 17.5434 8.83646 17.5434C9.24646 17.5434 9.58646 17.8834 9.58646 18.2934V26.7834H25.3965V13.8534C25.3965 13.4434 25.7365 13.1034 26.1465 13.1034C26.5565 13.1034 26.8965 13.4434 26.8965 13.8534V27.5334C26.8965 27.9434 26.5565 28.2834 26.1465 28.2834Z" fill="#333333"/>
<path d="M28.7365 16.0033C28.6065 16.0033 28.4765 15.9733 28.3565 15.9033L24.4265 13.5933C24.0665 13.3833 23.9465 12.9233 24.1565 12.5633C24.3665 12.2033 24.8265 12.0833 25.1865 12.2933L29.1165 14.6033C29.4765 14.8133 29.5965 15.2733 29.3865 15.6333C29.2465 15.8733 28.9965 16.0033 28.7365 16.0033Z" fill="#333333"/>
<path d="M22.4165 12.2733C22.2864 12.2733 22.1564 12.2433 22.0364 12.1733L15.6264 8.40333C15.2664 8.19333 15.1464 7.73333 15.3564 7.37333C15.5664 7.01333 16.0264 6.89333 16.3864 7.10333L22.7964 10.8733C23.1564 11.0833 23.2764 11.5433 23.0664 11.9033C22.9264 12.1433 22.6764 12.2733 22.4165 12.2733Z" fill="#333333"/>
<path d="M16.0265 28.2033C15.6165 28.2033 15.2765 27.8633 15.2765 27.4533L15.2565 7.76331C15.2565 7.35331 15.5865 7.01331 16.0065 7.01331C16.4165 7.01331 16.7565 7.35331 16.7565 7.76331L16.7765 27.4533C16.7765 27.8633 16.4465 28.2033 16.0265 28.2033Z" fill="#333333"/>
<path d="M19.2965 14.2833H18.2865V18.3333H19.2965V14.2833Z" fill="#57B9B1"/>
<path d="M21.2565 14.2833H20.2465V18.3333H21.2565V14.2833Z" fill="#57B9B1"/>
<path d="M23.2265 14.2833H22.2165V18.3333H23.2265V14.2833Z" fill="#57B9B1"/>
<path d="M13.3165 19.3134H11.4565V24.5634H13.3165V19.3134Z" fill="#57B9B1"/>
<path d="M10.4565 17.6334C10.0465 17.6334 9.70645 17.2934 9.70645 16.8834V12.9434C9.70645 12.5334 10.0465 12.1934 10.4565 12.1934C10.8665 12.1934 11.2065 12.5334 11.2065 12.9434V16.8834C11.2065 17.2934 10.8665 17.6334 10.4565 17.6334Z" fill="#333333"/>
<path d="M12.7865 16.1634C12.3765 16.1634 12.0365 15.8234 12.0365 15.4134V12.9434C12.0365 12.5334 12.3765 12.1934 12.7865 12.1934C13.1965 12.1934 13.5365 12.5334 13.5365 12.9434V15.4134C13.5365 15.8234 13.1965 16.1634 12.7865 16.1634Z" fill="#333333"/>
<path d="M13.6765 13.6934H9.47646C9.06646 13.6934 8.72646 13.3534 8.72646 12.9434C8.72646 12.5334 9.06646 12.1934 9.47646 12.1934H13.6765C14.0865 12.1934 14.4265 12.5334 14.4265 12.9434C14.4265 13.3534 14.0865 13.6934 13.6765 13.6934Z" fill="#333333"/>
</svg>
