<svg width="24" height="24" viewBox="0 0 24 24" fill="none" xmlns="http://www.w3.org/2000/svg">
<path d="M12.8367 5.52066L12.0973 5.42573C11.5425 5.3545 11.0588 5.80334 11.0885 6.36186C11.0947 6.48064 11.1246 6.59697 11.1764 6.70408L11.2537 6.86419C11.4801 7.33309 11.9005 7.67934 12.4041 7.81172L12.5543 7.85118C12.9022 7.94264 13.2707 7.9152 13.6013 7.77322L13.7808 7.69611C13.9137 7.63904 14.0299 7.54922 14.1187 7.43504C14.3831 7.0948 14.3532 6.61098 14.0489 6.3059L13.6787 5.93483C13.4517 5.70728 13.1555 5.56159 12.8367 5.52066Z" fill="url(#paint0_linear_1_3096)"/>
<path d="M4.5 8V21.75H9.75V10.527C9.75 10.3457 9.70074 10.1679 9.60749 10.0125L9.14251 9.23751C9.04926 9.0821 9 8.90426 9 8.72302V5.48062C9 5.17684 8.86191 4.88953 8.62469 4.69976L7.35172 3.68137C6.89376 3.31501 6.22029 3.41957 5.89497 3.90754L5.66795 4.24808C5.55844 4.41234 5.5 4.60535 5.5 4.80278V6.25C5.5 6.56476 5.35181 6.86115 5.1 7.05L4.9 7.2C4.64819 7.38885 4.5 7.68524 4.5 8Z" fill="url(#paint1_linear_1_3096)"/>
<path d="M15.75 13.7361V21.75H19.75V9.25C19.75 8.93524 19.6018 8.63885 19.35 8.45L18.35 7.7C17.6908 7.20557 16.75 7.67595 16.75 8.5V11.2639C16.75 11.4192 16.7139 11.5723 16.6444 11.7111L15.8556 13.2889C15.7861 13.4277 15.75 13.5808 15.75 13.7361Z" fill="url(#paint2_linear_1_3096)"/>
<path d="M11 7.13393V21.75H14.75V12.375C14.75 12.1679 14.9179 12 15.125 12C15.3321 12 15.5 11.8321 15.5 11.625V9.625C15.5 9.14175 15.1082 8.75 14.625 8.75C14.1418 8.75 13.75 8.35825 13.75 7.875V7.64706C13.75 6.87548 13.1245 6.25 12.3529 6.25H11.8839C11.3957 6.25 11 6.64575 11 7.13393Z" fill="url(#paint3_linear_1_3096)"/>
<path d="M17.3765 6.60325C17.6308 6.67284 17.8639 6.78586 18.1038 6.93228C18.243 6.93228 19.0817 7.38699 19.1878 7.51599C19.3388 7.69951 19.504 7.86195 19.6489 8.05857C19.8282 8.30175 19.9459 8.514 19.9929 8.87482C20.0245 9.11835 19.9436 9.22726 19.8906 9.43164C19.866 9.52663 19.7849 9.49492 19.7288 9.49492C19.5098 9.49492 19.2902 9.44818 19.0771 9.37469C18.8012 9.27955 18.5296 9.2509 18.2486 9.21018C18.0823 9.18607 17.8605 9.13105 17.7119 9.00928C17.5142 8.84725 17.3016 8.54377 17.1539 8.3C16.999 8.04433 16.7634 7.94366 16.5994 7.7C16.4171 7.4293 16.4864 6.69226 16.8004 6.53364C16.9121 6.47723 17.0416 6.50043 17.1539 6.53997C17.227 6.56567 17.3026 6.58303 17.3765 6.60325Z" fill="url(#paint4_linear_1_3096)"/>
<path d="M7.37649 7.60325C7.63082 7.67284 7.86389 7.78586 8.10379 7.93228C8.24304 7.93228 9.08169 8.38699 9.18783 8.51599C9.33882 8.69951 9.50395 8.86195 9.64892 9.05857C9.82821 9.30175 9.94595 9.514 9.99287 9.87482C10.0245 10.1184 9.94356 10.2273 9.89064 10.4316C9.86605 10.5266 9.7849 10.4949 9.72878 10.4949C9.50978 10.4949 9.29018 10.4482 9.07708 10.3747C8.80118 10.2795 8.5296 10.2509 8.24862 10.2102C8.08231 10.1861 7.8605 10.1311 7.71192 10.0093C7.51423 9.84725 7.30162 9.54377 7.15393 9.3C6.99904 9.04433 6.76339 8.94366 6.59937 8.7C6.41714 8.4293 6.48635 7.69226 6.8004 7.53364C6.91209 7.47723 7.04156 7.50043 7.15393 7.53997C7.22698 7.56567 7.30263 7.58303 7.37649 7.60325Z" fill="url(#paint5_linear_1_3096)"/>
<path d="M8.25 22H4.90451C4.6566 22 4.42997 21.8599 4.3191 21.6382C4.27366 21.5473 4.25 21.4471 4.25 21.3455V21.2098C4.25 20.6457 4.6339 20.154 5.18115 20.0172L5.25 20L5.96408 19.762C6.4673 19.5942 6.88327 19.2335 7.12048 18.759L7.43377 18.1325C7.63703 17.7259 7.98651 17.4113 8.41209 17.2517L9.1391 16.9791C9.49689 16.8449 9.89995 16.9749 10.1119 17.2929C10.202 17.4279 10.25 17.5866 10.25 17.7489V20C10.25 21.1046 9.35457 22 8.25 22Z" fill="url(#paint6_linear_1_3096)"/>
<path d="M5.38577 12.5629L4.57906 11.5949C4.52797 11.5336 4.5 11.4563 4.5 11.3765V11.0757C4.5 10.8283 4.17919 10.7312 4.04199 10.937C4.01461 10.9781 4 11.0263 4 11.0757V14.441C4 14.6442 4.04731 14.8446 4.1382 15.0264C4.35993 15.4699 4.8132 15.75 5.30902 15.75H6.06334C6.49735 15.75 6.90783 15.5527 7.17895 15.2138L7.32604 15.03C7.58449 14.7069 7.63151 14.263 7.44649 13.893C7.32068 13.6414 7.10007 13.45 6.83319 13.3611L6.28975 13.1799C5.93692 13.0623 5.62387 12.8486 5.38577 12.5629Z" fill="url(#paint7_linear_1_3096)"/>
<path d="M14.2736 7.90218L13.5392 7.64764C12.9863 7.45602 12.3949 7.81206 12.3055 8.39035C12.2865 8.5133 12.2921 8.6388 12.3221 8.75954L12.3668 8.93965C12.498 9.46829 12.8543 9.91289 13.3416 10.1562L13.4856 10.2281C13.8222 10.3962 14.2054 10.4469 14.5742 10.3721L14.7739 10.3316C14.9222 10.3015 15.0605 10.2343 15.1758 10.1363C15.5193 9.84438 15.5922 9.34264 15.3461 8.96502L15.0474 8.50688C14.8637 8.22506 14.5915 8.01234 14.2736 7.90218Z" fill="url(#paint8_linear_1_3096)"/>
<path d="M12.9844 13.9418L14.0913 13.4697C14.654 13.2296 15.2936 13.5764 15.3996 14.1789C15.4612 14.5296 15.3217 14.8852 15.038 15.1004L14.7194 15.342C14.6247 15.4138 14.5224 15.4748 14.4142 15.524L13.0385 16.15L12.9174 16.1959C12.4679 16.3663 11.9637 16.1549 11.7702 15.7148C11.6098 15.3498 11.7076 14.9229 12.0109 14.6641L12.521 14.2289C12.66 14.1103 12.8163 14.0135 12.9844 13.9418Z" fill="url(#paint9_linear_1_3096)"/>
<path d="M15.6999 17.7584L15.6342 17.7967C15.4106 17.9272 15.246 18.139 15.1749 18.388L15.131 18.5416C15.051 18.8214 15.1398 19.1223 15.3588 19.314C15.4959 19.4339 15.6718 19.5 15.8539 19.5H17.0695C17.2132 19.5 17.3565 19.4845 17.4969 19.4538L18.3073 19.2765C18.3869 19.2591 18.4607 19.2219 18.522 19.1683C18.7622 18.958 18.7359 18.5767 18.469 18.4015L17.9738 18.0765C17.8965 18.0258 17.812 17.9868 17.7232 17.9609L16.6351 17.6436C16.3208 17.5519 15.9827 17.5934 15.6999 17.7584Z" fill="url(#paint10_linear_1_3096)"/>
<path d="M18.6713 12.243L17.4539 12.6697L17.023 12.8207C16.7587 12.9133 16.6195 13.2027 16.7122 13.467C16.7334 13.5277 16.7661 13.5838 16.8083 13.6323L16.8701 13.7032C17.1382 14.0111 17.5669 14.1246 17.9522 13.9895L19.133 13.5757L19.9029 13.3058C20.272 13.1765 20.4085 12.7255 20.1732 12.4132C20.0712 12.2779 19.915 12.1942 19.7459 12.1842L19.2853 12.157C19.077 12.1447 18.8683 12.1739 18.6713 12.243Z" fill="url(#paint11_linear_1_3096)"/>
<defs>
<linearGradient id="paint0_linear_1_3096" x1="12.499" y1="5.49657" x2="12.5829" y2="7.805" gradientUnits="userSpaceOnUse">
<stop stop-color="#5EED87"/>
<stop offset="1" stop-color="#348452"/>
</linearGradient>
<linearGradient id="paint1_linear_1_3096" x1="12.125" y1="3" x2="12.125" y2="21.75" gradientUnits="userSpaceOnUse">
<stop stop-color="#FFF7BF"/>
<stop offset="1" stop-color="#AE8A50"/>
</linearGradient>
<linearGradient id="paint2_linear_1_3096" x1="12.125" y1="3" x2="12.125" y2="21.75" gradientUnits="userSpaceOnUse">
<stop stop-color="#FFF7BF"/>
<stop offset="1" stop-color="#AE8A50"/>
</linearGradient>
<linearGradient id="paint3_linear_1_3096" x1="13.25" y1="6.25" x2="13.25" y2="21.75" gradientUnits="userSpaceOnUse">
<stop stop-color="#FFF7BF"/>
<stop offset="1" stop-color="#AE8A50"/>
</linearGradient>
<linearGradient id="paint4_linear_1_3096" x1="18.2997" y1="6.5" x2="18.2997" y2="9.5" gradientUnits="userSpaceOnUse">
<stop stop-color="#5EED87"/>
<stop offset="1" stop-color="#348452"/>
</linearGradient>
<linearGradient id="paint5_linear_1_3096" x1="8.29968" y1="7.5" x2="8.29968" y2="10.5" gradientUnits="userSpaceOnUse">
<stop stop-color="#5EED87"/>
<stop offset="1" stop-color="#348452"/>
</linearGradient>
<linearGradient id="paint6_linear_1_3096" x1="6.55757" y1="17.0279" x2="8.4608" y2="21.5235" gradientUnits="userSpaceOnUse">
<stop stop-color="#5EED87"/>
<stop offset="1" stop-color="#348452"/>
</linearGradient>
<linearGradient id="paint7_linear_1_3096" x1="5.44223" y1="10.5412" x2="8.06338" y2="14.2348" gradientUnits="userSpaceOnUse">
<stop stop-color="#5EED87"/>
<stop offset="1" stop-color="#348452"/>
</linearGradient>
<linearGradient id="paint8_linear_1_3096" x1="13.934" y1="7.80563" x2="13.5266" y2="10.1874" gradientUnits="userSpaceOnUse">
<stop stop-color="#5EED87"/>
<stop offset="1" stop-color="#348452"/>
</linearGradient>
<linearGradient id="paint9_linear_1_3096" x1="13.0384" y1="13.1853" x2="14.3072" y2="16.1823" gradientUnits="userSpaceOnUse">
<stop stop-color="#5EED87"/>
<stop offset="1" stop-color="#348452"/>
</linearGradient>
<linearGradient id="paint10_linear_1_3096" x1="16.5384" y1="17.6059" x2="16.9999" y2="19.5138" gradientUnits="userSpaceOnUse">
<stop stop-color="#5EED87"/>
<stop offset="1" stop-color="#348452"/>
</linearGradient>
<linearGradient id="paint11_linear_1_3096" x1="17.9683" y1="12.5685" x2="18.6557" y2="13.7908" gradientUnits="userSpaceOnUse">
<stop stop-color="#5EED87"/>
<stop offset="1" stop-color="#348452"/>
</linearGradient>
</defs>
</svg>
