<svg width="36" height="36" viewBox="0 0 36 36" fill="none" xmlns="http://www.w3.org/2000/svg">
<rect width="36" height="36" rx="18" fill="white"/>
<path d="M12.86 12.38H10.66V26.58H12.86V12.38Z" fill="#57B9B1"/>
<path d="M25.34 12.38H23.14V26.58H25.34V12.38Z" fill="#57B9B1"/>
<path d="M13.4 12.58H27.32C27.7 12.58 28.01 12.82 28.01 13.12V26.04C28.01 26.34 27.7 26.58 27.32 26.58H8.69C8.31 26.58 8 26.34 8 26.04V13.13C8 12.83 8.31 12.59 8.69 12.59H10.02" stroke="#333333" stroke-width="1.5" stroke-linecap="round" stroke-linejoin="round"/>
<path d="M14.7 12.36V10.84C14.7 10.1 15.3 9.5 16.04 9.5H19.96C20.7 9.5 21.3 10.1 21.3 10.84V12.36" stroke="#333333" stroke-width="1.5" stroke-linecap="round" stroke-linejoin="round"/>
<path d="M16.8028 20.1133L14.5754 22.3407L16.7108 24.4762L18.9382 22.2488L16.8028 20.1133Z" fill="#57B9B1"/>
<path d="M19.1894 15.6334L14.9297 17.1746L15.7462 19.4314L20.006 17.8902L19.1894 15.6334Z" fill="#57B9B1"/>
<path d="M18.88 20.16L20.14 21.63C20.34 21.87 20.74 21.8 20.84 21.51L21.42 19.82C21.51 19.55 21.28 19.28 20.99 19.31L19.15 19.53C18.83 19.57 18.69 19.92 18.89 20.16H18.88Z" fill="#57B9B1"/>
</svg>
