<svg width="24" height="24" viewBox="0 0 24 24" fill="none" xmlns="http://www.w3.org/2000/svg">
<path d="M5 10C4.5 10 3.25 9.25 3 8.75H21C20.75 9.25 19.5 10 19 10H5Z" fill="#84261A"/>
<rect x="6" y="4" width="1" height="1.5" rx="0.5" fill="url(#paint0_linear_1_3084)"/>
<rect x="17" y="4" width="1" height="1.5" rx="0.5" fill="url(#paint1_linear_1_3084)"/>
<rect x="5" y="9.5" width="14" height="1" fill="url(#paint2_linear_1_3084)"/>
<rect x="5" y="9.5" width="14" height="1" fill="black" fill-opacity="0.3"/>
<path d="M17.3867 4.5C17.8696 4.5 18.2842 4.84525 18.371 5.32031L18.7206 7.23535L20.3671 8.10742C20.8202 8.34729 20.9754 8.9043 20.5087 9.11621C19.8751 9.40363 18.9249 9.49996 18.1103 9.5H5.88764C5.07305 9.49997 4.12285 9.40365 3.4892 9.11621C3.02257 8.90441 3.17704 8.34743 3.62983 8.10742L5.27729 7.23535L5.6269 5.32031C5.71372 4.84537 6.12752 4.50016 6.6103 4.5H17.3867Z" fill="url(#paint3_linear_1_3084)"/>
<rect x="2.5" y="15.5" width="19" height="1" fill="url(#paint4_linear_1_3084)"/>
<rect x="2.5" y="16.5" width="19" height="4" fill="url(#paint5_linear_1_3084)"/>
<rect x="3.5" y="17.5" width="5" height="1" fill="#DB1425"/>
<rect x="15.5" y="17.5" width="5" height="1" fill="#DB1425"/>
<rect x="11" y="16.5" width="2" height="2" fill="url(#paint6_linear_1_3084)"/>
<path d="M10.5 20C10.5 19.1716 11.1716 18.5 12 18.5C12.8284 18.5 13.5 19.1716 13.5 20V20.5H10.5V20Z" fill="#5B1E16"/>
<path d="M19 10.5C19 10.5 19.6677 11.1676 21.2119 11.4531C21.3764 11.4838 21.5 11.6246 21.5 11.792C21.5 11.9195 21.4284 12.0358 21.3125 12.0889C20.9987 12.2326 20.3656 12.5 20 12.5H4C3.63438 12.5 3.00133 12.2326 2.6875 12.0889C2.57163 12.0358 2.50001 11.9195 2.5 11.792C2.5 11.6246 2.62358 11.4838 2.78809 11.4531C4.33235 11.1676 5 10.5 5 10.5H19Z" fill="url(#paint7_linear_1_3084)"/>
<rect x="4" y="12.5" width="16" height="3" fill="#DB1425"/>
<path d="M4.5 15C4.5 14.4477 4.94772 14 5.5 14H6C6.55228 14 7 14.4477 7 15V15.5H4.5V15Z" fill="url(#paint8_linear_1_3084)"/>
<path d="M7.5 15C7.5 14.4477 7.94772 14 8.5 14H9C9.55228 14 10 14.4477 10 15V15.5H7.5V15Z" fill="url(#paint9_linear_1_3084)"/>
<path d="M10.5 15C10.5 14.4477 10.9477 14 11.5 14H12.5C13.0523 14 13.5 14.4477 13.5 15V15.5H10.5V15Z" fill="url(#paint10_linear_1_3084)"/>
<path d="M14 15C14 14.4477 14.4477 14 15 14H15.5C16.0523 14 16.5 14.4477 16.5 15V15.5H14V15Z" fill="url(#paint11_linear_1_3084)"/>
<path d="M17 15C17 14.4477 17.4477 14 18 14H18.5C19.0523 14 19.5 14.4477 19.5 15V15.5H17V15Z" fill="url(#paint12_linear_1_3084)"/>
<path d="M4 12.5H20V13.5H4V12.5Z" fill="url(#paint13_linear_1_3084)"/>
<path d="M4 12.5H20V13.5H4V12.5Z" fill="black" fill-opacity="0.3"/>
<defs>
<linearGradient id="paint0_linear_1_3084" x1="6.45" y1="4" x2="6.45" y2="5.5" gradientUnits="userSpaceOnUse">
<stop stop-color="#FFD06A"/>
<stop offset="1" stop-color="#F9A640"/>
</linearGradient>
<linearGradient id="paint1_linear_1_3084" x1="17.45" y1="4" x2="17.45" y2="5.5" gradientUnits="userSpaceOnUse">
<stop stop-color="#FFD06A"/>
<stop offset="1" stop-color="#F9A640"/>
</linearGradient>
<linearGradient id="paint2_linear_1_3084" x1="11.5" y1="10.5" x2="11.5" y2="9.5" gradientUnits="userSpaceOnUse">
<stop stop-color="#65DBD4"/>
<stop offset="1" stop-color="#11918A"/>
</linearGradient>
<linearGradient id="paint3_linear_1_3084" x1="11.1195" y1="4.5" x2="11.1195" y2="9.5" gradientUnits="userSpaceOnUse">
<stop stop-color="#FFD06A"/>
<stop offset="1" stop-color="#F9A640"/>
</linearGradient>
<linearGradient id="paint4_linear_1_3084" x1="12" y1="16.3333" x2="12" y2="15.5" gradientUnits="userSpaceOnUse">
<stop stop-color="#F9AE40"/>
<stop offset="1" stop-color="#FFD08B"/>
</linearGradient>
<linearGradient id="paint5_linear_1_3084" x1="12" y1="16.5" x2="12" y2="20.5" gradientUnits="userSpaceOnUse">
<stop stop-color="#981521"/>
<stop offset="1" stop-color="#AE1623"/>
</linearGradient>
<linearGradient id="paint6_linear_1_3084" x1="11.9" y1="16.5" x2="11.9" y2="18.5" gradientUnits="userSpaceOnUse">
<stop stop-color="#F99E6A"/>
<stop offset="1" stop-color="#F76844"/>
</linearGradient>
<linearGradient id="paint7_linear_1_3084" x1="11.05" y1="10.5" x2="11.05" y2="12.5" gradientUnits="userSpaceOnUse">
<stop stop-color="#FFD06A"/>
<stop offset="1" stop-color="#F9A640"/>
</linearGradient>
<linearGradient id="paint8_linear_1_3084" x1="5.75" y1="14" x2="5.75" y2="15.5" gradientUnits="userSpaceOnUse">
<stop stop-color="#981521"/>
<stop offset="1" stop-color="#AE1623"/>
</linearGradient>
<linearGradient id="paint9_linear_1_3084" x1="8.75" y1="14" x2="8.75" y2="15.5" gradientUnits="userSpaceOnUse">
<stop stop-color="#981521"/>
<stop offset="1" stop-color="#AE1623"/>
</linearGradient>
<linearGradient id="paint10_linear_1_3084" x1="12" y1="14" x2="12" y2="15.5" gradientUnits="userSpaceOnUse">
<stop stop-color="#981521"/>
<stop offset="1" stop-color="#AE1623"/>
</linearGradient>
<linearGradient id="paint11_linear_1_3084" x1="15.25" y1="14" x2="15.25" y2="15.5" gradientUnits="userSpaceOnUse">
<stop stop-color="#981521"/>
<stop offset="1" stop-color="#AE1623"/>
</linearGradient>
<linearGradient id="paint12_linear_1_3084" x1="18.25" y1="14" x2="18.25" y2="15.5" gradientUnits="userSpaceOnUse">
<stop stop-color="#981521"/>
<stop offset="1" stop-color="#AE1623"/>
</linearGradient>
<linearGradient id="paint13_linear_1_3084" x1="11.4286" y1="13.5" x2="11.4286" y2="12.5" gradientUnits="userSpaceOnUse">
<stop stop-color="#65DBD4"/>
<stop offset="1" stop-color="#11918A"/>
</linearGradient>
</defs>
</svg>
