<svg width="36" height="36" viewBox="0 0 36 36" fill="none" xmlns="http://www.w3.org/2000/svg">
<rect width="36" height="36" rx="18" fill="white"/>
<path d="M23.13 13.85H19.71V17.62H25.24L23.13 13.85Z" fill="#57B9B1"/>
<path d="M15.59 13.85H19.02V17.62H13.49L15.59 13.85Z" fill="#57B9B1"/>
<path d="M15.91 12.01C15.14 12.01 14.43 12.42 14.05 13.09L11.2 17.01H7.73C7.19 17.01 6.75 17.45 6.75 17.99V22.03C6.75 22.57 7.19 23.01 7.73 23.01H9.68001" stroke="#333333" stroke-width="1.5" stroke-linecap="round" stroke-linejoin="round"/>
<path d="M26.39 23H28.26C28.8 23 29.24 22.56 29.24 22.02V19C29.24 18.46 28.8 18.02 28.26 18.02H27.64L24.79 13.08C24.41 12.41 23.69 12 22.93 12H18.67" stroke="#333333" stroke-width="1.5" stroke-linecap="round" stroke-linejoin="round"/>
<path d="M9.95 19.68C9.95 19.29 9.64 18.98 9.25 18.98C8.86 18.98 8.55 19.29 8.55 19.68C8.55 20.07 8.86 20.38 9.25 20.38C9.64 20.38 9.95 20.07 9.95 19.68Z" fill="#57B9B1"/>
<path d="M16.36 23H19.53" stroke="#333333" stroke-width="1.5" stroke-linecap="round" stroke-linejoin="round"/>
<path d="M12.9 24.28C13.6069 24.28 14.18 23.7069 14.18 23C14.18 22.293 13.6069 21.72 12.9 21.72C12.1931 21.72 11.62 22.293 11.62 23C11.62 23.7069 12.1931 24.28 12.9 24.28Z" stroke="#333333" stroke-width="1.5" stroke-miterlimit="10"/>
<path d="M23.04 24.28C23.7469 24.28 24.32 23.7069 24.32 23C24.32 22.293 23.7469 21.72 23.04 21.72C22.3331 21.72 21.76 22.293 21.76 23C21.76 23.7069 22.3331 24.28 23.04 24.28Z" stroke="#333333" stroke-width="1.5" stroke-miterlimit="10"/>
</svg>
