<svg width="60" height="60" viewBox="0 0 60 60" fill="none" xmlns="http://www.w3.org/2000/svg">
<rect width="60" height="60" rx="30" fill="#E4E7EA"/>
<path d="M30 30C31.4587 30 32.8576 29.4205 33.8891 28.3891C34.9205 27.3576 35.5 25.9587 35.5 24.5C35.5 23.0413 34.9205 21.6424 33.8891 20.6109C32.8576 19.5795 31.4587 19 30 19C28.5413 19 27.1424 19.5795 26.1109 20.6109C25.0795 21.6424 24.5 23.0413 24.5 24.5C24.5 25.9587 25.0795 27.3576 26.1109 28.3891C27.1424 29.4205 28.5413 30 30 30ZM33.6667 24.5C33.6667 25.4725 33.2804 26.4051 32.5927 27.0927C31.9051 27.7804 30.9725 28.1667 30 28.1667C29.0275 28.1667 28.0949 27.7804 27.4073 27.0927C26.7196 26.4051 26.3333 25.4725 26.3333 24.5C26.3333 23.5275 26.7196 22.5949 27.4073 21.9073C28.0949 21.2196 29.0275 20.8333 30 20.8333C30.9725 20.8333 31.9051 21.2196 32.5927 21.9073C33.2804 22.5949 33.6667 23.5275 33.6667 24.5ZM41 39.1667C41 41 39.1667 41 39.1667 41H20.8333C20.8333 41 19 41 19 39.1667C19 37.3333 20.8333 31.8333 30 31.8333C39.1667 31.8333 41 37.3333 41 39.1667ZM39.1667 39.1593C39.1648 38.7083 38.8843 37.3517 37.6413 36.1087C36.446 34.9133 34.1965 33.6667 30 33.6667C25.8035 33.6667 23.554 34.9133 22.3587 36.1087C21.1157 37.3517 20.837 38.7083 20.8333 39.1593H39.1667Z" fill="white"/>
</svg>
