<svg width="30" height="30" viewBox="0 0 30 30" fill="none" xmlns="http://www.w3.org/2000/svg">
<mask id="mask0_2054_19283" style="mask-type:alpha" maskUnits="userSpaceOnUse" x="0" y="0" width="30" height="30">
<rect width="30" height="30" fill="#D9D9D9"/>
</mask>
<g mask="url(#mask0_2054_19283)">
<path d="M19.7076 27.4731C18.2574 27.4947 16.8334 27.0935 15.6158 26.3202C14.3981 25.5469 13.4415 24.4361 12.8669 23.1285C12.2923 21.8209 12.1255 20.375 12.3876 18.9738C12.6497 17.5727 13.3289 16.279 14.3393 15.2566C15.3498 14.2341 16.6461 13.5288 18.0643 13.2297C19.4825 12.9306 20.959 13.0512 22.3069 13.5763C23.6549 14.1014 24.8139 15.0073 25.6372 16.1796C26.4606 17.3519 26.9114 18.7378 26.9327 20.1621C26.9612 22.0721 26.216 23.9154 24.861 25.2865C23.506 26.6575 21.6523 27.4441 19.7076 27.4731Z" fill="#57B9B1"/>
<path d="M21.0978 22.9504L18.6891 20.6543L18.6299 16.6844L20.463 16.6571L20.5112 19.8888L22.3712 21.6618L21.0978 22.9504Z" fill="#333333"/>
<path d="M25.8013 5.77266C25.7941 5.29516 25.5942 4.84011 25.2454 4.5076C24.8965 4.17508 24.4275 3.99236 23.9413 3.99961L20.275 4.0543L20.2482 2.2539L18.415 2.28125L18.4419 4.08164L11.1094 4.19102L11.0825 2.39062L9.24939 2.41797L9.27624 4.21836L5.60999 4.27305C5.12381 4.2803 4.66037 4.47694 4.32163 4.81971C3.98289 5.16248 3.79659 5.6233 3.80371 6.10079L4.07227 24.1047C4.07939 24.5822 4.27936 25.0373 4.62817 25.3698C4.97699 25.7023 5.44608 25.885 5.93226 25.8778L9.59852 25.8231L9.57166 24.0227L5.9054 24.0774L5.63684 6.07345L9.3031 6.01876L9.32996 7.81915L11.1631 7.79181L11.1362 5.99141L18.4687 5.88203L18.4956 7.68243L20.3287 7.65509L20.3019 5.85469L23.9681 5.8L24.0487 11.2012L25.8818 11.1738L25.8013 5.77266Z" fill="#333333"/>
</g>
</svg>
