<svg width="24" height="24" viewBox="0 0 24 24" fill="none" xmlns="http://www.w3.org/2000/svg">
<path d="M3 9H21V17C21 18.1046 20.1046 19 19 19H5C3.89543 19 3 18.1046 3 17V9Z" fill="url(#paint0_linear_1_3093)"/>
<path d="M3 14.9167L9.72394 12.5225C12.4412 11.555 15.444 11.8079 17.9611 13.2163L21 14.9167V17H3V14.9167Z" fill="url(#paint1_linear_1_3093)"/>
<path d="M3 15.5L11.7293 13.5161C13.2123 13.179 14.7607 13.2717 16.193 13.7832L21 15.5V17C21 18.1046 20.1046 19 19 19H5C3.89543 19 3 18.1046 3 17V15.5Z" fill="url(#paint2_linear_1_3093)"/>
<rect x="3" y="4.5" width="18" height="0.5" rx="0.25" fill="url(#paint3_linear_1_3093)"/>
<path d="M9 4.75C9 4.33579 9.33579 4 9.75 4H14.25C14.6642 4 15 4.33579 15 4.75C15 5.16421 14.6642 5.5 14.25 5.5H9.75C9.33579 5.5 9 5.16421 9 4.75Z" fill="url(#paint4_linear_1_3093)"/>
<path d="M16 8.5H15L12.75 6H11.25L9 8.5H8L10.5 5.5L11.4004 3.5H12.5996L13.5 5.5L16 8.5Z" fill="url(#paint5_linear_1_3093)"/>
<path d="M3 10.5H5C5.55228 10.5 6 10.9477 6 11.5V14.5C6 15.0523 5.55228 15.5 5 15.5H3V10.5Z" fill="url(#paint6_linear_1_3093)"/>
<rect x="13" y="10.5" width="4" height="5" rx="1" fill="url(#paint7_linear_1_3093)"/>
<path d="M18 11.5C18 10.9477 18.4477 10.5 19 10.5H21V15.5H19C18.4477 15.5 18 15.0523 18 14.5V11.5Z" fill="url(#paint8_linear_1_3093)"/>
<rect x="7" y="10.5" width="4" height="5" rx="1" fill="url(#paint9_linear_1_3093)"/>
<g style="mix-blend-mode:multiply">
<rect x="12" y="9" width="1" height="10" fill="url(#paint10_linear_1_3093)" fill-opacity="0.2"/>
</g>
<path d="M3 9.5C3 8.94772 3.44772 8.5 4 8.5H20C20.5523 8.5 21 8.94772 21 9.5H3Z" fill="url(#paint11_linear_1_3093)"/>
<defs>
<linearGradient id="paint0_linear_1_3093" x1="12" y1="9" x2="12" y2="11.25" gradientUnits="userSpaceOnUse">
<stop stop-color="#EBD2CB"/>
<stop offset="1" stop-color="#FFEDE4"/>
</linearGradient>
<linearGradient id="paint1_linear_1_3093" x1="11.1" y1="11" x2="11.1" y2="19" gradientUnits="userSpaceOnUse">
<stop stop-color="#FFD06A"/>
<stop offset="1" stop-color="#F9A640"/>
</linearGradient>
<linearGradient id="paint2_linear_1_3093" x1="12" y1="10.75" x2="12" y2="19" gradientUnits="userSpaceOnUse">
<stop stop-color="#981521"/>
<stop offset="1" stop-color="#AE1623"/>
</linearGradient>
<linearGradient id="paint3_linear_1_3093" x1="12" y1="4.48484" x2="11.9988" y2="5.01885" gradientUnits="userSpaceOnUse">
<stop stop-color="#3E454D"/>
<stop offset="1" stop-color="#3D3E3F"/>
</linearGradient>
<linearGradient id="paint4_linear_1_3093" x1="12" y1="3.95451" x2="11.9666" y2="5.55585" gradientUnits="userSpaceOnUse">
<stop stop-color="#3E454D"/>
<stop offset="1" stop-color="#3D3E3F"/>
</linearGradient>
<linearGradient id="paint5_linear_1_3093" x1="12" y1="4" x2="12" y2="8.5" gradientUnits="userSpaceOnUse">
<stop stop-color="#E7F1F9"/>
<stop offset="1" stop-color="#C6D1DF"/>
</linearGradient>
<linearGradient id="paint6_linear_1_3093" x1="4.39286" y1="15.5" x2="4.39293" y2="10.5" gradientUnits="userSpaceOnUse">
<stop stop-color="#65DBD4"/>
<stop offset="1" stop-color="#11918A"/>
</linearGradient>
<linearGradient id="paint7_linear_1_3093" x1="14.8571" y1="15.5" x2="14.8572" y2="10.5" gradientUnits="userSpaceOnUse">
<stop stop-color="#65DBD4"/>
<stop offset="1" stop-color="#11918A"/>
</linearGradient>
<linearGradient id="paint8_linear_1_3093" x1="19.3929" y1="15.5" x2="19.3929" y2="10.5" gradientUnits="userSpaceOnUse">
<stop stop-color="#65DBD4"/>
<stop offset="1" stop-color="#11918A"/>
</linearGradient>
<linearGradient id="paint9_linear_1_3093" x1="8.85714" y1="15.5" x2="8.8572" y2="10.5" gradientUnits="userSpaceOnUse">
<stop stop-color="#65DBD4"/>
<stop offset="1" stop-color="#11918A"/>
</linearGradient>
<linearGradient id="paint10_linear_1_3093" x1="13" y1="14.25" x2="12" y2="14.25" gradientUnits="userSpaceOnUse">
<stop stop-color="#D9D9D9" stop-opacity="0"/>
<stop offset="1" stop-color="#737373"/>
</linearGradient>
<linearGradient id="paint11_linear_1_3093" x1="12" y1="8.5" x2="12" y2="9.5" gradientUnits="userSpaceOnUse">
<stop stop-color="#EBD2CB"/>
<stop offset="1" stop-color="#FFEDE4"/>
</linearGradient>
</defs>
</svg>
