<svg width="36" height="36" viewBox="0 0 36 36" fill="none" xmlns="http://www.w3.org/2000/svg">
<rect width="36" height="36" rx="18" fill="white"/>
<g clip-path="url(#clip0_2054_17517)">
<path d="M29 12.49H18.89L19.85 10.11H28.04L29 12.49Z" fill="#57B9B1"/>
<path d="M9.35001 26.61V27.8C9.35001 28.2 9.02 28.53 8.62 28.53C8.22 28.53 7.89 28.2 7.89 27.8V26.61" stroke="#333333" stroke-width="1.5" stroke-linecap="round" stroke-linejoin="round"/>
<path d="M19.87 26.61V27.8C19.87 28.2 19.54 28.53 19.14 28.53C18.74 28.53 18.41 28.2 18.41 27.8V26.61" stroke="#333333" stroke-width="1.5" stroke-linecap="round" stroke-linejoin="round"/>
<path d="M13.02 15.71H17.59C18.56 15.71 19.35 16.5 19.35 17.47V19.85" stroke="#333333" stroke-width="1.5" stroke-linecap="round" stroke-linejoin="round"/>
<path d="M8.39999 19.85V17.47C8.39999 16.5 9.19 15.71 10.16 15.71" stroke="#333333" stroke-width="1.5" stroke-linecap="round" stroke-linejoin="round"/>
<path d="M19.37 26.3799H8.39C7.62 26.3799 7 25.7599 7 24.9899V21.4599C7 20.6899 7.62 20.0699 8.39 20.0699C9.16 20.0699 9.78001 20.6899 9.78001 21.4599V23.5999H17.98V21.4599C17.98 20.6899 18.6 20.0699 19.37 20.0699C20.14 20.0699 20.76 20.6899 20.76 21.4599V24.9899C20.76 25.7599 20.14 26.3799 19.37 26.3799Z" stroke="#333333" stroke-width="1.5" stroke-linecap="round" stroke-linejoin="round"/>
<path d="M14.85 19.1C14.99 19.1 15.12 19.05 15.23 18.94L15.89 18.28C16.1 18.07 16.1 17.73 15.89 17.52C15.68 17.31 15.34 17.31 15.13 17.52L14.47 18.18C14.26 18.39 14.26 18.73 14.47 18.94C14.57 19.04 14.71 19.1 14.85 19.1Z" fill="#57B9B1"/>
<path d="M12.49 20.1601L11.83 20.8201C11.62 21.0301 11.62 21.3701 11.83 21.5801C11.93 21.6801 12.07 21.7401 12.21 21.7401C12.35 21.7401 12.48 21.6901 12.59 21.5801L13.25 20.9201C13.46 20.7101 13.46 20.3701 13.25 20.1601C13.04 19.9501 12.7 19.9501 12.49 20.1601Z" fill="#57B9B1"/>
<path d="M12.59 17.52C12.38 17.31 12.04 17.31 11.83 17.52C11.62 17.73 11.62 18.07 11.83 18.28L12.49 18.94C12.59 19.04 12.73 19.1 12.87 19.1C13.01 19.1 13.14 19.05 13.25 18.94C13.46 18.73 13.46 18.39 13.25 18.18L12.59 17.52Z" fill="#57B9B1"/>
<path d="M15.23 20.1601C15.02 19.9501 14.68 19.9501 14.47 20.1601C14.26 20.3701 14.26 20.7101 14.47 20.9201L15.13 21.5801C15.23 21.6801 15.37 21.7401 15.51 21.7401C15.65 21.7401 15.78 21.6901 15.89 21.5801C16.1 21.3701 16.1 21.0301 15.89 20.8201L15.23 20.1601Z" fill="#57B9B1"/>
<path d="M29 13.04H18.67L20.81 7H26.85L29 13.04Z" stroke="#333333" stroke-width="1.5" stroke-linecap="round" stroke-linejoin="round"/>
<path d="M23.83 13.61V28.52" stroke="#333333" stroke-width="1.5" stroke-linecap="round" stroke-linejoin="round"/>
<path d="M22.37 28.52H25.3" stroke="#333333" stroke-width="1.5" stroke-linecap="round" stroke-linejoin="round"/>
</g>
<defs>
<clipPath id="clip0_2054_17517">
<rect width="24" height="24" fill="white" transform="translate(6 6)"/>
</clipPath>
</defs>
</svg>
