<svg width="30" height="30" viewBox="0 0 30 30" fill="none" xmlns="http://www.w3.org/2000/svg">
<g clip-path="url(#clip0_2054_19297)">
<path d="M10.0172 20.4319C9.8406 20.4319 9.66399 20.3951 9.5 20.3214C9.47477 20.3214 9.44954 20.2969 9.43693 20.2846C3.44496 17.3136 1.84289 13.692 1.41399 11.8014C0.770646 8.90403 2.0195 6.17858 4.37844 5.33148C5.93005 4.77903 7.48166 4.91407 8.88188 5.74889C9.3234 6.01898 9.70184 6.31363 10.0046 6.59599C10.3073 6.31363 10.6858 6.01898 11.1273 5.74889C12.5275 4.91407 14.0791 4.76675 15.6307 5.33148C16.7787 5.74889 17.7122 6.62055 18.2546 7.79912L16.1858 8.69532C15.8956 8.06921 15.4289 7.60269 14.8486 7.39398C13.953 7.07479 13.1204 7.14845 12.3131 7.62724C11.695 7.99555 11.2408 8.51117 10.9759 8.81809L10.8624 8.95314C10.6479 9.1864 10.3326 9.32144 10.0172 9.32144C9.68922 9.32144 9.38647 9.1864 9.17202 8.95314L9.04588 8.81809C8.78097 8.51117 8.32684 7.99555 7.70872 7.62724C6.90138 7.14845 6.08143 7.07479 5.17317 7.39398C3.88647 7.8605 3.24312 9.50559 3.64679 11.3103C3.98739 12.8326 5.32454 15.7545 10.5344 18.3203C10.9128 18.5045 11.1525 18.8851 11.1525 19.3025C11.1525 19.9163 10.6479 20.4074 10.0172 20.4074V20.4319Z" fill="#333333"/>
<path d="M28.7374 15.067C28.6112 12.9186 27.4128 11.1753 25.6089 10.5246C23.6032 9.80025 21.711 10.2299 19.9828 11.8014C19.4782 11.3349 18.7718 10.8069 17.8888 10.4878C16.7408 10.0703 15.555 10.0826 14.344 10.5246C11.9725 11.3717 10.3326 14.4286 11.7076 18.0748C12.4644 20.0882 14.4323 23.0223 19.5413 25.5268C19.68 25.5882 19.8314 25.6128 19.9702 25.6128C20.1594 25.6128 20.336 25.5636 20.5 25.49C25.8739 22.8382 28.9518 18.9465 28.7248 15.067H28.7374Z" fill="#57B9B1"/>
</g>
<defs>
<clipPath id="clip0_2054_19297">
<rect width="27.5" height="20.625" fill="white" transform="translate(1.25 5)"/>
</clipPath>
</defs>
</svg>
