<svg width="24" height="24" viewBox="0 0 24 24" fill="none" xmlns="http://www.w3.org/2000/svg">
<path d="M6.5 19.5H16.5V22H6.5V19.5Z" fill="url(#paint0_linear_1_3087)"/>
<path d="M6.5 19.5H16.5V22H6.5V19.5Z" fill="black" fill-opacity="0.3"/>
<path d="M3 10.5H21V12H3V10.5Z" fill="url(#paint1_linear_1_3087)"/>
<rect x="5" y="12" width="15.5" height="1.5" fill="url(#paint2_linear_1_3087)"/>
<path d="M9 7H18.5V8.5H9V7Z" fill="url(#paint3_linear_1_3087)"/>
<path d="M7 5H14.5V6.5H7V5Z" fill="url(#paint4_linear_1_3087)"/>
<path d="M10.5 5L10.5 3L11.5 3L11.5 5L10.5 5Z" fill="url(#paint5_linear_1_3087)"/>
<path d="M11.5 5L11.5 2L12.5 2L12.5 5L11.5 5Z" fill="url(#paint6_linear_1_3087)"/>
<path d="M12.5 5L12.5 3.5L13.5 3.5L13.5 5L12.5 5Z" fill="url(#paint7_linear_1_3087)"/>
<path d="M7.5 13.5H18.5V15H7.5V13.5Z" fill="url(#paint8_linear_1_3087)"/>
<rect x="6" y="15" width="11" height="2" fill="url(#paint9_linear_1_3087)"/>
<path d="M9 17H15.5V18.5H9V17Z" fill="url(#paint10_linear_1_3087)"/>
<path d="M8 18.5H14.5V19.5H8V18.5Z" fill="url(#paint11_linear_1_3087)"/>
<rect x="6" y="16.5" width="11" height="0.5" fill="url(#paint12_linear_1_3087)"/>
<rect x="7.5" y="14.5" width="11" height="0.5" fill="url(#paint13_linear_1_3087)"/>
<rect x="9" y="8.5" width="9" height="1" fill="url(#paint14_linear_1_3087)"/>
<path d="M14 9.5H17V10.5H14V9.5Z" fill="url(#paint15_linear_1_3087)"/>
<rect x="7" y="6.5" width="7.5" height="0.5" fill="url(#paint16_linear_1_3087)"/>
<rect x="9" y="18" width="6.5" height="0.5" fill="url(#paint17_linear_1_3087)"/>
<path d="M4.5 9H14V10.5H4.5V9Z" fill="url(#paint18_linear_1_3087)"/>
<defs>
<linearGradient id="paint0_linear_1_3087" x1="11.1429" y1="22" x2="11.1429" y2="19.5" gradientUnits="userSpaceOnUse">
<stop stop-color="#65DBD4"/>
<stop offset="1" stop-color="#11918A"/>
</linearGradient>
<linearGradient id="paint1_linear_1_3087" x1="3" y1="11.25" x2="21" y2="11.25" gradientUnits="userSpaceOnUse">
<stop stop-color="#D90500"/>
<stop offset="0.788793" stop-color="#FE552B"/>
<stop offset="1" stop-color="#E60600"/>
</linearGradient>
<linearGradient id="paint2_linear_1_3087" x1="5" y1="12.75" x2="20.5" y2="12.75" gradientUnits="userSpaceOnUse">
<stop stop-color="#3A0201"/>
<stop offset="1" stop-color="#EB0C02"/>
</linearGradient>
<linearGradient id="paint3_linear_1_3087" x1="9" y1="7.75" x2="18.5" y2="7.75" gradientUnits="userSpaceOnUse">
<stop stop-color="#D90500"/>
<stop offset="0.788793" stop-color="#FE552B"/>
<stop offset="1" stop-color="#E60600"/>
</linearGradient>
<linearGradient id="paint4_linear_1_3087" x1="7" y1="5.75" x2="14.5" y2="5.75" gradientUnits="userSpaceOnUse">
<stop stop-color="#D90500"/>
<stop offset="0.788793" stop-color="#FE552B"/>
<stop offset="1" stop-color="#E60600"/>
</linearGradient>
<linearGradient id="paint5_linear_1_3087" x1="11" y1="5" x2="11" y2="3" gradientUnits="userSpaceOnUse">
<stop stop-color="#D90500"/>
<stop offset="0.788793" stop-color="#FE552B"/>
<stop offset="1" stop-color="#E60600"/>
</linearGradient>
<linearGradient id="paint6_linear_1_3087" x1="12" y1="5" x2="12" y2="2" gradientUnits="userSpaceOnUse">
<stop stop-color="#D90500"/>
<stop offset="0.788793" stop-color="#FE552B"/>
<stop offset="1" stop-color="#E60600"/>
</linearGradient>
<linearGradient id="paint7_linear_1_3087" x1="13" y1="5" x2="13" y2="3.5" gradientUnits="userSpaceOnUse">
<stop stop-color="#D90500"/>
<stop offset="0.788793" stop-color="#FE552B"/>
<stop offset="1" stop-color="#E60600"/>
</linearGradient>
<linearGradient id="paint8_linear_1_3087" x1="7.5" y1="14.25" x2="18.5" y2="14.25" gradientUnits="userSpaceOnUse">
<stop stop-color="#D90500"/>
<stop offset="0.788793" stop-color="#FE552B"/>
<stop offset="1" stop-color="#E60600"/>
</linearGradient>
<linearGradient id="paint9_linear_1_3087" x1="6" y1="16" x2="17" y2="16" gradientUnits="userSpaceOnUse">
<stop stop-color="#D90500"/>
<stop offset="0.788793" stop-color="#FE552B"/>
<stop offset="1" stop-color="#E60600"/>
</linearGradient>
<linearGradient id="paint10_linear_1_3087" x1="9" y1="17.75" x2="15.5" y2="17.75" gradientUnits="userSpaceOnUse">
<stop stop-color="#D90500"/>
<stop offset="0.788793" stop-color="#FE552B"/>
<stop offset="1" stop-color="#E60600"/>
</linearGradient>
<linearGradient id="paint11_linear_1_3087" x1="8" y1="19" x2="14.5" y2="19" gradientUnits="userSpaceOnUse">
<stop stop-color="#D90500"/>
<stop offset="0.788793" stop-color="#FE552B"/>
<stop offset="1" stop-color="#E60600"/>
</linearGradient>
<linearGradient id="paint12_linear_1_3087" x1="6" y1="16.75" x2="17" y2="16.75" gradientUnits="userSpaceOnUse">
<stop stop-color="#3A0201"/>
<stop offset="1" stop-color="#EB0C02"/>
</linearGradient>
<linearGradient id="paint13_linear_1_3087" x1="7.5" y1="14.75" x2="18.5" y2="14.75" gradientUnits="userSpaceOnUse">
<stop stop-color="#3A0201"/>
<stop offset="1" stop-color="#EB0C02"/>
</linearGradient>
<linearGradient id="paint14_linear_1_3087" x1="9" y1="9" x2="18" y2="9" gradientUnits="userSpaceOnUse">
<stop stop-color="#3A0201"/>
<stop offset="1" stop-color="#EB0C02"/>
</linearGradient>
<linearGradient id="paint15_linear_1_3087" x1="14" y1="10" x2="17" y2="10" gradientUnits="userSpaceOnUse">
<stop stop-color="#3A0201"/>
<stop offset="1" stop-color="#EB0C02"/>
</linearGradient>
<linearGradient id="paint16_linear_1_3087" x1="7" y1="6.75" x2="14.5" y2="6.75" gradientUnits="userSpaceOnUse">
<stop stop-color="#3A0201"/>
<stop offset="1" stop-color="#EB0C02"/>
</linearGradient>
<linearGradient id="paint17_linear_1_3087" x1="9" y1="18.25" x2="15.5" y2="18.25" gradientUnits="userSpaceOnUse">
<stop stop-color="#3A0201"/>
<stop offset="1" stop-color="#EB0C02"/>
</linearGradient>
<linearGradient id="paint18_linear_1_3087" x1="4.5" y1="9.75" x2="14" y2="9.75" gradientUnits="userSpaceOnUse">
<stop stop-color="#D90500"/>
<stop offset="0.788793" stop-color="#FE552B"/>
<stop offset="1" stop-color="#E60600"/>
</linearGradient>
</defs>
</svg>
