<svg width="20" height="20" viewBox="0 0 20 20" fill="none" xmlns="http://www.w3.org/2000/svg">
<mask id="mask0_2802_18763" style="mask-type:alpha" maskUnits="userSpaceOnUse" x="0" y="0" width="20" height="20">
<rect width="20" height="20" fill="#D9D9D9"/>
</mask>
<g mask="url(#mask0_2802_18763)">
<path d="M10.4147 11.0628L13.9093 7.6804C14.0281 7.56553 14.1775 7.50671 14.3573 7.50394C14.5371 7.50131 14.6892 7.56013 14.8136 7.6804C14.9378 7.80081 15 7.94668 15 8.11802C15 8.28936 14.9378 8.43523 14.8136 8.55564L10.9575 12.2876C10.8772 12.3653 10.7925 12.4201 10.7034 12.452C10.6143 12.484 10.518 12.5 10.4147 12.5C10.3113 12.5 10.215 12.484 10.1259 12.452C10.0368 12.4201 9.95212 12.3653 9.87176 12.2876L6.01572 8.55564C5.89703 8.44063 5.83626 8.29607 5.8334 8.12196C5.83068 7.948 5.89146 7.80081 6.01572 7.6804C6.14013 7.56013 6.29085 7.5 6.46789 7.5C6.64492 7.5 6.79564 7.56013 6.92005 7.6804L10.4147 11.0628Z" fill="#6D6F73"/>
</g>
</svg>
