<svg width="40" height="40" viewBox="0 0 40 40" fill="none" xmlns="http://www.w3.org/2000/svg">
<g filter="url(#filter1_f_178_878)">
<path d="M19.991 28C19.7881 28 19.5843 27.9629 19.3797 27.8886C19.1751 27.8142 18.995 27.6978 18.8395 27.5394L17.4786 26.2777C15.7989 24.7157 14.2992 23.1812 12.9795 21.6742C11.6598 20.1672 11 18.5529 11 16.8311C11 15.4598 11.4533 14.3118 12.3599 13.387C13.2667 12.4623 14.3924 12 15.7368 12C16.5007 12 17.2553 12.1796 18.0006 12.5389C18.7457 12.8982 19.4122 13.4816 20 14.2892C20.5878 13.4816 21.2543 12.8982 21.9994 12.5389C22.7447 12.1796 23.4993 12 24.2632 12C25.6076 12 26.7333 12.4623 27.6401 13.387C28.5467 14.3118 29 15.4598 29 16.8311C29 18.5715 28.3289 20.2039 26.9868 21.7281C25.6447 23.2523 24.1484 24.7737 22.4977 26.2925L21.1513 27.5394C20.9959 27.6978 20.8144 27.8142 20.6068 27.8886C20.399 27.9629 20.1937 28 19.991 28Z" fill="#E4E7EA" fill-opacity="0.4"/>
</g>
<g filter="url(#filter2_d_178_878)">
<path d="M19.991 28C19.7881 28 19.5843 27.9629 19.3797 27.8886C19.1751 27.8142 18.995 27.6978 18.8395 27.5394L17.4786 26.2777C15.7989 24.7157 14.2992 23.1812 12.9795 21.6742C11.6598 20.1672 11 18.5529 11 16.8311C11 15.4598 11.4533 14.3118 12.3599 13.387C13.2667 12.4623 14.3924 12 15.7368 12C16.5007 12 17.2553 12.1796 18.0006 12.5389C18.7457 12.8982 19.4122 13.4816 20 14.2892C20.5878 13.4816 21.2543 12.8982 21.9994 12.5389C22.7447 12.1796 23.4993 12 24.2632 12C25.6076 12 26.7333 12.4623 27.6401 13.387C28.5467 14.3118 29 15.4598 29 16.8311C29 18.5715 28.3289 20.2039 26.9868 21.7281C25.6447 23.2523 24.1484 24.7737 22.4977 26.2925L21.1513 27.5394C20.9959 27.6978 20.8144 27.8142 20.6068 27.8886C20.399 27.9629 20.1937 28 19.991 28ZM19.3186 15.7571C18.8061 14.9606 18.2665 14.3769 17.6998 14.0059C17.1333 13.6348 16.4789 13.4493 15.7368 13.4493C14.7895 13.4493 14 13.7714 13.3684 14.4155C12.7368 15.0597 12.4211 15.8649 12.4211 16.8311C12.4211 17.6064 12.6661 18.4172 13.1562 19.2633C13.6463 20.1093 14.2615 20.9504 15.0017 21.7865C15.7419 22.6228 16.5438 23.4397 17.4075 24.2373C18.2711 25.0351 19.0714 25.7765 19.8086 26.4615C19.8633 26.5111 19.9271 26.5359 20 26.5359C20.0729 26.5359 20.1367 26.5111 20.1914 26.4615C20.9286 25.7765 21.7289 25.0351 22.5925 24.2373C23.4562 23.4397 24.2581 22.6228 24.9983 21.7865C25.7385 20.9504 26.3537 20.1093 26.8438 19.2633C27.3339 18.4172 27.5789 17.6064 27.5789 16.8311C27.5789 15.8649 27.2632 15.0597 26.6316 14.4155C26 13.7714 25.2105 13.4493 24.2632 13.4493C23.5211 13.4493 22.8667 13.6348 22.3002 14.0059C21.7335 14.3769 21.1939 14.9606 20.6814 15.7571C20.6012 15.881 20.5004 15.9739 20.3789 16.0359C20.2575 16.0977 20.1312 16.1286 20 16.1286C19.8688 16.1286 19.7425 16.0977 19.6211 16.0359C19.4996 15.9739 19.3988 15.881 19.3186 15.7571Z" fill="white"/>
</g>
<defs>
<filter id="filter1_f_178_878" x="1" y="2" width="38" height="36" filterUnits="userSpaceOnUse" color-interpolation-filters="sRGB">
<feFlood flood-opacity="0" result="BackgroundImageFix"/>
<feBlend mode="normal" in="SourceGraphic" in2="BackgroundImageFix" result="shape"/>
<feGaussianBlur stdDeviation="5" result="effect1_foregroundBlur_178_878"/>
</filter>
<filter id="filter2_d_178_878" x="7" y="8" width="26" height="24" filterUnits="userSpaceOnUse" color-interpolation-filters="sRGB">
<feFlood flood-opacity="0" result="BackgroundImageFix"/>
<feColorMatrix in="SourceAlpha" type="matrix" values="0 0 0 0 0 0 0 0 0 0 0 0 0 0 0 0 0 0 127 0" result="hardAlpha"/>
<feOffset/>
<feGaussianBlur stdDeviation="2"/>
<feComposite in2="hardAlpha" operator="out"/>
<feColorMatrix type="matrix" values="0 0 0 0 0 0 0 0 0 0 0 0 0 0 0 0 0 0 0.2 0"/>
<feBlend mode="multiply" in2="BackgroundImageFix" result="effect1_dropShadow_178_878"/>
<feBlend mode="normal" in="SourceGraphic" in2="effect1_dropShadow_178_878" result="shape"/>
</filter>
</defs>
</svg>
